<?xml version="1.0" standalone="no"?>
<!DOCTYPE svg PUBLIC "-//W3C//DTD SVG 1.1//EN" "http://www.w3.org/Graphics/SVG/1.1/DTD/svg11.dtd" >
<svg xmlns="http://www.w3.org/2000/svg" xmlns:xlink="http://www.w3.org/1999/xlink" version="1.1">
<metadata>
Created by FontForge 20170731 at Fri Feb 17 16:31:58 2017
 By Aleksey,,,
Copyright (c) 2015 by Denis Serebryakov. All rights reserved.
</metadata>
<defs>
<font id="AppetiteMond" horiz-adv-x="947" >
  <font-face 
    font-family="AppetiteMond"
    font-weight="500"
    font-style="italic"
    font-stretch="normal"
    units-per-em="1000"
    panose-1="2 0 0 0 0 0 0 0 0 0"
    ascent="748"
    descent="-252"
    x-height="514"
    cap-height="737"
    bbox="-325.308 -372.579 1303 941.571"
    underline-thickness="50"
    underline-position="-200"
    slope="-9"
    unicode-range="U+0020-FB06"
  />
<missing-glyph horiz-adv-x="249" 
 />
    <glyph glyph-name="IJ" unicode="IJ" horiz-adv-x="849" 
d="M600 78l75 618q1 3 6 5q42 8 77 8q47 0 82 -8q4 0 3 -5l-78 -640q-13 -104 -62 -159.5t-146 -55.5q-55 0 -100 29t-42 57q3 14 16 14q5 0 27.5 -7t40.5 -7q27 0 45.5 11.5t29.5 35t16.5 46.5t9.5 58zM507 561q0 -44 -66 -556q-1 -4 -5 -5q-37 -8 -79 -8q-51 0 -80 8
q-5 0 -4 5q65 501 67 528q9 110 -49 110q-44 0 -79 -44.5t-37 -100.5q-1 -34 5.5 -62.5t6.5 -30.5q0 -13 -23 -25.5t-54 -12.5q-45 0 -74 33t-25 91q5 72 53 129t115.5 85t139.5 28q188 0 188 -172z" />
    <glyph glyph-name="ij" unicode="ij" horiz-adv-x="562" 
d="M273 664q-4 -34 -36 -58t-73 -24t-66 24t-21 58t35.5 58.5t72.5 24.5q40 0 66 -24t22 -59zM147 517q48 0 73.5 -29.5t18.5 -81.5l-50 -401q0 -3 -5 -5q-32 -8 -71 -8q-46 0 -74 8q-4 0 -3 5l41 333q4 32 -1.5 50.5t-14 25t-25.5 12.5q-7 4 -6 13q2 19 36 48.5t81 29.5z
M540 496l-69 -559q-23 -197 -191 -197q-51 0 -91 27t-37 52q1 13 15 13q5 0 24.5 -6.5t35.5 -6.5q48 0 66.5 34.5t26.5 104.5l66 537q0 1 5 6q34 7 74 7t71 -7q4 -4 4 -5zM476 582q-41 0 -66.5 24t-21.5 58t35.5 58.5t71.5 24.5q41 0 67 -24.5t22 -58.5t-36 -58t-72 -24z
" />
    <glyph glyph-name="ff" unicode="ff" horiz-adv-x="702" 
d="M602 767q52 0 93.5 -27.5t38.5 -53.5q-1 -10 -12 -10q-3 0 -26.5 6.5t-42.5 6.5q-44 0 -61.5 -32t-23.5 -83l-9 -74h103l3 -5l-7 -58l-5 -5h-102l-52 -427q0 -1 -5 -6q-34 -7 -74 -7t-71 7q-4 4 -4 5l52 428h-155q-4 -32 -20.5 -170.5t-30.5 -256.5q0 -2 -1.5 -3.5
t-3.5 -1.5l-1 -1q-32 -7 -73 -7q-40 0 -72 7q-4 4 -4 5l52 428h-50l-3 4l7 60l5 4h51l4 33q10 86 58.5 135t137.5 49q77 0 140 -49q44 99 164 99zM250 500h156q8 72 16 112q-1 0 -11 5t-16.5 7.5t-19.5 5t-27 2.5q-81 0 -95 -108z" />
    <glyph glyph-name="fi" unicode="fi" horiz-adv-x="592" 
d="M365 766q98 1 150.5 -38t45.5 -98q-5 -37 -32.5 -58.5t-72.5 -21.5q-24 0 -43.5 9.5t-15.5 23.5q5 15 6 36q2 30 -11.5 48.5t-43.5 17.5q-40 0 -63 -32.5t-30 -84.5q-5 -52 -5 -69h180q129 0 112 -129q-2 -14 -25 -207q-4 -32 1.5 -50.5t14 -25t24.5 -12.5q8 -4 8 -13
q-3 -20 -37.5 -49t-80.5 -29q-48 0 -73.5 29.5t-18.5 81.5q21 176 31 249q5 47 -14.5 67t-66.5 20h-63l-52 -425q-1 -5 -5 -6q-37 -8 -74 -8q-34 0 -71 8q-4 1 -4 5l52 426h-50q-4 0 -4 4l8 60l5 4h51l5 46q13 104 84 162t178 59z" />
    <glyph glyph-name="fl" unicode="fl" horiz-adv-x="596" 
d="M307 767q117 -1 266 -88q4 -3 4 -11l-63 -506q-4 -31 2 -50t14.5 -25.5t24.5 -12.5q8 -4 7 -12q-3 -20 -37 -49.5t-81 -29.5q-48 0 -73.5 29.5t-18.5 81.5l69 565q-37 20 -75 20q-46 0 -64 -32t-25 -88l-7 -60h74l3 -5l-8 -59l-4 -5h-73l-52 -425q0 -2 -1.5 -3.5
t-2.5 -1.5l-2 -1q-31 -7 -73 -7q-40 0 -72 7q-3 3 -3 5l52 426h-50q-4 0 -4 5l7 59l5 5h51l11 85q10 86 64.5 135t134.5 48z" />
    <glyph glyph-name="ffi" unicode="ffi" horiz-adv-x="899" 
d="M673 766q98 1 150 -38t45 -98q-5 -37 -32.5 -58.5t-72.5 -21.5q-24 0 -43.5 9.5t-15.5 23.5q6 20 6 38q2 29 -10.5 47t-42.5 17q-41 -1 -64.5 -34.5t-30.5 -85.5q-6 -58 -5 -66h180q129 0 112 -129q-4 -36 -14.5 -117t-11.5 -91q-3 -32 2.5 -50.5t14 -25t24.5 -12.5
q8 -4 7 -12q-2 -20 -36.5 -49.5t-81.5 -29.5q-48 0 -73 29t-19 82q3 18 15.5 118t16.5 131q5 48 -15 67.5t-67 19.5h-62l-52 -425q0 -1 -5 -6q-34 -7 -74 -7t-71 7q-4 4 -4 5l52 426h-153q-4 -34 -20.5 -170.5t-31.5 -254.5q0 -4 -4 -5v-1h-1q-32 -7 -74 -7q-39 0 -71 7
q-4 4 -4 5l52 426h-51l-3 5l7 59l5 5h52l3 34q11 85 60 134.5t138 49.5q90 0 153 -54q33 49 91.5 75.5t129.5 27.5zM250 499h154q9 73 20 102q-40 25 -77 24q-46 -1 -66.5 -26.5t-27.5 -74.5l-1 -2q0 -3 -0.5 -9t-1.5 -14z" />
    <glyph glyph-name=".notdef" horiz-adv-x="249" 
 />
    <glyph glyph-name=".null" horiz-adv-x="0" 
 />
    <glyph glyph-name="nonmarkingreturn" horiz-adv-x="333" 
 />
    <glyph glyph-name="space" unicode=" " horiz-adv-x="229" 
 />
    <glyph glyph-name="exclam" unicode="!" horiz-adv-x="292" 
d="M223 78q-5 -39 -36 -65.5t-75 -26.5q-42 0 -67 26.5t-20 65.5q5 38 36.5 65t72.5 27q42 0 68 -26.5t21 -65.5zM193 760q49 0 73 -38t16 -98q-17 -148 -60 -264.5t-82 -116.5q-32 0 -38.5 59.5t-2.5 195.5q1 45 2 68q1 46 -6.5 63t-26.5 26q-7 4 -6 13q2 25 37.5 58.5
t93.5 33.5z" />
    <glyph glyph-name="quotedbl" unicode="&#x22;" horiz-adv-x="373" 
d="M65 560q1 21 -6.5 35.5t-17 20.5t-17 12.5t-6.5 13.5q4 28 29 51.5t60 23.5q41 0 58.5 -28.5t12.5 -66.5q-7 -53 -42.5 -97.5t-67 -64t-43.5 -19.5t-10 12q0 3 24 38.5t26 68.5zM243 560q1 21 -6 35.5t-16.5 20.5t-17 12.5t-6.5 13.5q3 27 28.5 51t60.5 24
q40 0 57.5 -28.5t12.5 -66.5q-6 -53 -41.5 -97.5t-67 -64t-43.5 -19.5t-10 12q0 3 23.5 38.5t25.5 68.5z" />
    <glyph glyph-name="numbersign" unicode="#" horiz-adv-x="533" 
d="M500 316l-9 -66q0 -3 -4 -3h-144l-47 -155l-5 -4l-62 12l-3 7q17 58 42 140h-74l-46 -155l-7 -5l-61 13l-2 7q17 59 42 140h-101l-5 4l8 64q2 5 7 5h112q16 52 24 79h-127l-5 4l8 64q1 5 6 5h140q9 28 25 82t24 77q0 2 4 2l64 -12l2 -4l-44 -145h74q8 28 24.5 82t23.5 77
q3 3 5 3l64 -12l2 -5l-45 -145h104q4 0 4 -4l-8 -66q0 -3 -4 -3h-118l-24 -79h132q4 0 4 -4zM290 320q16 52 24 79h-74l-24 -79h74z" />
    <glyph glyph-name="dollar" unicode="$" horiz-adv-x="568" 
d="M527 183q-10 -80 -84 -134t-174 -64l-10 -80l-4 -4h-67q-4 0 -4 4q4 29 10 81q-55 5 -100 23.5t-74.5 58t-22.5 92.5q5 38 30 62t70 24q20 0 38 -9.5t17 -20.5q0 -1 -3.5 -15.5t-4.5 -26.5q-5 -36 15.5 -63.5t55.5 -36.5q17 145 27 221q-100 51 -135 83q-67 61 -57 146
q10 81 78 132t162 59q3 21 7 53l4 32q0 5 5 5h66q4 -1 4 -5l-11 -87q52 -6 93.5 -23.5t68.5 -55t20 -88.5q-5 -38 -30 -62.5t-68 -24.5q-20 0 -38 10t-17 21q0 2 4.5 16t6.5 26q4 37 -12.5 62t-47.5 32l-26 -210q99 -52 123 -69q96 -67 85 -164zM199 545q-8 -64 70 -104
q23 185 23 187q-36 -3 -62.5 -26.5t-30.5 -56.5zM268 70q38 6 68.5 31t35.5 60q8 64 -79 107z" />
    <glyph glyph-name="percent" unicode="%" horiz-adv-x="702" 
d="M664 158q-9 -78 -62.5 -126.5t-128.5 -48.5q-74 0 -116 46.5t-33 127.5q10 76 65 124.5t127 48.5q74 0 116 -47.5t32 -124.5zM430 158q-7 -54 7.5 -85t43.5 -31q66 0 79 113q6 51 -6.5 83.5t-44.5 32.5q-31 0 -51.5 -30t-27.5 -83zM377 544q-10 -78 -63 -126.5
t-129 -48.5q-74 0 -116 46.5t-32 127.5q9 76 64 124.5t127 48.5q74 0 116.5 -47t32.5 -125zM143 544q-7 -54 7.5 -85t43.5 -31q64 0 79 113q6 51 -7 83.5t-45 32.5q-31 0 -51.5 -30t-26.5 -83zM73 -1l-39 36q-3 2 0 5q89 97 598 667l8 2l39 -34q2 -4 -1 -8
q-248 -263 -600 -667z" />
    <glyph glyph-name="ampersand" unicode="&#x26;" horiz-adv-x="687" 
d="M635 499q51 -1 77.5 -33.5t23.5 -64.5q-2 -9 -9 -12q-33 -4 -61 -17q-26 -11 -55 -39.5t-47.5 -53.5t-50.5 -70.5t-44 -61.5q67 -76 167 -106q3 -1 9 -4q18 -8 23.5 -11.5t4.5 -8.5q-1 -12 -23 -22t-45 -10q-45 0 -104.5 23.5t-110.5 62.5q-109 -87 -205 -87
q-96 3 -145 55t-44 128q4 77 56.5 125.5t119.5 63.5q-32 67 -32 138q0 101 67 163t182 61q81 -1 130 -41t44 -92q-2 -39 -27.5 -71t-70.5 -32q-26 0 -43 10t-17 20q1 3 5 13t7.5 23t3.5 26q1 62 -45 62q-37 0 -55.5 -39t-18.5 -95q0 -74 25 -139t49 -91h4q27 42 38 58t36 51
t41.5 50t41 35t48.5 27t50 6zM198 114q48 -1 97 48q-59 68 -95 132q-29 -4 -57 -29t-29 -60q-2 -42 23 -66t61 -25z" />
    <glyph glyph-name="quotesingle" unicode="'" horiz-adv-x="203" 
d="M69 560q-1 26 -14.5 42t-26 24t-12.5 16q1 27 26 51t61 24q41 0 63 -27t21 -65q-1 -41 -21.5 -78t-46.5 -58.5t-48 -34.5t-30 -13q-11 0 -11 12q0 3 20.5 38.5t18.5 68.5z" />
    <glyph glyph-name="parenleft" unicode="(" horiz-adv-x="247" 
d="M179 -223q-20 -11 -66 -37q-3 -1 -6 2q-60 143 -76 243q-29 170 11 348q32 165 112 303q18 33 37.5 63.5t29.5 43.5t10 14q1 3 3 4t4 1l1 -1q10 -6 26.5 -17.5t26.5 -17.5l1 -7q-158 -212 -189 -469.5t76 -466.5z" />
    <glyph glyph-name="parenright" unicode=")" horiz-adv-x="247" 
d="M-47 -223l-1 6q158 210 190 466.5t-73 469.5l1 7q8 4 29 16t34 19q5 2 8 -4q-1 -1 5.5 -14t19 -43.5t22.5 -63.5q45 -142 38 -303q-6 -181 -75 -348q-8 -19 -17 -39.5t-17 -36.5t-19.5 -35.5t-18 -31t-18.5 -30.5t-16.5 -25.5t-16 -24.5t-13.5 -20q-3 -3 -6 -2
q-28 20 -56 37z" />
    <glyph glyph-name="asterisk" unicode="*" horiz-adv-x="360" 
d="M198 717q13 0 25 -12.5t9 -40.5q-3 -29 -21 -77q1 0 3 -2q43 25 72 34q26 8 41.5 -0.5t18.5 -22.5q4 -11 -6 -28t-39 -26q-33 -10 -78 -13l-1 -2q29 -25 47 -54q14 -27 9 -42.5t-18 -24.5q-5 -8 -25.5 -5.5t-35.5 24.5q-14 21 -27 68h-3q-21 -39 -45 -68
q-15 -16 -29.5 -21.5t-23 -4t-14.5 6.5q-10 9 -11 24.5t19 42.5q21 25 58 53q0 2 -1 4q-50 4 -70 12q-26 7 -33.5 25.5t0.5 28.5q5 13 21.5 22t43.5 1q22 -6 64 -32l5 2q-6 46 -3 75q4 28 18.5 40.5t29.5 12.5z" />
    <glyph glyph-name="plus" unicode="+" horiz-adv-x="515" 
d="M253 598h68l2 -4l-24 -198h197q4 0 4 -4l-9 -66q0 -3 -4 -3h-197l-24 -197l-5 -5h-66l-4 6l24 196h-196l-5 4l9 64q1 5 6 5h195l24 198q2 4 5 4z" />
    <glyph glyph-name="comma" unicode="," horiz-adv-x="232" 
d="M130 170q42 0 66 -27.5t20 -69.5q-9 -73 -78 -128.5t-109 -54.5q-10 1 -10 12q1 5 14 15.5t32 30.5t30 44q-35 -2 -57 23.5t-17 62.5q5 38 36.5 65t72.5 27z" />
    <glyph glyph-name="hyphen" unicode="-" horiz-adv-x="368" 
d="M353 342l-9 -66q0 -3 -4 -3h-321l-5 4l9 64q1 5 6 5h320q4 0 4 -4z" />
    <glyph glyph-name="period" unicode="." horiz-adv-x="229" 
d="M213 78q-4 -39 -35.5 -65.5t-75.5 -26.5q-42 0 -66.5 26.5t-20.5 65.5q5 38 37 65t73 27q43 0 68 -27t20 -65z" />
    <glyph glyph-name="slash" unicode="/" horiz-adv-x="423" 
d="M13 -223l-59 23q-4 0 -2 4q427 878 452 928q1 2 2.5 3t3.5 1h1l58 -22l2 -7q-366 -747 -453 -928q-1 -2 -2.5 -2.5t-2.5 0.5z" />
    <glyph glyph-name="zero" unicode="0" horiz-adv-x="630" 
d="M609 350q-20 -162 -106 -264.5t-226 -102.5q-129 0 -195.5 100.5t-46.5 267.5q20 165 110.5 266t223.5 101q139 0 200 -100t40 -268zM200 354q-7 -72 -3 -130.5t28.5 -96.5t65.5 -38q59 0 98.5 70.5t53.5 188.5q15 120 -8 191t-82 71q-53 0 -96 -71t-57 -185z" />
    <glyph glyph-name="one" unicode="1" horiz-adv-x="306" 
d="M237 709h57q7 0 6 -5l-86 -699q0 -3 -5 -5q-37 -8 -75 -8q-46 0 -78 8q-4 0 -3 5q2 19 54 443q5 37 0.5 61.5t-13.5 37t-20.5 19t-22 9t-17 6.5t-5.5 11q1 12 18 17.5t67.5 28.5t110.5 65q6 6 12 6z" />
    <glyph glyph-name="two" unicode="2" horiz-adv-x="573" 
d="M522 193q12 0 21 -26t6 -52q-5 -54 -42 -93t-110 -39q-55 0 -149.5 29t-126.5 29q-24 0 -43 -13.5t-32.5 -27.5t-23.5 -14q-11 0 -18 21.5t-4 43.5q5 44 44 90t92 87t106.5 83.5t95 95t50.5 104.5q8 47 -9 75t-58 28q-42 0 -70 -35t-31 -86v-23q1 -11 -21.5 -23
t-47.5 -12q-40 0 -62.5 30.5t-17.5 70.5q10 80 86 130.5t180 50.5q121 0 180 -57.5t44 -151.5q-5 -32 -21.5 -64t-37 -57t-51 -50.5t-55 -43t-58.5 -37t-52.5 -28.5t-46 -22.5t-29.5 -14.5v-3q12 0 88 -15t103 -15q40 0 65.5 9t37.5 17.5t18 8.5z" />
    <glyph glyph-name="three" unicode="3" horiz-adv-x="572" 
d="M386 401q78 -11 119 -68.5t35 -124.5q-12 -110 -101 -168t-196 -58q-118 0 -177.5 49t-50.5 126q5 40 31.5 69.5t75.5 29.5q26 0 43.5 -13.5t14.5 -23.5q-8 -25 -9 -47q-2 -39 19 -64.5t64 -25.5q45 0 76 37.5t37 90.5q4 32 -2 57.5t-18 38.5t-24.5 21.5t-22.5 10.5l-9 2
q-40 -17 -73 -10t-34 34q-2 28 28.5 43.5t78.5 6.5q49 32 91 105l-1 5q-18 -2 -73.5 6t-72.5 8q-43 0 -72.5 -7t-44.5 -14.5t-22 -7.5q-13 -1 -21.5 23.5t-5.5 51.5q6 51 44.5 88.5t108.5 37.5q46 0 124 -19t99 -19q36 0 60 8.5t35.5 17.5t17.5 9q10 0 16 -21t2 -50
q-4 -35 -37 -76.5t-90.5 -95.5t-62.5 -59v-4z" />
    <glyph glyph-name="four" unicode="4" horiz-adv-x="581" 
d="M568 260q5 0 5 -5q-11 -74 -12 -94q-1 -5 -5 -5h-77l-19 -151q0 -3 -5 -5q-37 -8 -77 -8q-45 0 -76 8q-5 0 -4 5q8 62 18 151h-184q-62 0 -96.5 30t-27.5 84q4 39 41 90t80.5 91t85.5 85.5t53 72.5q5 15 -2 29.5t-7 16.5q3 21 50 41.5t93 20.5q65 0 101.5 -32t27.5 -105
l-40 -320h77zM338 260l41 328h-4q-25 -37 -77.5 -95t-87 -102t-38.5 -71q-4 -30 12 -45t54 -15h100z" />
    <glyph glyph-name="five" unicode="5" horiz-adv-x="572" 
d="M315 436q61 0 113 -21.5t85.5 -71.5t24.5 -120q-13 -107 -96 -173.5t-201 -66.5t-175.5 48.5t-48.5 124.5q4 38 30.5 66.5t75.5 28.5q24 0 42.5 -13.5t15.5 -23.5q0 -2 -3.5 -14t-4.5 -20q-5 -43 16.5 -69.5t63.5 -26.5q46 0 77.5 41.5t35.5 91.5q5 72 -30.5 106.5
t-93.5 34.5q-30 -1 -69 -14q-21 -26 -45 -35.5t-40 -5t-21 17.5q-8 18 5 40t32 30q6 94 4.5 140.5t-4 73t-2.5 29.5q3 23 44.5 49.5t109.5 26.5q25 0 84 -11t92 -11q36 0 60 9t35.5 18t17.5 9q11 0 20 -19.5t5 -50.5q-6 -48 -44 -86.5t-115 -38.5q-86 0 -193 64
q-1 -42 -20 -174l2 -3q60 20 115 20z" />
    <glyph glyph-name="six" unicode="6" horiz-adv-x="592" 
d="M377 420q86 8 139 -39.5t40 -155.5q-11 -94 -90 -168t-195 -74q-130 0 -192 93.5t-44 248.5q23 185 118.5 288t229.5 103q78 0 130.5 -37.5t46.5 -98.5q-3 -36 -29.5 -63t-71.5 -27q-21 0 -38 9t-16 19q4 18 4 32q0 60 -55 60q-51 0 -92.5 -70.5t-56.5 -188.5
q-15 -122 6.5 -192.5t77.5 -70.5q42 0 74.5 36.5t39.5 92.5q6 54 -15 88t-64 34q-16 0 -36 -6t-22 -6q-10 0 -8 9q0 22 34 50.5t85 33.5z" />
    <glyph glyph-name="seven" unicode="7" horiz-adv-x="513" 
d="M544 637q-4 -29 -35 -69t-72.5 -82.5t-83 -88t-72 -101t-33.5 -107.5q-6 -69 38 -89l7.5 -2.5t7 -2t4.5 -2.5t2 -4q-3 -32 -44 -69t-95 -37q-55 0 -85.5 41.5t-23.5 101.5q4 32 15.5 63.5t33 64.5t38 57t49 58t48 49t52.5 50t44 42l-1 2q-14 2 -67.5 13.5t-79.5 11.5
q-44 0 -75 -7.5t-47.5 -15.5t-23.5 -8q-8 -1 -15 10.5t-10.5 29.5t-1.5 35q7 51 45.5 90t108.5 39q51 0 122.5 -20.5t102.5 -20.5q35 0 61 9.5t40 19t21 9.5q10 0 19 -20.5t6 -49.5z" />
    <glyph glyph-name="eight" unicode="8" horiz-adv-x="579" 
d="M563 543q-7 -58 -47.5 -93t-100.5 -62v-3q151 -69 136 -191q-12 -95 -96 -153t-202 -58q-108 0 -179 52t-60 142q14 112 171 174v3q-121 57 -108 166q11 87 89 142t180 55q103 0 164.5 -50.5t52.5 -123.5zM262 91q45 0 79.5 28.5t39.5 67.5q2 20 -5 37t-15.5 28t-30 24
t-32.5 18.5t-38 17.5q-89 -48 -98 -126q-6 -44 25 -69.5t75 -25.5zM341 611q-33 0 -63.5 -21.5t-34.5 -57.5t22.5 -61.5t72.5 -47.5q77 43 85 109q4 37 -21.5 58t-60.5 21z" />
    <glyph glyph-name="nine" unicode="9" horiz-adv-x="573" 
d="M324 717q90 0 147 -52t75 -131t6 -175q-20 -167 -111 -271.5t-229 -104.5q-87 0 -137.5 39.5t-43.5 103.5q4 34 31 58.5t71 24.5q23 0 40 -9t14 -19q-8 -34 3 -63t50 -29q54 0 93.5 66.5t56.5 199.5q31 257 -82 257q-46 0 -76 -41t-36 -91q-7 -53 10.5 -89t63.5 -37
q12 0 32 5.5t23 5.5q12 0 9 -12q-3 -24 -42 -51.5t-90 -28.5q-71 -1 -121.5 51t-38.5 151q13 111 90.5 176.5t191.5 65.5z" />
    <glyph glyph-name="colon" unicode=":" horiz-adv-x="271" 
d="M212 78q-5 -39 -36 -65.5t-75 -26.5q-42 0 -66.5 26.5t-19.5 65.5q5 38 36.5 65t72.5 27q43 0 68 -27t20 -65zM255 422q-5 -39 -36.5 -65t-75.5 -26q-42 0 -66.5 26.5t-19.5 64.5t36.5 65t72.5 27q42 0 68 -26.5t21 -65.5z" />
    <glyph glyph-name="semicolon" unicode=";" horiz-adv-x="278" 
d="M216 73q-4 -38 -28 -74t-54.5 -59t-59.5 -36.5t-45 -13.5q-12 1 -10 12q1 5 14.5 15.5t32 30.5t29.5 44q-36 -2 -57.5 23.5t-16.5 62.5q5 38 36 65t72 27q43 0 67.5 -28t19.5 -69zM262 422q-5 -39 -36 -65t-75 -26q-42 0 -67.5 26t-20.5 65q5 38 37 65t73 27
q43 0 68.5 -27t20.5 -65z" />
    <glyph glyph-name="less" unicode="&#x3c;" horiz-adv-x="484" 
d="M413 142l2 -5l-46 -55q-4 -3 -7 -1l-345 271q-3 3 -3 6l1 2q1 3 3 4q243 160 413 272q4 2 5 -1l33 -54q0 -3 -3 -5l-330 -216l-1 -3z" />
    <glyph glyph-name="equal" unicode="=" horiz-adv-x="533" 
d="M518 468l-8 -66q0 -3 -4 -3h-468l-5 4l8 64q1 5 6 5h467q4 0 4 -4zM500 316l-9 -66q0 -3 -4 -3h-468l-5 4l8 64q2 5 7 5h467q4 0 4 -4z" />
    <glyph glyph-name="greater" unicode="&#x3e;" horiz-adv-x="484" 
d="M18 142l330 215l1 3l-278 216l-1 5l44 54q4 3 7 1l345 -272q2 -1 2.5 -3t-0.5 -3q0 -3 -3 -6q-243 -159 -413 -271q-4 -2 -5 1l-32 55q-1 2 3 5z" />
    <glyph glyph-name="question" unicode="?" horiz-adv-x="448" 
d="M274 757q94 0 153.5 -37t56.5 -106q-2 -45 -26 -79t-58.5 -56.5t-70 -44t-65 -53t-37.5 -71.5q-2 -10 -4.5 -24.5t-3.5 -20.5t-4 -13t-7.5 -9.5t-12.5 -2.5q-21 0 -39.5 33t-17.5 76q1 41 25 76.5t52.5 57t57.5 51.5t38 59q10 32 -7 54.5t-53 22.5q-75 1 -86 -72
q-1 -7 -0.5 -23.5t0.5 -19.5q-2 -9 -24 -21.5t-42 -12.5q-36 0 -58 25t-17 61q8 66 83 108t167 42zM279 75q-5 -39 -36 -65t-75 -26q-42 0 -67 26t-20 65t36.5 65.5t72.5 26.5q43 0 68.5 -26.5t20.5 -65.5z" />
    <glyph glyph-name="at" unicode="@" horiz-adv-x="800" 
d="M448 636q171 0 261 -102.5t72 -251.5q-13 -106 -79 -170.5t-143 -64.5q-47 0 -76 22.5t-34 60.5h-2q-22 -37 -57.5 -59t-76.5 -22q-71 0 -106.5 56.5t-24.5 146.5q10 84 62.5 147t124.5 63q39 0 67.5 -19t41.5 -51h2l13 55q0 3 4 4q23 5 54 5q37 0 56 -5q4 -1 4 -4
q-13 -106 -32 -251q-3 -53 36 -53q36 0 59 40t30 95q6 50 -4 99t-38 94t-85.5 73t-137.5 28q-141 0 -235 -96t-110 -224q-17 -141 59.5 -227t209.5 -86q57 0 107 11t79 22.5t34 11.5q9 0 8 -8q-1 -6 -12 -17.5t-33 -26t-50.5 -27t-69.5 -21.5t-85 -9q-160 0 -252 103.5
t-71 276.5q21 165 144.5 273t285.5 108zM369 133q35 0 63 36t34 86q6 52 -11.5 89t-54.5 37q-35 0 -60.5 -33.5t-32.5 -88.5q-8 -59 9.5 -92.5t52.5 -33.5z" />
    <glyph glyph-name="A" unicode="A" horiz-adv-x="879" 
d="M763 576q71 -165 62 -570q0 -6 -6 -6q-43 -8 -86 -8t-93 8q-5 0 -5 5q9 151 9 179h-217q-111 -201 -256 -201q-69 0 -109.5 42.5t-40.5 102.5q0 38 20 76t41 38q12 0 18 -13q1 -31 21 -55t62 -24q49 0 101 51.5t91 125t66 147.5t34 126q2 18 -18.5 23t-20.5 10
q-2 25 43 54.5t99 29.5q124 0 185 -141zM479 288h166q2 236 -81 289l-3 -1q-34 -170 -82 -288z" />
    <glyph glyph-name="B" unicode="B" horiz-adv-x="874" 
d="M490 727q44 0 88.5 -4.5t95.5 -17.5t89 -33.5t62 -55t21 -79.5q-3 -58 -41 -97t-68 -50l-1 -5q61 -16 89.5 -65.5t21.5 -108.5q-13 -102 -99.5 -167.5t-223.5 -59.5q-86 3 -146.5 41.5t-87.5 94.5t-27 124q0 117 69.5 206t157.5 94q12 1 16 -6.5t-2 -15.5
q-31 -39 -53.5 -115.5t-22.5 -149.5q0 -72 28.5 -118t87.5 -46q54 0 89.5 35.5t42.5 89.5q5 40 -6.5 70.5t-25.5 41.5l-13 11q-43 -16 -65.5 -10.5t-29.5 16t-5 25.5q3 21 25.5 35t66.5 5l3 2q2 2 5 4.5t7.5 7t8.5 10t8.5 13t8 15.5t6 19t3.5 22q5 59 -48 91t-140 32
q-103 1 -190 -48.5t-100 -114.5q-3 -20 -3 -30.5t2.5 -22.5t2.5 -15q0 -13 -25.5 -26.5t-57.5 -13.5q-46 0 -76.5 33t-26.5 82q7 75 79.5 134.5t178.5 89.5t221 31z" />
    <glyph glyph-name="C" unicode="C" horiz-adv-x="642" 
d="M381 32q45 0 85 15t62 33t41 34t26 17q8 1 12.5 -4.5t3.5 -13.5q-3 -26 -25 -64t-58 -76.5t-92 -65.5t-117 -27q-158 0 -234 115t-49 301q24 167 135.5 292t261.5 128q103 2 167.5 -54.5t54.5 -148.5q-5 -47 -33 -83.5t-77 -36.5q-29 0 -49.5 12.5t-20.5 26.5q0 2 5 25.5
t6 43.5q2 51 -18.5 84t-66.5 30q-65 -3 -120 -85t-71 -192q-12 -86 -1 -152t54.5 -110t117.5 -44z" />
    <glyph glyph-name="D" unicode="D" horiz-adv-x="900" 
d="M711 384q-3 245 -236 245q-102 0 -185.5 -49t-96.5 -115q-3 -20 -3 -30.5t2 -23t2 -14.5q0 -14 -25 -27t-56 -13q-47 0 -76.5 33t-25.5 82q7 75 77 134.5t173.5 90t218.5 30.5q190 0 297.5 -86t107.5 -244q0 -93 -32 -173t-85.5 -133t-123 -82t-143.5 -26q-112 5 -177 79
t-65 184q0 114 68.5 200.5t160.5 97.5q13 1 17 -6.5t-3 -15.5q-30 -41 -55 -120t-25 -153q0 -66 25.5 -110.5t79.5 -44.5q56 0 99 45t64 110.5t21 134.5z" />
    <glyph glyph-name="E" unicode="E" horiz-adv-x="834" 
d="M134 349q-51 0 -87.5 40.5t-36.5 103.5q0 103 102 164t267 55q35 -1 140 -8.5t146 -7.5q51 0 84 8.5t46.5 17t16.5 8.5q14 0 25 -22.5t10 -48.5q0 -60 -41 -93t-113 -33q-25 0 -52.5 3.5t-47 7.5t-53.5 11.5t-52 11.5l-21 -158q86 -3 130.5 -0.5t78.5 7t35 4.5
q13 0 10 -23q-5 -40 -40 -71.5t-97 -31.5q-53 0 -130 11q-4 -29 -5 -46q-4 -73 34 -109.5t109 -36.5q33 0 68 9.5t72 24.5t53 19q8 2 12.5 -4t0.5 -15q-12 -32 -46.5 -67.5t-98.5 -66t-135 -30.5q-121 0 -187.5 64.5t-50.5 197.5q8 57 44 352q-66 1 -105 -30.5t-39 -84.5
q0 -28 8 -48.5t16 -31.5t8 -15q0 -13 -23.5 -25.5t-54.5 -12.5z" />
    <glyph glyph-name="F" unicode="F" horiz-adv-x="783" 
d="M792 730q13 0 24 -22t11 -49q-1 -60 -42 -93t-113 -33q-24 0 -49.5 3t-42 6.5t-47 11t-45.5 10.5l-21 -178q80 -2 134 1t78 7t26 4q12 0 9 -23q-4 -40 -39 -72t-98 -32q-62 0 -122 10l-35 -277q0 -5 -5 -5q-35 -8 -80 -8q-43 0 -78 8q-5 0 -4 5q41 315 75 592
q-67 3 -108 -28.5t-41 -85.5q0 -28 8.5 -48.5t16.5 -31.5t8 -15q0 -13 -23.5 -25.5t-54.5 -12.5q-51 0 -87.5 40.5t-36.5 103.5q0 103 102 164t267 55q36 -1 133.5 -8.5t138.5 -7.5q51 0 82 8.5t43 17t16 8.5z" />
    <glyph glyph-name="G" unicode="G" horiz-adv-x="675" 
d="M646 311q5 -1 5 -7q0 -3 -6.5 -56t-15.5 -131.5t-15 -128.5q-12 -97 -55.5 -148t-131.5 -51q-26 0 -48 9t-21 21q0 11 24 20.5t40 31.5q29 38 43 155l-2 1q-28 -17 -70 -30t-74 -13q-153 0 -229 99.5t-56 263.5q12 96 60 178t135 137t197 56q111 1 181.5 -51t60.5 -134
q-13 -97 -103 -97q-28 0 -51 12.5t-18 24.5q7 24 7 47.5t-8 46t-31.5 36t-60.5 13.5q-66 0 -122.5 -71.5t-70.5 -180.5q-13 -110 30 -181t138 -71q22 0 43.5 6t37 13.5t18.5 8.5q1 10 8.5 71.5t10.5 90.5q2 7 7 7q48 8 75 8q28 0 68 -6z" />
    <glyph glyph-name="H" unicode="H" horiz-adv-x="948" 
d="M507 564q0 -14 -15 -136h250l33 268q1 4 5 5q34 8 78 8q52 0 81 -8q4 0 3 -5l-84 -691q0 -2 -1.5 -3.5t-2.5 -1.5l-2 -1q-31 -7 -80 -7q-39 0 -79 7q-3 4 -3 5q32 256 38 307h-249l-38 -306q-1 -4 -5 -5q-37 -8 -79 -8q-51 0 -80 8q-5 0 -4 5q65 501 67 528
q9 110 -49 110q-44 0 -79 -44.5t-37 -100.5q-1 -34 5.5 -62.5t6.5 -30.5q0 -13 -23 -25.5t-54 -12.5q-45 0 -74 33t-25 91q5 72 53 129t115.5 85t139.5 28q92 0 142 -40t46 -129z" />
    <glyph glyph-name="I" unicode="I" horiz-adv-x="512" 
d="M507 561q0 -44 -66 -556q-1 -4 -5 -5q-37 -8 -79 -8q-51 0 -80 8q-5 0 -4 5q65 501 67 528q9 110 -49 110q-44 0 -79 -44.5t-37 -100.5q-1 -34 5.5 -62.5t6.5 -30.5q0 -13 -23 -25.5t-54 -12.5q-45 0 -74 33t-25 91q5 72 53 129t115.5 85t139.5 28q188 0 188 -172z" />
    <glyph glyph-name="J" unicode="J" horiz-adv-x="512" 
d="M319 733q188 0 188 -172q0 -24 -58 -505q-26 -215 -212 -215q-55 0 -98 29t-40 57q3 14 16 14q5 0 27.5 -7t40.5 -7q26 0 45 11.5t29.5 34.5t16.5 46.5t10 58.5q27 205 56 452q13 113 -49 113q-44 0 -79 -44.5t-37 -100.5q-1 -34 5.5 -62.5t6.5 -30.5q0 -13 -23 -25.5
t-54 -12.5q-45 0 -74 33t-25 91q5 72 53 129t115.5 85t139.5 28z" />
    <glyph glyph-name="K" unicode="K" horiz-adv-x="908" 
d="M844 708q45 0 73 -10q6 -2 4 -4q-47 -69 -128 -159.5t-134 -139.5q0 -1 -1 -3q45 -126 98 -193.5t124 -89.5q10 -3 8 -14q-3 -37 -45 -74.5t-96 -37.5q-50 0 -93 36t-69 87t-44.5 106t-25 94.5t-5.5 51.5q2 13 12 22q157 163 239 311q3 5 9 7q44 10 74 10zM507 561
q0 -44 -66 -556q-1 -4 -5 -5q-37 -8 -79 -8q-51 0 -80 8q-5 0 -4 5q65 501 67 528q9 110 -49 110q-44 0 -79 -44.5t-37 -100.5q-1 -34 5.5 -62.5t6.5 -30.5q0 -13 -23 -25.5t-54 -12.5q-45 0 -74 33t-25 91q5 72 53 129t115.5 85t139.5 28q188 0 188 -172z" />
    <glyph glyph-name="L" unicode="L" horiz-adv-x="575" 
d="M310 598l-55 -427q21 -3 65.5 -13t75 -14t52.5 -1q28 5 52.5 20t28.5 15q12 0 20 -20.5t5 -46.5q-5 -51 -43.5 -89t-110.5 -38q-48 0 -135.5 27.5t-116.5 27.5q-31 0 -49 -11.5t-26.5 -23t-17.5 -11.5q-11 -2 -21 17t-10 47q0 77 68 117l41 349q0 18 1.5 29t-3 21.5
t-6.5 16t-9 11t-10.5 7.5t-11 6t-10.5 6q-9 4 -8 13q2 20 40.5 52t90.5 32q55 0 82.5 -30t20.5 -89z" />
    <glyph glyph-name="M" unicode="M" horiz-adv-x="1118" 
d="M1047 694q35 -290 7 -689q-1 -6 -8 -6q-18 -9 -78 -9q-68 0 -86 9q-5 0 -4 5q19 276 2 490h-4q-110 -261 -216 -488q0 -4 -6 -7q-23 -7 -68 -7q-44 0 -65 7q-4 1 -4 5q8 383 -34 535h-4q-11 -72 -27 -141t-43.5 -147t-61 -135t-83 -95t-105.5 -38q-73 0 -111.5 41
t-37.5 103q2 38 23.5 75.5t42.5 36.5q11 -1 15 -29q9 -59 70 -59q42 0 84 49.5t72 120t50 141t25 118.5q1 14 -3.5 23.5t-11.5 13t-13 8.5t-7 10q1 22 44 51.5t98 29.5q72 0 110.5 -42.5t57.5 -125.5q19 -86 22 -251h7q88 187 171 397q1 2 4 4l3 1l5 1q5 1 13.5 2t18.5 2
t22 2t23 1q13 0 27 -1t24 -2t17.5 -2t12.5 -2l5 -1l2 -1q3 -3 3 -4z" />
    <glyph glyph-name="N" unicode="N" horiz-adv-x="982" 
d="M974 699q3 0 3 -5l-84 -689q0 -2 -1.5 -3.5t-3.5 -1.5l-1 -1q-27 -7 -59 -7q-28 -1 -56 7q-2 0 -3 2l-16 31q-16 31 -38 73.5t-54 98.5t-63 107t-66.5 99t-63.5 75h-2q-11 -88 -22.5 -190.5t-21.5 -186.5t-12 -103q0 -2 -1.5 -3.5t-2.5 -1.5l-2 -1q-27 -7 -60 -7
q-34 0 -59 7q-4 4 -4 5l74 608q-19 28 -62 28q-52 0 -85 -45.5t-33 -104.5q0 -36 13.5 -63.5t13.5 -29.5q-1 -14 -24 -26.5t-54 -12.5q-49 0 -83 37.5t-30 100.5q7 106 105.5 174t217.5 66q44 -1 85.5 -14.5t74.5 -33t67 -51.5t58.5 -61t52.5 -71t45.5 -71t42.5 -71t38 -63
l2 1l49 393q0 5 5 5q32 8 60 8q32 0 60 -8z" />
    <glyph glyph-name="O" unicode="O" horiz-adv-x="709" 
d="M428 718q106 1 164.5 -43.5t58.5 -106.5q0 -34 -15 -63l1 -4q57 -28 57 -126q0 -99 -43 -187.5t-128 -146.5t-193 -58q-148 0 -228.5 97t-68.5 245q8 107 57 195t137.5 142.5t200.5 55.5zM346 94q92 0 148 91t46 212l-1 1q-41 -24 -85 -26q-54 -2 -57 22q-2 9 12.5 20
t33.5 22.5t35.5 37.5t17.5 60q2 33 -24 53.5t-69 17.5q-85 -7 -136.5 -89.5t-58.5 -185.5q-8 -107 29.5 -171.5t108.5 -64.5z" />
    <glyph glyph-name="P" unicode="P" horiz-adv-x="823" 
d="M482 726q77 0 140.5 -11.5t115.5 -36.5t81 -70t29 -107q0 -112 -85.5 -193t-189.5 -79q-25 0 -41.5 8t-14.5 17q1 10 21 18q51 18 95.5 74.5t44.5 132.5q0 74 -51 112t-125 34l-75 -620q-1 -6 -6 -6q-34 -8 -80 -8q-43 0 -78 8q-5 0 -3 5l74 603l-2 1
q-62 -15 -100.5 -64.5t-39.5 -103.5q-1 -13 2 -27t3 -16q0 -13 -25.5 -26.5t-57.5 -13.5q-47 0 -77 32.5t-26 82.5q6 75 76.5 134t175 89.5t219.5 30.5z" />
    <glyph glyph-name="Q" unicode="Q" horiz-adv-x="709" 
d="M597 -85q-6 -50 -45 -88t-113 -38q-45 0 -157.5 31t-135.5 31q-30 0 -55 -11.5t-26 -11.5q-15 0 -10 33q4 37 44.5 69.5t116.5 32.5q46 0 125.5 -17.5t123.5 -17.5q23 0 42.5 7.5t29.5 17t19 17t14 7.5q12 0 21 -18.5t6 -43.5zM330 -10q-139 0 -219 83.5t-80 217.5
q0 84 28 161.5t78 136.5t126 94.5t165 36.5q106 1 164.5 -43.5t58.5 -106.5q0 -34 -15 -63l1 -4q57 -28 57 -126q0 -99 -43 -186.5t-128 -144t-193 -56.5zM346 101q91 0 143.5 86t50.5 212l-1 1q-41 -24 -85 -26q-54 -2 -57 22q-2 9 12.5 20t33.5 22.5t35.5 37.5t17.5 60
q2 31 -21.5 51.5t-62.5 19.5q-67 -1 -116 -54t-70 -121.5t-21 -137.5q0 -91 38 -142t103 -51z" />
    <glyph glyph-name="R" unicode="R" horiz-adv-x="887" 
d="M482 726q55 0 105.5 -5.5t101 -21.5t86.5 -40t57 -63.5t19 -89.5q-2 -62 -50 -115.5t-107 -73.5l-2 -4q9 -33 31 -76t62.5 -84.5t81.5 -42.5q12 -3 10 -14q-3 -36 -37.5 -74.5t-95.5 -38.5q-57 0 -102 44.5t-66.5 104t-32 109.5t-7.5 71q1 12 18 20q57 24 93.5 59.5
t39.5 98.5q3 62 -52 101t-133 34l-75 -620q-1 -6 -6 -6q-34 -8 -80 -8q-43 0 -78 8q-5 0 -3 5l74 603l-2 2q-62 -16 -100.5 -65.5t-39.5 -103.5q-1 -13 2 -27t3 -16q0 -13 -25.5 -26.5t-57.5 -13.5q-47 0 -77 32.5t-26 82.5q9 111 150.5 182t320.5 72z" />
    <glyph glyph-name="S" unicode="S" horiz-adv-x="596" 
d="M600 582q0 -47 -26.5 -76.5t-69.5 -29.5q-16 0 -31.5 6.5t-15.5 14.5l7 23q8 23 8 42q0 32 -16 50.5t-37 18.5q-33 -1 -48.5 -26t-17.5 -56q-1 -38 19.5 -79.5t51 -79.5t60.5 -78t50.5 -89t18.5 -98q-2 -45 -19 -87t-50.5 -79t-90.5 -59.5t-130 -22.5q-125 0 -191.5 68
t-53.5 152q7 59 45 96.5t87 37.5q32 0 54.5 -12.5t21.5 -25.5q0 -3 -12 -19t-22.5 -43t-10.5 -59q0 -37 22 -68t65 -31q48 0 73.5 33.5t25.5 73.5q1 40 -18.5 85t-48 86t-57.5 82.5t-49.5 89.5t-20.5 92q0 87 66.5 146.5t176.5 59.5q72 0 128 -37t56 -102z" />
    <glyph glyph-name="T" unicode="T" horiz-adv-x="713" 
d="M165 745q51 0 184.5 -28.5t204.5 -28.5q43 0 82 11t61.5 22t24.5 11q13 0 24 -22.5t11 -48.5q-1 -60 -41.5 -93.5t-112.5 -33.5q-38 0 -103 13l-67 -542q0 -2 -1.5 -3.5t-3.5 -1.5l-1 -1q-31 -7 -80 -7q-39 0 -78 7q-4 4 -4 5q18 135 72 572q-98 13 -132 13
q-47 0 -83 -11t-54.5 -21.5t-22.5 -10.5q-13 0 -24 22.5t-11 48.5q1 60 42 94t113 34z" />
    <glyph glyph-name="U" unicode="U" horiz-adv-x="938" 
d="M511 561q0 -34 -13 -127.5t-21 -178.5q-5 -72 27 -110.5t87 -38.5q137 0 162 177q11 74 51 411q1 5 5 5q35 8 62 8q24 0 58 -8q4 -1 4 -5q-9 -64 -24 -193t-24 -193q-44 -326 -329 -326q-276 0 -247 296q2 25 16 130.5t15 124.5q9 110 -49 110q-44 0 -79 -44.5
t-37 -100.5q-1 -34 5.5 -62.5t6.5 -30.5q0 -13 -23 -25.5t-54 -12.5q-45 0 -74 33t-25 91q5 72 53 129t115.5 85t139.5 28q192 0 192 -172z" />
    <glyph glyph-name="V" unicode="V" horiz-adv-x="908" 
d="M958 699q3 -1 3 -5q-119 -300 -340 -690q-3 -5 -8 -5l-2 -1q-2 0 -5 -0.5t-7.5 -1.5t-11.5 -2t-15 -1.5t-18.5 -1t-22.5 -0.5q-70 0 -86 8q-7 0 -7 5q-13 96 -24 164.5t-25 147.5t-27.5 132t-29.5 99t-34.5 68.5t-38.5 22.5q-33 0 -58 -39.5t-26 -87.5q-1 -34 5.5 -68.5
t6.5 -37.5q0 -13 -23 -25.5t-54 -12.5q-45 0 -74 33t-25 91q5 72 53 129t115.5 85t139.5 28q73 0 118 -32.5t72 -103.5q59 -144 80 -436h5q150 291 226 533q4 5 10 5q1 1 9.5 3t23.5 4t29 2q39 0 66 -9z" />
    <glyph glyph-name="W" unicode="W" horiz-adv-x="1250" 
d="M1300 699q3 -1 3 -5q-118 -335 -301 -690q-4 -4 -8 -5l-4 -1q-3 0 -9.5 -1t-16 -2.5t-23.5 -2t-30 -0.5t-31 0.5t-26 2t-19.5 2.5t-13.5 1.5t-6 0.5q-6 1 -6 5q-17 225 -46 429h-4q-22 -66 -45.5 -134.5t-41.5 -118.5t-33.5 -90.5t-24 -62.5t-8.5 -23q-4 -5 -8 -5l-4 -1
q-5 -1 -13 -2t-18.5 -2t-25.5 -2t-31 -1q-67 0 -91 8q-6 0 -6 5q-3 30 -9 83.5t-10 92.5t-10.5 92.5t-12.5 93.5t-14.5 85t-18 76t-21 57.5t-25 40t-29.5 13.5q-33 0 -58 -39.5t-26 -87.5q-1 -34 5.5 -68.5t6.5 -37.5q0 -13 -23 -25.5t-54 -12.5q-45 0 -74 33t-25 91
q5 72 52.5 129t114.5 85t139 28q36 0 65.5 -8t51 -20.5t38.5 -35.5t28.5 -45.5t20 -58t13 -65t8 -75t5.5 -80.5t4.5 -88t5.5 -91h5q51 140 94.5 271.5t61.5 192.5l19 61q1 5 8 8q56 8 81 8q49 0 73 -8q5 -1 5 -5q24 -155 59 -531h5q135 292 194 531q4 5 9 5q18 9 63 9
q39 0 66 -9z" />
    <glyph glyph-name="X" unicode="X" horiz-adv-x="846" 
d="M823 114q10 -3 8 -15q-4 -36 -41 -76t-94 -40q-41 0 -73 18t-59 62t-39 71t-37 90q-7 17 -10 25h-3q-89 -117 -154 -244q0 -2 -7 -5q-35 -8 -76 -8q-42 0 -71 8q-3 1 -3 7q126 199 262 355q-35 108 -81 185.5t-88 77.5q-34 0 -57.5 -33.5t-24.5 -80.5q-1 -34 5.5 -68.5
t6.5 -37.5q0 -13 -23 -25.5t-54 -12.5q-45 0 -74 33t-25 91q5 72 53 129t115.5 85t139.5 28q27 0 49.5 -4t42 -15t34 -20t29.5 -29.5t23.5 -32t21 -39t18 -39.5t18 -44.5t17.5 -43.5h3q89 124 143 230q0 2 7 4q30 8 72 8q51 0 75 -8q3 -1 3 -6q-155 -214 -248 -323
q6 -12 19.5 -44.5t23.5 -55t27.5 -53t34.5 -50.5t41 -35.5t50 -18.5z" />
    <glyph glyph-name="Y" unicode="Y" horiz-adv-x="826" 
d="M253 637q-30 0 -54 -34t-24 -92q0 -33 6 -67.5t6 -38.5q0 -13 -23 -25.5t-54 -12.5q-42 0 -71 29.5t-29 83.5q0 74 48 133.5t117.5 89.5t141.5 30q45 0 80.5 -13t60 -39t41.5 -54t29.5 -71t19 -75t14.5 -80h5q94 135 165 293q1 2 3 3.5t4 2.5l2 1l3 1q4 0 9.5 1t13 2.5
t18 2t21.5 0.5t22 -0.5t18.5 -2t13.5 -2.5t10 -1l3 -1q6 -6 5 -7q-165 -258 -289 -417l-32 -272q0 -2 -1.5 -3.5t-3.5 -1.5l-1 -1q-31 -7 -81 -7q-39 0 -78 7q-4 3 -3 5q13 104 29 243q-9 84 -30.5 170t-58 153t-76.5 67z" />
    <glyph glyph-name="Z" unicode="Z" horiz-adv-x="633" 
d="M587 187q13 0 20.5 -22.5t4.5 -48.5q-5 -53 -42.5 -93t-110.5 -40q-53 0 -160.5 35t-144.5 34q-27 -1 -46.5 -11.5t-27 -22.5t-16.5 -22t-17 -10q-14 0 -19 21.5t-2 45.5q6 46 50.5 104.5t98 107.5t131 120t122.5 119l-1 3q-188 34 -254 34q-41 0 -71 -7.5t-43.5 -15.5
t-15.5 -8q-10 0 -17.5 17t-7.5 40q-1 57 40 103t115 46q60 0 185 -30t154 -30q30 -2 54 6.5t35.5 20t21.5 21t16 9.5q15 0 22 -20.5t3 -51.5q-5 -45 -54 -103t-108 -107.5t-130.5 -114t-107.5 -112.5l1 -2q146 -48 211 -48q32 0 56.5 8t37.5 16.5t17 8.5z" />
    <glyph glyph-name="bracketleft" unicode="[" horiz-adv-x="252" 
d="M179 -181l-9 -66q0 -3 -4 -3h-163q-5 0 -3 4l120 990q0 2 1.5 3.5l2.5 2.5l2 1h163q4 0 3 -4l-8 -66q0 -3 -4 -3h-93l-105 -855h93q4 0 4 -4z" />
    <glyph glyph-name="backslash" unicode="\" horiz-adv-x="423" 
d="M358 -207l-66 -23q-4 0 -5 3l-224 928l2 6l64 22q5 1 6 -3q7 -31 54 -224.5t97 -399.5t73 -304q2 -3 -1 -5z" />
    <glyph glyph-name="bracketright" unicode="]" horiz-adv-x="252" 
d="M-41 -247l9 66q0 4 4 4h92l105 855h-93l-4 3l8 66q1 4 5 4h163l1 -1q3 -4 3 -6l-121 -990q-2 -4 -5 -4h-163z" />
    <glyph glyph-name="underscore" unicode="_" horiz-adv-x="514" 
d="M499 -4l-8 -66q0 -3 -4 -3h-468l-5 4l8 64q1 5 6 5h467q4 0 4 -4z" />
    <glyph glyph-name="grave" unicode="`" horiz-adv-x="303" 
d="M287 595q-2 -21 -67 -21q-73 1 -135 42t-70 71q0 5 4 9q16 18 55 43.5t57 28.5q6 0 6 -5q14 -53 41 -88t51 -46t41.5 -19.5t16.5 -14.5z" />
    <glyph glyph-name="a" unicode="a" horiz-adv-x="602" 
d="M525 163q-4 -31 2 -50t14 -25t25 -13q8 -5 7 -12q-3 -25 -39 -51.5t-79 -26.5q-45 0 -69.5 27.5t-23.5 78.5h-2q-28 -50 -73 -77.5t-97 -27.5q-89 0 -135 78t-31 191q14 107 79 183t156 75q102 0 140 -89h3l16 71q0 4 5 6q38 6 69 6q44 0 72 -6q5 -2 5 -6
q-24 -172 -44 -332zM261 93q45 0 80 46.5t43 110.5q9 68 -13.5 114.5t-69.5 46.5q-43 0 -76.5 -43t-42.5 -111q-10 -74 12.5 -119t66.5 -45z" />
    <glyph glyph-name="b" unicode="b" horiz-adv-x="570" 
d="M388 513q74 0 121 -58.5t42 -167.5q-5 -121 -86.5 -212t-208.5 -90q-114 1 -171 79t-43 205q0 2 57 477q0 3 4 4l1 1q40 7 71 7q45 0 74 -7q5 -5 5 -6l-42 -332h4q27 45 74 72.5t98 27.5zM394 241q9 66 -10 118.5t-65 50.5q-37 -2 -67.5 -39t-45 -80.5t-15.5 -76.5
q-4 -55 17 -94t63 -40q43 -1 78.5 45t44.5 116z" />
    <glyph glyph-name="c" unicode="c" horiz-adv-x="507" 
d="M494 354q-4 -35 -27.5 -59.5t-64.5 -24.5q-24 0 -41.5 11t-15.5 22q0 6 4.5 23.5t6.5 27.5q4 36 -9.5 58t-44.5 22q-42 0 -78.5 -49t-44.5 -116q-10 -75 24.5 -124t113.5 -49q37 0 71 12.5t56.5 25t29.5 12.5q11 0 9 -11q-5 -39 -73.5 -94t-162.5 -55q-119 0 -179 76
t-45 193q14 113 96 186t199 73q87 0 135.5 -48t40.5 -112z" />
    <glyph glyph-name="d" unicode="d" horiz-adv-x="598" 
d="M523 163q-4 -32 2 -50.5t14 -24.5t25 -13q7 -4 6 -12q-3 -24 -38.5 -51t-78.5 -27q-46 0 -70 27.5t-21 77.5h-3q-28 -49 -72.5 -76.5t-97.5 -27.5q-89 0 -134 76.5t-32 189.5q13 107 79 184t157 77q50 0 86 -23.5t53 -65.5h3l39 321q2 5 6 6q44 7 76 7q36 0 69 -7
q5 -2 4 -6q-37 -290 -72 -582zM261 93q45 0 80 46.5t43 110.5q8 66 -14.5 113.5t-69.5 47.5q-43 0 -76 -43.5t-42 -112.5q-10 -74 13 -118t66 -44z" />
    <glyph glyph-name="e" unicode="e" horiz-adv-x="528" 
d="M300 430q-47 0 -80 -44.5t-41 -103.5q26 -5 55 -5q54 0 91 23.5t41 62.5q4 28 -13 47.5t-53 19.5zM481 147q9 0 6 -11q-2 -16 -18.5 -39.5t-44.5 -49t-74 -43.5t-97 -18q-117 0 -180.5 71.5t-49.5 191.5q15 119 97 191.5t199 73.5q102 1 152.5 -47t42.5 -108
q-10 -83 -79 -122t-150 -39q-24 0 -48.5 3t-42.5 7t-19 4q-1 -55 36 -88t95 -33q46 0 85 14t61.5 28t28.5 14z" />
    <glyph glyph-name="f" unicode="f" horiz-adv-x="394" 
d="M36 4l52 428h-50l-3 4l7 60l5 4h51l10 85q22 184 187 184q52 0 93 -27.5t39 -52.5q-1 -10 -13 -10q-3 0 -26.5 6t-42.5 6q-44 0 -61.5 -31.5t-24.5 -83.5l-9 -76h106l3 -5l-7 -58l-5 -5h-105l-52 -427q0 -4 -4 -5v-1h-1q-32 -7 -74 -7q-39 0 -71 7q-4 4 -4 5z" />
    <glyph glyph-name="g" unicode="g" horiz-adv-x="586" 
d="M569 495l-61 -486q-15 -125 -88 -197t-192 -72q-53 0 -95 17t-64 41.5t-32.5 49t-8.5 42.5q0 12 11 12q7 0 19.5 -10t27 -21.5t44.5 -21.5t67 -10q66 0 107 41.5t48 105.5l13 105h-2q-29 -49 -74 -76.5t-98 -27.5q-89 0 -134 76t-30 188q13 107 78.5 184.5t156.5 77.5
q50 0 86.5 -23.5t53.5 -65.5h3l16 71q0 4 5 6q37 6 70 6q41 0 68 -6q5 -2 5 -6zM264 94q45 0 80 46t43 110q8 66 -14.5 113.5t-69.5 47.5q-43 0 -76 -44t-42 -113q-10 -73 13 -116.5t66 -43.5z" />
    <glyph glyph-name="h" unicode="h" horiz-adv-x="581" 
d="M24 4q5 38 16.5 134t34 283.5t39.5 324.5q2 4 6 5q37 7 71 7q43 0 74 -7q3 -3 3 -5l-43 -355h3q33 60 83.5 91.5t99.5 32.5q63 1 95.5 -39t23.5 -116q-3 -28 -11.5 -94t-12.5 -103q-4 -31 1.5 -50t13.5 -25t25 -13q8 -4 7 -12q-2 -19 -36 -48.5t-81 -29.5q-48 0 -73.5 29
t-18.5 81l28 229q9 84 -45 82q-37 -1 -74.5 -51.5t-46.5 -123.5l-28 -226q0 -4 -4 -5v-1h-1q-31 -7 -74 -7q-34 0 -71 7q-4 4 -4 5z" />
    <glyph glyph-name="i" unicode="i" horiz-adv-x="285" 
d="M127 -15q-48 0 -73 29t-19 81l50 401q0 4 4 5q37 7 72 7q45 0 74 -7q3 -4 3 -5l-41 -333q-4 -31 2 -50t14 -25t25 -13q8 -4 7 -12q-2 -19 -36.5 -48.5t-81.5 -29.5zM175 582q-40 0 -66 24t-22 58t36 58.5t72 24.5q41 0 67 -24.5t22 -58.5t-36 -58t-73 -24z" />
    <glyph glyph-name="j" unicode="j" horiz-adv-x="341" 
d="M319 496l-69 -559q-12 -95 -56.5 -146t-134.5 -51q-51 0 -91 26.5t-37 52.5q1 13 15 13q5 0 24 -6.5t35 -6.5q49 0 67.5 34.5t26.5 104.5l66 537q0 1 5 6q34 7 74 7t71 -7q4 -4 4 -5zM254 582q-40 0 -66 24t-22 58t36 58.5t72 24.5q41 0 67 -24.5t22 -58.5t-36 -58
t-73 -24z" />
    <glyph glyph-name="k" unicode="k" horiz-adv-x="567" 
d="M531 93q8 -3 8 -12q-3 -36 -38 -66t-85 -30q-34 0 -62 20t-45 49.5t-28.5 64.5t-15 64t-1.5 48q1 8 11 10q39 6 80 36t46 71q4 28 -9 44.5t-42 16.5q-53 -1 -96.5 -65t-54.5 -155l-22 -183q-1 -6 -5 -6q-46 -8 -72 -8q-37 0 -72 8q-5 0 -4 5l90 742q1 4 5 4q38 8 72 8
q37 0 74 -8q3 -1 2 -5l-44 -367h2q34 61 85.5 96.5t113.5 39.5q70 4 105.5 -30.5t29.5 -90.5q-8 -57 -54 -101t-101 -58q44 -132 127 -142z" />
    <glyph glyph-name="l" unicode="l" horiz-adv-x="268" 
d="M124 -15q-48 0 -73 29t-19 81l79 651q2 4 6 5q37 7 73 7q41 0 72 -7q4 -3 3 -5l-71 -583q-4 -31 2 -50t13.5 -25t24.5 -13q8 -4 7 -12q-2 -19 -36 -48.5t-81 -29.5z" />
    <glyph glyph-name="m" unicode="m" horiz-adv-x="865" 
d="M834 75q8 -4 7 -12q-2 -19 -36.5 -48.5t-81.5 -29.5q-48 0 -73 29t-18 81l27 229q6 45 -5 64.5t-35 17.5q-34 -2 -66.5 -53.5t-41.5 -123.5l-27 -224q0 -2 -1.5 -3.5t-2.5 -1.5l-2 -1q-31 -7 -73 -7q-33 0 -72 7q-4 4 -4 5l39 320q6 44 -5 64t-35 18q-34 -2 -66.5 -52.5
t-41.5 -123.5l-28 -225q0 -2 -1.5 -3.5t-2.5 -1.5l-2 -1q-29 -7 -72 -7q-35 0 -75 7q-4 4 -4 5q24 162 44 335q5 43 -4.5 59.5t-33.5 26.5q-7 4 -7 12q2 19 36.5 48.5t81.5 29.5q41 0 63 -23.5t24 -64.5q0 -10 -2 -36h3q66 122 167 124q55 1 87.5 -31t33.5 -92h3
q32 59 76 90t92 33q62 1 95.5 -39t24.5 -116q-3 -25 -12 -90.5t-14 -106.5q-4 -31 2 -50t14 -25t25 -13z" />
    <glyph glyph-name="n" unicode="n" horiz-adv-x="595" 
d="M35 4q23 155 44 337q5 43 -4.5 59.5t-33.5 26.5q-7 4 -7 12q2 19 37 48.5t82 29.5q42 0 64 -24.5t22 -65.5q0 -10 -2 -34h3q33 60 84.5 91.5t101.5 32.5q62 1 94.5 -39t23.5 -116q-7 -64 -25 -200q-4 -31 2 -50t14.5 -25.5t24.5 -12.5q8 -4 7 -12q-2 -20 -36.5 -49.5
t-81.5 -29.5q-48 0 -73 29.5t-18 81.5l27 232q6 44 -7 63.5t-37 18.5q-37 -1 -74.5 -51.5t-46.5 -123.5l-28 -228q0 -2 -1.5 -3.5t-2.5 -1.5l-2 -1q-29 -7 -72 -7q-35 0 -75 7q-4 4 -4 5z" />
    <glyph glyph-name="o" unicode="o" horiz-adv-x="571" 
d="M318 516q117 -3 180.5 -76t49.5 -190q-15 -118 -96.5 -194t-199.5 -73q-115 3 -179.5 74.5t-49.5 193.5q14 116 98 192t197 73zM265 72q53 0 87 48.5t43 127.5q10 77 -11.5 128.5t-76.5 51.5q-50 0 -85.5 -48.5t-45.5 -126.5q-10 -82 14.5 -131.5t74.5 -49.5z" />
    <glyph glyph-name="p" unicode="p" horiz-adv-x="596" 
d="M337 411q-46 0 -80.5 -46.5t-42.5 -111.5q-9 -66 13.5 -113t69.5 -47q43 0 76 44.5t42 112.5q10 74 -12.5 117.5t-65.5 43.5zM148 515q79 0 86 -80q0 -22 -1 -26h3q26 48 73 76t99 28q90 0 134 -71.5t30 -186.5q-13 -108 -82 -188.5t-160 -80.5q-96 0 -132 91h-3
l-39 -322q0 -2 -1.5 -3.5t-2.5 -1.5l-2 -1q-29 -7 -75 -7q-31 0 -69 7q-4 3 -3 5q5 40 35.5 286t36.5 299q4 31 -1 49t-13 24t-24 13q-7 4 -6 12q2 19 36 48.5t81 29.5z" />
    <glyph glyph-name="q" unicode="q" horiz-adv-x="581" 
d="M473 -245q0 -4 -6 -6q-44 -7 -69 -7q-33 0 -75 7q-4 1 -4 6l40 325h-3q-62 -94 -167 -94q-89 0 -134 76t-32 189q13 107 79 184.5t157 77.5q104 0 139 -89h3l17 71q0 4 5 6q36 6 71 6q38 0 65 -6q5 -2 5 -6q-4 -34 -12 -96.5t-29.5 -238t-49.5 -405.5zM261 93
q45 0 80 46.5t43 110.5q8 66 -14 113.5t-69 47.5q-43 0 -76.5 -44t-42.5 -113q-10 -73 13 -117t66 -44z" />
    <glyph glyph-name="r" unicode="r" horiz-adv-x="493" 
d="M337 278q0 2 4 12t8 23.5t5 24.5q2 22 -5.5 36t-27.5 13q-35 -2 -65 -56t-40 -130l-24 -196q0 -2 -1.5 -3.5t-2.5 -1.5l-2 -1q-28 -7 -72 -7q-35 0 -75 7q-3 4 -3 5q2 16 20 150.5t24 184.5q5 43 -5 59.5t-33 26.5q-8 4 -8 12q3 20 37.5 49t81.5 29q43 0 64.5 -27.5
t19.5 -77.5q0 -6 -1.5 -19.5t-2.5 -20.5h4q25 66 70 105t98 40q52 0 79 -34t20 -89q-7 -54 -47 -93t-85 -39q-15 0 -25.5 4t-9.5 14z" />
    <glyph glyph-name="s" unicode="s" horiz-adv-x="470" 
d="M448 166q-1 -70 -68 -126.5t-186 -56.5q-50 0 -93.5 14t-75 49.5t-29.5 86.5q2 36 28 62t69 26q25 0 41 -9.5t16 -18.5q0 -3 -8 -24t-9 -37q-2 -25 15 -45t50 -21q35 -2 60.5 18.5t24.5 53.5q0 19 -16.5 41.5t-39 45.5t-45.5 48t-39 58t-16 68q0 47 38.5 82.5t96.5 35.5
q29 0 55.5 -9t40.5 -18.5t16 -15.5q5 -11 -9 -15q-30 1 -49 -12.5t-18 -38.5t17 -49t38 -44t43.5 -41t36.5 -49t15 -59z" />
    <glyph glyph-name="t" unicode="t" horiz-adv-x="366" 
d="M285 87q12 0 29 3.5t21 3.5q11 0 9 -11q-4 -30 -52.5 -64t-111.5 -34q-74 0 -104.5 46t-19.5 131l33 270h-52q-4 0 -4 4l8 59l5 5h50l15 123q0 5 5 5q38 8 74 8q38 0 73 -8q4 0 4 -6l-15 -122h120l3 -5l-8 -58l-4 -5h-120l-27 -216q-8 -72 6.5 -100.5t62.5 -28.5z" />
    <glyph glyph-name="u" unicode="u" horiz-adv-x="594" 
d="M560 495q-8 -52 -42 -335q-4 -30 1 -48t13 -24t24 -13q8 -4 7 -12q-2 -19 -36 -48.5t-81 -29.5q-42 0 -63.5 23.5t-23.5 63.5q0 24 1 36l-2 1q-33 -60 -83.5 -91.5t-101.5 -32.5q-64 -1 -96.5 38t-23.5 115l24 199q4 30 -2 48.5t-14 24.5t-25 12q-8 3 -7 13q2 20 36 49.5
t81 29.5q48 0 74.5 -29.5t19.5 -81.5l-28 -228q-6 -43 7.5 -63.5t37.5 -19.5q37 2 74 51.5t46 124.5q15 121 27 226q2 6 6 6q42 8 75 8q32 0 72 -7q3 -3 3 -6z" />
    <glyph glyph-name="v" unicode="v" horiz-adv-x="553" 
d="M443 515q52 0 76.5 -59.5t14.5 -131.5q-17 -143 -94 -242t-191 -99q-103 0 -151 68t-35 172l15 116q3 31 -3 49t-14 24t-25 12q-8 3 -7 13q2 20 36.5 49.5t81.5 29.5q48 0 73.5 -29.5t19.5 -81.5q-23 -187 -23 -188q-4 -30 -0.5 -58.5t20.5 -51t46 -22.5q44 0 80 55.5
t42 133.5q4 53 -2.5 92.5t-17 56.5t-18.5 29t-7 17q1 16 28.5 31t54.5 15z" />
    <glyph glyph-name="w" unicode="w" horiz-adv-x="837" 
d="M727 516q51 0 75 -61t16 -131q-11 -90 -45 -165.5t-95 -125.5t-138 -50q-128 0 -163 106h-2q-24 -47 -67 -76.5t-93 -29.5q-51 0 -85.5 20t-49 51.5t-20.5 71t1 78.5l17 136q3 31 -3 49t-14 24t-25 12q-8 2 -7 13q2 20 36.5 49.5t81.5 29.5q48 0 73.5 -29.5t19.5 -82.5
l-25 -199q-7 -54 6 -87t48 -33t61 41.5t35 112.5q19 154 31 255l6 6q39 7 75 7q40 0 72 -7q3 0 3 -5q-3 -19 -17.5 -137t-18.5 -147q-2 -28 0 -56t17 -49.5t42 -21.5q43 1 75.5 58t38.5 134q4 51 -2.5 90t-16.5 56t-19 29t-8 17q2 17 28.5 32t55.5 15z" />
    <glyph glyph-name="x" unicode="x" horiz-adv-x="562" 
d="M514 97q10 -3 10 -14q-3 -32 -37 -66t-87 -34q-60 0 -101.5 55.5t-55.5 130.5h-5q-17 -73 -60.5 -129.5t-95.5 -56.5q-42 0 -63 26t-16 65q1 20 10 34.5t18 20t14 4.5q19 -5 28 -4q63 3 132 117q-45 136 -110 152q-7 1 -37 4q-13 1 -11 14q4 34 38 67.5t86 33.5
q57 0 95.5 -49t52.5 -115h5q23 67 66 116t91 49q36 0 56 -21t17 -54q-3 -24 -18.5 -43.5t-24.5 -16.5q-11 3 -26 3q-29 0 -63.5 -28.5t-61.5 -69.5q15 -44 28 -74t38 -62.5t54 -44.5q15 -7 34 -10z" />
    <glyph glyph-name="y" unicode="y" horiz-adv-x="582" 
d="M565 495l-60 -487q-15 -124 -89.5 -197t-194.5 -73q-53 0 -95 17t-64 42t-32.5 49.5t-8.5 42.5q1 13 12 13q7 0 24.5 -16t51.5 -32.5t81 -16.5q66 0 108.5 42t51.5 105l14 121h-2q-33 -59 -82.5 -88t-101.5 -30q-63 -1 -95.5 38.5t-23.5 115.5l23 196q4 30 -2 48.5
t-14 24.5t-25 12q-7 4 -6 13q2 20 35.5 49.5t80.5 29.5q48 0 74.5 -29.5t19.5 -81.5l-28 -228q-6 -43 7.5 -63.5t37.5 -19.5q38 2 74.5 51.5t45.5 124.5l28 226q0 6 5 6q44 8 76 8q31 0 70 -7q4 -4 4 -6z" />
    <glyph glyph-name="z" unicode="z" horiz-adv-x="497" 
d="M451 158q12 0 16 -21.5t2 -35.5q-5 -46 -42.5 -82t-104.5 -36q-36 0 -111 22t-109 22q-20 0 -35 -6t-21.5 -13.5t-13 -13.5t-12.5 -6q-10 0 -15 16t-2 34q4 53 56 105q64 61 144.5 121t135.5 86l-2 3q-28 1 -89.5 10t-91.5 9q-38 0 -66 -14t-31 -14q-11 0 -15.5 17.5
t-2.5 31.5q6 45 40.5 84.5t97.5 39.5q37 0 107.5 -19.5t115.5 -19.5q26 0 43 8t25 16t12 8q10 0 16.5 -16.5t4.5 -34.5q-7 -47 -44 -84q-62 -67 -143.5 -128t-137.5 -88v-3q7 0 63 -11t96 -11q46 0 78.5 12t35.5 12z" />
    <glyph glyph-name="braceleft" unicode="{" horiz-adv-x="242" 
d="M111 -71q-8 -54 -1 -87.5t19 -47.5t23 -22.5t11 -12.5q-2 -8 -21 -14.5t-37 -5.5q-121 6 -93 184q3 24 13.5 76.5t13.5 70.5q9 55 5 90.5t-11 49.5t-15 23.5t-9 13.5l1 5q1 4 12 14t21.5 24t22.5 50.5t17 88.5q2 23 4.5 77t3.5 70q8 86 43.5 134t95.5 51q19 1 36.5 -5.5
t16.5 -15.5q0 -4 -13 -13t-28.5 -22t-31 -48.5t-20.5 -86.5q-2 -23 -5.5 -66.5t-4.5 -53.5q-8 -77 -40.5 -132.5t-84.5 -66.5l-1 -1v-3q50 -10 69 -66t7 -133q-3 -19 -10 -62.5t-9 -56.5z" />
    <glyph glyph-name="bar" unicode="|" horiz-adv-x="203" 
d="M74 -250h-67q-5 0 -3 4l120 990q0 2 1.5 3.5l2.5 2.5h2h66l3 -5l-121 -991z" />
    <glyph glyph-name="braceright" unicode="}" horiz-adv-x="242" 
d="M51 -71q2 18 5 60t5 59q7 77 40 133t85 66v3l1 1q-50 11 -69 66.5t-7 132.5q1 6 8 51.5t10 68.5q9 54 2 87t-19.5 47.5t-23.5 23t-10 12.5q1 9 20 15.5t38 5.5q60 -3 83.5 -51t9.5 -134q-3 -24 -13.5 -76.5t-13.5 -70.5q-9 -54 -5 -89t11 -49.5t15 -24.5t9 -14l-1 -5
q-1 -4 -12 -13.5t-21.5 -23t-22.5 -50.5t-17 -90q-3 -22 -5 -75t-4 -72q-8 -86 -43 -133.5t-95 -50.5q-18 -2 -35.5 5t-16.5 15q0 4 8.5 9t20.5 15t24.5 25.5t23.5 47t15 73.5z" />
    <glyph glyph-name="asciitilde" unicode="~" horiz-adv-x="510" 
d="M147 289q-43 0 -72.5 21.5t-59.5 65.5q-1 1 0 3.5t2 3.5q36 27 51 39q4 2 7 -1q23 -33 41 -47.5t41 -14.5q29 0 91 41t103 42q48 1 79 -20t63 -66q5 -2 -1 -7q-39 -32 -49 -41q-3 -2 -8 0q-28 36 -46.5 51t-41.5 15q-24 0 -56 -21.5t-69.5 -42.5t-74.5 -21z" />
    <glyph glyph-name="uni00A0" unicode="&#xa0;" horiz-adv-x="229" 
 />
    <glyph glyph-name="exclamdown" unicode="&#xa1;" horiz-adv-x="292" 
d="M69 426q5 39 36 65.5t75 26.5q42 0 67 -26.5t20 -65.5q-5 -38 -36.5 -65t-72.5 -27q-42 0 -68 26.5t-21 65.5zM99 -256q-49 0 -73 38t-16 98q17 148 60 264.5t82 116.5q32 0 38.5 -59.5t2.5 -195.5q-1 -45 -2 -68q-1 -46 6.5 -63t26.5 -26q7 -4 6 -13q-2 -25 -37.5 -58.5
t-93.5 -33.5z" />
    <glyph glyph-name="cent" unicode="&#xa2;" horiz-adv-x="511" 
d="M499 361q-5 -36 -30.5 -63.5t-66.5 -27.5q-24 0 -41.5 11t-15.5 22q0 5 5 22.5t6 28.5q5 35 -9 57.5t-44 22.5q-43 0 -79.5 -49t-44.5 -116q-10 -74 24.5 -123.5t114.5 -49.5q37 0 71 12.5t56 25t30 12.5q11 0 8 -11q-4 -35 -63.5 -86t-143.5 -60l-14 -117l-4 -4h-68
q-3 0 -3 4l15 117q-98 14 -145 84.5t-34 174.5q13 100 79 172.5t163 88.5l13 105q0 2 1.5 3.5l2.5 2.5h2h66l3 -5l-12 -102q78 -5 121.5 -49.5t36.5 -102.5z" />
    <glyph glyph-name="sterling" unicode="&#xa3;" horiz-adv-x="552" 
d="M340 715q97 2 152.5 -43.5t45.5 -119.5q-4 -37 -31.5 -65.5t-70.5 -28.5q-24 0 -41.5 10.5t-17.5 19.5q0 2 3 12.5t5 22.5t2 21q0 33 -17 52t-49 18q-36 -2 -61.5 -34t-26.5 -81q-1 -19 2 -37t6.5 -28t10.5 -26.5t10 -23.5h160l3 -5l-7 -58l-5 -5h-149q-6 -35 -25 -65
t-46 -59t-35 -40l2 -2q26 3 102 -6t87 -9q43 0 72.5 11t43.5 22t20 11q12 0 21 -23t6 -48q-5 -51 -45.5 -88.5t-114.5 -37.5q-46 0 -118 23t-108 21q-29 -3 -51 -14t-34.5 -19.5t-21.5 -6.5q-12 1 -16.5 27.5t0.5 48.5q21 58 66 121.5t48 90.5q2 17 -5 42h-91q-4 0 -4 4
l7 59l5 5h58q-20 54 -16 118q6 81 79.5 146t189.5 67z" />
    <glyph glyph-name="yen" unicode="&#xa5;" horiz-adv-x="623" 
d="M386 213h133q4 0 4 -5l-8 -61q0 -4 -4 -4h-133l-17 -138q0 -2 -1.5 -3.5t-3.5 -1.5l-1 -1q-29 -7 -81 -7q-32 0 -71 7q-3 4 -3 5q3 32 17 139h-135q-4 0 -4 4l7 61q5 5 6 5h134l7 53h-135q-6 0 -4 4l7 60q0 5 6 5h118q-10 45 -24 82t-26.5 60.5t-32 46t-31.5 33t-33.5 28
t-29.5 24.5q-9 7 -7 15q2 27 36.5 60t93.5 33q160 0 193 -316h5q76 108 162 294q1 2 3 3.5t4 1.5l2 1l3 1q3 0 9 1t13.5 2.5t17.5 2t21 0.5q19 0 35 -2t24 -4l9 -1q5 -5 4 -7q-142 -223 -250 -359h109q4 0 4 -4l-8 -62q0 -3 -4 -3h-133z" />
    <glyph glyph-name="section" unicode="&#xa7;" horiz-adv-x="474" 
d="M447 282q-7 -60 -60 -94t-99 -33l-1 -2q1 -1 20.5 -14t25.5 -18t22 -20t22 -27t12 -30t6 -38q-1 -70 -62.5 -116t-146.5 -49q-82 -3 -128 30.5t-39 84.5q4 32 26.5 50.5t48.5 18.5q15 0 28.5 -6t13.5 -12q0 -2 -3 -15t-4 -22q-2 -23 12 -37.5t45 -14.5q32 0 53 18.5
t23 44.5q3 27 -22 52.5t-62 48.5t-73.5 49t-60 65.5t-17.5 86.5q7 58 60.5 93.5t99.5 34.5l1 2q-1 0 -18 11t-21.5 14.5t-19.5 15t-20.5 20.5t-14.5 22.5t-12 29t-2 33.5q1 68 62 113.5t145 48.5q83 3 129 -30.5t39 -84.5q-3 -32 -26 -50.5t-49 -18.5q-17 0 -30 6t-12 12
q0 1 3.5 13.5t3.5 23.5q2 23 -12 37.5t-45 14.5t-52 -17.5t-24 -43.5q-3 -23 15 -45t46 -39t60.5 -39.5t59.5 -45.5t43 -57.5t11 -74.5zM263 358q-1 -1 -10.5 0t-26 -2.5t-32 -9t-28.5 -20.5t-16 -35q-2 -12 0.5 -22.5t7.5 -19t11.5 -15.5t14 -12t13 -8t10.5 -6l5 -2h11
t24.5 3.5t32 9.5t27.5 20.5t17 34.5q6 31 -18.5 54.5t-42.5 29.5z" />
    <glyph glyph-name="dieresis" unicode="&#xa8;" horiz-adv-x="428" 
d="M184 639q-5 -32 -32.5 -55.5t-62.5 -23.5q-34 0 -56 23.5t-18 55.5q4 33 31.5 56t61.5 23q35 0 57.5 -23t18.5 -56zM412 639q-5 -32 -33 -55.5t-62 -23.5q-35 0 -56.5 23.5t-17.5 55.5q4 33 31 56t62 23t57.5 -23t18.5 -56z" />
    <glyph glyph-name="copyright" unicode="&#xa9;" horiz-adv-x="795" 
d="M773 349q-20 -155 -139.5 -262t-282.5 -107q-161 0 -254.5 107t-74.5 262t138 261.5t282 106.5q164 0 257 -106.5t74 -261.5zM432 641q-127 0 -216.5 -84t-104.5 -208t55 -208.5t195 -84.5q128 0 217.5 84t105.5 209q15 124 -54.5 208t-197.5 84zM546 274q8 0 7 -9
q-3 -28 -54 -69t-121 -41q-88 0 -132 53.5t-33 139.5q10 85 71 140t147 55q64 0 101.5 -33.5t32.5 -78.5q-3 -27 -22.5 -47.5t-49.5 -20.5q-17 0 -30 8t-12 17q0 3 4.5 16t5.5 21q3 26 -8 43t-34 17q-33 0 -59.5 -35.5t-32.5 -86.5q-7 -56 18 -91.5t84 -35.5q37 0 76 19
t41 19z" />
    <glyph glyph-name="ordfeminine" unicode="&#xaa;" horiz-adv-x="514" 
d="M444 426q-3 -26 2 -42t12 -20.5t21 -10.5q6 -5 5 -10q-3 -21 -32.5 -43.5t-65.5 -22.5q-39 0 -59 23t-19 66h-2q-50 -88 -142 -88q-74 0 -112.5 65.5t-26.5 159.5q12 90 66.5 153.5t130.5 62.5q86 0 117 -74h2l14 59q0 4 4 5q35 5 58 5q33 0 60 -5q4 -2 4 -5
q-26 -185 -37 -278zM223 368q37 0 67 39t36 92q7 58 -11.5 96.5t-57.5 38.5q-36 0 -64.5 -36t-35.5 -93q-8 -62 10.5 -99.5t55.5 -37.5z" />
    <glyph glyph-name="guillemotleft" unicode="&#xab;" horiz-adv-x="441" 
d="M85 255q53 -17 97 -64t38 -96q-2 -23 -16.5 -37t-23.5 -14q-5 0 -9 4q-8 8 -26 34t-50.5 70t-69.5 87q-1 1 -3 3.5t-2.5 3.5t-2.5 3t-2 3t-0.5 3t0.5 3t2 3.5t2.5 4.5t4.5 4.5t6 5.5q48 42 90.5 85.5t67.5 70.5t34 34q5 4 11 4q4 0 11 -5t12.5 -17.5t3.5 -29.5
q-7 -52 -65 -100t-109 -58zM250 255q53 -17 97 -64t38 -96q-3 -23 -17 -37t-23 -14q-5 0 -9 4q-8 8 -26 34t-50.5 70t-69.5 87q-1 1 -3 3.5t-2.5 3.5t-2.5 3t-2 3t-0.5 3t0.5 3t2 3.5t2.5 4.5t4.5 4.5t6 5.5q48 42 90.5 85.5t67.5 70.5t34 34q5 4 11 4q4 0 11 -5t12.5 -17.5
t3.5 -29.5q-7 -52 -65 -100t-109 -58z" />
    <glyph glyph-name="logicalnot" unicode="&#xac;" horiz-adv-x="515" 
d="M500 392l-21 -173l-4 -5h-66q-5 1 -5 6l13 103h-398l-5 4l9 64q1 5 6 5h467q4 0 4 -4z" />
    <glyph glyph-name="uni00AD" unicode="&#xad;" horiz-adv-x="368" 
d="M353 342l-9 -66q0 -3 -4 -3h-321l-5 4l9 64q1 5 6 5h320q4 0 4 -4z" />
    <glyph glyph-name="registered" unicode="&#xae;" horiz-adv-x="435" 
d="M310 542q4 0 6.5 -2.5t3.5 -4.5l2 -2v-10q0 -10 -12 -18.5t-29 -8.5q-7 0 -13 1.5t-11.5 4.5t-9.5 5.5t-9.5 9t-8 9t-8 11.5t-7 12t-7.5 13.5t-8 13.5h-11v-67q0 -10 -31 -10t-31 10v179q1 7 9 8q20 4 73 4q104 0 104 -58q0 -24 -16.5 -39t-33.5 -19q6 -14 20 -27.5
t28 -14.5zM188 665v-61h20q43 0 43 33q0 29 -42 29zM420 594q0 -81 -58 -138.5t-145 -57.5t-145 57.5t-58 138.5t58 138.5t145 57.5t145 -57.5t58 -138.5zM217 753q-70 0 -114 -46t-44 -113t44 -112t114 -45q71 0 114.5 45t43.5 112q0 68 -43.5 113.5t-114.5 45.5z" />
    <glyph glyph-name="macron" unicode="&#xaf;" horiz-adv-x="382" 
d="M355 594h-337q-4 0 -4 4l8 59l4 5h337l3 -5l-7 -58z" />
    <glyph glyph-name="degree" unicode="&#xb0;" horiz-adv-x="260" 
d="M244 601q-6 -46 -43 -78.5t-86 -32.5q-48 0 -77 32.5t-23 78.5q5 46 41.5 78t85.5 32q50 0 78.5 -32t23.5 -78zM136 662q-26 0 -45.5 -18t-22.5 -43q-3 -26 12 -44t41 -18q28 0 47.5 17.5t22.5 44.5q3 25 -12 43t-43 18z" />
    <glyph glyph-name="plusminus" unicode="&#xb1;" horiz-adv-x="543" 
d="M274 595h68l2 -4l-16 -138h197q3 0 3 -4l-8 -66q0 -3 -4 -3h-197l-17 -137l-5 -5h-66l-4 6l17 136h-196l-5 4l8 64q2 5 7 5h195l16 138q2 4 5 4zM498 203l-8 -66q-1 -3 -5 -3h-467l-4 4l7 64q2 5 7 5h467q4 0 3 -4z" />
    <glyph glyph-name="twosuperior" unicode="&#xb2;" horiz-adv-x="399" 
d="M358 424q9 0 15 -17.5t4 -34.5q-4 -36 -30.5 -63t-72.5 -24q-18 1 -84 17.5t-91 13.5q-19 -2 -34 -9t-23.5 -12.5t-13.5 -3.5q-7 2 -12 15.5t-4 27.5q4 35 29.5 65t60 51t68.5 41.5t60.5 46t32.5 54.5q4 25 -7.5 41t-37.5 16t-44 -19t-20 -52q0 -4 0.5 -9t0.5 -7
q0 -7 -14.5 -15.5t-31.5 -8.5q-28 0 -45 18.5t-13 44.5q7 53 59 84.5t120 31.5q74 0 114.5 -28.5t36.5 -79.5q-3 -31 -21.5 -58.5t-51 -48.5t-59 -34.5t-67.5 -31t-54 -23.5v-2q10 5 75 -5t91 -7q25 3 42.5 14t21.5 11z" />
    <glyph glyph-name="threesuperior" unicode="&#xb3;" horiz-adv-x="415" 
d="M327 695q23 3 40 12t20 9q7 0 11 -11.5t2 -31.5q-4 -34 -37.5 -65.5t-97.5 -67.5l-1 -2q60 -6 90.5 -35t25.5 -75q-6 -47 -39.5 -80t-76.5 -47t-88 -14q-83 0 -124.5 28.5t-35.5 81.5q3 26 22.5 45.5t52.5 19.5q17 0 28.5 -9t10.5 -17q0 -1 -2.5 -10t-3.5 -14
q-4 -27 12 -43.5t47 -16.5q32 0 53.5 20t24.5 46q2 16 -1 28.5t-11 20.5t-14.5 13t-15.5 9.5t-10 5.5q-23 -12 -42 -12q-17 0 -25 7.5t-7 20.5q2 29 43 33q12 0 19 -1q27 17 71 56v3q-19 -2 -66 4t-52 6q-30 0 -47.5 -6t-25 -12t-11.5 -6q-9 0 -15 15t-4 32q4 35 30 58.5
t75 23.5q33 0 92 -13t83 -9z" />
    <glyph glyph-name="acute" unicode="&#xb4;" horiz-adv-x="325" 
d="M15 595q1 6 20.5 14.5t46 19.5t61.5 46t62 88q3 5 8 5q17 -3 50 -28.5t45 -43.5q2 -6 1 -9q-15 -30 -87.5 -71t-145.5 -42q-63 0 -61 21z" />
    <glyph glyph-name="mu" unicode="&#xb5;" horiz-adv-x="591" 
d="M515 163q-5 -43 4.5 -59.5t33.5 -25.5q8 -5 7 -12q-2 -20 -36 -49.5t-82 -29.5q-41 0 -62.5 23.5t-23.5 64.5q-1 12 1 36h-3q-30 -56 -74.5 -83.5t-93.5 -16.5l-30 -255q-1 -3 -6 -5q-32 -8 -72 -8q-43 0 -72 8q-4 0 -3 5l71 582q4 32 -1.5 50.5t-14 25t-25.5 12.5
q-7 4 -6 12q2 20 36 49.5t81 29.5q48 0 73 -29t19 -82l-27 -219q-6 -43 8 -63t38 -19q37 2 73.5 50t45.5 123l27 219q0 1 5 6q38 7 76 7q40 0 71 -7q4 0 4 -5q-8 -52 -42 -335z" />
    <glyph glyph-name="paragraph" unicode="&#xb6;" horiz-adv-x="631" 
d="M600 700q5 0 5 -5v-57l-4 -5h-109v-629q0 -4 -5 -4h-66l-5 4v629h-57v-879q0 -4 -5 -4h-66l-5 4v569h-31q-110 0 -167.5 53t-57.5 137q0 83 57 135t168 52h348z" />
    <glyph glyph-name="periodcentered" unicode="&#xb7;" horiz-adv-x="229" 
d="M213 293q-4 -39 -35.5 -65.5t-75.5 -26.5q-42 0 -66.5 26.5t-20.5 65.5q5 38 37 65t73 27q43 0 68 -27t20 -65z" />
    <glyph glyph-name="cedilla" unicode="&#xb8;" horiz-adv-x="282" 
d="M134 21q2 2 32 2q4 -1 5 -5t0 -5l-31 -74q12 2 22 2q53 1 81 -28t23 -71q-6 -43 -42 -75.5t-89 -32.5q-39 0 -68 11.5t-41 25t-11 24.5q0 8 7 8q3 0 22 -7t41 -7q30 -1 51.5 13.5t24.5 40.5q3 22 -12 36.5t-49 13.5q-13 -1 -30 -5t-20 -4q-14 0 -6 14q9 15 90 123z" />
    <glyph glyph-name="onesuperior" unicode="&#xb9;" horiz-adv-x="240" 
d="M87 504q6 45 -1.5 69.5t-19.5 28t-22.5 6.5t-10.5 10q1 6 4 9t13 6.5t24 9t41.5 22t60.5 40.5q8 4 11 4h36q6 0 5 -4l-50 -408q0 -3 -4 -4q-28 -7 -56 -7q-31 0 -53 7q-3 0 -3 4q8 66 25 207z" />
    <glyph glyph-name="ordmasculine" unicode="&#xba;" horiz-adv-x="478" 
d="M266 716q96 -2 148 -61.5t40 -155.5q-11 -96 -78 -158t-163 -60q-94 2 -146.5 60.5t-40.5 158.5q11 95 79.5 157t160.5 59zM223 354q43 0 70.5 39.5t35.5 104.5q8 63 -9.5 105t-62.5 42q-41 0 -69.5 -40t-36.5 -103q-9 -67 11 -107.5t61 -40.5z" />
    <glyph glyph-name="guillemotright" unicode="&#xbb;" horiz-adv-x="441" 
d="M354 255l1 5q-49 10 -95 58t-39 100q2 17 10.5 29.5t16 17.5t12.5 5q6 0 9 -4q8 -8 26 -34t50.5 -70t69.5 -86q11 -12 11 -19q-1 -5 -16 -18q-48 -43 -90.5 -86.5t-67.5 -70t-34 -34.5q-7 -4 -11 -4q-9 0 -19.5 14t-8.5 37q6 49 62 96t113 64zM189 255l1 5q-49 10 -95 58
t-39 100q2 17 10.5 29.5t16 17.5t12.5 5q6 0 9 -4q8 -8 26 -34t50.5 -70t69.5 -86q11 -12 11 -19q-1 -5 -16 -18q-48 -43 -90.5 -86.5t-67.5 -70t-34 -34.5q-7 -4 -11 -4q-9 0 -19 14t-8 37q6 49 61.5 96t112.5 64z" />
    <glyph glyph-name="onequarter" unicode="&#xbc;" horiz-adv-x="736" 
d="M60 -1l-39 36q-2 1 0 5q89 97 598 667l8 2l39 -34q2 -4 -1 -8q-260 -276 -599 -667q-2 -1 -6 -1zM92 504q4 39 0.5 59.5t-12.5 30t-18.5 11.5t-16.5 4.5t-7 8.5q0 7 3 9.5t13 6t24 9t41.5 22t60.5 40.5q8 4 11 4h37q5 0 4 -4l-50 -408q0 -3 -4 -4q-27 -7 -56 -7
q-31 0 -53 7q-3 0 -2 4q8 66 25 207zM654 158h62q4 0 3 -4q-3 -38 -8 -63q0 -4 -4 -4h-62l-10 -82q0 -2 -4 -3q-30 -7 -59 -7q-32 0 -57 7q-2 0 -2 3q1 14 10 82q-39 1 -78.5 -0.5t-67 -3.5t-34.5 -2q-9 2 -16.5 19.5t-5.5 37.5q3 25 20.5 46t54 49t48.5 39q24 22 37.5 42
t15.5 29t1.5 23t-0.5 15q2 13 31.5 29.5t62.5 16.5q39 0 64 -22.5t19 -73.5zM536 158l20 167h-3q-21 -43 -56.5 -79.5t-62 -57.5t-28.5 -27l1 -3h129z" />
    <glyph glyph-name="onehalf" unicode="&#xbd;" horiz-adv-x="804" 
d="M64 -1l-40 36q-2 2 1 5q142 155 368.5 409t229.5 258l7 2l39 -34q3 -4 -1 -8q-258 -275 -599 -667zM91 504q4 39 0.5 59.5t-12.5 30t-18.5 11.5t-16.5 4.5t-7 8.5q0 7 3 9.5t13 6t24 9t41.5 22t60.5 40.5q8 4 12 4h36q5 0 5 -4l-50 -408q0 -3 -5 -4q-27 -7 -55 -7
q-32 0 -54 7l-2 4q8 66 25 207zM750 117q9 0 14.5 -17t3.5 -35q-4 -36 -30 -63t-72 -24q-18 1 -84.5 17.5t-90.5 13.5q-19 -2 -34 -9t-23.5 -12.5t-13.5 -3.5q-7 2 -12.5 15.5t-3.5 27.5q4 35 29.5 65t60 51t68.5 41.5t60.5 46t31.5 54.5q5 24 -6.5 40.5t-37.5 16.5
t-44.5 -19t-20.5 -52q0 -4 0.5 -9t0.5 -7q1 -7 -14 -15.5t-32 -8.5q-28 0 -44.5 18t-13.5 45q6 53 59 84.5t121 31.5q74 0 114.5 -28.5t36.5 -79.5q-3 -31 -21.5 -58.5t-51 -48.5t-59 -34.5t-68 -31t-54.5 -23.5l1 -2q10 5 75 -5t90 -7t43 14t22 11z" />
    <glyph glyph-name="threequarters" unicode="&#xbe;" horiz-adv-x="851" 
d="M176 -1l-40 36q-2 2 1 5q89 97 598 667l7 2l39 -34q3 -4 -1 -8q-258 -275 -599 -667q-1 -1 -5 -1zM766 158h62q4 0 3 -4q-3 -38 -8 -63q0 -4 -4 -4h-62l-10 -82q0 -2 -4 -3q-30 -7 -59 -7q-32 0 -57 7q-2 0 -2 3q1 14 10 82q-39 1 -78.5 -0.5t-67 -3.5t-34.5 -2
q-9 2 -16.5 19.5t-5.5 37.5q3 25 20.5 46t54 49t48.5 39q24 22 37.5 42t15.5 29t1.5 23t-0.5 15q2 13 31.5 29.5t62.5 16.5q39 0 64 -22.5t19 -73.5zM648 158l20 167h-3q-21 -43 -56.5 -79.5t-62 -57.5t-28.5 -27l1 -3h129zM327 695q23 3 40 12t20 9q7 0 11 -11.5t2 -31.5
q-4 -34 -37.5 -65.5t-97.5 -67.5l-1 -2q60 -6 90.5 -35t25.5 -75q-6 -47 -39.5 -80t-76.5 -47t-88 -14q-83 0 -124.5 28.5t-35.5 81.5q3 26 22.5 45.5t52.5 19.5q17 0 28.5 -9t10.5 -17q0 -1 -2.5 -10t-3.5 -14q-4 -27 12 -43.5t47 -16.5q32 0 53.5 20t24.5 46q2 16 -1 28.5
t-11 20.5t-14.5 13t-15.5 9.5t-10 5.5q-23 -12 -42 -12q-17 0 -25 7.5t-7 20.5q2 29 43 33q12 0 19 -1q27 17 71 56v3q-19 -2 -66 4t-52 6q-30 0 -47.5 -6t-25 -12t-11.5 -6q-9 0 -15 15t-4 32q4 35 30 58.5t75 23.5q33 0 92 -13t83 -9z" />
    <glyph glyph-name="questiondown" unicode="&#xbf;" horiz-adv-x="461" 
d="M187 -279q-94 0 -153.5 38t-56.5 109q2 46 26 81t58.5 58t70 45t65 54.5t37.5 73.5q2 11 4.5 25.5t3.5 20.5t4 13.5t7.5 10t12.5 2.5q21 0 39.5 -33.5t17.5 -78.5q-1 -42 -25 -78.5t-52.5 -58.5t-57.5 -53t-38 -61q-10 -33 7 -56t53 -23q38 -1 59.5 19.5t26.5 54.5
q1 8 0.5 24.5t-0.5 19.5q2 9 24 22t42 13q36 0 58 -25.5t17 -62.5q-8 -68 -83 -111t-167 -43zM182 422q5 40 36 66.5t75 26.5q42 0 67 -27t20 -66q-5 -41 -36.5 -68t-72.5 -27q-43 0 -68.5 27t-20.5 68z" />
    <glyph glyph-name="Agrave" unicode="&#xc0;" horiz-adv-x="879" 
d="M763 576q71 -165 62 -570q0 -6 -6 -6q-43 -8 -86 -8t-93 8q-5 0 -5 5q9 151 9 179h-217q-111 -201 -256 -201q-69 0 -109.5 42.5t-40.5 102.5q0 38 20 76t41 38q12 0 18 -13q1 -31 21 -55t62 -24q49 0 101 51.5t91 125t66 147.5t34 126q2 18 -18.5 23t-20.5 10
q-2 25 43 54.5t99 29.5q124 0 185 -141zM479 288h166q2 236 -81 289l-3 -1q-34 -170 -82 -288zM639 733q-75 1 -137.5 30t-70.5 56q0 5 4 9q53 61 84 71q6 1 8 -3q18 -33 39.5 -58t41 -37t38 -20.5t32 -11.5t21 -6.5t7.5 -8.5q-2 -21 -67 -21z" />
    <glyph glyph-name="Aacute" unicode="&#xc1;" horiz-adv-x="879" 
d="M763 576q71 -165 62 -570q0 -6 -6 -6q-43 -8 -86 -8t-93 8q-5 0 -5 5q9 151 9 179h-217q-111 -201 -256 -201q-69 0 -109.5 42.5t-40.5 102.5q0 38 20 76t41 38q12 0 18 -13q1 -31 21 -55t62 -24q49 0 101 51.5t91 125t66 147.5t34 126q2 18 -18.5 23t-20.5 10
q-2 25 43 54.5t99 29.5q124 0 185 -141zM479 288h166q2 236 -81 289l-3 -1q-34 -170 -82 -288zM636 895q2 5 8 3q30 -10 67 -71q4 -4 2 -9q-13 -27 -84 -56t-146 -30q-63 0 -61 21q1 6 13 9.5t33 9.5t46 17.5t58 38.5t64 67z" />
    <glyph glyph-name="Acircumflex" unicode="&#xc2;" horiz-adv-x="879" 
d="M763 576q71 -165 62 -570q0 -6 -6 -6q-43 -8 -86 -8t-93 8q-5 0 -5 5q9 151 9 179h-217q-111 -201 -256 -201q-69 0 -109.5 42.5t-40.5 102.5q0 38 20 76t41 38q12 0 18 -13q1 -31 21 -55t62 -24q49 0 101 51.5t91 125t66 147.5t34 126q2 18 -18.5 23t-20.5 10
q-2 25 43 54.5t99 29.5q124 0 185 -141zM479 288h166q2 236 -81 289l-3 -1q-34 -170 -82 -288zM591 896q9 0 22.5 -12.5t33.5 -35t26 -28.5q14 -13 36.5 -31t33.5 -28t9 -15q-3 -7 -14 -7q-6 0 -14 1.5t-19 5t-19.5 6.5t-24.5 9.5t-24.5 10t-29 12t-29.5 12.5
q-144 -57 -174 -57q-9 0 -10 7q0 5 13.5 15.5t40 28t43.5 31.5q19 15 44.5 36.5t37 30t18.5 8.5z" />
    <glyph glyph-name="Atilde" unicode="&#xc3;" horiz-adv-x="881" 
d="M763 576q71 -165 62 -570q0 -6 -6 -6q-43 -8 -86 -8t-93 8q-5 0 -5 5q9 151 9 179h-217q-111 -201 -256 -201q-69 0 -109.5 42.5t-40.5 102.5q0 38 20 76t41 38q12 0 18 -13q1 -31 21 -55t62 -24q49 0 101 51.5t91 125t66 147.5t34 126q2 18 -18.5 23t-20.5 10
q-2 25 43 54.5t99 29.5q124 0 185 -141zM479 288h166q2 236 -81 289l-3 -1q-34 -170 -82 -288zM773 852q13 0 10 -24q-5 -36 -40.5 -68t-97.5 -30q-34 1 -101 22.5t-95 21.5q-31 0 -55.5 -14.5t-26.5 -14.5q-15 0 -11 24q5 31 42 62t86 31q33 0 94.5 -20.5t87.5 -20.5
q36 0 70.5 15.5t36.5 15.5z" />
    <glyph glyph-name="Adieresis" unicode="&#xc4;" horiz-adv-x="879" 
d="M763 576q71 -165 62 -570q0 -6 -6 -6q-43 -8 -86 -8t-93 8q-5 0 -5 5q9 151 9 179h-217q-111 -201 -256 -201q-69 0 -109.5 42.5t-40.5 102.5q0 38 20 76t41 38q12 0 18 -13q1 -31 21 -55t62 -24q49 0 101 51.5t91 125t66 147.5t34 126q2 18 -18.5 23t-20.5 10
q-2 25 43 54.5t99 29.5q124 0 185 -141zM479 288h166q2 236 -81 289l-3 -1q-34 -170 -82 -288zM552 796q-4 -29 -28 -49.5t-54 -20.5q-29 0 -48 20.5t-16 49.5q4 30 27.5 50.5t53.5 20.5q31 0 50 -20.5t15 -50.5zM734 796q-4 -29 -28 -49.5t-53 -20.5q-30 0 -49 20.5
t-15 49.5q4 30 28 50.5t54 20.5t48.5 -20.5t14.5 -50.5z" />
    <glyph glyph-name="Aring" unicode="&#xc5;" horiz-adv-x="879" 
d="M477 790q6 44 41 74t79 30t71 -30.5t21 -73.5q-6 -51 -53 -83q81 -28 127 -131q71 -165 62 -570q0 -6 -6 -6q-43 -8 -86 -8t-93 8q-5 0 -5 5q9 151 9 179h-217q-111 -201 -256 -201q-69 0 -109.5 42.5t-40.5 102.5q0 38 20 76t41 38q12 0 18 -13q1 -31 21 -55t62 -24
q49 0 101 51.5t91 125t66 147.5t34 126q2 18 -18.5 23t-20.5 10q-2 17 21 38.5t57 33.5q-42 32 -37 85zM479 288h166q2 236 -81 289l-3 -1q-34 -170 -82 -288zM578 745q18 0 32 13t16 32q3 19 -8 32.5t-29 13.5q-19 0 -32.5 -13t-16.5 -33q-2 -19 8.5 -32t29.5 -13z" />
    <glyph glyph-name="AE" unicode="&#xc6;" horiz-adv-x="960" 
d="M926 166q8 2 12 -4t1 -15q-20 -53 -99.5 -108.5t-183.5 -55.5q-209 0 -230 183h-219q-43 -76 -90 -162q-1 -2 -4 -4l-3 -1q-27 -7 -70 -7q-26 0 -70 7q-4 4 -3 7q79 136 154.5 250t118.5 169.5t74.5 98.5t38.5 64q6 22 2.5 29.5t-11.5 13t-8 9.5q-1 22 44.5 49.5
t99.5 27.5q32 0 143 -11t207 -11q41 0 73 13l32 12q13 0 27.5 -22t10.5 -56q-20 -112 -138 -114q-32 0 -65.5 4t-77 12t-63.5 11l-19 -152q75 -2 130 1t82.5 7t29.5 4q12 0 9 -23q-5 -40 -39.5 -71t-97.5 -31q-55 0 -127 7q-2 -11 -4 -35q-10 -148 137 -148q33 0 68.5 9.5
t73.5 24t54 18.5zM265 268h162q27 209 33 273h-4q-84 -100 -191 -273z" />
    <glyph glyph-name="Ccedilla" unicode="&#xc7;" horiz-adv-x="642" 
d="M381 32q45 0 85 15t62 33t41 34t26 17q8 1 12.5 -4.5t3.5 -13.5q-3 -26 -25 -64t-58 -76.5t-92 -65.5t-117 -27q-5 0 -13 0.5t-13 0.5l-14 -34q12 2 22 2q53 1 81 -28t23 -71q-6 -43 -42 -75.5t-89 -32.5q-39 0 -68 11.5t-41 25t-11 24.5q0 8 7 8q3 0 22 -7t41 -7
q30 -1 51.5 13.5t24.5 40.5q3 22 -12 36.5t-49 13.5q-13 -1 -30 -5t-20 -4q-14 0 -6 14q9 15 59 83q-121 27 -175.5 136.5t-30.5 270.5q24 167 135.5 292t261.5 128q103 2 167.5 -54.5t54.5 -148.5q-5 -47 -33 -83.5t-77 -36.5q-29 0 -49.5 12.5t-20.5 26.5q0 2 5 25.5
t6 43.5q2 51 -18.5 84t-66.5 30q-65 -3 -120 -85t-71 -192q-12 -86 -1 -152t54.5 -110t117.5 -44z" />
    <glyph glyph-name="Egrave" unicode="&#xc8;" horiz-adv-x="834" 
d="M134 349q-51 0 -87.5 40.5t-36.5 103.5q0 103 102 164t267 55q35 -1 140 -8.5t146 -7.5q51 0 84 8.5t46.5 17t16.5 8.5q14 0 25 -22.5t10 -48.5q0 -60 -41 -93t-113 -33q-25 0 -52.5 3.5t-47 7.5t-53.5 11.5t-52 11.5l-21 -158q86 -3 130.5 -0.5t78.5 7t35 4.5
q13 0 10 -23q-5 -40 -40 -71.5t-97 -31.5q-53 0 -130 11q-4 -29 -5 -46q-4 -73 34 -109.5t109 -36.5q33 0 68 9.5t72 24.5t53 19q8 2 12.5 -4t0.5 -15q-12 -32 -46.5 -67.5t-98.5 -66t-135 -30.5q-121 0 -187.5 64.5t-50.5 197.5q8 57 44 352q-66 1 -105 -30.5t-39 -84.5
q0 -28 8 -48.5t16 -31.5t8 -15q0 -13 -23.5 -25.5t-54.5 -12.5zM599 726q-75 1 -137.5 30t-70.5 56q0 5 4 9q53 61 84 71q6 1 8 -3q18 -33 39.5 -58t41 -37t38 -20.5t32 -11.5t21 -6.5t7.5 -8.5q-2 -21 -67 -21z" />
    <glyph glyph-name="Eacute" unicode="&#xc9;" horiz-adv-x="834" 
d="M134 349q-51 0 -87.5 40.5t-36.5 103.5q0 103 102 164t267 55q35 -1 140 -8.5t146 -7.5q51 0 84 8.5t46.5 17t16.5 8.5q14 0 25 -22.5t10 -48.5q0 -60 -41 -93t-113 -33q-25 0 -52.5 3.5t-47 7.5t-53.5 11.5t-52 11.5l-21 -158q86 -3 130.5 -0.5t78.5 7t35 4.5
q13 0 10 -23q-5 -40 -40 -71.5t-97 -31.5q-53 0 -130 11q-4 -29 -5 -46q-4 -73 34 -109.5t109 -36.5q33 0 68 9.5t72 24.5t53 19q8 2 12.5 -4t0.5 -15q-12 -32 -46.5 -67.5t-98.5 -66t-135 -30.5q-121 0 -187.5 64.5t-50.5 197.5q8 57 44 352q-66 1 -105 -30.5t-39 -84.5
q0 -28 8 -48.5t16 -31.5t8 -15q0 -13 -23.5 -25.5t-54.5 -12.5zM619 888q2 5 8 3q30 -10 67 -71q4 -4 2 -9q-13 -27 -84 -56t-146 -30q-63 0 -61 21q1 6 13 9.5t33 9.5t46 17.5t58 38.5t64 67z" />
    <glyph glyph-name="Ecircumflex" unicode="&#xca;" horiz-adv-x="834" 
d="M134 349q-51 0 -87.5 40.5t-36.5 103.5q0 103 102 164t267 55q35 -1 140 -8.5t146 -7.5q51 0 84 8.5t46.5 17t16.5 8.5q14 0 25 -22.5t10 -48.5q0 -60 -41 -93t-113 -33q-25 0 -52.5 3.5t-47 7.5t-53.5 11.5t-52 11.5l-21 -158q86 -3 130.5 -0.5t78.5 7t35 4.5
q13 0 10 -23q-5 -40 -40 -71.5t-97 -31.5q-53 0 -130 11q-4 -29 -5 -46q-4 -73 34 -109.5t109 -36.5q33 0 68 9.5t72 24.5t53 19q8 2 12.5 -4t0.5 -15q-12 -32 -46.5 -67.5t-98.5 -66t-135 -30.5q-121 0 -187.5 64.5t-50.5 197.5q8 57 44 352q-66 1 -105 -30.5t-39 -84.5
q0 -28 8 -48.5t16 -31.5t8 -15q0 -13 -23.5 -25.5t-54.5 -12.5zM544 896q9 0 22.5 -12.5t33.5 -35t26 -28.5q14 -13 36.5 -31t33.5 -28t9 -15q-3 -7 -14 -7q-6 0 -14 1.5t-19 5t-19.5 6.5t-24.5 9.5t-24.5 10t-29 12t-29.5 12.5q-144 -57 -174 -57q-9 0 -10 7q0 5 13.5 15.5
t40 28t43.5 31.5q19 15 44.5 36.5t37 30t18.5 8.5z" />
    <glyph glyph-name="Edieresis" unicode="&#xcb;" horiz-adv-x="834" 
d="M134 349q-51 0 -87.5 40.5t-36.5 103.5q0 103 102 164t267 55q35 -1 140 -8.5t146 -7.5q51 0 84 8.5t46.5 17t16.5 8.5q14 0 25 -22.5t10 -48.5q0 -60 -41 -93t-113 -33q-25 0 -52.5 3.5t-47 7.5t-53.5 11.5t-52 11.5l-21 -158q86 -3 130.5 -0.5t78.5 7t35 4.5
q13 0 10 -23q-5 -40 -40 -71.5t-97 -31.5q-53 0 -130 11q-4 -29 -5 -46q-4 -73 34 -109.5t109 -36.5q33 0 68 9.5t72 24.5t53 19q8 2 12.5 -4t0.5 -15q-12 -32 -46.5 -67.5t-98.5 -66t-135 -30.5q-121 0 -187.5 64.5t-50.5 197.5q8 57 44 352q-66 1 -105 -30.5t-39 -84.5
q0 -28 8 -48.5t16 -31.5t8 -15q0 -13 -23.5 -25.5t-54.5 -12.5zM509 796q-4 -29 -28 -49.5t-54 -20.5q-29 0 -48 20.5t-16 49.5q4 30 27.5 50.5t53.5 20.5q31 0 50 -20.5t15 -50.5zM691 796q-4 -29 -28 -49.5t-53 -20.5q-30 0 -49 20.5t-15 49.5q4 30 28 50.5t54 20.5
t48.5 -20.5t14.5 -50.5z" />
    <glyph glyph-name="Igrave" unicode="&#xcc;" horiz-adv-x="545" 
d="M507 561q0 -44 -66 -556q-1 -4 -5 -5q-37 -8 -79 -8q-51 0 -80 8q-5 0 -4 5q65 501 67 528q9 110 -49 110q-44 0 -79 -44.5t-37 -100.5q-1 -34 5.5 -62.5t6.5 -30.5q0 -13 -23 -25.5t-54 -12.5q-45 0 -74 33t-25 91q5 72 53 129t115.5 85t139.5 28q188 0 188 -172z
M410 749q-75 1 -137.5 30t-70.5 56q0 5 4 9q53 61 84 71q6 1 8 -3q18 -33 39.5 -58t41 -37t38 -20.5t32 -11.5t21 -6.5t7.5 -8.5q-2 -21 -67 -21z" />
    <glyph glyph-name="Iacute" unicode="&#xcd;" horiz-adv-x="545" 
d="M507 561q0 -44 -66 -556q-1 -4 -5 -5q-37 -8 -79 -8q-51 0 -80 8q-5 0 -4 5q65 501 67 528q9 110 -49 110q-44 0 -79 -44.5t-37 -100.5q-1 -34 5.5 -62.5t6.5 -30.5q0 -13 -23 -25.5t-54 -12.5q-45 0 -74 33t-25 91q5 72 53 129t115.5 85t139.5 28q188 0 188 -172z
M420 913q2 5 8 3q30 -10 67 -71q4 -4 2 -9q-13 -27 -84 -56t-146 -30q-63 0 -61 21q1 6 13 9.5t33 9.5t46 17.5t58 38.5t64 67z" />
    <glyph glyph-name="Icircumflex" unicode="&#xce;" horiz-adv-x="545" 
d="M507 561q0 -44 -66 -556q-1 -4 -5 -5q-37 -8 -79 -8q-51 0 -80 8q-5 0 -4 5q65 501 67 528q9 110 -49 110q-44 0 -79 -44.5t-37 -100.5q-1 -34 5.5 -62.5t6.5 -30.5q0 -13 -23 -25.5t-54 -12.5q-45 0 -74 33t-25 91q5 72 53 129t115.5 85t139.5 28q188 0 188 -172z
M337 893q9 0 22.5 -12.5t33.5 -35t26 -28.5q14 -13 36.5 -31t33.5 -28t9 -15q-3 -7 -14 -7q-6 0 -14 1.5t-19 5t-19.5 6.5t-24.5 9.5t-24.5 10t-29 12t-29.5 12.5q-144 -57 -174 -57q-9 0 -10 7q0 5 13.5 15.5t40 28t43.5 31.5q19 15 44.5 36.5t37 30t18.5 8.5z" />
    <glyph glyph-name="Idieresis" unicode="&#xcf;" horiz-adv-x="545" 
d="M507 561q0 -44 -66 -556q-1 -4 -5 -5q-37 -8 -79 -8q-51 0 -80 8q-5 0 -4 5q65 501 67 528q9 110 -49 110q-44 0 -79 -44.5t-37 -100.5q-1 -34 5.5 -62.5t6.5 -30.5q0 -13 -23 -25.5t-54 -12.5q-45 0 -74 33t-25 91q5 72 53 129t115.5 85t139.5 28q188 0 188 -172z
M322 815q-4 -29 -28 -49.5t-54 -20.5q-29 0 -48 20.5t-16 49.5q4 30 27.5 50.5t53.5 20.5q31 0 50 -20.5t15 -50.5zM504 815q-4 -29 -28 -49.5t-53 -20.5q-30 0 -49 20.5t-15 49.5q4 30 28 50.5t54 20.5t48.5 -20.5t14.5 -50.5z" />
    <glyph glyph-name="Eth" unicode="&#xd0;" horiz-adv-x="900" 
d="M885 397q0 -93 -31.5 -173t-84 -133t-121.5 -82t-143 -26q-116 4 -180 79.5t-62 186.5h-46q-3 0 -3 5l9 68q0 1 4 5h43q22 87 82.5 147.5t135.5 69.5q13 1 17 -6.5t-3 -15.5q-50 -69 -71 -189l111 1q3 0 3 -5l-8 -68q-1 -4 -4 -4q0 -1 -1 -1h-108q-2 -43 5.5 -77
t33 -59.5t67.5 -25.5q82 0 131.5 90t49.5 200q-3 243 -239 243q-102 0 -183 -48t-94 -114q-3 -20 -3 -30.5t2.5 -23t2.5 -14.5q0 -14 -25.5 -27t-57.5 -13q-46 0 -76.5 33t-26.5 82q7 75 76 134.5t171.5 90t217.5 30.5q191 0 300 -86t109 -244z" />
    <glyph glyph-name="Ntilde" unicode="&#xd1;" horiz-adv-x="982" 
d="M974 699q3 0 3 -5l-84 -689q0 -2 -1.5 -3.5t-3.5 -1.5l-1 -1q-27 -7 -59 -7q-28 -1 -56 7q-2 0 -3 2l-16 31q-16 31 -38 73.5t-54 98.5t-63 107t-66.5 99t-63.5 75h-2q-11 -88 -22.5 -190.5t-21.5 -186.5t-12 -103q0 -2 -1.5 -3.5t-2.5 -1.5l-2 -1q-27 -7 -60 -7
q-34 0 -59 7q-4 4 -4 5l74 608q-19 28 -62 28q-52 0 -85 -45.5t-33 -104.5q0 -36 13.5 -63.5t13.5 -29.5q-1 -14 -24 -26.5t-54 -12.5q-49 0 -83 37.5t-30 100.5q7 106 105.5 174t217.5 66q44 -1 85.5 -14.5t74.5 -33t67 -51.5t58.5 -61t52.5 -71t45.5 -71t42.5 -71t38 -63
l2 1l49 393q0 5 5 5q32 8 60 8q32 0 60 -8zM876 852q13 0 10 -24q-5 -36 -40.5 -68t-97.5 -30q-34 1 -101 22.5t-95 21.5q-31 0 -55.5 -14.5t-26.5 -14.5q-15 0 -11 24q5 31 42 62t86 31q33 0 94.5 -20.5t87.5 -20.5q36 0 70.5 15.5t36.5 15.5z" />
    <glyph glyph-name="Ograve" unicode="&#xd2;" horiz-adv-x="709" 
d="M428 718q106 1 164.5 -43.5t58.5 -106.5q0 -34 -15 -63l1 -4q57 -28 57 -126q0 -99 -43 -187.5t-128 -146.5t-193 -58q-148 0 -228.5 97t-68.5 245q8 107 57 195t137.5 142.5t200.5 55.5zM346 94q92 0 148 91t46 212l-1 1q-41 -24 -85 -26q-54 -2 -57 22q-2 9 12.5 20
t33.5 22.5t35.5 37.5t17.5 60q2 33 -24 53.5t-69 17.5q-85 -7 -136.5 -89.5t-58.5 -185.5q-8 -107 29.5 -171.5t108.5 -64.5zM514 743q-75 1 -137.5 30t-70.5 56q0 5 4 9q53 61 84 71q6 1 8 -3q18 -33 39.5 -58t41 -37t38 -20.5t32 -11.5t21 -6.5t7.5 -8.5q-2 -21 -67 -21z
" />
    <glyph glyph-name="Oacute" unicode="&#xd3;" horiz-adv-x="709" 
d="M428 718q106 1 164.5 -43.5t58.5 -106.5q0 -34 -15 -63l1 -4q57 -28 57 -126q0 -99 -43 -187.5t-128 -146.5t-193 -58q-148 0 -228.5 97t-68.5 245q8 107 57 195t137.5 142.5t200.5 55.5zM346 94q92 0 148 91t46 212l-1 1q-41 -24 -85 -26q-54 -2 -57 22q-2 9 12.5 20
t33.5 22.5t35.5 37.5t17.5 60q2 33 -24 53.5t-69 17.5q-85 -7 -136.5 -89.5t-58.5 -185.5q-8 -107 29.5 -171.5t108.5 -64.5zM496 898q2 5 8 3q30 -10 67 -71q4 -4 2 -9q-13 -27 -84 -56t-146 -30q-63 0 -61 21q1 6 13 9.5t33 9.5t46 17.5t58 38.5t64 67z" />
    <glyph glyph-name="Ocircumflex" unicode="&#xd4;" horiz-adv-x="709" 
d="M428 718q106 1 164.5 -43.5t58.5 -106.5q0 -34 -15 -63l1 -4q57 -28 57 -126q0 -99 -43 -187.5t-128 -146.5t-193 -58q-148 0 -228.5 97t-68.5 245q8 107 57 195t137.5 142.5t200.5 55.5zM346 94q92 0 148 91t46 212l-1 1q-41 -24 -85 -26q-54 -2 -57 22q-2 9 12.5 20
t33.5 22.5t35.5 37.5t17.5 60q2 33 -24 53.5t-69 17.5q-85 -7 -136.5 -89.5t-58.5 -185.5q-8 -107 29.5 -171.5t108.5 -64.5zM444 896q9 0 22.5 -12.5t33.5 -35t26 -28.5q14 -13 36.5 -31t33.5 -28t9 -15q-3 -7 -14 -7q-6 0 -14 1.5t-19 5t-19.5 6.5t-24.5 9.5t-24.5 10
t-29 12t-29.5 12.5q-144 -57 -174 -57q-9 0 -10 7q0 5 13.5 15.5t40 28t43.5 31.5q19 15 44.5 36.5t37 30t18.5 8.5z" />
    <glyph glyph-name="Otilde" unicode="&#xd5;" horiz-adv-x="709" 
d="M428 718q106 1 164.5 -43.5t58.5 -106.5q0 -34 -15 -63l1 -4q57 -28 57 -126q0 -99 -43 -187.5t-128 -146.5t-193 -58q-148 0 -228.5 97t-68.5 245q8 107 57 195t137.5 142.5t200.5 55.5zM346 94q92 0 148 91t46 212l-1 1q-41 -24 -85 -26q-54 -2 -57 22q-2 9 12.5 20
t33.5 22.5t35.5 37.5t17.5 60q2 33 -24 53.5t-69 17.5q-85 -7 -136.5 -89.5t-58.5 -185.5q-8 -107 29.5 -171.5t108.5 -64.5zM636 857q13 0 10 -24q-5 -36 -40.5 -68t-97.5 -30q-34 1 -101 22.5t-95 21.5q-31 0 -55.5 -14.5t-26.5 -14.5q-15 0 -11 24q5 31 42 62t86 31
q33 0 94.5 -20.5t87.5 -20.5q36 0 70.5 15.5t36.5 15.5z" />
    <glyph glyph-name="Odieresis" unicode="&#xd6;" horiz-adv-x="709" 
d="M428 718q106 1 164.5 -43.5t58.5 -106.5q0 -34 -15 -63l1 -4q57 -28 57 -126q0 -99 -43 -187.5t-128 -146.5t-193 -58q-148 0 -228.5 97t-68.5 245q8 107 57 195t137.5 142.5t200.5 55.5zM346 94q92 0 148 91t46 212l-1 1q-41 -24 -85 -26q-54 -2 -57 22q-2 9 12.5 20
t33.5 22.5t35.5 37.5t17.5 60q2 33 -24 53.5t-69 17.5q-85 -7 -136.5 -89.5t-58.5 -185.5q-8 -107 29.5 -171.5t108.5 -64.5zM421 796q-4 -29 -28 -49.5t-54 -20.5q-29 0 -48 20.5t-16 49.5q4 30 27.5 50.5t53.5 20.5q31 0 50 -20.5t15 -50.5zM603 796q-4 -29 -28 -49.5
t-53 -20.5q-30 0 -49 20.5t-15 49.5q4 30 28 50.5t54 20.5t48.5 -20.5t14.5 -50.5z" />
    <glyph glyph-name="multiply" unicode="&#xd7;" horiz-adv-x="450" 
d="M231 411l157 140q2 3 5 0l41 -47q2 -2 -1 -5l-157 -139l123 -139v-6l-53 -47q-4 -3 -7 1q-56 63 -123 138l-155 -138l-6 -1l-39 45q-3 4 1 8q69 61 154 137l-122 141q-3 3 0 5l54 49q3 2 5 -1z" />
    <glyph glyph-name="Oslash" unicode="&#xd8;" horiz-adv-x="771" 
d="M438 717q119 0 195 -58l65 69q2 2 7 0l48 -44v-7l-67 -71q72 -101 51 -254q-20 -161 -121.5 -265t-265.5 -104q-113 0 -192 62l-71 -75q-2 -2 -6 0l-49 45v6l74 78q-71 101 -53 245q20 163 125.5 268t259.5 105zM228 354q-8 -70 6 -120l297 317q-40 57 -105 57
q-74 0 -129 -73t-69 -181zM365 94q75 0 128.5 67.5t67.5 184.5q8 68 -5 124l-296 -319q37 -57 105 -57z" />
    <glyph glyph-name="Ugrave" unicode="&#xd9;" horiz-adv-x="938" 
d="M511 561q0 -34 -13 -127.5t-21 -178.5q-5 -72 27 -110.5t87 -38.5q137 0 162 177q11 74 51 411q1 5 5 5q35 8 62 8q24 0 58 -8q4 -1 4 -5q-9 -64 -24 -193t-24 -193q-44 -326 -329 -326q-276 0 -247 296q2 25 16 130.5t15 124.5q9 110 -49 110q-44 0 -79 -44.5
t-37 -100.5q-1 -34 5.5 -62.5t6.5 -30.5q0 -13 -23 -25.5t-54 -12.5q-45 0 -74 33t-25 91q5 72 53 129t115.5 85t139.5 28q192 0 192 -172zM700 723q-75 1 -137.5 30t-70.5 56q0 5 4 9q53 61 84 71q6 1 8 -3q18 -33 39.5 -58t41 -37t38 -20.5t32 -11.5t21 -6.5t7.5 -8.5
q-2 -21 -67 -21z" />
    <glyph glyph-name="Uacute" unicode="&#xda;" horiz-adv-x="938" 
d="M511 561q0 -34 -13 -127.5t-21 -178.5q-5 -72 27 -110.5t87 -38.5q137 0 162 177q11 74 51 411q1 5 5 5q35 8 62 8q24 0 58 -8q4 -1 4 -5q-9 -64 -24 -193t-24 -193q-44 -326 -329 -326q-276 0 -247 296q2 25 16 130.5t15 124.5q9 110 -49 110q-44 0 -79 -44.5
t-37 -100.5q-1 -34 5.5 -62.5t6.5 -30.5q0 -13 -23 -25.5t-54 -12.5q-45 0 -74 33t-25 91q5 72 53 129t115.5 85t139.5 28q192 0 192 -172zM737 885q2 5 8 3q30 -10 67 -71q4 -4 2 -9q-13 -27 -84 -56t-146 -30q-63 0 -61 21q1 6 13 9.5t33 9.5t46 17.5t58 38.5t64 67z" />
    <glyph glyph-name="Ucircumflex" unicode="&#xdb;" horiz-adv-x="938" 
d="M511 561q0 -34 -13 -127.5t-21 -178.5q-5 -72 27 -110.5t87 -38.5q137 0 162 177q11 74 51 411q1 5 5 5q35 8 62 8q24 0 58 -8q4 -1 4 -5q-9 -64 -24 -193t-24 -193q-44 -326 -329 -326q-276 0 -247 296q2 25 16 130.5t15 124.5q9 110 -49 110q-44 0 -79 -44.5
t-37 -100.5q-1 -34 5.5 -62.5t6.5 -30.5q0 -13 -23 -25.5t-54 -12.5q-45 0 -74 33t-25 91q5 72 53 129t115.5 85t139.5 28q192 0 192 -172zM667 896q9 0 22.5 -12.5t33.5 -35t26 -28.5q14 -13 36.5 -31t33.5 -28t9 -15q-3 -7 -14 -7q-6 0 -14 1.5t-19 5t-19.5 6.5t-24.5 9.5
t-24.5 10t-29 12t-29.5 12.5q-144 -57 -174 -57q-9 0 -10 7q0 5 13.5 15.5t40 28t43.5 31.5q19 15 44.5 36.5t37 30t18.5 8.5z" />
    <glyph glyph-name="Udieresis" unicode="&#xdc;" horiz-adv-x="938" 
d="M511 561q0 -34 -13 -127.5t-21 -178.5q-5 -72 27 -110.5t87 -38.5q137 0 162 177q11 74 51 411q1 5 5 5q35 8 62 8q24 0 58 -8q4 -1 4 -5q-9 -64 -24 -193t-24 -193q-44 -326 -329 -326q-276 0 -247 296q2 25 16 130.5t15 124.5q9 110 -49 110q-44 0 -79 -44.5
t-37 -100.5q-1 -34 5.5 -62.5t6.5 -30.5q0 -13 -23 -25.5t-54 -12.5q-45 0 -74 33t-25 91q5 72 53 129t115.5 85t139.5 28q192 0 192 -172zM630 796q-4 -29 -28 -49.5t-54 -20.5q-29 0 -48 20.5t-16 49.5q4 30 27.5 50.5t53.5 20.5q31 0 50 -20.5t15 -50.5zM812 796
q-4 -29 -28 -49.5t-53 -20.5q-30 0 -49 20.5t-15 49.5q4 30 28 50.5t54 20.5t48.5 -20.5t14.5 -50.5z" />
    <glyph glyph-name="Yacute" unicode="&#xdd;" horiz-adv-x="826" 
d="M253 637q-30 0 -54 -34t-24 -92q0 -33 6 -67.5t6 -38.5q0 -13 -23 -25.5t-54 -12.5q-42 0 -71 29.5t-29 83.5q0 74 48 133.5t117.5 89.5t141.5 30q45 0 80.5 -13t60 -39t41.5 -54t29.5 -71t19 -75t14.5 -80h5q94 135 165 293q1 2 3 3.5t4 2.5l2 1l3 1q4 0 9.5 1t13 2.5
t18 2t21.5 0.5t22 -0.5t18.5 -2t13.5 -2.5t10 -1l3 -1q6 -6 5 -7q-165 -258 -289 -417l-32 -272q0 -2 -1.5 -3.5t-3.5 -1.5l-1 -1q-31 -7 -81 -7q-39 0 -78 7q-4 3 -3 5q13 104 29 243q-9 84 -30.5 170t-58 153t-76.5 67zM685 885q2 5 8 3q30 -10 67 -71q4 -4 2 -9
q-13 -27 -84 -56t-146 -30q-63 0 -61 21q1 6 13 9.5t33 9.5t46 17.5t58 38.5t64 67z" />
    <glyph glyph-name="Thorn" unicode="&#xde;" horiz-adv-x="811" 
d="M319 733q162 0 185 -127q52 9 78 9q134 4 199.5 -57.5t51.5 -175.5q-13 -106 -92.5 -169t-174.5 -61q-25 0 -41.5 8t-15.5 17t23 18q45 15 84.5 59t47.5 111q9 76 -41 111t-120 27q-14 -126 -62 -498q-1 -4 -5 -5q-37 -8 -79 -8q-51 0 -80 8q-5 0 -4 5q65 501 67 528
q9 110 -49 110q-44 0 -79 -44.5t-37 -100.5q-1 -34 5.5 -62.5t6.5 -30.5q0 -13 -23 -25.5t-54 -12.5q-45 0 -74 33t-25 91q5 72 53 129t115.5 85t139.5 28z" />
    <glyph glyph-name="germandbls" unicode="&#xdf;" horiz-adv-x="608" 
d="M575 215q-8 -108 -70.5 -170t-148.5 -62q-65 0 -95.5 38.5t-26.5 70.5q2 16 14 16q1 0 19.5 -9.5t41.5 -8.5q46 1 76.5 45t33.5 98q3 49 -10.5 89.5t-28.5 56.5l-15 16q-42 -16 -63 -5t-18 36q3 21 24 33t57 3q1 2 8.5 14.5t13.5 24t13 30.5t10 37q6 46 -10 78t-54 33
q-45 1 -71 -42.5t-33 -110.5l-65 -522q0 -3 -4 -4l-2 -1l-3 -1q-4 0 -10.5 -1t-15 -2.5t-20 -2t-23.5 -0.5q-10 0 -21 0.5t-19.5 2t-15 2.5t-11.5 1l-4 1l-1 1q-4 1 -3 4l63 519q14 109 83 177t189 67q95 -1 150.5 -49.5t47.5 -118.5q-8 -55 -43.5 -97.5t-74.5 -55.5v-3
q54 -22 98 -81.5t38 -146.5z" />
    <glyph glyph-name="agrave" unicode="&#xe0;" horiz-adv-x="602" 
d="M525 163q-4 -31 2 -50t14 -25t25 -13q8 -5 7 -12q-3 -25 -39 -51.5t-79 -26.5q-45 0 -69.5 27.5t-23.5 78.5h-2q-28 -50 -73 -77.5t-97 -27.5q-89 0 -135 78t-31 191q14 107 79 183t156 75q102 0 140 -89h3l16 71q0 4 5 6q38 6 69 6q44 0 72 -6q5 -2 5 -6
q-24 -172 -44 -332zM261 93q45 0 80 46.5t43 110.5q9 68 -13.5 114.5t-69.5 46.5q-43 0 -76.5 -43t-42.5 -111q-10 -74 12.5 -119t66.5 -45zM490 595q-2 -21 -67 -21q-73 1 -135 42t-70 71q0 5 4 9q16 18 55 43.5t57 28.5q6 0 6 -5q14 -53 41 -88t51 -46t41.5 -19.5
t16.5 -14.5z" />
    <glyph glyph-name="aacute" unicode="&#xe1;" horiz-adv-x="602" 
d="M525 163q-4 -31 2 -50t14 -25t25 -13q8 -5 7 -12q-3 -25 -39 -51.5t-79 -26.5q-45 0 -69.5 27.5t-23.5 78.5h-2q-28 -50 -73 -77.5t-97 -27.5q-89 0 -135 78t-31 191q14 107 79 183t156 75q102 0 140 -89h3l16 71q0 4 5 6q38 6 69 6q44 0 72 -6q5 -2 5 -6
q-24 -172 -44 -332zM261 93q45 0 80 46.5t43 110.5q9 68 -13.5 114.5t-69.5 46.5q-43 0 -76.5 -43t-42.5 -111q-10 -74 12.5 -119t66.5 -45zM197 595q1 6 20.5 14.5t46 19.5t61.5 46t62 88q3 5 8 5q17 -3 50 -28.5t45 -43.5q2 -6 1 -9q-15 -30 -87.5 -71t-145.5 -42
q-63 0 -61 21z" />
    <glyph glyph-name="acircumflex" unicode="&#xe2;" horiz-adv-x="602" 
d="M525 163q-4 -31 2 -50t14 -25t25 -13q8 -5 7 -12q-3 -25 -39 -51.5t-79 -26.5q-45 0 -69.5 27.5t-23.5 78.5h-2q-28 -50 -73 -77.5t-97 -27.5q-89 0 -135 78t-31 191q14 107 79 183t156 75q102 0 140 -89h3l16 71q0 4 5 6q38 6 69 6q44 0 72 -6q5 -2 5 -6
q-24 -172 -44 -332zM261 93q45 0 80 46.5t43 110.5q9 68 -13.5 114.5t-69.5 46.5q-43 0 -76.5 -43t-42.5 -111q-10 -74 12.5 -119t66.5 -45zM432 685q24 -33 49.5 -54.5t36.5 -29t10 -13.5q-1 -16 -39 -16q-76 0 -134 63h-1q-73 -63 -151 -63q-13 0 -23.5 4.5t-9.5 11.5
q1 6 14 13.5t43.5 29.5t63.5 55q19 19 37.5 42t26.5 31t15 8t13.5 -8.5t21 -32t27.5 -41.5z" />
    <glyph glyph-name="atilde" unicode="&#xe3;" horiz-adv-x="602" 
d="M525 163q-4 -31 2 -50t14 -25t25 -13q8 -5 7 -12q-3 -25 -39 -51.5t-79 -26.5q-45 0 -69.5 27.5t-23.5 78.5h-2q-28 -50 -73 -77.5t-97 -27.5q-89 0 -135 78t-31 191q14 107 79 183t156 75q102 0 140 -89h3l16 71q0 4 5 6q38 6 69 6q44 0 72 -6q5 -2 5 -6
q-24 -172 -44 -332zM261 93q45 0 80 46.5t43 110.5q9 68 -13.5 114.5t-69.5 46.5q-43 0 -76.5 -43t-42.5 -111q-10 -74 12.5 -119t66.5 -45zM553 713q13 0 10 -24q-5 -41 -43 -79.5t-97 -38.5q-34 0 -93 24t-86 24q-31 0 -59 -14.5t-30 -14.5q-15 0 -9 27q6 41 43 72t91 31
q33 0 87 -19t80 -19q36 0 70.5 15.5t35.5 15.5z" />
    <glyph glyph-name="adieresis" unicode="&#xe4;" horiz-adv-x="608" 
d="M525 163q-4 -31 2 -50t14 -25t25 -13q8 -5 7 -12q-3 -25 -39 -51.5t-79 -26.5q-45 0 -69.5 27.5t-23.5 78.5h-2q-28 -50 -73 -77.5t-97 -27.5q-89 0 -135 78t-31 191q14 107 79 183t156 75q102 0 140 -89h3l16 71q0 4 5 6q38 6 69 6q44 0 72 -6q5 -2 5 -6
q-24 -172 -44 -332zM261 93q45 0 80 46.5t43 110.5q9 68 -13.5 114.5t-69.5 46.5q-43 0 -76.5 -43t-42.5 -111q-10 -74 12.5 -119t66.5 -45zM331 639q-5 -32 -32.5 -55.5t-62.5 -23.5q-34 0 -56 23.5t-18 55.5q4 33 31.5 56t61.5 23q35 0 57.5 -23t18.5 -56zM559 639
q-5 -32 -33 -55.5t-62 -23.5q-35 0 -56.5 23.5t-17.5 55.5q4 33 31 56t62 23t57.5 -23t18.5 -56z" />
    <glyph glyph-name="aring" unicode="&#xe5;" horiz-adv-x="602" 
d="M525 163q-4 -31 2 -50t14 -25t25 -13q8 -5 7 -12q-3 -25 -39 -51.5t-79 -26.5q-45 0 -69.5 27.5t-23.5 78.5h-2q-28 -50 -73 -77.5t-97 -27.5q-89 0 -135 78t-31 191q14 107 79 183t156 75q102 0 140 -89h3l16 71q0 4 5 6q38 6 69 6q44 0 72 -6q5 -2 5 -6
q-24 -172 -44 -332zM261 93q45 0 80 46.5t43 110.5q9 68 -13.5 114.5t-69.5 46.5q-43 0 -76.5 -43t-42.5 -111q-10 -74 12.5 -119t66.5 -45zM253 655q6 43 41 73t79 30t71 -30t21 -73q-4 -43 -39 -72.5t-79 -29.5q-43 0 -70.5 29.5t-23.5 72.5zM354 610q18 0 32 13t16 32
q3 19 -8 32.5t-29 13.5q-19 0 -32.5 -13t-16.5 -33q-2 -19 8.5 -32t29.5 -13z" />
    <glyph glyph-name="ae" unicode="&#xe6;" horiz-adv-x="832" 
d="M784 145q8 0 6 -12q-2 -15 -18.5 -39t-44.5 -49.5t-74 -43.5t-97 -18q-77 0 -132 31.5t-74 90.5h-4q-89 -122 -208 -122q-63 0 -101.5 40t-30.5 104q10 81 79 124.5t176 43.5q12 0 27 -1t28.5 -3t17.5 -2q5 12 1 32t-11 39.5t-30.5 33.5t-58.5 14q-33 0 -67 -8.5
t-57.5 -18t-28.5 -10.5q-7 -1 -9.5 3.5t0.5 9.5q6 36 74.5 84.5t162.5 48.5q53 0 92 -22t57 -53h4q73 73 183 74q89 1 135.5 -46.5t36.5 -109.5q-12 -79 -80.5 -118.5t-153.5 -39.5q-51 0 -105 15q-1 -57 34.5 -92.5t95.5 -35.5q46 0 85 14t61.5 28t28.5 14zM210 87
q30 2 53.5 19.5t36 43t18.5 43t8 31.5q-30 5 -48 5q-58 0 -91.5 -22t-35.5 -59q-3 -29 12.5 -45.5t46.5 -15.5zM605 434q-45 0 -78.5 -42.5t-42.5 -104.5q30 -6 55 -6q54 0 91 23t41 62q3 28 -14 48t-52 20z" />
    <glyph glyph-name="ccedilla" unicode="&#xe7;" horiz-adv-x="507" 
d="M494 354q-4 -35 -27.5 -59.5t-64.5 -24.5q-24 0 -41.5 11t-15.5 22q0 6 4.5 23.5t6.5 27.5q4 36 -9.5 58t-44.5 22q-42 0 -78.5 -49t-44.5 -116q-10 -75 24.5 -124t113.5 -49q37 0 71 12.5t56.5 25t29.5 12.5q11 0 9 -11q-5 -39 -73.5 -94t-162.5 -55h-2l-20 -47
q12 2 22 2q53 1 81 -28t23 -71q-6 -43 -42 -75.5t-89 -32.5q-39 0 -68 11.5t-41 25t-11 24.5q0 8 7 8q3 0 22 -7t41 -7q30 -1 51.5 13.5t24.5 40.5q3 22 -12 36.5t-49 13.5q-13 -1 -30 -5t-20 -4q-14 0 -6 14q7 13 67 93q-95 16 -140.5 88.5t-32.5 175.5q14 113 96 186
t199 73q87 0 135.5 -48t40.5 -112z" />
    <glyph glyph-name="egrave" unicode="&#xe8;" horiz-adv-x="528" 
d="M300 430q-47 0 -80 -44.5t-41 -103.5q26 -5 55 -5q54 0 91 23.5t41 62.5q4 28 -13 47.5t-53 19.5zM481 147q9 0 6 -11q-2 -16 -18.5 -39.5t-44.5 -49t-74 -43.5t-97 -18q-117 0 -180.5 71.5t-49.5 191.5q15 119 97 191.5t199 73.5q102 1 152.5 -47t42.5 -108
q-10 -83 -79 -122t-150 -39q-24 0 -48.5 3t-42.5 7t-19 4q-1 -55 36 -88t95 -33q46 0 85 14t61.5 28t28.5 14zM460 595q-2 -21 -67 -21q-73 1 -135 42t-70 71q0 5 4 9q16 18 55 43.5t57 28.5q6 0 6 -5q14 -53 41 -88t51 -46t41.5 -19.5t16.5 -14.5z" />
    <glyph glyph-name="eacute" unicode="&#xe9;" horiz-adv-x="528" 
d="M300 430q-47 0 -80 -44.5t-41 -103.5q26 -5 55 -5q54 0 91 23.5t41 62.5q4 28 -13 47.5t-53 19.5zM481 147q9 0 6 -11q-2 -16 -18.5 -39.5t-44.5 -49t-74 -43.5t-97 -18q-117 0 -180.5 71.5t-49.5 191.5q15 119 97 191.5t199 73.5q102 1 152.5 -47t42.5 -108
q-10 -83 -79 -122t-150 -39q-24 0 -48.5 3t-42.5 7t-19 4q-1 -55 36 -88t95 -33q46 0 85 14t61.5 28t28.5 14zM178 595q1 6 20.5 14.5t46 19.5t61.5 46t62 88q2 5 8 5q17 -3 50 -28.5t45 -43.5q2 -6 1 -9q-15 -30 -87.5 -71t-145.5 -42q-63 0 -61 21z" />
    <glyph glyph-name="ecircumflex" unicode="&#xea;" horiz-adv-x="528" 
d="M300 430q-47 0 -80 -44.5t-41 -103.5q26 -5 55 -5q54 0 91 23.5t41 62.5q4 28 -13 47.5t-53 19.5zM481 147q9 0 6 -11q-2 -16 -18.5 -39.5t-44.5 -49t-74 -43.5t-97 -18q-117 0 -180.5 71.5t-49.5 191.5q15 119 97 191.5t199 73.5q102 1 152.5 -47t42.5 -108
q-10 -83 -79 -122t-150 -39q-24 0 -48.5 3t-42.5 7t-19 4q-1 -55 36 -88t95 -33q46 0 85 14t61.5 28t28.5 14zM407 685q24 -33 49.5 -54.5t36.5 -29t10 -13.5q-1 -16 -39 -16q-76 0 -134 63h-1q-73 -63 -151 -63q-13 0 -23.5 4.5t-9.5 11.5q1 6 14 13.5t43.5 29.5t63.5 55
q19 19 37.5 42t26.5 31t15 8t13.5 -8.5t21 -32t27.5 -41.5z" />
    <glyph glyph-name="edieresis" unicode="&#xeb;" horiz-adv-x="528" 
d="M300 430q-47 0 -80 -44.5t-41 -103.5q26 -5 55 -5q54 0 91 23.5t41 62.5q4 28 -13 47.5t-53 19.5zM481 147q9 0 6 -11q-2 -16 -18.5 -39.5t-44.5 -49t-74 -43.5t-97 -18q-117 0 -180.5 71.5t-49.5 191.5q15 119 97 191.5t199 73.5q102 1 152.5 -47t42.5 -108
q-10 -83 -79 -122t-150 -39q-24 0 -48.5 3t-42.5 7t-19 4q-1 -55 36 -88t95 -33q46 0 85 14t61.5 28t28.5 14zM283 639q-5 -32 -32.5 -55.5t-62.5 -23.5q-34 0 -56 23.5t-18 55.5q4 33 31.5 56t61.5 23q35 0 57.5 -23t18.5 -56zM511 639q-5 -32 -33 -55.5t-62 -23.5
q-35 0 -56.5 23.5t-17.5 55.5q4 33 31 56t62 23t57.5 -23t18.5 -56z" />
    <glyph glyph-name="igrave" unicode="&#xec;" horiz-adv-x="286" 
d="M306 595q-2 -21 -67 -21q-73 1 -135 42t-70 71q0 5 4 9q16 18 55 43.5t57 28.5q6 0 6 -5q14 -53 41 -88t51 -46t41.5 -19.5t16.5 -14.5zM128 -15q-48 0 -73.5 29t-18.5 81l49 401q2 4 6 5q35 7 71 7q45 0 74 -7q4 -4 3 -5l-40 -333q-4 -31 1.5 -50t13.5 -25t25 -13
q8 -4 7 -12q-3 -20 -37 -49t-81 -29z" />
    <glyph glyph-name="iacute" unicode="&#xed;" horiz-adv-x="283" 
d="M30 595q1 6 20.5 14.5t46 19.5t61.5 46t62 88q2 5 8 5q17 -3 50 -28.5t45 -43.5q2 -6 1 -9q-15 -30 -87.5 -71t-145.5 -42q-63 0 -61 21zM127 -15q-48 0 -73.5 29t-18.5 81l49 401q2 4 6 5q35 7 71 7q45 0 74 -7q3 -4 3 -5l-40 -333q-4 -31 1.5 -50t13.5 -25t25 -13
q8 -4 7 -12q-3 -20 -37 -49t-81 -29z" />
    <glyph glyph-name="icircumflex" unicode="&#xee;" horiz-adv-x="286" 
d="M128 -15q-48 0 -73.5 29t-18.5 81l49 401q2 4 6 5q35 7 71 7q45 0 74 -7q4 -4 3 -5l-40 -333q-4 -31 1.5 -50t13.5 -25t25 -13q8 -4 7 -12q-3 -20 -37 -49t-81 -29zM261 685q24 -33 49.5 -54.5t36.5 -29t10 -13.5q-1 -16 -39 -16q-76 0 -134 63h-1q-73 -63 -151 -63
q-13 0 -23.5 4.5t-9.5 11.5q1 6 14 13.5t43.5 29.5t63.5 55q19 19 37.5 42t26.5 31t15 8t13.5 -8.5t21 -32t27.5 -41.5z" />
    <glyph glyph-name="idieresis" unicode="&#xef;" horiz-adv-x="287" 
d="M86 575q-29 0 -48 21.5t-15 50.5q4 30 27 51t53 21q31 0 50 -20.5t15 -51.5q-4 -29 -28 -50.5t-54 -21.5zM259 575q-30 0 -49 21.5t-15 50.5q4 30 28 51t54 21t48.5 -21t14.5 -51q-4 -29 -28 -50.5t-53 -21.5zM128 -15q-48 0 -73.5 29t-18.5 81l49 401q0 3 5 5q37 7 72 7
q45 0 74 -7q4 -4 3 -5l-41 -333q-4 -31 2 -50t14 -25t25 -13q8 -4 7 -12q-3 -20 -37 -49t-81 -29z" />
    <glyph glyph-name="eth" unicode="&#xf0;" horiz-adv-x="570" 
d="M536 246q-12 -114 -92 -189t-201 -74q-106 2 -170 69.5t-50 183.5q12 92 83.5 157t171.5 64q16 0 31.5 -4.5t28 -9.5t14.5 -6l2 3q-13 37 -67 114l-160 -38q-2 0 -5 3l-6 59q0 6 4 7q5 1 47 10.5t78 18.5q-54 68 -115 132q-3 3 3 5q40 7 90 7q55 0 89 -8q5 -1 7 -3
q59 -70 79 -98l152 35q4 0 5 -3l6 -60q0 -4 -3 -4l-120 -29q114 -185 98 -342zM261 71q49 -2 82 42t40 105q8 66 -15.5 117t-75.5 51q-33 0 -70 -40t-47 -119q-8 -66 16.5 -110.5t69.5 -45.5z" />
    <glyph glyph-name="ntilde" unicode="&#xf1;" horiz-adv-x="595" 
d="M35 4q23 155 44 337q5 43 -4.5 59.5t-33.5 26.5q-7 4 -7 12q2 19 37 48.5t82 29.5q42 0 64 -24.5t22 -65.5q0 -10 -2 -34h3q33 60 84.5 91.5t101.5 32.5q62 1 94.5 -39t23.5 -116q-7 -64 -25 -200q-4 -31 2 -50t14.5 -25.5t24.5 -12.5q8 -4 7 -12q-2 -20 -36.5 -49.5
t-81.5 -29.5q-48 0 -73 29.5t-18 81.5l27 232q6 44 -7 63.5t-37 18.5q-37 -1 -74.5 -51.5t-46.5 -123.5l-28 -228q0 -2 -1.5 -3.5t-2.5 -1.5l-2 -1q-29 -7 -72 -7q-35 0 -75 7q-4 4 -4 5zM530 713q13 0 10 -24q-5 -41 -43 -79.5t-97 -38.5q-34 0 -93 24t-86 24
q-31 0 -59 -14.5t-30 -14.5q-15 0 -9 27q6 41 43 72t91 31q33 0 87 -19t80 -19q36 0 70.5 15.5t35.5 15.5z" />
    <glyph glyph-name="ograve" unicode="&#xf2;" horiz-adv-x="571" 
d="M318 516q117 -3 180.5 -76t49.5 -190q-15 -118 -96.5 -194t-199.5 -73q-115 3 -179.5 74.5t-49.5 193.5q14 116 98 192t197 73zM265 72q53 0 87 48.5t43 127.5q10 77 -11.5 128.5t-76.5 51.5q-50 0 -85.5 -48.5t-45.5 -126.5q-10 -82 14.5 -131.5t74.5 -49.5zM459 595
q-2 -21 -67 -21q-73 1 -135 42t-70 71q0 5 4 9q16 18 55 43.5t57 28.5q6 0 6 -5q14 -53 41 -88t51 -46t41.5 -19.5t16.5 -14.5z" />
    <glyph glyph-name="oacute" unicode="&#xf3;" horiz-adv-x="571" 
d="M318 516q117 -3 180.5 -76t49.5 -190q-15 -118 -96.5 -194t-199.5 -73q-115 3 -179.5 74.5t-49.5 193.5q14 116 98 192t197 73zM265 72q53 0 87 48.5t43 127.5q10 77 -11.5 128.5t-76.5 51.5q-50 0 -85.5 -48.5t-45.5 -126.5q-10 -82 14.5 -131.5t74.5 -49.5zM191 595
q1 6 20.5 14.5t46 19.5t61.5 46t62 88q3 5 8 5q17 -3 50 -28.5t45 -43.5q2 -6 1 -9q-15 -30 -87.5 -71t-145.5 -42q-63 0 -61 21z" />
    <glyph glyph-name="ocircumflex" unicode="&#xf4;" horiz-adv-x="571" 
d="M318 516q117 -3 180.5 -76t49.5 -190q-15 -118 -96.5 -194t-199.5 -73q-115 3 -179.5 74.5t-49.5 193.5q14 116 98 192t197 73zM265 72q53 0 87 48.5t43 127.5q10 77 -11.5 128.5t-76.5 51.5q-50 0 -85.5 -48.5t-45.5 -126.5q-10 -82 14.5 -131.5t74.5 -49.5zM419 685
q24 -33 49.5 -54.5t36.5 -29t10 -13.5q-1 -16 -39 -16q-76 0 -134 63h-1q-73 -63 -151 -63q-13 0 -23.5 4.5t-9.5 11.5q1 6 14 13.5t43.5 29.5t63.5 55q19 19 37.5 42t26.5 31t15 8t13.5 -8.5t21 -32t27.5 -41.5z" />
    <glyph glyph-name="otilde" unicode="&#xf5;" horiz-adv-x="572" 
d="M318 516q117 -3 180.5 -76t49.5 -190q-15 -118 -96.5 -194t-199.5 -73q-115 3 -179.5 74.5t-49.5 193.5q14 116 98 192t197 73zM265 72q53 0 87 48.5t43 127.5q10 77 -11.5 128.5t-76.5 51.5q-50 0 -85.5 -48.5t-45.5 -126.5q-10 -82 14.5 -131.5t74.5 -49.5zM539 713
q13 0 10 -24q-5 -41 -43 -79.5t-97 -38.5q-34 0 -93 24t-86 24q-31 0 -59 -14.5t-30 -14.5q-15 0 -9 27q6 41 43 72t91 31q33 0 87 -19t80 -19q36 0 70.5 15.5t35.5 15.5z" />
    <glyph glyph-name="odieresis" unicode="&#xf6;" horiz-adv-x="575" 
d="M318 516q117 -3 180.5 -76t49.5 -190q-15 -118 -96.5 -194t-199.5 -73q-115 3 -179.5 74.5t-49.5 193.5q14 116 98 192t197 73zM265 72q53 0 87 48.5t43 127.5q10 77 -11.5 128.5t-76.5 51.5q-50 0 -85.5 -48.5t-45.5 -126.5q-10 -82 14.5 -131.5t74.5 -49.5zM306 639
q-5 -32 -32.5 -55.5t-62.5 -23.5q-34 0 -56 23.5t-18 55.5q4 33 31.5 56t61.5 23q35 0 57.5 -23t18.5 -56zM534 639q-5 -32 -33 -55.5t-62 -23.5q-35 0 -56.5 23.5t-17.5 55.5q4 33 31 56t62 23t57.5 -23t18.5 -56z" />
    <glyph glyph-name="divide" unicode="&#xf7;" horiz-adv-x="515" 
d="M500 392l-9 -66q0 -3 -4 -3h-468l-5 4l8 64q2 5 7 5h467q4 0 4 -4zM198 514q4 29 29 50t56 21q33 0 52.5 -20.5t16.5 -50.5q-4 -30 -28.5 -50.5t-57.5 -20.5t-52.5 20.5t-15.5 50.5zM160 207q4 29 29 50t57 21t52 -21t16 -50q-4 -30 -28.5 -50.5t-57.5 -20.5t-52 20.5
t-16 50.5z" />
    <glyph glyph-name="oslash" unicode="&#xf8;" horiz-adv-x="583" 
d="M324 516q82 0 139 -40l47 49q2 2 7 0l39 -38v-6l-45 -48q57 -71 43 -181q-14 -118 -95.5 -193.5t-200.5 -75.5q-82 0 -140 38l-45 -47q-2 -3 -6 0l-40 38v6l44 47q-57 71 -42 186q13 115 97 190t198 75zM182 253q-5 -38 3 -70l196 208q-23 37 -68 37q-50 0 -86 -48.5
t-45 -126.5zM271 72q53 0 87 48.5t43 127.5q4 34 -4 67l-195 -206q26 -37 69 -37z" />
    <glyph glyph-name="ugrave" unicode="&#xf9;" horiz-adv-x="594" 
d="M560 495q-8 -52 -42 -335q-4 -30 1 -48t13 -24t24 -13q8 -4 7 -12q-2 -19 -36 -48.5t-81 -29.5q-42 0 -63.5 23.5t-23.5 63.5q0 24 1 36l-2 1q-33 -60 -83.5 -91.5t-101.5 -32.5q-64 -1 -96.5 38t-23.5 115l24 199q4 30 -2 48.5t-14 24.5t-25 12q-8 3 -7 13q2 20 36 49.5
t81 29.5q48 0 74.5 -29.5t19.5 -81.5l-28 -228q-6 -43 7.5 -63.5t37.5 -19.5q37 2 74 51.5t46 124.5q15 121 27 226q2 6 6 6q42 8 75 8q32 0 72 -7q3 -3 3 -6zM450 595q-2 -21 -67 -21q-73 1 -135 42t-70 71q0 5 4 9q16 18 55 43.5t57 28.5q6 0 6 -5q14 -53 41 -88t51 -46
t41.5 -19.5t16.5 -14.5z" />
    <glyph glyph-name="uacute" unicode="&#xfa;" horiz-adv-x="594" 
d="M560 495q-8 -52 -42 -335q-4 -30 1 -48t13 -24t24 -13q8 -4 7 -12q-2 -19 -36 -48.5t-81 -29.5q-42 0 -63.5 23.5t-23.5 63.5q0 24 1 36l-2 1q-33 -60 -83.5 -91.5t-101.5 -32.5q-64 -1 -96.5 38t-23.5 115l24 199q4 30 -2 48.5t-14 24.5t-25 12q-8 3 -7 13q2 20 36 49.5
t81 29.5q48 0 74.5 -29.5t19.5 -81.5l-28 -228q-6 -43 7.5 -63.5t37.5 -19.5q37 2 74 51.5t46 124.5q15 121 27 226q2 6 6 6q42 8 75 8q32 0 72 -7q3 -3 3 -6zM184 595q1 6 20.5 14.5t46 19.5t61.5 46t62 88q2 5 8 5q17 -3 50 -28.5t45 -43.5q2 -6 1 -9q-15 -30 -87.5 -71
t-145.5 -42q-63 0 -61 21z" />
    <glyph glyph-name="ucircumflex" unicode="&#xfb;" horiz-adv-x="594" 
d="M560 495q-8 -52 -42 -335q-4 -30 1 -48t13 -24t24 -13q8 -4 7 -12q-2 -19 -36 -48.5t-81 -29.5q-42 0 -63.5 23.5t-23.5 63.5q0 24 1 36l-2 1q-33 -60 -83.5 -91.5t-101.5 -32.5q-64 -1 -96.5 38t-23.5 115l24 199q4 30 -2 48.5t-14 24.5t-25 12q-8 3 -7 13q2 20 36 49.5
t81 29.5q48 0 74.5 -29.5t19.5 -81.5l-28 -228q-6 -43 7.5 -63.5t37.5 -19.5q37 2 74 51.5t46 124.5q15 121 27 226q2 6 6 6q42 8 75 8q32 0 72 -7q3 -3 3 -6zM424 685q24 -33 49.5 -54.5t36.5 -29t10 -13.5q-1 -16 -39 -16q-76 0 -134 63h-1q-73 -63 -151 -63
q-13 0 -23.5 4.5t-9.5 11.5q1 6 14 13.5t43.5 29.5t63.5 55q19 19 37.5 42t26.5 31t15 8t13.5 -8.5t21 -32t27.5 -41.5z" />
    <glyph glyph-name="udieresis" unicode="&#xfc;" horiz-adv-x="594" 
d="M560 495q-8 -52 -42 -335q-4 -30 1 -48t13 -24t24 -13q8 -4 7 -12q-2 -19 -36 -48.5t-81 -29.5q-42 0 -63.5 23.5t-23.5 63.5q0 24 1 36l-2 1q-33 -60 -83.5 -91.5t-101.5 -32.5q-64 -1 -96.5 38t-23.5 115l24 199q4 30 -2 48.5t-14 24.5t-25 12q-8 3 -7 13q2 20 36 49.5
t81 29.5q48 0 74.5 -29.5t19.5 -81.5l-28 -228q-6 -43 7.5 -63.5t37.5 -19.5q37 2 74 51.5t46 124.5q15 121 27 226q2 6 6 6q42 8 75 8q32 0 72 -7q3 -3 3 -6zM313 639q-5 -32 -32.5 -55.5t-62.5 -23.5q-34 0 -56 23.5t-18 55.5q4 33 31.5 56t61.5 23q35 0 57.5 -23
t18.5 -56zM541 639q-5 -32 -33 -55.5t-62 -23.5q-35 0 -56.5 23.5t-17.5 55.5q4 33 31 56t62 23t57.5 -23t18.5 -56z" />
    <glyph glyph-name="yacute" unicode="&#xfd;" horiz-adv-x="593" 
d="M576 495l-60 -487q-15 -124 -89.5 -197t-194.5 -73q-53 0 -95 17t-64 42t-32.5 49.5t-8.5 42.5q1 13 12 13q7 0 24.5 -16t51.5 -32.5t81 -16.5q66 0 108.5 42t51.5 105l14 121h-2q-33 -59 -82.5 -88t-101.5 -30q-63 -1 -95.5 38.5t-23.5 115.5l23 196q4 30 -2 48.5
t-14 24.5t-25 12q-7 4 -6 13q2 20 35.5 49.5t80.5 29.5q48 0 74.5 -29.5t19.5 -81.5l-28 -228q-6 -43 7.5 -63.5t37.5 -19.5q38 2 74.5 51.5t45.5 124.5l28 226q0 6 5 6q44 8 76 8t70 -7q4 -4 4 -6zM203 595q1 6 20.5 14.5t46 19.5t61.5 46t62 88q3 5 8 5q17 -3 50 -28.5
t45 -43.5q2 -6 1 -9q-15 -30 -87.5 -71t-145.5 -42q-63 0 -61 21z" />
    <glyph glyph-name="thorn" unicode="&#xfe;" horiz-adv-x="596" 
d="M74 -258q-30 0 -68 7q-4 4 -4 5l121 992q1 5 5 5q37 8 71 8q47 0 74 -8q5 0 5 -5l-41 -337h2q27 48 71.5 76t96.5 28q90 0 134.5 -72t30.5 -188q-13 -107 -82 -187t-160 -80q-97 0 -132 92h-3l-40 -323q0 -4 -4 -5q0 -1 -1 -1q-31 -7 -76 -7zM336 411q-45 0 -80 -47
t-43 -111q-9 -66 13.5 -113t69.5 -47q43 0 76.5 44.5t42.5 112.5q10 74 -13 117.5t-66 43.5z" />
    <glyph glyph-name="ydieresis" unicode="&#xff;" horiz-adv-x="582" 
d="M565 495l-60 -487q-15 -124 -89.5 -197t-194.5 -73q-53 0 -95 17t-64 42t-32.5 49.5t-8.5 42.5q1 13 12 13q7 0 24.5 -16t51.5 -32.5t81 -16.5q66 0 108.5 42t51.5 105l14 121h-2q-33 -59 -82.5 -88t-101.5 -30q-63 -1 -95.5 38.5t-23.5 115.5l23 196q4 30 -2 48.5
t-14 24.5t-25 12q-7 4 -6 13q2 20 35.5 49.5t80.5 29.5q48 0 74.5 -29.5t19.5 -81.5l-28 -228q-6 -43 7.5 -63.5t37.5 -19.5q38 2 74.5 51.5t45.5 124.5l28 226q0 6 5 6q44 8 76 8q31 0 70 -7q4 -4 4 -6zM317 639q-5 -32 -32.5 -55.5t-62.5 -23.5q-34 0 -56 23.5t-18 55.5
q4 33 31.5 56t61.5 23q35 0 57.5 -23t18.5 -56zM545 639q-5 -32 -33 -55.5t-62 -23.5q-35 0 -56.5 23.5t-17.5 55.5q4 33 31 56t62 23t57.5 -23t18.5 -56z" />
    <glyph glyph-name="Amacron" unicode="&#x100;" horiz-adv-x="879" 
d="M763 576q71 -165 62 -570q0 -6 -6 -6q-43 -8 -86 -8t-93 8q-5 0 -5 5q9 151 9 179h-217q-111 -201 -256 -201q-69 0 -109.5 42.5t-40.5 102.5q0 38 20 76t41 38q12 0 18 -13q1 -31 21 -55t62 -24q49 0 101 51.5t91 125t66 147.5t34 126q2 18 -18.5 23t-20.5 10
q-2 25 43 54.5t99 29.5q124 0 185 -141zM479 288h166q2 236 -81 289l-3 -1q-34 -170 -82 -288zM722 741h-320q-4 0 -4 4l8 59l4 5h320q4 0 4 -5l-7 -58z" />
    <glyph glyph-name="amacron" unicode="&#x101;" horiz-adv-x="602" 
d="M525 163q-4 -31 2 -50t14 -25t25 -13q8 -5 7 -12q-3 -25 -39 -51.5t-79 -26.5q-45 0 -69.5 27.5t-23.5 78.5h-2q-28 -50 -73 -77.5t-97 -27.5q-89 0 -135 78t-31 191q14 107 79 183t156 75q102 0 140 -89h3l16 71q0 4 5 6q38 6 69 6q44 0 72 -6q5 -2 5 -6
q-24 -172 -44 -332zM261 93q45 0 80 46.5t43 110.5q9 68 -13.5 114.5t-69.5 46.5q-43 0 -76.5 -43t-42.5 -111q-10 -74 12.5 -119t66.5 -45zM516 594h-337q-4 0 -4 4l8 59l4 5h337l3 -5l-7 -58z" />
    <glyph glyph-name="Abreve" unicode="&#x102;" horiz-adv-x="804" 
d="M688 576q71 -165 62 -570q0 -6 -6 -6q-43 -8 -86 -8t-93 8q-5 0 -5 5q9 151 9 179h-217q-111 -201 -256 -201q-69 0 -109.5 42.5t-40.5 102.5q0 38 20 76t41 38q11 0 18 -13q1 -31 21 -55t62 -24q49 0 101 51.5t91 125t66 147.5t34 126q2 18 -18.5 23t-20.5 10
q-2 25 43 54.5t99 29.5q124 0 185 -141zM404 288h166q2 236 -81 289l-3 -1q-34 -170 -82 -288zM694 871q12 0 8 -14q-11 -41 -68 -82.5t-135 -41.5q-77 0 -130 38t-51 88q2 12 12 12q4 0 25 -12.5t61.5 -25t92.5 -12.5q53 0 95.5 12.5t64 25t25.5 12.5z" />
    <glyph glyph-name="abreve" unicode="&#x103;" horiz-adv-x="608" 
d="M525 163q-4 -31 2 -50t14 -25t25 -13q8 -5 7 -12q-3 -25 -39 -51.5t-79 -26.5q-45 0 -69.5 27.5t-23.5 78.5h-2q-28 -50 -73 -77.5t-97 -27.5q-89 0 -135 78t-31 191q14 107 79 183t156 75q102 0 140 -89h3l16 71q0 4 5 6q38 6 69 6q44 0 72 -6q5 -2 5 -6
q-24 -172 -44 -332zM261 93q45 0 80 46.5t43 110.5q9 68 -13.5 114.5t-69.5 46.5q-43 0 -76.5 -43t-42.5 -111q-10 -74 12.5 -119t66.5 -45zM547 734q13 0 9 -14q-7 -42 -68 -91.5t-139 -49.5q-76 0 -128.5 45.5t-48.5 97.5q2 12 12 12q4 0 24 -13.5t60 -27t94 -13.5
q55 0 97 13.5t63 27t25 13.5z" />
    <glyph glyph-name="Aogonek" unicode="&#x104;" horiz-adv-x="885" 
d="M712 -116q-3 -26 8.5 -41t31.5 -15q18 0 37.5 11.5t22.5 11.5q11 0 8 -19q-5 -34 -35.5 -68t-82.5 -34q-49 0 -73 34t-19 81q10 84 95 148q-20 1 -65 7q-5 0 -5 5q9 151 9 179h-217q-111 -201 -256 -201q-69 0 -109.5 42.5t-40.5 102.5q0 38 20 76t41 38q12 0 18 -13
q1 -31 21 -55t62 -24q49 0 101 51.5t91 125t66 147.5t34 126q2 18 -18.5 23t-20.5 10q-2 25 43 54.5t99 29.5q124 0 185 -141q71 -165 62 -570q0 -6 -6 -6q-21 -4 -54 -7q-48 -62 -53 -109zM479 288h166q2 236 -81 289l-3 -1q-34 -170 -82 -288z" />
    <glyph glyph-name="aogonek" unicode="&#x105;" horiz-adv-x="602" 
d="M435 -116q-3 -26 8.5 -41t31.5 -15q18 0 37.5 11.5t22.5 11.5q11 0 8 -19q-5 -34 -35.5 -68t-82.5 -34q-49 0 -73 34t-19 81q10 80 90 144q-64 18 -61 102h-2q-28 -50 -73 -77.5t-97 -27.5q-89 0 -135 78t-31 191q14 107 79 183t156 75q102 0 140 -89h3l16 71q0 4 5 6
q38 6 69 6q44 0 72 -6q5 -2 5 -6q-24 -172 -44 -332q-4 -31 2 -50t14 -25t25 -13q8 -5 7 -12q-3 -20 -28.5 -43t-59.5 -31q-45 -56 -50 -105zM261 93q45 0 80 46.5t43 110.5q9 68 -13.5 114.5t-69.5 46.5q-43 0 -76.5 -43t-42.5 -111q-10 -74 12.5 -119t66.5 -45z" />
    <glyph glyph-name="Cacute" unicode="&#x106;" horiz-adv-x="642" 
d="M381 32q45 0 85 15t62 33t41 34t26 17q8 1 12.5 -4.5t3.5 -13.5q-3 -26 -25 -64t-58 -76.5t-92 -65.5t-117 -27q-158 0 -234 115t-49 301q24 167 135.5 292t261.5 128q103 2 167.5 -54.5t54.5 -148.5q-5 -47 -33 -83.5t-77 -36.5q-29 0 -49.5 12.5t-20.5 26.5q0 2 5 25.5
t6 43.5q2 51 -18.5 84t-66.5 30q-65 -3 -120 -85t-71 -192q-12 -86 -1 -152t54.5 -110t117.5 -44zM516 895q2 5 8 3q30 -10 67 -71q4 -4 2 -9q-13 -27 -84 -56t-146 -30q-63 0 -61 21q1 6 13 9.5t33 9.5t46 17.5t58 38.5t64 67z" />
    <glyph glyph-name="cacute" unicode="&#x107;" horiz-adv-x="508" 
d="M494 354q-4 -35 -27.5 -59.5t-64.5 -24.5q-24 0 -41.5 11t-15.5 22q0 6 4.5 23.5t6.5 27.5q4 36 -9.5 58t-44.5 22q-42 0 -78.5 -49t-44.5 -116q-10 -75 24.5 -124t113.5 -49q37 0 71 12.5t56.5 25t29.5 12.5q11 0 9 -11q-5 -39 -73.5 -94t-162.5 -55q-119 0 -179 76
t-45 193q14 113 96 186t199 73q87 0 135.5 -48t40.5 -112zM183 595q1 6 20.5 14.5t46 19.5t61.5 46t62 88q3 5 8 5q17 -3 50 -28.5t45 -43.5q2 -6 1 -9q-15 -30 -87.5 -71t-145.5 -42q-63 0 -61 21z" />
    <glyph glyph-name="Ccircumflex" unicode="&#x108;" horiz-adv-x="642" 
d="M381 32q45 0 85 15t62 33t41 34t26 17q8 1 12.5 -4.5t3.5 -13.5q-3 -26 -25 -64t-58 -76.5t-92 -65.5t-117 -27q-158 0 -234 115t-49 301q24 167 135.5 292t261.5 128q103 2 167.5 -54.5t54.5 -148.5q-5 -47 -33 -83.5t-77 -36.5q-29 0 -49.5 12.5t-20.5 26.5q0 2 5 25.5
t6 43.5q2 51 -18.5 84t-66.5 30q-65 -3 -120 -85t-71 -192q-12 -86 -1 -152t54.5 -110t117.5 -44zM455 896q9 0 22.5 -12.5t33.5 -35t26 -28.5q14 -13 36.5 -31t33.5 -28t9 -15q-3 -7 -14 -7q-6 0 -14 1.5t-19 5t-19.5 6.5t-24.5 9.5t-24.5 10t-29 12t-29.5 12.5
q-144 -57 -174 -57q-9 0 -10 7q0 5 13.5 15.5t40 28t43.5 31.5q19 15 44.5 36.5t37 30t18.5 8.5z" />
    <glyph glyph-name="ccircumflex" unicode="&#x109;" horiz-adv-x="510" 
d="M494 354q-4 -35 -27.5 -59.5t-64.5 -24.5q-24 0 -41.5 11t-15.5 22q0 6 4.5 23.5t6.5 27.5q4 36 -9.5 58t-44.5 22q-42 0 -78.5 -49t-44.5 -116q-10 -75 24.5 -124t113.5 -49q37 0 71 12.5t56.5 25t29.5 12.5q11 0 9 -11q-5 -39 -73.5 -94t-162.5 -55q-119 0 -179 76
t-45 193q14 113 96 186t199 73q87 0 135.5 -48t40.5 -112zM399 685q24 -33 49.5 -54.5t36.5 -29t10 -13.5q-1 -16 -39 -16q-76 0 -134 63h-1q-73 -63 -151 -63q-13 0 -23.5 4.5t-9.5 11.5q1 6 14 13.5t43.5 29.5t63.5 55q19 19 37.5 42t26.5 31t15 8t13.5 -8.5t21 -32
t27.5 -41.5z" />
    <glyph glyph-name="Cdotaccent" unicode="&#x10a;" horiz-adv-x="642" 
d="M381 32q45 0 85 15t62 33t41 34t26 17q8 1 12.5 -4.5t3.5 -13.5q-3 -26 -25 -64t-58 -76.5t-92 -65.5t-117 -27q-158 0 -234 115t-49 301q24 167 135.5 292t261.5 128q103 2 167.5 -54.5t54.5 -148.5q-5 -47 -33 -83.5t-77 -36.5q-29 0 -49.5 12.5t-20.5 26.5q0 2 5 25.5
t6 43.5q2 51 -18.5 84t-66.5 30q-65 -3 -120 -85t-71 -192q-12 -86 -1 -152t54.5 -110t117.5 -44zM534 809q-3 -26 -31 -45.5t-64 -19.5q-35 0 -58 19t-19 46q4 28 31.5 46.5t61.5 18.5q38 0 60.5 -18.5t18.5 -46.5z" />
    <glyph glyph-name="cdotaccent" unicode="&#x10b;" horiz-adv-x="507" 
d="M494 354q-4 -35 -27.5 -59.5t-64.5 -24.5q-24 0 -41.5 11t-15.5 22q0 6 4.5 23.5t6.5 27.5q4 36 -9.5 58t-44.5 22q-42 0 -78.5 -49t-44.5 -116q-10 -75 24.5 -124t113.5 -49q37 0 71 12.5t56.5 25t29.5 12.5q11 0 9 -11q-5 -39 -73.5 -94t-162.5 -55q-119 0 -179 76
t-45 193q14 113 96 186t199 73q87 0 135.5 -48t40.5 -112zM429 664q-4 -34 -36.5 -58t-72.5 -24q-41 0 -66.5 24t-21.5 58t35.5 58.5t72.5 24.5t67 -24.5t22 -58.5z" />
    <glyph glyph-name="Ccaron" unicode="&#x10c;" horiz-adv-x="642" 
d="M381 32q45 0 85 15t62 33t41 34t26 17q8 1 12.5 -4.5t3.5 -13.5q-3 -26 -25 -64t-58 -76.5t-92 -65.5t-117 -27q-158 0 -234 115t-49 301q24 167 135.5 292t261.5 128q103 2 167.5 -54.5t54.5 -148.5q-5 -47 -33 -83.5t-77 -36.5q-29 0 -49.5 12.5t-20.5 26.5q0 2 5 25.5
t6 43.5q2 51 -18.5 84t-66.5 30q-65 -3 -120 -85t-71 -192q-12 -86 -1 -152t54.5 -110t117.5 -44zM428 737q-5 0 -10.5 3.5t-13.5 11t-15.5 16t-19.5 21.5t-23 23q-14 14 -36.5 31.5t-33.5 28t-9 15.5q3 6 14 6q27 0 160 -56q142 56 174 56q9 0 11 -6q0 -5 -13.5 -15.5
t-40.5 -28.5t-44 -32q-5 -4 -30 -27t-42.5 -35t-27.5 -12z" />
    <glyph glyph-name="ccaron" unicode="&#x10d;" horiz-adv-x="521" 
d="M494 354q-4 -35 -27.5 -59.5t-64.5 -24.5q-24 0 -41.5 11t-15.5 22q0 6 4.5 23.5t6.5 27.5q4 36 -9.5 58t-44.5 22q-42 0 -78.5 -49t-44.5 -116q-10 -75 24.5 -124t113.5 -49q37 0 71 12.5t56.5 25t29.5 12.5q11 0 9 -11q-5 -39 -73.5 -94t-162.5 -55q-119 0 -179 76
t-45 193q14 113 96 186t199 73q87 0 135.5 -48t40.5 -112zM475 757q13 0 24 -4t10 -12q-1 -5 -14 -12.5t-43.5 -30t-63.5 -55.5q-19 -19 -37.5 -42t-26.5 -31t-15 -8t-14 8.5t-21 32t-28 41.5q-15 22 -31.5 38.5t-27.5 25.5t-20 15t-13.5 10t-3.5 8q3 16 39 16q79 0 136 -63
h1q73 63 149 63z" />
    <glyph glyph-name="Dcaron" unicode="&#x10e;" horiz-adv-x="900" 
d="M711 384q-3 245 -236 245q-102 0 -185.5 -49t-96.5 -115q-3 -20 -3 -30.5t2 -23t2 -14.5q0 -14 -25 -27t-56 -13q-47 0 -76.5 33t-25.5 82q7 75 77 134.5t173.5 90t218.5 30.5q190 0 297.5 -86t107.5 -244q0 -93 -32 -173t-85.5 -133t-123 -82t-143.5 -26q-112 5 -177 79
t-65 184q0 114 68.5 200.5t160.5 97.5q13 1 17 -6.5t-3 -15.5q-30 -41 -55 -120t-25 -153q0 -66 25.5 -110.5t79.5 -44.5q56 0 99 45t64 110.5t21 134.5zM554 740q-5 0 -10.5 3.5t-13.5 11t-15.5 16t-19.5 21.5t-23 23q-14 14 -36.5 31.5t-33.5 28t-9 15.5q3 6 14 6
q27 0 160 -56q142 56 174 56q9 0 11 -6q0 -5 -13.5 -15.5t-40.5 -28.5t-44 -32q-5 -4 -30 -27t-42.5 -35t-27.5 -12z" />
    <glyph glyph-name="dcaron" unicode="&#x10f;" horiz-adv-x="794" 
d="M523 163q-4 -32 2 -50.5t14 -24.5t25 -13q7 -4 6 -12q-3 -24 -38.5 -51t-78.5 -27q-46 0 -70 27.5t-21 77.5h-3q-28 -49 -72.5 -76.5t-97.5 -27.5q-89 0 -134 76.5t-32 189.5q13 107 79 184t157 77q50 0 86 -23.5t53 -65.5h3l39 321q2 5 6 6q44 7 76 7q36 0 69 -7
q5 -2 4 -6q-37 -290 -72 -582zM261 93q45 0 80 46.5t43 110.5q8 66 -14.5 113.5t-69.5 47.5q-43 0 -76 -43.5t-42 -112.5q-10 -74 13 -118t66 -44zM670 560q1 26 -11 42t-24.5 24t-11.5 16q4 27 31.5 51t63.5 24q41 0 60 -27t16 -65q-5 -41 -29 -78t-52.5 -58.5t-51.5 -34.5
t-31 -13q-12 0 -10 12q0 3 24 38.5t26 68.5z" />
    <glyph glyph-name="Dcroat" unicode="&#x110;" horiz-adv-x="900" 
d="M885 397q0 -93 -31.5 -173t-84 -133t-121.5 -82t-143 -26q-116 4 -180 79.5t-62 186.5h-46q-3 0 -3 5l9 68q0 1 4 5h43q22 87 82.5 147.5t135.5 69.5q13 1 17 -6.5t-3 -15.5q-50 -69 -71 -189l111 1q3 0 3 -5l-8 -68q-1 -4 -4 -4q0 -1 -1 -1h-108q-2 -43 5.5 -77
t33 -59.5t67.5 -25.5q82 0 131.5 90t49.5 200q-3 243 -239 243q-102 0 -183 -48t-94 -114q-3 -20 -3 -30.5t2.5 -23t2.5 -14.5q0 -14 -25.5 -27t-57.5 -13q-46 0 -76.5 33t-26.5 82q7 75 76 134.5t171.5 90t217.5 30.5q191 0 300 -86t109 -244z" />
    <glyph glyph-name="dcroat" unicode="&#x111;" horiz-adv-x="608" 
d="M523 163q-4 -32 2 -50.5t14 -24.5t25 -13q7 -4 6 -12q-3 -24 -38.5 -51t-78.5 -27q-46 0 -70 27.5t-21 77.5h-3q-28 -49 -72.5 -76.5t-97.5 -27.5q-89 0 -134 76.5t-32 189.5q13 107 79 184t157 77q50 0 86 -23.5t53 -65.5h3l19 150h-111q-4 0 -4 5l8 59l4 5h111l12 102
q2 5 6 6q44 7 76 7q36 0 69 -7q5 -2 4 -6q-3 -18 -13 -102h54q4 0 4 -5l-8 -59l-4 -5h-54zM261 93q45 0 80 46.5t43 110.5q8 66 -14.5 113.5t-69.5 47.5q-43 0 -76 -43.5t-42 -112.5q-10 -74 13 -118t66 -44z" />
    <glyph glyph-name="Emacron" unicode="&#x112;" horiz-adv-x="834" 
d="M134 349q-51 0 -87.5 40.5t-36.5 103.5q0 103 102 164t267 55q35 -1 140 -8.5t146 -7.5q51 0 84 8.5t46.5 17t16.5 8.5q14 0 25 -22.5t10 -48.5q0 -60 -41 -93t-113 -33q-25 0 -52.5 3.5t-47 7.5t-53.5 11.5t-52 11.5l-21 -158q86 -3 130.5 -0.5t78.5 7t35 4.5
q13 0 10 -23q-5 -40 -40 -71.5t-97 -31.5q-53 0 -130 11q-4 -29 -5 -46q-4 -73 34 -109.5t109 -36.5q33 0 68 9.5t72 24.5t53 19q8 2 12.5 -4t0.5 -15q-12 -32 -46.5 -67.5t-98.5 -66t-135 -30.5q-121 0 -187.5 64.5t-50.5 197.5q8 57 44 352q-66 1 -105 -30.5t-39 -84.5
q0 -28 8 -48.5t16 -31.5t8 -15q0 -13 -23.5 -25.5t-54.5 -12.5zM690 744h-320q-4 0 -4 4l8 59l4 5h320q4 0 4 -5l-7 -58z" />
    <glyph glyph-name="emacron" unicode="&#x113;" horiz-adv-x="528" 
d="M300 430q-47 0 -80 -44.5t-41 -103.5q26 -5 55 -5q54 0 91 23.5t41 62.5q4 28 -13 47.5t-53 19.5zM481 147q9 0 6 -11q-2 -16 -18.5 -39.5t-44.5 -49t-74 -43.5t-97 -18q-117 0 -180.5 71.5t-49.5 191.5q15 119 97 191.5t199 73.5q102 1 152.5 -47t42.5 -108
q-10 -83 -79 -122t-150 -39q-24 0 -48.5 3t-42.5 7t-19 4q-1 -55 36 -88t95 -33q46 0 85 14t61.5 28t28.5 14zM492 594h-337q-4 0 -4 4l8 59l4 5h337l3 -5l-7 -58z" />
    <glyph glyph-name="Ebreve" unicode="&#x114;" horiz-adv-x="834" 
d="M134 349q-51 0 -87.5 40.5t-36.5 103.5q0 103 102 164t267 55q35 -1 140 -8.5t146 -7.5q51 0 84 8.5t46.5 17t16.5 8.5q14 0 25 -22.5t10 -48.5q0 -60 -41 -93t-113 -33q-25 0 -52.5 3.5t-47 7.5t-53.5 11.5t-52 11.5l-21 -158q86 -3 130.5 -0.5t78.5 7t35 4.5
q13 0 10 -23q-5 -40 -40 -71.5t-97 -31.5q-53 0 -130 11q-4 -29 -5 -46q-4 -73 34 -109.5t109 -36.5q33 0 68 9.5t72 24.5t53 19q8 2 12.5 -4t0.5 -15q-12 -32 -46.5 -67.5t-98.5 -66t-135 -30.5q-121 0 -187.5 64.5t-50.5 197.5q8 57 44 352q-66 1 -105 -30.5t-39 -84.5
q0 -28 8 -48.5t16 -31.5t8 -15q0 -13 -23.5 -25.5t-54.5 -12.5zM739 871q12 0 8 -14q-11 -41 -68 -82.5t-135 -41.5q-77 0 -130 38t-51 88q2 12 12 12q4 0 25 -12.5t61.5 -25t92.5 -12.5q53 0 95.5 12.5t64 25t25.5 12.5z" />
    <glyph glyph-name="ebreve" unicode="&#x115;" horiz-adv-x="551" 
d="M300 430q-47 0 -80 -44.5t-41 -103.5q26 -5 55 -5q54 0 91 23.5t41 62.5q4 28 -13 47.5t-53 19.5zM481 147q9 0 6 -11q-2 -16 -18.5 -39.5t-44.5 -49t-74 -43.5t-97 -18q-117 0 -180.5 71.5t-49.5 191.5q15 119 97 191.5t199 73.5q102 1 152.5 -47t42.5 -108
q-10 -83 -79 -122t-150 -39q-24 0 -48.5 3t-42.5 7t-19 4q-1 -55 36 -88t95 -33q46 0 85 14t61.5 28t28.5 14zM528 734q13 0 9 -14q-7 -42 -68 -91.5t-139 -49.5q-76 0 -128.5 45.5t-48.5 97.5q2 12 12 12q4 0 24 -13.5t60 -27t94 -13.5q55 0 97 13.5t63 27t25 13.5z" />
    <glyph glyph-name="Edotaccent" unicode="&#x116;" horiz-adv-x="834" 
d="M134 349q-51 0 -87.5 40.5t-36.5 103.5q0 103 102 164t267 55q35 -1 140 -8.5t146 -7.5q51 0 84 8.5t46.5 17t16.5 8.5q14 0 25 -22.5t10 -48.5q0 -60 -41 -93t-113 -33q-25 0 -52.5 3.5t-47 7.5t-53.5 11.5t-52 11.5l-21 -158q86 -3 130.5 -0.5t78.5 7t35 4.5
q13 0 10 -23q-5 -40 -40 -71.5t-97 -31.5q-53 0 -130 11q-4 -29 -5 -46q-4 -73 34 -109.5t109 -36.5q33 0 68 9.5t72 24.5t53 19q8 2 12.5 -4t0.5 -15q-12 -32 -46.5 -67.5t-98.5 -66t-135 -30.5q-121 0 -187.5 64.5t-50.5 197.5q8 57 44 352q-66 1 -105 -30.5t-39 -84.5
q0 -28 8 -48.5t16 -31.5t8 -15q0 -13 -23.5 -25.5t-54.5 -12.5zM633 809q-3 -26 -31 -45.5t-64 -19.5q-35 0 -58 19t-19 46q4 28 31.5 46.5t61.5 18.5q38 0 60.5 -18.5t18.5 -46.5z" />
    <glyph glyph-name="edotaccent" unicode="&#x117;" horiz-adv-x="528" 
d="M300 430q-47 0 -80 -44.5t-41 -103.5q26 -5 55 -5q54 0 91 23.5t41 62.5q4 28 -13 47.5t-53 19.5zM481 147q9 0 6 -11q-2 -16 -18.5 -39.5t-44.5 -49t-74 -43.5t-97 -18q-117 0 -180.5 71.5t-49.5 191.5q15 119 97 191.5t199 73.5q102 1 152.5 -47t42.5 -108
q-10 -83 -79 -122t-150 -39q-24 0 -48.5 3t-42.5 7t-19 4q-1 -55 36 -88t95 -33q46 0 85 14t61.5 28t28.5 14zM440 664q-4 -34 -36.5 -58t-72.5 -24q-41 0 -66.5 24t-21.5 58t35.5 58.5t72.5 24.5t67 -24.5t22 -58.5z" />
    <glyph glyph-name="Eogonek" unicode="&#x118;" horiz-adv-x="834" 
d="M507 -116q-3 -26 8.5 -41t31.5 -15q18 0 37.5 11.5t22.5 11.5q11 0 8 -19q-5 -34 -35.5 -68t-82.5 -34q-49 0 -73 34t-19 81q10 79 84 139q-109 7 -166.5 71.5t-42.5 189.5l44 352q-66 1 -105 -30.5t-39 -84.5q0 -28 8 -48.5t16 -31.5t8 -15q0 -13 -23.5 -25.5
t-54.5 -12.5q-51 0 -87.5 40.5t-36.5 103.5q0 103 102 164t267 55q35 -1 140 -8.5t146 -7.5q51 0 84 8.5t46.5 17t16.5 8.5q14 0 25 -22.5t10 -48.5q0 -60 -41 -93t-113 -33q-25 0 -52.5 3.5t-47 7.5t-53.5 11.5t-52 11.5l-21 -158q86 -3 130.5 -0.5t78.5 7t35 4.5
q13 0 10 -23q-5 -40 -40 -71.5t-97 -31.5q-53 0 -130 11q-4 -29 -5 -46q-4 -73 34 -109.5t109 -36.5q33 0 68 9.5t72 24.5t53 19q8 2 12.5 -4t0.5 -15q-19 -48 -86 -100t-158 -62q-42 -53 -47 -101z" />
    <glyph glyph-name="eogonek" unicode="&#x119;" horiz-adv-x="528" 
d="M232 -116q-3 -26 8.5 -41t31.5 -15q18 0 37.5 11.5t22.5 11.5q11 0 8 -19q-5 -34 -35.5 -68t-82.5 -34q-49 0 -73 34t-19 81q10 81 88 143q-101 11 -154.5 81t-40.5 180q15 119 97 191.5t199 73.5q102 1 152.5 -47t42.5 -108q-10 -83 -79 -122t-150 -39q-24 0 -48.5 3
t-42.5 7t-19 4q-1 -55 36 -88t95 -33q46 0 85 14t61.5 28t28.5 14q9 0 6 -11q-5 -36 -63 -87.5t-143 -60.5q-44 -59 -49 -104zM300 430q-47 0 -80 -44.5t-41 -103.5q26 -5 55 -5q54 0 91 23.5t41 62.5q4 28 -13 47.5t-53 19.5z" />
    <glyph glyph-name="Ecaron" unicode="&#x11a;" horiz-adv-x="834" 
d="M134 349q-51 0 -87.5 40.5t-36.5 103.5q0 103 102 164t267 55q35 -1 140 -8.5t146 -7.5q51 0 84 8.5t46.5 17t16.5 8.5q14 0 25 -22.5t10 -48.5q0 -60 -41 -93t-113 -33q-25 0 -52.5 3.5t-47 7.5t-53.5 11.5t-52 11.5l-21 -158q86 -3 130.5 -0.5t78.5 7t35 4.5
q13 0 10 -23q-5 -40 -40 -71.5t-97 -31.5q-53 0 -130 11q-4 -29 -5 -46q-4 -73 34 -109.5t109 -36.5q33 0 68 9.5t72 24.5t53 19q8 2 12.5 -4t0.5 -15q-12 -32 -46.5 -67.5t-98.5 -66t-135 -30.5q-121 0 -187.5 64.5t-50.5 197.5q8 57 44 352q-66 1 -105 -30.5t-39 -84.5
q0 -28 8 -48.5t16 -31.5t8 -15q0 -13 -23.5 -25.5t-54.5 -12.5zM544 737q-5 0 -10.5 3.5t-13.5 11t-15.5 16t-19.5 21.5t-23 23q-14 14 -36.5 31.5t-33.5 28t-9 15.5q3 6 14 6q27 0 160 -56q142 56 174 56q9 0 11 -6q0 -5 -13.5 -15.5t-40.5 -28.5t-44 -32q-5 -4 -30 -27
t-42.5 -35t-27.5 -12z" />
    <glyph glyph-name="ecaron" unicode="&#x11b;" horiz-adv-x="534" 
d="M300 430q-47 0 -80 -44.5t-41 -103.5q26 -5 55 -5q54 0 91 23.5t41 62.5q4 28 -13 47.5t-53 19.5zM481 147q9 0 6 -11q-2 -16 -18.5 -39.5t-44.5 -49t-74 -43.5t-97 -18q-117 0 -180.5 71.5t-49.5 191.5q15 119 97 191.5t199 73.5q102 1 152.5 -47t42.5 -108
q-10 -83 -79 -122t-150 -39q-24 0 -48.5 3t-42.5 7t-19 4q-1 -55 36 -88t95 -33q46 0 85 14t61.5 28t28.5 14zM486 757q13 0 24 -4t10 -12q-1 -5 -14 -12.5t-43.5 -30t-63.5 -55.5q-19 -19 -37.5 -42t-26.5 -31t-15 -8t-14 8.5t-21 32t-28 41.5q-15 22 -31.5 38.5
t-27.5 25.5t-20 15t-13.5 10t-3.5 8q3 16 39 16q79 0 136 -63h1q73 63 149 63z" />
    <glyph glyph-name="Gcircumflex" unicode="&#x11c;" horiz-adv-x="675" 
d="M646 311q5 -1 5 -7q-24 -208 -37 -316q-12 -97 -55.5 -148t-131.5 -51q-26 0 -48 9t-21 21q0 11 24 20.5t40 31.5q29 38 43 155q-1 0 -1 0.5t-1 0.5q-48 -31 -117 -39q-32 -4 -45 -3q-145 6 -215.5 105t-51.5 257q12 96 60 178t135 137t197 56q111 1 181.5 -51t60.5 -134
q-4 -41 -29 -69t-74 -28q-28 0 -51 12.5t-18 24.5q7 22 8 43.5t-4.5 42.5t-24.5 36t-49 18q-24 3 -50 -4q-59 -13 -106.5 -81t-59.5 -164q-13 -110 30 -181t138 -71q22 0 43.5 6t37 13.5t18.5 8.5q1 10 8.5 71.5t10.5 90.5q5 15 82 15q28 0 68 -6zM522 820q14 -13 37 -31
t33.5 -28t8.5 -15q-1 -7 -14 -7q-26 0 -159 57q-146 -57 -174 -57q-10 0 -11 7q0 5 13.5 15.5t40.5 28t44 31.5q14 11 29.5 24t25 21t19 15.5t16 11t10.5 3.5q7 0 16.5 -9t29.5 -31t35 -36z" />
    <glyph glyph-name="gcircumflex" unicode="&#x11d;" horiz-adv-x="584" 
d="M569 495l-61 -486q-15 -125 -88 -197t-192 -72q-53 0 -95 17t-64 41.5t-32.5 49t-8.5 42.5q0 12 11 12q7 0 19.5 -10t27 -21.5t44.5 -21.5t67 -10q66 0 107 41.5t48 105.5l13 105h-2q-29 -49 -74 -76.5t-98 -27.5q-89 0 -134 76t-30 188q13 107 78.5 184.5t156.5 77.5
q50 0 86.5 -23.5t53.5 -65.5h3l16 71q0 4 5 6q37 6 70 6q41 0 68 -6q5 -2 5 -6zM264 94q45 0 80 46t43 110q8 66 -14.5 113.5t-69.5 47.5q-43 0 -76 -44t-42 -113q-10 -73 13 -116.5t66 -43.5zM428 685q24 -33 49.5 -54.5t36.5 -29t10 -13.5q-1 -16 -39 -16q-76 0 -134 63
h-1q-73 -63 -151 -63q-13 0 -23.5 4.5t-9.5 11.5q1 6 14 13.5t43.5 29.5t63.5 55q19 19 37.5 42t26.5 31t15 8t13.5 -8.5t21 -32t27.5 -41.5z" />
    <glyph glyph-name="Gbreve" unicode="&#x11e;" horiz-adv-x="675" 
d="M646 311q5 -1 5 -7q0 -3 -6.5 -56t-15.5 -131.5t-15 -128.5q-12 -97 -55.5 -148t-131.5 -51q-26 0 -48 9t-21 21q0 11 24 20.5t40 31.5q29 38 43 155l-2 1q-28 -17 -70 -30t-74 -13q-153 0 -229 99.5t-56 263.5q12 96 60 178t135 137t197 56q111 1 181.5 -51t60.5 -134
q-13 -97 -103 -97q-28 0 -51 12.5t-18 24.5q7 24 7 47.5t-8 46t-31.5 36t-60.5 13.5q-66 0 -122.5 -71.5t-70.5 -180.5q-13 -110 30 -181t138 -71q22 0 43.5 6t37 13.5t18.5 8.5q1 10 8.5 71.5t10.5 90.5q2 7 7 7q48 8 75 8q28 0 68 -6zM633 874q12 0 8 -14
q-11 -41 -68 -82.5t-135 -41.5q-77 0 -130 38t-51 88q2 12 12 12q4 0 25 -12.5t61.5 -25t92.5 -12.5q53 0 95.5 12.5t64 25t25.5 12.5z" />
    <glyph glyph-name="gbreve" unicode="&#x11f;" horiz-adv-x="584" 
d="M569 495l-61 -486q-15 -125 -88 -197t-192 -72q-53 0 -95 17t-64 41.5t-32.5 49t-8.5 42.5q0 12 11 12q7 0 19.5 -10t27 -21.5t44.5 -21.5t67 -10q66 0 107 41.5t48 105.5l13 105h-2q-29 -49 -74 -76.5t-98 -27.5q-89 0 -134 76t-30 188q13 107 78.5 184.5t156.5 77.5
q50 0 86.5 -23.5t53.5 -65.5h3l16 71q0 4 5 6q37 6 70 6q41 0 68 -6q5 -2 5 -6zM264 94q45 0 80 46t43 110q8 66 -14.5 113.5t-69.5 47.5q-43 0 -76 -44t-42 -113q-10 -73 13 -116.5t66 -43.5zM545 734q13 0 9 -14q-7 -42 -68 -91.5t-139 -49.5q-76 0 -128.5 45.5
t-48.5 97.5q2 12 12 12q4 0 24 -13.5t60 -27t94 -13.5q55 0 97 13.5t63 27t25 13.5z" />
    <glyph glyph-name="Gdotaccent" unicode="&#x120;" horiz-adv-x="675" 
d="M646 311q5 -1 5 -7q0 -3 -6.5 -56t-15.5 -131.5t-15 -128.5q-12 -97 -55.5 -148t-131.5 -51q-26 0 -48 9t-21 21q0 11 24 20.5t40 31.5q29 38 43 155l-2 1q-28 -17 -70 -30t-74 -13q-153 0 -229 99.5t-56 263.5q12 96 60 178t135 137t197 56q111 1 181.5 -51t60.5 -134
q-13 -97 -103 -97q-28 0 -51 12.5t-18 24.5q7 24 7 47.5t-8 46t-31.5 36t-60.5 13.5q-66 0 -122.5 -71.5t-70.5 -180.5q-13 -110 30 -181t138 -71q22 0 43.5 6t37 13.5t18.5 8.5q1 10 8.5 71.5t10.5 90.5q2 7 7 7q48 8 75 8q28 0 68 -6zM537 809q-3 -26 -31 -45.5t-64 -19.5
q-35 0 -58 19t-19 46q4 28 31.5 46.5t61.5 18.5q38 0 60.5 -18.5t18.5 -46.5z" />
    <glyph glyph-name="gdotaccent" unicode="&#x121;" horiz-adv-x="584" 
d="M569 495l-61 -486q-15 -125 -88 -197t-192 -72q-53 0 -95 17t-64 41.5t-32.5 49t-8.5 42.5q0 12 11 12q7 0 19.5 -10t27 -21.5t44.5 -21.5t67 -10q66 0 107 41.5t48 105.5l13 105h-2q-29 -49 -74 -76.5t-98 -27.5q-89 0 -134 76t-30 188q13 107 78.5 184.5t156.5 77.5
q50 0 86.5 -23.5t53.5 -65.5h3l16 71q0 4 5 6q37 6 70 6q41 0 68 -6q5 -2 5 -6zM264 94q45 0 80 46t43 110q8 66 -14.5 113.5t-69.5 47.5q-43 0 -76 -44t-42 -113q-10 -73 13 -116.5t66 -43.5zM445 664q-4 -34 -36.5 -58t-72.5 -24q-41 0 -66.5 24t-21.5 58t35.5 58.5
t72.5 24.5t67 -24.5t22 -58.5z" />
    <glyph glyph-name="Gcommaaccent" unicode="&#x122;" horiz-adv-x="698" 
d="M367 -127q-3 -45 -41 -80.5t-77.5 -51t-63.5 -14.5q-15 2 -10 13q2 5 15.5 12.5t33.5 23.5t34 40q-41 -6 -66 9t-21 49q4 33 34 53t72 20t67 -21t23 -53zM646 311q5 -1 5 -7q0 -3 -6 -53.5t-15 -128.5t-14 -124q-11 -89 -46.5 -134.5t-107.5 -45.5q-27 0 -46 14t-18 26
q0 5 4 8t12.5 10t15.5 17q23 34 35 133l-2 1q-28 -17 -70 -30t-74 -13q-153 0 -229 99.5t-56 263.5q12 96 60 178t135 137t197 56q111 1 181.5 -51t60.5 -134q-13 -97 -103 -97q-28 0 -51 12.5t-18 24.5q7 24 7 47.5t-8 46t-31.5 36t-60.5 13.5q-66 0 -122.5 -71.5
t-70.5 -180.5q-13 -110 30 -181t138 -71q22 0 43.5 6t37 13.5t18.5 8.5q1 10 8.5 71.5t10.5 90.5q2 7 7 7q48 8 75 8q28 0 68 -6z" />
    <glyph glyph-name="gcommaaccent" unicode="&#x123;" horiz-adv-x="584" 
d="M569 495l-61 -486q-15 -125 -88 -197t-192 -72q-53 0 -95 17t-64 41.5t-32.5 49t-8.5 42.5q0 12 11 12q7 0 19.5 -10t27 -21.5t44.5 -21.5t67 -10q66 0 107 41.5t48 105.5l13 105h-2q-29 -49 -74 -76.5t-98 -27.5q-89 0 -134 76t-30 188q13 107 78.5 184.5t156.5 77.5
q50 0 86.5 -23.5t53.5 -65.5h3l16 71q0 4 5 6q37 6 70 6q41 0 68 -6q5 -2 5 -6zM264 94q45 0 80 46t43 110q8 66 -14.5 113.5t-69.5 47.5q-43 0 -76 -44t-42 -113q-10 -73 13 -116.5t66 -43.5zM344 590q-40 0 -57.5 28t-13.5 67q7 53 42.5 97.5t67 64t43.5 19.5t10 -13
q0 -2 -24 -38t-25 -69q-2 -26 10 -41.5t24.5 -23.5t11.5 -16q-3 -27 -28.5 -51t-60.5 -24z" />
    <glyph glyph-name="Hcircumflex" unicode="&#x124;" horiz-adv-x="948" 
d="M507 564q0 -14 -15 -136h250l33 268q1 4 5 5q34 8 78 8q52 0 81 -8q4 0 3 -5l-84 -691q0 -2 -1.5 -3.5t-2.5 -1.5l-2 -1q-31 -7 -80 -7q-39 0 -79 7q-3 4 -3 5q32 256 38 307h-249l-38 -306q-1 -4 -5 -5q-37 -8 -79 -8q-51 0 -80 8q-5 0 -4 5q65 501 67 528
q9 110 -49 110q-44 0 -79 -44.5t-37 -100.5q-1 -34 5.5 -62.5t6.5 -30.5q0 -13 -23 -25.5t-54 -12.5q-45 0 -74 33t-25 91q5 72 53 129t115.5 85t139.5 28q92 0 142 -40t46 -129zM663 896q9 0 22.5 -12.5t33.5 -35t26 -28.5q14 -13 36.5 -31t33.5 -28t9 -15q-3 -7 -14 -7
q-6 0 -14 1.5t-19 5t-19.5 6.5t-24.5 9.5t-24.5 10t-29 12t-29.5 12.5q-144 -57 -174 -57q-9 0 -10 7q0 5 13.5 15.5t40 28t43.5 31.5q19 15 44.5 36.5t37 30t18.5 8.5z" />
    <glyph glyph-name="hcircumflex" unicode="&#x125;" horiz-adv-x="581" 
d="M25 4q5 38 16.5 134t34 283.5t39.5 324.5q2 4 6 5q37 7 71 7q43 0 74 -7q4 -3 3 -5l-43 -355h3q33 60 83.5 91.5t99.5 32.5q63 1 95.5 -39t23.5 -116q-3 -28 -11.5 -94t-12.5 -103q-4 -31 1.5 -50t13.5 -25t25 -13q8 -4 7 -12q-2 -19 -36 -48.5t-81 -29.5q-48 0 -73.5 29
t-18.5 81l28 229q9 84 -45 82q-37 -1 -74.5 -51.5t-46.5 -123.5l-28 -226q0 -4 -4 -5q0 -1 -1 -1q-31 -7 -74 -7q-34 0 -71 7q-4 4 -4 5zM228 936q9 0 22.5 -12.5t33.5 -35t26 -28.5q14 -13 36.5 -31t33.5 -28t9 -15q-3 -7 -14 -7q-6 0 -14 1.5t-19 5t-19.5 6.5t-24.5 9.5
t-24.5 10t-29 12t-29.5 12.5q-144 -57 -174 -57q-9 0 -10 7q0 5 13.5 15.5t40 28t43.5 31.5q19 15 44.5 36.5t37 30t18.5 8.5z" />
    <glyph glyph-name="Hbar" unicode="&#x126;" horiz-adv-x="984" 
d="M507 565q0 -18 -3 -48h249l22 179q1 4 5 5q34 8 78 8q52 0 81 -8q4 0 3 -5l-22 -179h55q4 0 4 -5l-8 -60l-4 -5h-56l-53 -442q0 -2 -1.5 -3.5t-2.5 -1.5l-2 -1q-31 -7 -80 -7q-39 0 -79 7q-3 4 -3 5q1 9 11.5 89t19.5 154h-249l-31 -242q-1 -4 -5 -5q-37 -8 -79 -8
q-51 0 -80 8q-5 0 -4 5q31 238 57 442h-64q-4 0 -4 4l8 61l4 5h64q4 29 4 50q0 76 -51 76q-44 0 -79 -44.5t-37 -100.5q-1 -34 5.5 -62.5t6.5 -30.5q0 -13 -23 -25.5t-54 -12.5q-45 0 -74 33t-25 91q5 72 53 129t115.5 85t139.5 28q188 0 188 -168zM485 365h250l10 82h-249
q-11 -80 -11 -82z" />
    <glyph glyph-name="hbar" unicode="&#x127;" horiz-adv-x="614" 
d="M267 643h111l3 -5l-8 -59l-4 -5h-111l-22 -183h2q33 60 83.5 91.5t100.5 32.5q62 1 95 -39t24 -116q-3 -27 -11.5 -92.5t-13.5 -104.5q-4 -31 2 -50t14 -25t25 -13q8 -4 7 -12q-2 -19 -36.5 -48.5t-81.5 -29.5q-48 0 -73 29t-19 81l28 229q6 43 -7.5 63t-37.5 19
q-37 -1 -74 -51.5t-46 -123.5l-28 -226q0 -2 -1.5 -3.5t-3.5 -1.5l-1 -1q-31 -7 -74 -7q-33 0 -71 7q-4 4 -4 5t71 570h-55q-4 0 -4 5l8 59l4 5h55l12 103q2 4 5 5q37 7 72 7q44 0 73 -7q4 -4 4 -5z" />
    <glyph glyph-name="Itilde" unicode="&#x128;" horiz-adv-x="545" 
d="M507 561q0 -44 -66 -556q-1 -4 -5 -5q-37 -8 -79 -8q-51 0 -80 8q-5 0 -4 5q65 501 67 528q9 110 -49 110q-44 0 -79 -44.5t-37 -100.5q-1 -34 5.5 -62.5t6.5 -30.5q0 -13 -23 -25.5t-54 -12.5q-45 0 -74 33t-25 91q5 72 53 129t115.5 85t139.5 28q188 0 188 -172z
M511 874q13 0 10 -25q-5 -36 -39 -69t-92 -31q-31 1 -95.5 23t-90.5 22q-29 0 -52.5 -14.5t-24.5 -14.5q-15 0 -11 24q5 32 40 63.5t82 31.5q31 0 89.5 -21t82.5 -21q34 0 67 16t34 16z" />
    <glyph glyph-name="itilde" unicode="&#x129;" horiz-adv-x="287" 
d="M340 715q9 0 8 -24q-5 -40 -35 -78t-77 -38q-27 0 -74 24t-68 24q-25 0 -47 -14.5t-24 -14.5q-11 0 -7 27q4 40 33.5 70.5t72.5 30.5q26 0 69 -18.5t64 -18.5q29 0 56.5 15t28.5 15zM128 -15q-48 0 -73.5 29t-18.5 81l49 401q2 4 6 5q35 7 71 7q45 0 74 -7q4 -4 3 -5
l-40 -333q-4 -31 1.5 -50t13.5 -25t25 -13q8 -4 7 -12q-3 -20 -37 -49t-81 -29z" />
    <glyph glyph-name="Imacron" unicode="&#x12a;" horiz-adv-x="545" 
d="M507 561q0 -44 -66 -556q-1 -4 -5 -5q-37 -8 -79 -8q-51 0 -80 8q-5 0 -4 5q65 501 67 528q9 110 -49 110q-44 0 -79 -44.5t-37 -100.5q-1 -34 5.5 -62.5t6.5 -30.5q0 -13 -23 -25.5t-54 -12.5q-45 0 -74 33t-25 91q5 72 53 129t115.5 85t139.5 28q188 0 188 -172z
M477 755h-306q-4 0 -4 4l8 59l4 5h306q4 0 4 -5l-7 -58z" />
    <glyph glyph-name="imacron" unicode="&#x12b;" horiz-adv-x="287" 
d="M308 595h-270q-3 0 -3 4l7 55l3 5h269l2 -5l-5 -54zM128 -15q-48 0 -73.5 29t-18.5 81l49 401q2 4 6 5q35 7 71 7q45 0 74 -7q4 -4 3 -5l-40 -333q-4 -31 1.5 -50t13.5 -25t25 -13q8 -4 7 -12q-3 -20 -37 -49t-81 -29z" />
    <glyph glyph-name="Ibreve" unicode="&#x12c;" horiz-adv-x="552" 
d="M507 561q0 -44 -66 -556q-1 -4 -5 -5q-37 -8 -79 -8q-51 0 -80 8q-5 0 -4 5q65 501 67 528q9 110 -49 110q-44 0 -79 -44.5t-37 -100.5q-1 -34 5.5 -62.5t6.5 -30.5q0 -13 -23 -25.5t-54 -12.5q-45 0 -74 33t-25 91q5 72 53 129t115.5 85t139.5 28q188 0 188 -172z
M522 891q12 0 8 -14q-11 -41 -68 -82.5t-135 -41.5q-77 0 -130 38t-51 88q2 12 12 12q4 0 25 -12.5t61.5 -25t92.5 -12.5q53 0 95.5 12.5t64 25t25.5 12.5z" />
    <glyph glyph-name="ibreve" unicode="&#x12d;" horiz-adv-x="282" 
d="M348 734q12 0 8 -14q-7 -42 -59.5 -92t-120.5 -50q-66 0 -112 46t-43 98q2 12 11 12q4 0 15.5 -8.5t27 -18.5t45.5 -18.5t67 -8.5q48 0 84.5 13.5t55 27t21.5 13.5zM127 -15q-48 0 -73.5 29t-18.5 81l49 401q2 4 6 5q35 7 71 7q45 0 74 -7q3 -4 3 -5l-40 -333
q-4 -31 1.5 -50t13.5 -25t25 -13q8 -4 7 -12q-3 -20 -37 -49t-81 -29z" />
    <glyph glyph-name="Iogonek" unicode="&#x12e;" horiz-adv-x="538" 
d="M332 -116q-3 -26 8.5 -41t31.5 -15q18 0 37.5 11.5t22.5 11.5q11 0 8 -19q-5 -34 -35.5 -68t-82.5 -34q-49 0 -73 34t-19 81q10 84 95 148q-29 2 -48 7q-5 0 -4 5q65 501 67 528q9 110 -49 110q-44 0 -79 -44.5t-37 -100.5q-1 -34 5.5 -62.5t6.5 -30.5q0 -13 -23 -25.5
t-54 -12.5q-45 0 -74 33t-25 91q5 72 53 129t115.5 85t139.5 28q188 0 188 -172q0 -44 -66 -556q-1 -4 -5 -5q-15 -3 -51 -7q-48 -62 -53 -109z" />
    <glyph glyph-name="iogonek" unicode="&#x12f;" horiz-adv-x="245" 
d="M79 -116q-3 -26 8.5 -41t31.5 -15q18 0 38 11.5t22 11.5q11 0 8 -19q-5 -34 -35.5 -68t-82.5 -34q-50 0 -73.5 34.5t-17.5 80.5q10 83 94 148q-27 2 -49 6q-3 3 -3 5l61 492q0 3 5 5q35 7 72 7q43 0 74 -7l2 -1q1 -2 0 -4l-60 -492q0 -3 -5 -5q-5 -1 -17.5 -2.5
t-17.5 -2.5q-49 -63 -55 -110zM166 582q-41 0 -66.5 24t-21.5 58t36 58.5t72 24.5q41 0 67 -24.5t22 -58.5t-36 -58t-73 -24z" />
    <glyph glyph-name="Idotaccent" unicode="&#x130;" horiz-adv-x="533" 
d="M507 561q0 -44 -66 -556q-1 -4 -5 -5q-37 -8 -79 -8q-51 0 -80 8q-5 0 -4 5q65 501 67 528q9 110 -49 110q-44 0 -79 -44.5t-37 -100.5q-1 -34 5.5 -62.5t6.5 -30.5q0 -13 -23 -25.5t-54 -12.5q-45 0 -74 33t-25 91q5 72 53 129t115.5 85t139.5 28q188 0 188 -172z
M452 822q-3 -26 -31 -45.5t-64 -19.5q-35 0 -58 19t-19 46q4 28 31.5 46.5t61.5 18.5q38 0 60.5 -18.5t18.5 -46.5z" />
    <glyph glyph-name="dotlessi" unicode="&#x131;" horiz-adv-x="268" 
d="M124 -15q-48 0 -73.5 29t-18.5 81l49 401q2 4 6 5q35 7 71 7q45 0 74 -7q4 -4 3 -5l-40 -333q-4 -31 1.5 -50t13.5 -25t25 -13q8 -4 7 -12q-3 -20 -37 -49t-81 -29z" />
    <glyph glyph-name="Jcircumflex" unicode="&#x134;" horiz-adv-x="519" 
d="M319 733q188 0 188 -172q0 -24 -58 -505q-26 -215 -212 -215q-55 0 -98 29t-40 57q3 14 16 14q5 0 27.5 -7t40.5 -7q26 0 45 11.5t29.5 34.5t16.5 46.5t10 58.5q27 205 56 452q13 113 -49 113q-44 0 -79 -44.5t-37 -100.5q-1 -34 5.5 -62.5t6.5 -30.5q0 -13 -23 -25.5
t-54 -12.5q-45 0 -74 33t-25 91q5 72 53 129t115.5 85t139.5 28zM332 896q9 0 22.5 -12.5t33.5 -35t26 -28.5q14 -13 36.5 -31t33.5 -28t9 -15q-3 -7 -14 -7q-6 0 -14 1.5t-19 5t-19.5 6.5t-24.5 9.5t-24.5 10t-29 12t-29.5 12.5q-144 -57 -174 -57q-9 0 -10 7
q0 5 13.5 15.5t40 28t43.5 31.5q19 15 44.5 36.5t37 30t18.5 8.5z" />
    <glyph glyph-name="jcircumflex" unicode="&#x135;" horiz-adv-x="341" 
d="M245 508q39 0 70 -7q4 -4 4 -5l-69 -559q-23 -197 -191 -197q-51 0 -91 27t-37 52q1 13 15 13q5 0 24.5 -6.5t35.5 -6.5q48 0 66 34t27 105l66 537q0 1 5 6q34 7 75 7zM330 685q24 -33 49.5 -54.5t36.5 -29t10 -13.5q-1 -16 -39 -16q-76 0 -134 63h-1q-73 -63 -151 -63
q-13 0 -23.5 4.5t-9.5 11.5q1 6 14 13.5t43.5 29.5t63.5 55q19 19 37.5 42t26.5 31t15 8t13.5 -8.5t21 -32t27.5 -41.5z" />
    <glyph glyph-name="Kcommaaccent" unicode="&#x136;" horiz-adv-x="927" 
d="M601 -127q-3 -45 -40.5 -80.5t-77 -51t-63.5 -14.5q-15 2 -10 13q2 5 15.5 12.5t33.5 23.5t34 40q-41 -6 -66 9t-21 49q4 33 34 53t72 20t66.5 -21t22.5 -53zM844 708q45 0 73 -10q6 -2 4 -4q-47 -69 -128 -159.5t-134 -139.5q0 -1 -1 -3q45 -126 98 -193.5t124 -89.5
q10 -3 8 -14q-3 -37 -45 -74.5t-96 -37.5q-50 0 -93 36t-69 87t-44.5 106t-25 94.5t-5.5 51.5q2 13 12 22q157 163 239 311q3 5 9 7q44 10 74 10zM507 561q0 -44 -66 -556q-1 -4 -5 -5q-37 -8 -79 -8q-51 0 -80 8q-5 0 -4 5q65 501 67 528q9 110 -49 110q-44 0 -79 -44.5
t-37 -100.5q-1 -34 5.5 -62.5t6.5 -30.5q0 -13 -23 -25.5t-54 -12.5q-45 0 -74 33t-25 91q5 72 53 129t115.5 85t139.5 28q188 0 188 -172z" />
    <glyph glyph-name="kcommaaccent" unicode="&#x137;" horiz-adv-x="567" 
d="M349 -127q-3 -45 -41 -80.5t-77 -51t-63 -14.5q-16 2 -11 13q2 5 15.5 12.5t33.5 23.5t35 40q-41 -6 -66.5 9t-21.5 49q4 33 34 53t72 20t67 -21t23 -53zM531 93q8 -3 8 -12q-3 -36 -38 -66t-85 -30q-34 0 -62 20t-45 49.5t-28.5 64.5t-15 64t-1.5 48q1 8 11 10
q39 6 80 36t46 71q4 28 -9 44.5t-42 16.5q-53 -1 -96.5 -65t-54.5 -155l-22 -183q-1 -6 -5 -6q-46 -8 -72 -8q-37 0 -72 8q-5 0 -4 5l90 742q1 4 5 4q38 8 72 8q37 0 74 -8q3 -1 2 -5l-44 -367h2q34 61 85.5 96.5t113.5 39.5q70 4 105.5 -30.5t29.5 -90.5q-8 -57 -54 -101
t-101 -58q44 -132 127 -142z" />
    <glyph glyph-name="kgreenlandic" unicode="&#x138;" horiz-adv-x="571" 
d="M531 95q9 -1 9 -13q-3 -38 -36.5 -68.5t-85.5 -30.5q-36 0 -65 21.5t-47 56.5t-28 67.5t-16 66.5h-6q-53 -81 -80 -162q-2 -26 -5 -29q0 -4 -4 -5q-34 -8 -64 -8q-36 0 -64 8q-4 0 -4 5l41 334q4 31 -1.5 50t-14 25.5t-24.5 12.5q-8 5 -7 12q2 20 36.5 49.5t81.5 29.5
q48 0 73 -29.5t18 -81.5l-21 -177h4q29 59 56.5 105t61 90.5t71 68.5t74.5 24q42 0 63 -27t16 -60q0 -9 -6 -15q-3 -4 -12.5 -4t-30.5 -2t-44 -9q-55 -13 -115 -83q1 -3 3 -8q74 -199 173 -214z" />
    <glyph glyph-name="Lacute" unicode="&#x139;" horiz-adv-x="575" 
d="M310 598l-55 -427q21 -3 65.5 -13t75 -14t52.5 -1q28 5 52.5 20t28.5 15q12 0 20 -20.5t5 -46.5q-5 -51 -43.5 -89t-110.5 -38q-48 0 -135.5 27.5t-116.5 27.5q-31 0 -49 -11.5t-26.5 -23t-17.5 -11.5q-11 -2 -21 17t-10 47q0 77 68 117l41 349q0 18 1.5 29t-3 21.5
t-6.5 16t-9 11t-10.5 7.5t-11 6t-10.5 6q-9 4 -8 13q2 20 40.5 52t90.5 32q55 0 82.5 -30t20.5 -89zM359 895q2 5 8 3q30 -10 67 -71q4 -4 2 -9q-13 -27 -84 -56t-146 -30q-63 0 -61 21q1 6 13 9.5t33 9.5t46 17.5t58 38.5t64 67z" />
    <glyph glyph-name="lacute" unicode="&#x13a;" horiz-adv-x="276" 
d="M125 -15q-48 0 -73 29t-19 81l79 651q2 4 6 5q37 7 73 7q41 0 72 -7q3 -3 3 -5l-71 -583q-4 -31 2 -50t13.5 -25t24.5 -13q8 -4 7 -12q-2 -19 -36 -48.5t-81 -29.5zM271 938q2 5 8 3q30 -10 67 -71q4 -4 2 -9q-13 -27 -84 -56t-146 -30q-63 0 -61 21q1 6 13 9.5t33 9.5
t46 17.5t58 38.5t64 67z" />
    <glyph glyph-name="Lcommaaccent" unicode="&#x13b;" horiz-adv-x="575" 
d="M353 -127q-3 -45 -40.5 -80.5t-77 -51t-63.5 -14.5q-15 2 -10 13q2 5 15.5 12.5t33 23.5t34.5 40q-41 -6 -66 9t-21 49q4 33 34 53t72 20t66.5 -21t22.5 -53zM310 598l-55 -427q21 -3 65.5 -13t75 -14t52.5 -1q28 5 52.5 20t28.5 15q12 0 20 -20.5t5 -46.5
q-5 -51 -43.5 -89t-110.5 -38q-48 0 -135.5 27.5t-116.5 27.5q-31 0 -49 -11.5t-26.5 -23t-17.5 -11.5q-11 -2 -21 17t-10 47q0 77 68 117l41 349q0 18 1.5 29t-3 21.5t-6.5 16t-9 11t-10.5 7.5t-11 6t-10.5 6q-9 4 -8 13q2 20 40.5 52t90.5 32q55 0 82.5 -30t20.5 -89z" />
    <glyph glyph-name="lcommaaccent" unicode="&#x13c;" horiz-adv-x="294" 
d="M231 -120q-3 -45 -41 -80.5t-77 -51t-63 -14.5q-15 1 -11 13q2 5 15.5 12.5t33.5 23.5t35 39q-41 -6 -66.5 9.5t-21.5 49.5q4 33 34 52.5t72 19.5q43 0 67.5 -20.5t22.5 -52.5zM150 -15q-48 0 -73 29t-19 81l79 651q2 4 5 5q37 7 73 7q43 0 72 -7q4 -4 4 -5l-71 -583
q-4 -31 1.5 -50t13.5 -25t25 -13q8 -4 7 -12q-2 -19 -36 -48.5t-81 -29.5z" />
    <glyph glyph-name="Lcaron" unicode="&#x13d;" horiz-adv-x="575" 
d="M310 598l-55 -427q21 -3 65.5 -13t75 -14t52.5 -1q28 5 52.5 20t28.5 15q12 0 20 -20.5t5 -46.5q-5 -51 -43.5 -89t-110.5 -38q-48 0 -135.5 27.5t-116.5 27.5q-31 0 -49 -11.5t-26.5 -23t-17.5 -11.5q-11 -2 -21 17t-10 47q0 77 68 117l41 349q0 18 1.5 29t-3 21.5
t-6.5 16t-9 11t-10.5 7.5t-11 6t-10.5 6q-9 4 -8 13q2 20 40.5 52t90.5 32q55 0 82.5 -30t20.5 -89zM429 560q1 26 -11 42t-24.5 24t-11.5 16q4 27 31.5 51t63.5 24q41 0 60 -27t16 -65q-5 -41 -29 -78t-52.5 -58.5t-51.5 -34.5t-31 -13q-12 0 -10 12q0 3 24 38.5t26 68.5z
" />
    <glyph glyph-name="lcaron" unicode="&#x13e;" horiz-adv-x="482" 
d="M124 -15q-48 0 -73 29t-19 81l79 651q2 4 6 5q37 7 73 7q41 0 72 -7q4 -3 3 -5l-71 -583q-4 -31 2 -50t13.5 -25t24.5 -13q8 -4 7 -12q-2 -19 -36 -48.5t-81 -29.5zM351 560q1 26 -11 42t-24.5 24t-11.5 16q4 27 31.5 51t63.5 24q41 0 60 -27t16 -65q-5 -41 -29 -78
t-52.5 -58.5t-51.5 -34.5t-31 -13q-12 0 -10 12q0 3 24 38.5t26 68.5z" />
    <glyph glyph-name="Ldot" unicode="&#x13f;" horiz-adv-x="576" 
d="M310 598l-55 -427q21 -3 65.5 -13t75 -14t52.5 -1q28 5 52.5 20t28.5 15q12 0 20 -20.5t5 -46.5q-5 -51 -43.5 -89t-110.5 -38q-48 0 -135.5 27.5t-116.5 27.5q-31 0 -49 -11.5t-26.5 -23t-17.5 -11.5q-11 -2 -21 17t-10 47q0 77 68 117l41 349q0 18 1.5 29t-3 21.5
t-6.5 16t-9 11t-10.5 7.5t-11 6t-10.5 6q-9 4 -8 13q2 20 40.5 52t90.5 32q55 0 82.5 -30t20.5 -89zM554 372q-3 -33 -29.5 -55.5t-63.5 -22.5q-35 0 -56 22.5t-17 55.5q4 32 30.5 54.5t61.5 22.5q36 0 57.5 -22.5t16.5 -54.5z" />
    <glyph glyph-name="ldot" unicode="&#x140;" horiz-adv-x="469" 
d="M124 -15q-48 0 -73 29t-19 81l79 651q2 4 6 5q37 7 73 7q41 0 72 -7q4 -3 3 -5l-71 -583q-4 -31 2 -50t13.5 -25t24.5 -13q8 -4 7 -12q-2 -19 -36 -48.5t-81 -29.5zM443 335q-4 -33 -30 -55t-63 -22q-35 0 -55.5 22t-16.5 55q4 32 30.5 54.5t60.5 22.5q36 0 57 -22.5
t17 -54.5z" />
    <glyph glyph-name="Lslash" unicode="&#x141;" horiz-adv-x="582" 
d="M214 717q55 0 82.5 -30t20.5 -89l-18 -144l114 62q4 2 6 -3l27 -57l-1 -7l-158 -86l-25 -192q21 -3 65.5 -13t75 -14t52.5 -1q28 5 52.5 20t28.5 15q12 0 20 -20.5t5 -46.5q-5 -51 -43.5 -89t-110.5 -38q-61 0 -149.5 27t-115.5 27q-23 0 -38.5 -11t-24 -22.5
t-13.5 -11.5q-13 -2 -23.5 18.5t-11.5 50.5q0 67 68 112l13 113l-51 -27q-4 -2 -6 3l-27 58l2 6l92 49l18 147q0 18 1.5 29t-3 21.5t-6.5 16t-9 11t-10.5 7.5t-11 6t-10.5 6q-9 4 -8 13q2 20 40.5 52t90.5 32z" />
    <glyph glyph-name="lslash" unicode="&#x142;" horiz-adv-x="321" 
d="M135 -15q-48 0 -73.5 29t-18.5 81l26 215l-40 -21q-3 -2 -6 2l-22 51l2 6l76 41l43 357q2 4 5 5q37 7 73 7q43 0 72 -7q4 -4 4 -5l-33 -268l46 26q4 2 6 -3l23 -50l-2 -7l-82 -45l-29 -236q-4 -31 1.5 -50t13.5 -25t25 -13q8 -4 7 -12q-2 -19 -36 -48.5t-81 -29.5z" />
    <glyph glyph-name="Nacute" unicode="&#x143;" horiz-adv-x="982" 
d="M974 699q3 0 3 -5l-84 -689q0 -2 -1.5 -3.5t-3.5 -1.5l-1 -1q-27 -7 -59 -7q-28 -1 -56 7q-2 0 -3 2l-16 31q-16 31 -38 73.5t-54 98.5t-63 107t-66.5 99t-63.5 75h-2q-11 -88 -22.5 -190.5t-21.5 -186.5t-12 -103q0 -2 -1.5 -3.5t-2.5 -1.5l-2 -1q-27 -7 -60 -7
q-34 0 -59 7q-4 4 -4 5l74 608q-19 28 -62 28q-52 0 -85 -45.5t-33 -104.5q0 -36 13.5 -63.5t13.5 -29.5q-1 -14 -24 -26.5t-54 -12.5q-49 0 -83 37.5t-30 100.5q7 106 105.5 174t217.5 66q44 -1 85.5 -14.5t74.5 -33t67 -51.5t58.5 -61t52.5 -71t45.5 -71t42.5 -71t38 -63
l2 1l49 393q0 5 5 5q32 8 60 8q32 0 60 -8zM759 885q2 5 8 3q30 -10 67 -71q4 -4 2 -9q-13 -27 -84 -56t-146 -30q-63 0 -61 21q1 6 13 9.5t33 9.5t46 17.5t58 38.5t64 67z" />
    <glyph glyph-name="nacute" unicode="&#x144;" horiz-adv-x="595" 
d="M35 4q23 155 44 337q5 43 -4.5 59.5t-33.5 26.5q-7 4 -7 12q2 19 37 48.5t82 29.5q42 0 64 -24.5t22 -65.5q0 -10 -2 -34h3q33 60 84.5 91.5t101.5 32.5q62 1 94.5 -39t23.5 -116q-7 -64 -25 -200q-4 -31 2 -50t14.5 -25.5t24.5 -12.5q8 -4 7 -12q-2 -20 -36.5 -49.5
t-81.5 -29.5q-48 0 -73 29.5t-18 81.5l27 232q6 44 -7 63.5t-37 18.5q-37 -1 -74.5 -51.5t-46.5 -123.5l-28 -228q0 -2 -1.5 -3.5t-2.5 -1.5l-2 -1q-29 -7 -72 -7q-35 0 -75 7q-4 4 -4 5zM178 595q1 6 20.5 14.5t46 19.5t61.5 46t62 88q2 5 8 5q17 -3 50 -28.5t45 -43.5
q2 -6 1 -9q-15 -30 -87.5 -71t-145.5 -42q-63 0 -61 21z" />
    <glyph glyph-name="Ncommaaccent" unicode="&#x145;" horiz-adv-x="982" 
d="M667 -120q-3 -45 -40.5 -80.5t-77 -51t-63.5 -14.5q-14 2 -10 13q2 5 15.5 12.5t33.5 23.5t34 39q-41 -6 -66 9.5t-21 49.5q4 33 34 52.5t72 19.5t66.5 -20.5t22.5 -52.5zM974 699q3 0 3 -5l-84 -689q0 -2 -1.5 -3.5t-3.5 -1.5l-1 -1q-27 -7 -59 -7q-28 -1 -56 7
q-2 0 -3 2l-16 31q-16 31 -38 73.5t-54 98.5t-63 107t-66.5 99t-63.5 75h-2q-11 -88 -22.5 -190.5t-21.5 -186.5t-12 -103q0 -2 -1.5 -3.5t-2.5 -1.5l-2 -1q-27 -7 -60 -7q-34 0 -59 7q-4 4 -4 5l74 608q-19 28 -62 28q-52 0 -85 -45.5t-33 -104.5q0 -36 13.5 -63.5
t13.5 -29.5q-1 -14 -24 -26.5t-54 -12.5q-49 0 -83 37.5t-30 100.5q7 106 105.5 174t217.5 66q44 -1 85.5 -14.5t74.5 -33t67 -51.5t58.5 -61t52.5 -71t45.5 -71t42.5 -71t38 -63l2 1l49 393q0 5 5 5q32 8 60 8q32 0 60 -8z" />
    <glyph glyph-name="ncommaaccent" unicode="&#x146;" horiz-adv-x="595" 
d="M366 -127q-3 -45 -41 -80.5t-77 -51t-63 -14.5q-16 2 -11 13q2 5 15.5 12.5t33.5 23.5t35 40q-41 -6 -66.5 9t-21.5 49q4 33 34 53t72 20q43 0 67.5 -21t22.5 -53zM35 4q23 155 44 337q5 43 -4.5 59.5t-33.5 26.5q-7 4 -7 12q2 19 37 48.5t82 29.5q42 0 64 -24.5
t22 -65.5q0 -10 -2 -34h3q33 60 84.5 91.5t101.5 32.5q62 1 94.5 -39t23.5 -116q-7 -64 -25 -200q-4 -31 2 -50t14.5 -25.5t24.5 -12.5q8 -4 7 -12q-2 -20 -36.5 -49.5t-81.5 -29.5q-48 0 -73 29.5t-18 81.5l27 232q6 44 -7 63.5t-37 18.5q-37 -1 -74.5 -51.5t-46.5 -123.5
l-28 -228q0 -2 -1.5 -3.5t-2.5 -1.5l-2 -1q-29 -7 -72 -7q-35 0 -75 7q-4 4 -4 5z" />
    <glyph glyph-name="Ncaron" unicode="&#x147;" horiz-adv-x="982" 
d="M974 699q3 0 3 -5l-84 -689q0 -2 -1.5 -3.5t-3.5 -1.5l-1 -1q-27 -7 -59 -7q-28 -1 -56 7q-2 0 -3 2l-16 31q-16 31 -38 73.5t-54 98.5t-63 107t-66.5 99t-63.5 75h-2q-11 -88 -22.5 -190.5t-21.5 -186.5t-12 -103q0 -2 -1.5 -3.5t-2.5 -1.5l-2 -1q-27 -7 -60 -7
q-34 0 -59 7q-4 4 -4 5l74 608q-19 28 -62 28q-52 0 -85 -45.5t-33 -104.5q0 -36 13.5 -63.5t13.5 -29.5q-1 -14 -24 -26.5t-54 -12.5q-49 0 -83 37.5t-30 100.5q7 106 105.5 174t217.5 66q44 -1 85.5 -14.5t74.5 -33t67 -51.5t58.5 -61t52.5 -71t45.5 -71t42.5 -71t38 -63
l2 1l49 393q0 5 5 5q32 8 60 8q32 0 60 -8zM660 697q-5 0 -10.5 3.5t-13.5 11t-15.5 16t-19.5 21.5t-23 23q-14 14 -36.5 31.5t-33.5 28t-9 15.5q3 6 14 6q27 0 160 -56q142 56 174 56q9 0 11 -6q0 -5 -13.5 -15.5t-40.5 -28.5t-44 -32q-5 -4 -30 -27t-42.5 -35t-27.5 -12z
" />
    <glyph glyph-name="ncaron" unicode="&#x148;" horiz-adv-x="595" 
d="M35 4q23 155 44 337q5 43 -4.5 59.5t-33.5 26.5q-7 4 -7 12q2 19 37 48.5t82 29.5q42 0 64 -24.5t22 -65.5q0 -10 -2 -34h3q33 60 84.5 91.5t101.5 32.5q62 1 94.5 -39t23.5 -116q-7 -64 -25 -200q-4 -31 2 -50t14.5 -25.5t24.5 -12.5q8 -4 7 -12q-2 -20 -36.5 -49.5
t-81.5 -29.5q-48 0 -73 29.5t-18 81.5l27 232q6 44 -7 63.5t-37 18.5q-37 -1 -74.5 -51.5t-46.5 -123.5l-28 -228q0 -2 -1.5 -3.5t-2.5 -1.5l-2 -1q-29 -7 -72 -7q-35 0 -75 7q-4 4 -4 5zM470 757q13 0 24 -4t10 -12q-1 -5 -14 -12.5t-43.5 -30t-63.5 -55.5
q-19 -19 -37.5 -42t-26.5 -31t-15 -8t-14 8.5t-21 32t-28 41.5q-15 22 -31.5 38.5t-27.5 25.5t-20 15t-13.5 10t-3.5 8q3 16 39 16q79 0 136 -63h1q73 63 149 63z" />
    <glyph glyph-name="Omacron" unicode="&#x14c;" horiz-adv-x="709" 
d="M428 718q106 1 164.5 -43.5t58.5 -106.5q0 -34 -15 -63l1 -4q57 -28 57 -126q0 -99 -43 -187.5t-128 -146.5t-193 -58q-148 0 -228.5 97t-68.5 245q8 107 57 195t137.5 142.5t200.5 55.5zM346 94q92 0 148 91t46 212l-1 1q-41 -24 -85 -26q-54 -2 -57 22q-2 9 12.5 20
t33.5 22.5t35.5 37.5t17.5 60q2 33 -24 53.5t-69 17.5q-85 -7 -136.5 -89.5t-58.5 -185.5q-8 -107 29.5 -171.5t108.5 -64.5zM592 751h-320q-4 0 -4 4l8 59l4 5h320q4 0 4 -5l-7 -58z" />
    <glyph glyph-name="omacron" unicode="&#x14d;" horiz-adv-x="571" 
d="M318 516q117 -3 180.5 -76t49.5 -190q-15 -118 -96.5 -194t-199.5 -73q-115 3 -179.5 74.5t-49.5 193.5q14 116 98 192t197 73zM265 72q53 0 87 48.5t43 127.5q10 77 -11.5 128.5t-76.5 51.5q-50 0 -85.5 -48.5t-45.5 -126.5q-10 -82 14.5 -131.5t74.5 -49.5zM486 594
h-337q-4 0 -4 4l8 59l4 5h337l3 -5l-7 -58z" />
    <glyph glyph-name="Obreve" unicode="&#x14e;" horiz-adv-x="709" 
d="M428 718q106 1 164.5 -43.5t58.5 -106.5q0 -34 -15 -63l1 -4q57 -28 57 -126q0 -99 -43 -187.5t-128 -146.5t-193 -58q-148 0 -228.5 97t-68.5 245q8 107 57 195t137.5 142.5t200.5 55.5zM346 94q92 0 148 91t46 212l-1 1q-41 -24 -85 -26q-54 -2 -57 22q-2 9 12.5 20
t33.5 22.5t35.5 37.5t17.5 60q2 33 -24 53.5t-69 17.5q-85 -7 -136.5 -89.5t-58.5 -185.5q-8 -107 29.5 -171.5t108.5 -64.5zM638 871q12 0 8 -14q-11 -41 -68 -82.5t-135 -41.5q-77 0 -130 38t-51 88q2 12 12 12q4 0 25 -12.5t61.5 -25t92.5 -12.5q53 0 95.5 12.5t64 25
t25.5 12.5z" />
    <glyph glyph-name="obreve" unicode="&#x14f;" horiz-adv-x="571" 
d="M318 516q117 -3 180.5 -76t49.5 -190q-15 -118 -96.5 -194t-199.5 -73q-115 3 -179.5 74.5t-49.5 193.5q14 116 98 192t197 73zM265 72q53 0 87 48.5t43 127.5q10 77 -11.5 128.5t-76.5 51.5q-50 0 -85.5 -48.5t-45.5 -126.5q-10 -82 14.5 -131.5t74.5 -49.5zM524 734
q13 0 9 -14q-7 -42 -68 -91.5t-139 -49.5q-76 0 -128.5 45.5t-48.5 97.5q2 12 12 12q4 0 24 -13.5t60 -27t94 -13.5q55 0 97 13.5t63 27t25 13.5z" />
    <glyph glyph-name="Ohungarumlaut" unicode="&#x150;" horiz-adv-x="709" 
d="M428 718q106 1 164.5 -43.5t58.5 -106.5q0 -34 -15 -63l1 -4q57 -28 57 -126q0 -99 -43 -187.5t-128 -146.5t-193 -58q-148 0 -228.5 97t-68.5 245q8 107 57 195t137.5 142.5t200.5 55.5zM346 94q92 0 148 91t46 212l-1 1q-41 -24 -85 -26q-54 -2 -57 22q-2 9 12.5 20
t33.5 22.5t35.5 37.5t17.5 60q2 33 -24 53.5t-69 17.5q-85 -7 -136.5 -89.5t-58.5 -185.5q-8 -107 29.5 -171.5t108.5 -64.5zM251 742q-15 0 -23.5 2t-11 5t-1.5 8q1 6 14.5 14t33.5 19t51 41.5t60 74.5q2 5 9 3q27 -10 62 -64q3 -5 2 -9q-20 -32 -77.5 -62t-118.5 -32z
M426 742q-15 0 -23.5 2t-10.5 5t-1 8q1 6 14.5 14t33.5 19t51 41.5t60 74.5q2 5 9 3q27 -10 62 -64q3 -8 2 -9q-20 -32 -78 -62t-119 -32z" />
    <glyph glyph-name="ohungarumlaut" unicode="&#x151;" horiz-adv-x="571" 
d="M318 516q117 -3 180.5 -76t49.5 -190q-15 -118 -96.5 -194t-199.5 -73q-115 3 -179.5 74.5t-49.5 193.5q14 116 98 192t197 73zM265 72q53 0 87 48.5t43 127.5q10 77 -11.5 128.5t-76.5 51.5q-50 0 -85.5 -48.5t-45.5 -126.5q-10 -82 14.5 -131.5t74.5 -49.5zM126 590
q1 7 16.5 17.5t36 24.5t46.5 48.5t43 82.5q2 4 7 4q18 -3 48.5 -22t38.5 -31q4 -4 2 -8q-26 -40 -87 -85.5t-123 -45.5q-30 0 -28 15zM292 590q1 7 16.5 17.5t36 24.5t46.5 48.5t43 82.5q2 4 7 4q18 -3 48.5 -22t38.5 -31q4 -4 2 -8q-26 -40 -87 -85.5t-123 -45.5
q-30 0 -28 15z" />
    <glyph glyph-name="OE" unicode="&#x152;" horiz-adv-x="1022" 
d="M981 164q9 3 13 -3t0 -15q-20 -53 -99.5 -108.5t-183.5 -55.5q-111 0 -174 59h-2q-89 -59 -201 -59q-153 0 -236 103.5t-65 258.5q21 162 128.5 267.5t260.5 105.5q76 0 137 -25q53 4 113 4.5t133 -0.5t87 -1q40 0 71.5 12t33.5 12q13 0 27.5 -22t10.5 -56
q-8 -47 -40.5 -80t-97.5 -33q-41 0 -116 9.5t-88 10.5q37 -58 34 -146q54 0 96.5 3t63.5 6.5t25 3.5q12 0 9 -23q-5 -40 -39.5 -71t-97.5 -31q-21 0 -73 2q-14 -64 -48 -121q35 -58 123 -58q33 0 69 9.5t73 23.5t53 18zM349 92q79 0 131 67.5t67 186.5q15 120 -22.5 192
t-114.5 72q-76 0 -132 -73.5t-69 -182.5q-14 -120 23.5 -191t116.5 -71z" />
    <glyph glyph-name="oe" unicode="&#x153;" horiz-adv-x="903" 
d="M317 515q70 -1 117 -34t57 -61h3q18 27 74.5 59t126.5 35q103 3 153 -45.5t42 -109.5q-10 -83 -78.5 -122t-149.5 -39q-24 0 -49 3t-43 7t-19 4q-1 -55 36 -88t95 -33q46 0 85 14t61 28t28 14q10 0 7 -11q-5 -40 -71.5 -95t-163.5 -55q-73 0 -120 33t-56 61h-4
q-18 -28 -72 -60t-127 -34q-114 -4 -177.5 69.5t-48.5 196.5q14 115 97.5 190t196.5 73zM265 72q53 0 87 48.5t43 127.5q10 77 -11.5 128.5t-76.5 51.5q-50 0 -85.5 -48.5t-45.5 -126.5q-10 -82 14.5 -131.5t74.5 -49.5zM676 430q-45 0 -78.5 -42.5t-42.5 -105.5
q21 -5 55 -5q54 0 91 23.5t41 62.5q4 28 -13 47.5t-53 19.5z" />
    <glyph glyph-name="Racute" unicode="&#x154;" horiz-adv-x="887" 
d="M482 726q55 0 105.5 -5.5t101 -21.5t86.5 -40t57 -63.5t19 -89.5q-2 -62 -50 -115.5t-107 -73.5l-2 -4q9 -33 31 -76t62.5 -84.5t81.5 -42.5q12 -3 10 -14q-3 -36 -37.5 -74.5t-95.5 -38.5q-57 0 -102 44.5t-66.5 104t-32 109.5t-7.5 71q1 12 18 20q57 24 93.5 59.5
t39.5 98.5q3 62 -52 101t-133 34l-75 -620q-1 -6 -6 -6q-34 -8 -80 -8q-43 0 -78 8q-5 0 -3 5l74 603l-2 2q-62 -16 -100.5 -65.5t-39.5 -103.5q-1 -13 2 -27t3 -16q0 -13 -25.5 -26.5t-57.5 -13.5q-47 0 -77 32.5t-26 82.5q9 111 150.5 182t320.5 72zM613 904q2 5 8 3
q30 -10 67 -71q4 -4 2 -9q-13 -27 -84 -56t-146 -30q-63 0 -61 21q1 6 13 9.5t33 9.5t46 17.5t58 38.5t64 67z" />
    <glyph glyph-name="racute" unicode="&#x155;" horiz-adv-x="493" 
d="M337 278q0 2 4 12t8 23.5t5 24.5q2 22 -5.5 36t-27.5 13q-35 -2 -65 -56t-40 -130l-24 -196q0 -2 -1.5 -3.5t-2.5 -1.5l-2 -1q-28 -7 -72 -7q-35 0 -75 7q-3 4 -3 5q2 16 20 150.5t24 184.5q5 43 -5 59.5t-33 26.5q-8 4 -8 12q3 20 37.5 49t81.5 29q43 0 64.5 -27.5
t19.5 -77.5q0 -6 -1.5 -19.5t-2.5 -20.5h4q25 66 70 105t98 40q52 0 79 -34t20 -89q-7 -54 -47 -93t-85 -39q-15 0 -25.5 4t-9.5 14zM139 595q1 6 20.5 14.5t46 19.5t61.5 46t62 88q3 5 8 5q17 -3 50 -28.5t45 -43.5q2 -6 1 -9q-15 -30 -87.5 -71t-145.5 -42q-63 0 -61 21z
" />
    <glyph glyph-name="Rcommaaccent" unicode="&#x156;" horiz-adv-x="887" 
d="M597 -127q-3 -45 -41 -80.5t-77.5 -51t-62.5 -14.5q-16 2 -11 13q2 5 15.5 12.5t33.5 23.5t34 40q-40 -6 -65.5 9t-21.5 49q4 33 34 53t72 20t67 -21t23 -53zM482 726q55 0 105.5 -5.5t101 -21.5t86.5 -40t57 -63.5t19 -89.5q-2 -62 -50 -115.5t-107 -73.5l-2 -4
q9 -33 31 -76t62.5 -84.5t81.5 -42.5q12 -3 10 -14q-3 -36 -37.5 -74.5t-95.5 -38.5q-57 0 -102 44.5t-66.5 104t-32 109.5t-7.5 71q1 12 18 20q57 24 93.5 59.5t39.5 98.5q3 62 -52 101t-133 34l-75 -620q-1 -6 -6 -6q-34 -8 -80 -8q-43 0 -78 8q-5 0 -3 5l74 603l-2 2
q-62 -16 -100.5 -65.5t-39.5 -103.5q-1 -13 2 -27t3 -16q0 -13 -25.5 -26.5t-57.5 -13.5q-47 0 -77 32.5t-26 82.5q9 111 150.5 182t320.5 72z" />
    <glyph glyph-name="rcommaaccent" unicode="&#x157;" horiz-adv-x="493" 
d="M317 -127q-3 -45 -41 -80.5t-77.5 -51t-63.5 -14.5q-15 2 -10 13q2 5 15.5 12.5t33.5 23.5t34 40q-41 -6 -66 9t-21 49q4 33 34 53t72 20t67 -21t23 -53zM337 278q0 2 4 12t8 23.5t5 24.5q2 22 -5.5 36t-27.5 13q-35 -2 -65 -56t-40 -130l-24 -196q0 -2 -1.5 -3.5
t-2.5 -1.5l-2 -1q-28 -7 -72 -7q-35 0 -75 7q-3 4 -3 5q2 16 20 150.5t24 184.5q5 43 -5 59.5t-33 26.5q-8 4 -8 12q3 20 37.5 49t81.5 29q43 0 64.5 -27.5t19.5 -77.5q0 -6 -1.5 -19.5t-2.5 -20.5h4q25 66 70 105t98 40q52 0 79 -34t20 -89q-7 -54 -47 -93t-85 -39
q-15 0 -25.5 4t-9.5 14z" />
    <glyph glyph-name="Rcaron" unicode="&#x158;" horiz-adv-x="887" 
d="M482 726q55 0 105.5 -5.5t101 -21.5t86.5 -40t57 -63.5t19 -89.5q-2 -62 -50 -115.5t-107 -73.5l-2 -4q9 -33 31 -76t62.5 -84.5t81.5 -42.5q12 -3 10 -14q-3 -36 -37.5 -74.5t-95.5 -38.5q-57 0 -102 44.5t-66.5 104t-32 109.5t-7.5 71q1 12 18 20q57 24 93.5 59.5
t39.5 98.5q3 62 -52 101t-133 34l-75 -620q-1 -6 -6 -6q-34 -8 -80 -8q-43 0 -78 8q-5 0 -3 5l74 603l-2 2q-62 -16 -100.5 -65.5t-39.5 -103.5q-1 -13 2 -27t3 -16q0 -13 -25.5 -26.5t-57.5 -13.5q-47 0 -77 32.5t-26 82.5q9 111 150.5 182t320.5 72zM533 744
q-5 0 -10.5 3.5t-13.5 11t-15.5 16t-19.5 21.5t-23 23q-14 14 -36.5 31.5t-33.5 28t-9 15.5q3 6 14 6q27 0 160 -56q142 56 174 56q10 0 11 -6q0 -5 -13.5 -15.5t-40.5 -28.5t-44 -32q-5 -4 -30 -27t-42.5 -35t-27.5 -12z" />
    <glyph glyph-name="rcaron" unicode="&#x159;" horiz-adv-x="493" 
d="M337 278q0 2 4 12t8 23.5t5 24.5q2 22 -5.5 36t-27.5 13q-35 -2 -65 -56t-40 -130l-24 -196q0 -2 -1.5 -3.5t-2.5 -1.5l-2 -1q-28 -7 -72 -7q-35 0 -75 7q-3 4 -3 5q2 16 20 150.5t24 184.5q5 43 -5 59.5t-33 26.5q-8 4 -8 12q3 20 37.5 49t81.5 29q43 0 64.5 -27.5
t19.5 -77.5q0 -6 -1.5 -19.5t-2.5 -20.5h4q25 66 70 105t98 40q52 0 79 -34t20 -89q-7 -54 -47 -93t-85 -39q-15 0 -25.5 4t-9.5 14zM429 757q13 0 24 -4t10 -12q-1 -5 -14 -12.5t-43.5 -30t-63.5 -55.5q-19 -19 -37.5 -42t-26.5 -31t-15 -8t-14 8.5t-21 32t-28 41.5
q-15 22 -31.5 38.5t-27.5 25.5t-20 15t-13.5 10t-3.5 8q3 16 39 16q79 0 136 -63h1q73 63 149 63z" />
    <glyph glyph-name="Sacute" unicode="&#x15a;" horiz-adv-x="581" 
d="M585 582q0 -47 -26.5 -76.5t-69.5 -29.5q-16 0 -31.5 6.5t-15.5 14.5l8 23q7 23 7 42q0 32 -16 50.5t-37 18.5q-33 -1 -48.5 -26t-17.5 -56q-1 -38 19.5 -79.5t51 -79.5t60.5 -78t50.5 -89t18.5 -98q-2 -45 -19 -87t-50.5 -79t-90.5 -59.5t-130 -22.5q-125 0 -191.5 68
t-53.5 152q7 59 45 96.5t87 37.5q32 0 54.5 -12.5t21.5 -25.5q0 -3 -12 -19t-22.5 -43t-10.5 -59q0 -37 22 -68t65 -31q48 0 73.5 33.5t25.5 73.5q1 40 -18.5 85t-48 86t-57.5 82.5t-49.5 89.5t-20.5 92q0 87 66.5 146.5t176.5 59.5q72 0 128 -37t56 -102zM473 898q2 5 8 3
q30 -10 67 -71q4 -4 2 -9q-13 -27 -84 -56t-146 -30q-63 0 -61 21q1 6 13 9.5t33 9.5t46 17.5t58 38.5t64 67z" />
    <glyph glyph-name="sacute" unicode="&#x15b;" horiz-adv-x="477" 
d="M448 166q-1 -70 -68 -126.5t-186 -56.5q-50 0 -93.5 14t-75 49.5t-29.5 86.5q2 36 28 62t69 26q25 0 41 -9.5t16 -18.5q0 -3 -8 -24t-9 -37q-2 -25 15 -45t50 -21q35 -2 60.5 18.5t24.5 53.5q0 19 -16.5 41.5t-39 45.5t-45.5 48t-39 58t-16 68q0 47 38.5 82.5t96.5 35.5
q29 0 55.5 -9t40.5 -18.5t16 -15.5q5 -11 -9 -15q-30 1 -49 -12.5t-18 -38.5t17 -49t38 -44t43.5 -41t36.5 -49t15 -59zM145 595q1 6 20.5 14.5t46 19.5t61.5 46t62 88q3 5 8 5q17 -3 50 -28.5t45 -43.5q2 -6 1 -9q-15 -30 -87.5 -71t-145.5 -42q-63 0 -61 21z" />
    <glyph glyph-name="Scircumflex" unicode="&#x15c;" horiz-adv-x="581" 
d="M585 582q0 -47 -26.5 -76.5t-69.5 -29.5q-16 0 -31.5 6.5t-15.5 14.5l8 23q7 23 7 42q0 32 -16 50.5t-37 18.5q-33 -1 -48.5 -26t-17.5 -56q-1 -38 19.5 -79.5t51 -79.5t60.5 -78t50.5 -89t18.5 -98q-2 -45 -19 -87t-50.5 -79t-90.5 -59.5t-130 -22.5q-125 0 -191.5 68
t-53.5 152q7 59 45 96.5t87 37.5q32 0 54.5 -12.5t21.5 -25.5q0 -3 -12 -19t-22.5 -43t-10.5 -59q0 -37 22 -68t65 -31q48 0 73.5 33.5t25.5 73.5q1 40 -18.5 85t-48 86t-57.5 82.5t-49.5 89.5t-20.5 92q0 87 66.5 146.5t176.5 59.5q72 0 128 -37t56 -102zM411 896
q9 0 22.5 -12.5t33.5 -35t26 -28.5q14 -13 36.5 -31t33.5 -28t9 -15q-3 -7 -14 -7q-6 0 -14 1.5t-19 5t-19.5 6.5t-24.5 9.5t-24.5 10t-29 12t-29.5 12.5q-144 -57 -174 -57q-9 0 -10 7q0 5 13.5 15.5t40 28t43.5 31.5q19 15 44.5 36.5t37 30t18.5 8.5z" />
    <glyph glyph-name="scircumflex" unicode="&#x15d;" horiz-adv-x="480" 
d="M448 166q-1 -70 -68 -126.5t-186 -56.5q-50 0 -93.5 14t-75 49.5t-29.5 86.5q2 36 28 62t69 26q25 0 41 -9.5t16 -18.5q0 -3 -8 -24t-9 -37q-2 -25 15 -45t50 -21q35 -2 60.5 18.5t24.5 53.5q0 19 -16.5 41.5t-39 45.5t-45.5 48t-39 58t-16 68q0 47 38.5 82.5t96.5 35.5
q29 0 55.5 -9t40.5 -18.5t16 -15.5q5 -11 -9 -15q-30 1 -49 -12.5t-18 -38.5t17 -49t38 -44t43.5 -41t36.5 -49t15 -59zM347 685q24 -33 49.5 -54.5t36.5 -29t10 -13.5q-1 -16 -39 -16q-76 0 -134 63h-1q-73 -63 -151 -63q-13 0 -23.5 4.5t-9.5 11.5q1 6 14 13.5t43.5 29.5
t63.5 55q19 19 37.5 42t26.5 31t15 8t13.5 -8.5t21 -32t27.5 -41.5z" />
    <glyph glyph-name="Scedilla" unicode="&#x15e;" horiz-adv-x="581" 
d="M585 582q0 -47 -26.5 -76.5t-69.5 -29.5q-16 0 -31.5 6.5t-15.5 14.5l8 23q7 23 7 42q0 32 -16 50.5t-37 18.5q-33 -1 -48.5 -26t-17.5 -56q-1 -38 19.5 -79.5t51 -79.5t60.5 -78t50.5 -89t18.5 -98q-2 -45 -19 -87t-50.5 -79t-90 -59.5t-128.5 -22.5l-18 -43q12 2 22 2
q53 1 81 -28t23 -71q-6 -43 -42 -75.5t-89 -32.5q-39 0 -68 11.5t-41 25t-11 24.5q0 8 7 8q3 0 22 -7t41 -7q30 -1 51.5 13.5t24.5 40.5q3 22 -12 36.5t-49 13.5q-13 -1 -30 -5t-20 -4q-14 0 -6 14q10 17 63 88q-103 14 -155 77.5t-41 138.5q7 59 45 96.5t87 37.5
q32 0 54.5 -12.5t21.5 -25.5q0 -3 -12 -19t-22.5 -43t-10.5 -59q0 -37 22 -68t65 -31q48 0 73.5 33.5t25.5 73.5q1 40 -18.5 85t-48 86t-57.5 82.5t-49.5 89.5t-20.5 92q0 87 66.5 146.5t176.5 59.5q72 0 128 -37t56 -102z" />
    <glyph glyph-name="scedilla" unicode="&#x15f;" horiz-adv-x="470" 
d="M448 166q-1 -67 -65 -123.5t-178 -59.5l-18 -44q12 2 22 2q53 1 81 -28t23 -71q-6 -43 -42 -75.5t-89 -32.5q-39 0 -68 11.5t-41 25t-11 24.5q0 8 7 8q3 0 22 -7t41 -7q30 -1 51.5 13.5t24.5 40.5q3 22 -12 36.5t-49 13.5q-13 -1 -30 -5t-20 -4q-14 0 -6 14q10 17 63 88
q-68 8 -114 45t-44 102q2 36 28 62t69 26q25 0 41 -9.5t16 -18.5q0 -3 -8 -24t-9 -37q-2 -25 15 -45t50 -21q35 -2 60.5 18.5t24.5 53.5q0 19 -16.5 41.5t-39 45.5t-45.5 48t-39 58t-16 68q0 47 38.5 82.5t96.5 35.5q29 0 55.5 -9t40.5 -18.5t16 -15.5q5 -11 -9 -15
q-30 1 -49 -12.5t-18 -38.5t17 -49t38 -44t43.5 -41t36.5 -49t15 -59z" />
    <glyph glyph-name="Scaron" unicode="&#x160;" horiz-adv-x="593" 
d="M585 582q0 -47 -26.5 -76.5t-69.5 -29.5q-16 0 -31.5 6.5t-15.5 14.5l8 23q7 23 7 42q0 32 -16 50.5t-37 18.5q-33 -1 -48.5 -26t-17.5 -56q-1 -38 19.5 -79.5t51 -79.5t60.5 -78t50.5 -89t18.5 -98q-2 -45 -19 -87t-50.5 -79t-90.5 -59.5t-130 -22.5q-125 0 -191.5 68
t-53.5 152q7 59 45 96.5t87 37.5q32 0 54.5 -12.5t21.5 -25.5q0 -3 -12 -19t-22.5 -43t-10.5 -59q0 -37 22 -68t65 -31q48 0 73.5 33.5t25.5 73.5q1 40 -18.5 85t-48 86t-57.5 82.5t-49.5 89.5t-20.5 92q0 87 66.5 146.5t176.5 59.5q72 0 128 -37t56 -102zM398 740
q-5 0 -10.5 3.5t-13.5 11t-15.5 16t-19.5 21.5t-23 23q-14 14 -36.5 31.5t-33.5 28t-9 15.5q3 6 14 6q27 0 160 -56q142 56 174 56q9 0 11 -6q0 -5 -13.5 -15.5t-40.5 -28.5t-44 -32q-5 -4 -30 -27t-42.5 -35t-27.5 -12z" />
    <glyph glyph-name="scaron" unicode="&#x161;" horiz-adv-x="492" 
d="M448 166q-1 -70 -68 -126.5t-186 -56.5q-50 0 -93.5 14t-75 49.5t-29.5 86.5q2 36 28 62t69 26q25 0 41 -9.5t16 -18.5q0 -3 -8 -24t-9 -37q-2 -25 15 -45t50 -21q35 -2 60.5 18.5t24.5 53.5q0 19 -16.5 41.5t-39 45.5t-45.5 48t-39 58t-16 68q0 47 38.5 82.5t96.5 35.5
q29 0 55.5 -9t40.5 -18.5t16 -15.5q5 -11 -9 -15q-30 1 -49 -12.5t-18 -38.5t17 -49t38 -44t43.5 -41t36.5 -49t15 -59zM436 757q13 0 24 -4t10 -12q-1 -5 -14 -12.5t-43.5 -30t-63.5 -55.5q-19 -19 -37.5 -42t-26.5 -31t-15 -8t-14 8.5t-21 32t-28 41.5q-15 22 -31.5 38.5
t-27.5 25.5t-20 15t-13.5 10t-3.5 8q3 16 39 16q79 0 136 -63h1q73 63 149 63z" />
    <glyph glyph-name="Tcommaaccent" unicode="&#x162;" horiz-adv-x="713" 
d="M424 -127q-3 -45 -40.5 -80.5t-77 -51t-63.5 -14.5q-15 2 -10 13q2 5 15.5 12.5t33.5 23.5t34 40q-41 -6 -66 9t-21 49q4 33 34 53t72 20t66.5 -21t22.5 -53zM165 745q51 0 184.5 -28.5t204.5 -28.5q43 0 82 11t61.5 22t24.5 11q13 0 24 -22.5t11 -48.5
q-1 -60 -41.5 -93.5t-112.5 -33.5q-38 0 -103 13l-67 -542q0 -2 -1.5 -3.5t-3.5 -1.5l-1 -1q-31 -7 -80 -7q-39 0 -78 7q-4 4 -4 5q18 135 72 572q-98 13 -132 13q-47 0 -83 -11t-54.5 -21.5t-22.5 -10.5q-13 0 -24 22.5t-11 48.5q1 60 42 94t113 34z" />
    <glyph glyph-name="tcommaaccent" unicode="&#x163;" horiz-adv-x="366" 
d="M250 -127q-3 -45 -40.5 -80.5t-77 -51t-63.5 -14.5q-15 2 -10 13q2 5 15.5 12.5t33 23.5t34.5 40q-41 -6 -66 9t-21 49q4 33 34 53t72 20t66.5 -21t22.5 -53zM285 87q12 0 29 3.5t21 3.5q11 0 9 -11q-4 -30 -52.5 -64t-111.5 -34q-74 0 -104.5 46t-19.5 131l33 270h-52
q-4 0 -4 4l8 59l5 5h50l15 123q0 5 5 5q38 8 74 8q38 0 73 -8q4 0 4 -6l-15 -122h120l3 -5l-8 -58l-4 -5h-120l-27 -216q-8 -72 6.5 -100.5t62.5 -28.5z" />
    <glyph glyph-name="Tcaron" unicode="&#x164;" horiz-adv-x="713" 
d="M165 745q51 0 184.5 -28.5t204.5 -28.5q43 0 82 11t61.5 22t24.5 11q13 0 24 -22.5t11 -48.5q-1 -60 -41.5 -93.5t-112.5 -33.5q-38 0 -103 13l-67 -542q0 -2 -1.5 -3.5t-3.5 -1.5l-1 -1q-31 -7 -80 -7q-39 0 -78 7q-4 4 -4 5q18 135 72 572q-98 13 -132 13
q-47 0 -83 -11t-54.5 -21.5t-22.5 -10.5q-13 0 -24 22.5t-11 48.5q1 60 42 94t113 34zM441 737q-5 0 -10.5 3.5t-13.5 11t-15.5 16t-19.5 21.5t-23 23q-14 14 -36.5 31.5t-33.5 28t-9 15.5q3 6 14 6q27 0 160 -56q142 56 174 56q10 0 11 -6q0 -5 -13.5 -15.5t-40.5 -28.5
t-44 -32q-5 -4 -30 -27t-42.5 -35t-27.5 -12z" />
    <glyph glyph-name="tcaron" unicode="&#x165;" horiz-adv-x="577" 
d="M285 87q12 0 29 3.5t21 3.5q11 0 9 -11q-4 -30 -52.5 -64t-111.5 -34q-74 0 -104.5 46t-19.5 131l33 270h-52q-4 0 -4 4l8 59l5 5h50l15 123q0 5 5 5q38 8 74 8q38 0 73 -8q4 0 4 -6l-15 -122h120l3 -5l-8 -58l-4 -5h-120l-27 -216q-8 -72 6.5 -100.5t62.5 -28.5z
M443 560q1 26 -11 42t-24.5 24t-11.5 16q4 27 31.5 51t63.5 24q41 0 60 -27t16 -65q-5 -41 -29 -78t-52.5 -58.5t-51.5 -34.5t-31 -13q-12 0 -10 12q0 3 24 38.5t26 68.5z" />
    <glyph glyph-name="Tbar" unicode="&#x166;" horiz-adv-x="713" 
d="M165 745q51 0 184.5 -29.5t204.5 -29.5q43 0 82 11.5t61.5 23t24.5 11.5q13 0 24 -22.5t11 -48.5q-1 -60 -41.5 -93.5t-112.5 -33.5q-44 0 -104 10l-19 -151h137q4 0 4 -5l-10 -75l-4 -5h-137l-37 -303q0 -2 -1.5 -3.5t-3.5 -1.5l-1 -1q-31 -7 -80 -7q-39 0 -78 7
q-4 4 -4 5q23 176 38 304h-135l-3 4l9 76l5 5h134l23 181q-96 15 -131 15q-47 0 -83 -11t-54.5 -21.5t-22.5 -10.5q-13 0 -24 22.5t-11 48.5q1 60 42 94t113 34z" />
    <glyph glyph-name="tbar" unicode="&#x167;" horiz-adv-x="384" 
d="M302 87q12 0 30 3.5t22 3.5q11 0 9 -11q-4 -30 -53.5 -64t-113.5 -34q-144 0 -122 177l15 126h-52l-3 4l7 58l5 5h51l10 77h-51q-4 0 -4 4l7 59l5 5h51l15 123q0 5 5 5q37 8 74 8q36 0 73 -8q3 0 3 -6l-15 -122h120l3 -5l-7 -58l-4 -5h-121l-9 -77h120l3 -5l-7 -57l-5 -5
h-120l-9 -72q-8 -72 6.5 -100.5t61.5 -28.5z" />
    <glyph glyph-name="Utilde" unicode="&#x168;" horiz-adv-x="938" 
d="M511 561q0 -34 -13 -127.5t-21 -178.5q-5 -72 27 -110.5t87 -38.5q137 0 162 177q11 74 51 411q1 5 5 5q35 8 62 8q24 0 58 -8q4 -1 4 -5q-9 -64 -24 -193t-24 -193q-44 -326 -329 -326q-276 0 -247 296q2 25 16 130.5t15 124.5q9 110 -49 110q-44 0 -79 -44.5
t-37 -100.5q-1 -34 5.5 -62.5t6.5 -30.5q0 -13 -23 -25.5t-54 -12.5q-45 0 -74 33t-25 91q5 72 53 129t115.5 85t139.5 28q192 0 192 -172zM865 852q13 0 10 -24q-5 -36 -40.5 -68t-97.5 -30q-34 1 -101 22.5t-95 21.5q-31 0 -55.5 -14.5t-26.5 -14.5q-15 0 -11 24
q5 31 42 62t86 31q33 0 94.5 -20.5t87.5 -20.5q36 0 70.5 15.5t36.5 15.5z" />
    <glyph glyph-name="utilde" unicode="&#x169;" horiz-adv-x="594" 
d="M560 495q-8 -52 -42 -335q-4 -30 1 -48t13 -24t24 -13q8 -4 7 -12q-2 -19 -36 -48.5t-81 -29.5q-42 0 -63.5 23.5t-23.5 63.5q0 24 1 36l-2 1q-33 -60 -83.5 -91.5t-101.5 -32.5q-64 -1 -96.5 38t-23.5 115l24 199q4 30 -2 48.5t-14 24.5t-25 12q-8 3 -7 13q2 20 36 49.5
t81 29.5q48 0 74.5 -29.5t19.5 -81.5l-28 -228q-6 -43 7.5 -63.5t37.5 -19.5q37 2 74 51.5t46 124.5q15 121 27 226q2 6 6 6q42 8 75 8q32 0 72 -7q3 -3 3 -6zM539 713q13 0 10 -24q-5 -41 -43 -79.5t-97 -38.5q-34 0 -93 24t-86 24q-31 0 -59 -14.5t-30 -14.5q-15 0 -9 27
q6 41 43 72t91 31q33 0 87 -19t80 -19q36 0 70.5 15.5t35.5 15.5z" />
    <glyph glyph-name="Umacron" unicode="&#x16a;" horiz-adv-x="938" 
d="M511 561q0 -34 -13 -127.5t-21 -178.5q-5 -72 27 -110.5t87 -38.5q137 0 162 177q11 74 51 411q1 5 5 5q35 8 62 8q24 0 58 -8q4 -1 4 -5q-9 -64 -24 -193t-24 -193q-44 -326 -329 -326q-276 0 -247 296q2 25 16 130.5t15 124.5q9 110 -49 110q-44 0 -79 -44.5
t-37 -100.5q-1 -34 5.5 -62.5t6.5 -30.5q0 -13 -23 -25.5t-54 -12.5q-45 0 -74 33t-25 91q5 72 53 129t115.5 85t139.5 28q192 0 192 -172zM798 741h-320q-4 0 -4 4l8 59l4 5h320q4 0 4 -5l-7 -58z" />
    <glyph glyph-name="umacron" unicode="&#x16b;" horiz-adv-x="594" 
d="M560 495q-8 -52 -42 -335q-4 -30 1 -48t13 -24t24 -13q8 -4 7 -12q-2 -19 -36 -48.5t-81 -29.5q-42 0 -63.5 23.5t-23.5 63.5q0 24 1 36l-2 1q-33 -60 -83.5 -91.5t-101.5 -32.5q-64 -1 -96.5 38t-23.5 115l24 199q4 30 -2 48.5t-14 24.5t-25 12q-8 3 -7 13q2 20 36 49.5
t81 29.5q48 0 74.5 -29.5t19.5 -81.5l-28 -228q-6 -43 7.5 -63.5t37.5 -19.5q37 2 74 51.5t46 124.5q15 121 27 226q2 6 6 6q42 8 75 8q32 0 72 -7q3 -3 3 -6zM500 594h-337q-4 0 -4 4l8 59l4 5h337l3 -5l-7 -58z" />
    <glyph glyph-name="Ubreve" unicode="&#x16c;" horiz-adv-x="938" 
d="M511 561q0 -34 -13 -127.5t-21 -178.5q-5 -72 27 -110.5t87 -38.5q137 0 162 177q11 74 51 411q1 5 5 5q35 8 62 8q24 0 58 -8q4 -1 4 -5q-9 -64 -24 -193t-24 -193q-44 -326 -329 -326q-276 0 -247 296q2 25 16 130.5t15 124.5q9 110 -49 110q-44 0 -79 -44.5
t-37 -100.5q-1 -34 5.5 -62.5t6.5 -30.5q0 -13 -23 -25.5t-54 -12.5q-45 0 -74 33t-25 91q5 72 53 129t115.5 85t139.5 28q192 0 192 -172zM838 869q12 0 8 -14q-11 -41 -68 -82.5t-135 -41.5q-77 0 -130 38t-51 88q2 12 12 12q4 0 25 -12.5t61.5 -25t92.5 -12.5
q53 0 95.5 12.5t64 25t25.5 12.5z" />
    <glyph glyph-name="ubreve" unicode="&#x16d;" horiz-adv-x="594" 
d="M560 495q-8 -52 -42 -335q-4 -30 1 -48t13 -24t24 -13q8 -4 7 -12q-2 -19 -36 -48.5t-81 -29.5q-42 0 -63.5 23.5t-23.5 63.5q0 24 1 36l-2 1q-33 -60 -83.5 -91.5t-101.5 -32.5q-64 -1 -96.5 38t-23.5 115l24 199q4 30 -2 48.5t-14 24.5t-25 12q-8 3 -7 13q2 20 36 49.5
t81 29.5q48 0 74.5 -29.5t19.5 -81.5l-28 -228q-6 -43 7.5 -63.5t37.5 -19.5q37 2 74 51.5t46 124.5q15 121 27 226q2 6 6 6q42 8 75 8q32 0 72 -7q3 -3 3 -6zM522 734q13 0 9 -14q-7 -42 -68 -91.5t-139 -49.5q-76 0 -128.5 45.5t-48.5 97.5q2 12 12 12q4 0 24 -13.5
t60 -27t94 -13.5q55 0 97 13.5t63 27t25 13.5z" />
    <glyph glyph-name="Uring" unicode="&#x16e;" horiz-adv-x="938" 
d="M511 561q0 -34 -13 -127.5t-21 -178.5q-5 -72 27 -110.5t87 -38.5q137 0 162 177q11 74 51 411q1 5 5 5q35 8 62 8q24 0 58 -8q4 -1 4 -5q-9 -64 -24 -193t-24 -193q-44 -326 -329 -326q-276 0 -247 296q2 25 16 130.5t15 124.5q9 110 -49 110q-44 0 -79 -44.5
t-37 -100.5q-1 -34 5.5 -62.5t6.5 -30.5q0 -13 -23 -25.5t-54 -12.5q-45 0 -74 33t-25 91q5 72 53 129t115.5 85t139.5 28q192 0 192 -172zM548 795q6 44 41 74t79 30t71 -30.5t21 -73.5q-5 -42 -39.5 -72t-78.5 -30q-43 0 -70.5 30t-23.5 72zM649 750q18 0 32 13t16 32
q3 19 -8 32.5t-29 13.5q-19 0 -32.5 -13t-16.5 -33q-2 -19 8.5 -32t29.5 -13z" />
    <glyph glyph-name="uring" unicode="&#x16f;" horiz-adv-x="594" 
d="M560 495q-8 -52 -42 -335q-4 -30 1 -48t13 -24t24 -13q8 -4 7 -12q-2 -19 -36 -48.5t-81 -29.5q-42 0 -63.5 23.5t-23.5 63.5q0 24 1 36l-2 1q-33 -60 -83.5 -91.5t-101.5 -32.5q-64 -1 -96.5 38t-23.5 115l24 199q4 30 -2 48.5t-14 24.5t-25 12q-8 3 -7 13q2 20 36 49.5
t81 29.5q48 0 74.5 -29.5t19.5 -81.5l-28 -228q-6 -43 7.5 -63.5t37.5 -19.5q37 2 74 51.5t46 124.5q15 121 27 226q2 6 6 6q42 8 75 8q32 0 72 -7q3 -3 3 -6zM227 655q6 43 41 73t79 30t71 -30t21 -73q-4 -43 -39 -72.5t-79 -29.5q-43 0 -70.5 29.5t-23.5 72.5zM328 610
q18 0 32 13t16 32q3 19 -8 32.5t-29 13.5q-19 0 -32.5 -13t-16.5 -33q-2 -19 8.5 -32t29.5 -13z" />
    <glyph glyph-name="Uhungarumlaut" unicode="&#x170;" horiz-adv-x="938" 
d="M511 561q0 -34 -13 -127.5t-21 -178.5q-5 -72 27 -110.5t87 -38.5q137 0 162 177q11 74 51 411q1 5 5 5q35 8 62 8q24 0 58 -8q4 -1 4 -5q-9 -64 -24 -193t-24 -193q-44 -326 -329 -326q-276 0 -247 296q2 25 16 130.5t15 124.5q9 110 -49 110q-44 0 -79 -44.5
t-37 -100.5q-1 -34 5.5 -62.5t6.5 -30.5q0 -13 -23 -25.5t-54 -12.5q-45 0 -74 33t-25 91q5 72 53 129t115.5 85t139.5 28q192 0 192 -172zM498 742q-15 0 -23.5 2t-11 5t-1.5 8q1 6 14.5 14t33.5 19t51 41.5t60 74.5q2 5 9 3q27 -10 62 -64q3 -5 2 -9q-20 -32 -77.5 -62
t-118.5 -32zM673 742q-15 0 -23.5 2t-10.5 5t-1 8q1 6 14.5 14t33.5 19t51 41.5t60 74.5q2 5 9 3q27 -10 62 -64q2 -8 2 -9q-20 -32 -78 -62t-119 -32z" />
    <glyph glyph-name="uhungarumlaut" unicode="&#x171;" horiz-adv-x="594" 
d="M560 495q-8 -52 -42 -335q-4 -30 1 -48t13 -24t24 -13q8 -4 7 -12q-2 -19 -36 -48.5t-81 -29.5q-42 0 -63.5 23.5t-23.5 63.5q0 24 1 36l-2 1q-33 -60 -83.5 -91.5t-101.5 -32.5q-64 -1 -96.5 38t-23.5 115l24 199q4 30 -2 48.5t-14 24.5t-25 12q-8 3 -7 13q2 20 36 49.5
t81 29.5q48 0 74.5 -29.5t19.5 -81.5l-28 -228q-6 -43 7.5 -63.5t37.5 -19.5q37 2 74 51.5t46 124.5q15 121 27 226q2 6 6 6q42 8 75 8q32 0 72 -7q3 -3 3 -6zM145 590q1 7 16.5 17.5t36 24.5t46.5 48.5t43 82.5q2 4 7 4q18 -3 48.5 -22t38.5 -31q3 -4 2 -8
q-26 -40 -87 -85.5t-123 -45.5q-30 0 -28 15zM311 590q1 7 16.5 17.5t36 24.5t46.5 48.5t43 82.5q2 4 7 4q18 -3 48.5 -22t38.5 -31q3 -4 2 -8q-26 -40 -87 -85.5t-123 -45.5q-30 0 -28 15z" />
    <glyph glyph-name="Uogonek" unicode="&#x172;" horiz-adv-x="938" 
d="M552 -116q-3 -26 8.5 -41t31.5 -15q18 0 37.5 11.5t22.5 11.5q11 0 8 -19q-5 -34 -35.5 -68t-82.5 -34q-49 0 -73 34t-19 81q10 78 82 138q-251 12 -223 295q2 25 16 130.5t15 124.5q9 110 -49 110q-44 0 -79 -44.5t-37 -100.5q-1 -34 5.5 -62.5t6.5 -30.5
q0 -13 -23 -25.5t-54 -12.5q-45 0 -74 33t-25 91q5 72 53 129t115.5 85t139.5 28q192 0 192 -172q0 -34 -13 -127.5t-21 -178.5q-5 -72 27 -110.5t87 -38.5q137 0 162 177q11 74 51 411q1 5 5 5q35 8 62 8q24 0 58 -8q4 -1 4 -5q-9 -64 -24 -193t-24 -193
q-42 -299 -287 -324q-40 -52 -46 -100z" />
    <glyph glyph-name="uogonek" unicode="&#x173;" horiz-adv-x="594" 
d="M422 -116q-3 -26 8.5 -41t31.5 -15q18 0 37.5 11.5t22.5 11.5q11 0 8 -19q-5 -34 -35.5 -68t-82.5 -34q-49 0 -73 34t-19 81q10 81 92 145q-51 17 -53 82q0 24 1 36l-2 1q-33 -60 -83.5 -91.5t-101.5 -32.5q-64 -1 -96.5 38t-23.5 115l24 199q4 30 -2 48.5t-14 24.5
t-25 12q-8 3 -7 13q2 20 36 49.5t81 29.5q48 0 74.5 -29.5t19.5 -81.5l-28 -228q-6 -43 7.5 -63.5t37.5 -19.5q37 2 74 51.5t46 124.5l27 226q2 6 6 6q42 8 75 8q32 0 72 -7q3 -3 3 -6q-8 -52 -42 -335q-4 -30 1 -48t13 -24t24 -13q8 -4 7 -12q-2 -16 -28 -42t-64 -33
q-44 -55 -49 -104z" />
    <glyph glyph-name="Wcircumflex" unicode="&#x174;" horiz-adv-x="1250" 
d="M1300 699q3 -1 3 -5q-118 -335 -301 -690q-4 -4 -8 -5l-4 -1q-3 0 -9.5 -1t-16 -2.5t-23.5 -2t-30 -0.5t-31 0.5t-26 2t-19.5 2.5t-13.5 1.5t-6 0.5q-6 1 -6 5q-17 225 -46 429h-4q-22 -66 -45.5 -134.5t-41.5 -118.5t-33.5 -90.5t-24 -62.5t-8.5 -23q-4 -5 -8 -5l-4 -1
q-5 -1 -13 -2t-18.5 -2t-25.5 -2t-31 -1q-67 0 -91 8q-6 0 -6 5q-3 30 -9 83.5t-10 92.5t-10.5 92.5t-12.5 93.5t-14.5 85t-18 76t-21 57.5t-25 40t-29.5 13.5q-33 0 -58 -39.5t-26 -87.5q-1 -34 5.5 -68.5t6.5 -37.5q0 -13 -23 -25.5t-54 -12.5q-45 0 -74 33t-25 91
q5 72 52.5 129t114.5 85t139 28q36 0 65.5 -8t51 -20.5t38.5 -35.5t28.5 -45.5t20 -58t13 -65t8 -75t5.5 -80.5t4.5 -88t5.5 -91h5q51 140 94.5 271.5t61.5 192.5l19 61q1 5 8 8q56 8 81 8q49 0 73 -8q5 -1 5 -5q24 -155 59 -531h5q135 292 194 531q4 5 9 5q18 9 63 9
q39 0 66 -9zM843 896q9 0 22.5 -12.5t33.5 -35t26 -28.5q14 -13 36.5 -31t33.5 -28t9 -15q-3 -7 -14 -7q-6 0 -14 1.5t-19 5t-19.5 6.5t-24.5 9.5t-24.5 10t-29 12t-29.5 12.5q-144 -57 -174 -57q-9 0 -10 7q0 5 13.5 15.5t40 28t43.5 31.5q19 15 44.5 36.5t37 30t18.5 8.5z
" />
    <glyph glyph-name="wcircumflex" unicode="&#x175;" horiz-adv-x="833" 
d="M727 516q51 0 75 -61t16 -131q-11 -90 -45 -165.5t-95 -125.5t-138 -50q-128 0 -163 106h-2q-24 -47 -67 -76.5t-93 -29.5q-51 0 -85.5 20t-49 51.5t-20.5 71t1 78.5l17 136q3 31 -3 49t-14 24t-25 12q-8 2 -7 13q2 20 36.5 49.5t81.5 29.5q48 0 73.5 -29.5t19.5 -82.5
l-25 -199q-7 -54 6 -87t48 -33t61 41.5t35 112.5q19 154 31 255l6 6q39 7 75 7q40 0 72 -7q3 0 3 -5q-3 -19 -17.5 -137t-18.5 -147q-2 -28 0 -56t17 -49.5t42 -21.5q43 1 75.5 58t38.5 134q4 51 -2.5 90t-16.5 56t-19 29t-8 17q2 17 28.5 32t55.5 15zM554 685
q24 -33 49.5 -54.5t36.5 -29t10 -13.5q-1 -16 -39 -16q-76 0 -134 63h-1q-73 -63 -151 -63q-13 0 -23.5 4.5t-9.5 11.5q1 6 14 13.5t43.5 29.5t63.5 55q19 19 37.5 42t26.5 31t15 8t13.5 -8.5t21 -32t27.5 -41.5z" />
    <glyph glyph-name="Ycircumflex" unicode="&#x176;" horiz-adv-x="826" 
d="M253 637q-30 0 -54 -34t-24 -92q0 -33 6 -67.5t6 -38.5q0 -13 -23 -25.5t-54 -12.5q-42 0 -71 29.5t-29 83.5q0 74 48 133.5t117.5 89.5t141.5 30q45 0 80.5 -13t60 -39t41.5 -54t29.5 -71t19 -75t14.5 -80h5q94 135 165 293q1 2 3 3.5t4 2.5l2 1l3 1q4 0 9.5 1t13 2.5
t18 2t21.5 0.5t22 -0.5t18.5 -2t13.5 -2.5t10 -1l3 -1q6 -6 5 -7q-165 -258 -289 -417l-32 -272q0 -2 -1.5 -3.5t-3.5 -1.5l-1 -1q-31 -7 -81 -7q-39 0 -78 7q-4 3 -3 5q13 104 29 243q-9 84 -30.5 170t-58 153t-76.5 67zM615 896q9 0 22.5 -12.5t33.5 -35t26 -28.5
q14 -13 36.5 -31t33.5 -28t9 -15q-3 -7 -14 -7q-6 0 -14 1.5t-19 5t-19.5 6.5t-24.5 9.5t-24.5 10t-29 12t-29.5 12.5q-144 -57 -174 -57q-9 0 -10 7q0 5 13.5 15.5t40 28t43.5 31.5q19 15 44.5 36.5t37 30t18.5 8.5z" />
    <glyph glyph-name="ycircumflex" unicode="&#x177;" horiz-adv-x="582" 
d="M565 495l-60 -487q-15 -124 -89.5 -197t-194.5 -73q-53 0 -95 17t-64 42t-32.5 49.5t-8.5 42.5q1 13 12 13q7 0 24.5 -16t51.5 -32.5t81 -16.5q66 0 108.5 42t51.5 105l14 121h-2q-33 -59 -82.5 -88t-101.5 -30q-63 -1 -95.5 38.5t-23.5 115.5l23 196q4 30 -2 48.5
t-14 24.5t-25 12q-7 4 -6 13q2 20 35.5 49.5t80.5 29.5q48 0 74.5 -29.5t19.5 -81.5l-28 -228q-6 -43 7.5 -63.5t37.5 -19.5q38 2 74.5 51.5t45.5 124.5l28 226q0 6 5 6q44 8 76 8q31 0 70 -7q4 -4 4 -6zM405 685q24 -33 49.5 -54.5t36.5 -29t10 -13.5q-1 -16 -39 -16
q-76 0 -134 63h-1q-73 -63 -151 -63q-13 0 -23.5 4.5t-9.5 11.5q1 6 14 13.5t43.5 29.5t63.5 55q19 19 37.5 42t26.5 31t15 8t13.5 -8.5t21 -32t27.5 -41.5z" />
    <glyph glyph-name="Ydieresis" unicode="&#x178;" horiz-adv-x="826" 
d="M253 637q-30 0 -54 -34t-24 -92q0 -33 6 -67.5t6 -38.5q0 -13 -23 -25.5t-54 -12.5q-42 0 -71 29.5t-29 83.5q0 74 48 133.5t117.5 89.5t141.5 30q45 0 80.5 -13t60 -39t41.5 -54t29.5 -71t19 -75t14.5 -80h5q94 135 165 293q1 2 3 3.5t4 2.5l2 1l3 1q4 0 9.5 1t13 2.5
t18 2t21.5 0.5t22 -0.5t18.5 -2t13.5 -2.5t10 -1l3 -1q6 -6 5 -7q-165 -258 -289 -417l-32 -272q0 -2 -1.5 -3.5t-3.5 -1.5l-1 -1q-31 -7 -81 -7q-39 0 -78 7q-4 3 -3 5q13 104 29 243q-9 84 -30.5 170t-58 153t-76.5 67zM581 796q-4 -29 -28 -49.5t-54 -20.5
q-29 0 -48 20.5t-16 49.5q4 30 27.5 50.5t53.5 20.5q31 0 50 -20.5t15 -50.5zM763 796q-4 -29 -28 -49.5t-53 -20.5q-30 0 -49 20.5t-15 49.5q4 30 28 50.5t54 20.5t48.5 -20.5t14.5 -50.5z" />
    <glyph glyph-name="Zacute" unicode="&#x179;" horiz-adv-x="633" 
d="M587 187q13 0 20.5 -22.5t4.5 -48.5q-5 -53 -42.5 -93t-110.5 -40q-53 0 -160.5 35t-144.5 34q-27 -1 -46.5 -11.5t-27 -22.5t-16.5 -22t-17 -10q-14 0 -19 21.5t-2 45.5q6 46 50.5 104.5t98 107.5t131 120t122.5 119l-1 3q-188 34 -254 34q-41 0 -71 -7.5t-43.5 -15.5
t-15.5 -8q-10 0 -17.5 17t-7.5 40q-1 57 40 103t115 46q60 0 185 -30t154 -30q30 -2 54 6.5t35.5 20t21.5 21t16 9.5q15 0 22 -20.5t3 -51.5q-5 -45 -54 -103t-108 -107.5t-130.5 -114t-107.5 -112.5l1 -2q146 -48 211 -48q32 0 56.5 8t37.5 16.5t17 8.5zM480 890q2 5 8 3
q30 -10 67 -71q4 -4 2 -9q-13 -27 -84 -56t-146 -30q-63 0 -61 21q1 6 13 9.5t33 9.5t46 17.5t58 38.5t64 67z" />
    <glyph glyph-name="zacute" unicode="&#x17a;" horiz-adv-x="497" 
d="M451 158q12 0 16 -21.5t2 -35.5q-5 -46 -42.5 -82t-104.5 -36q-36 0 -111 22t-109 22q-20 0 -35 -6t-21.5 -13.5t-13 -13.5t-12.5 -6q-10 0 -15 16t-2 34q4 53 56 105q64 61 144.5 121t135.5 86l-2 3q-28 1 -89.5 10t-91.5 9q-38 0 -66 -14t-31 -14q-11 0 -15.5 17.5
t-2.5 31.5q6 45 40.5 84.5t97.5 39.5q37 0 107.5 -19.5t115.5 -19.5q26 0 43 8t25 16t12 8q10 0 16.5 -16.5t4.5 -34.5q-7 -47 -44 -84q-62 -67 -143.5 -128t-137.5 -88v-3q7 0 63 -11t96 -11q46 0 78.5 12t35.5 12zM174 595q1 6 20.5 14.5t46 19.5t61.5 46t62 88q2 5 8 5
q17 -3 50 -28.5t45 -43.5q2 -6 1 -9q-15 -30 -87.5 -71t-145.5 -42q-63 0 -61 21z" />
    <glyph glyph-name="Zdotaccent" unicode="&#x17b;" horiz-adv-x="633" 
d="M587 187q13 0 20.5 -22.5t4.5 -48.5q-5 -53 -42.5 -93t-110.5 -40q-53 0 -160.5 35t-144.5 34q-27 -1 -46.5 -11.5t-27 -22.5t-16.5 -22t-17 -10q-14 0 -19 21.5t-2 45.5q6 46 50.5 104.5t98 107.5t131 120t122.5 119l-1 3q-188 34 -254 34q-41 0 -71 -7.5t-43.5 -15.5
t-15.5 -8q-10 0 -17.5 17t-7.5 40q-1 57 40 103t115 46q60 0 185 -30t154 -30q30 -2 54 6.5t35.5 20t21.5 21t16 9.5q15 0 22 -20.5t3 -51.5q-5 -45 -54 -103t-108 -107.5t-130.5 -114t-107.5 -112.5l1 -2q146 -48 211 -48q32 0 56.5 8t37.5 16.5t17 8.5zM482 809
q-3 -26 -31 -45.5t-64 -19.5q-35 0 -58 19t-19 46q4 28 31.5 46.5t61.5 18.5q38 0 60.5 -18.5t18.5 -46.5z" />
    <glyph glyph-name="zdotaccent" unicode="&#x17c;" horiz-adv-x="497" 
d="M451 158q12 0 16 -21.5t2 -35.5q-5 -46 -42.5 -82t-104.5 -36q-36 0 -111 22t-109 22q-20 0 -35 -6t-21.5 -13.5t-13 -13.5t-12.5 -6q-10 0 -15 16t-2 34q4 53 56 105q64 61 144.5 121t135.5 86l-2 3q-28 1 -89.5 10t-91.5 9q-38 0 -66 -14t-31 -14q-11 0 -15.5 17.5
t-2.5 31.5q6 45 40.5 84.5t97.5 39.5q37 0 107.5 -19.5t115.5 -19.5q26 0 43 8t25 16t12 8q10 0 16.5 -16.5t4.5 -34.5q-7 -47 -44 -84q-62 -67 -143.5 -128t-137.5 -88v-3q7 0 63 -11t96 -11q46 0 78.5 12t35.5 12zM406 664q-4 -34 -36.5 -58t-72.5 -24q-41 0 -66.5 24
t-21.5 58t35.5 58.5t72.5 24.5t67 -24.5t22 -58.5z" />
    <glyph glyph-name="Zcaron" unicode="&#x17d;" horiz-adv-x="633" 
d="M587 187q13 0 20.5 -22.5t4.5 -48.5q-5 -53 -42.5 -93t-110.5 -40q-53 0 -160.5 35t-144.5 34q-27 -1 -46.5 -11.5t-27 -22.5t-16.5 -22t-17 -10q-14 0 -19 21.5t-2 45.5q6 46 50.5 104.5t98 107.5t131 120t122.5 119l-1 3q-188 34 -254 34q-41 0 -71 -7.5t-43.5 -15.5
t-15.5 -8q-10 0 -17.5 17t-7.5 40q-1 57 40 103t115 46q60 0 185 -30t154 -30q30 -2 54 6.5t35.5 20t21.5 21t16 9.5q15 0 22 -20.5t3 -51.5q-5 -45 -54 -103t-108 -107.5t-130.5 -114t-107.5 -112.5l1 -2q146 -48 211 -48q32 0 56.5 8t37.5 16.5t17 8.5zM384 737
q-5 0 -10.5 3.5t-13.5 11t-15.5 16t-19.5 21.5t-23 23q-14 14 -36.5 31.5t-33.5 28t-9 15.5q3 6 14 6q27 0 160 -56q142 56 174 56q9 0 11 -6q0 -5 -13.5 -15.5t-40.5 -28.5t-44 -32q-5 -4 -30 -27t-42.5 -35t-27.5 -12z" />
    <glyph glyph-name="zcaron" unicode="&#x17e;" horiz-adv-x="497" 
d="M451 158q12 0 16 -21.5t2 -35.5q-5 -46 -42.5 -82t-104.5 -36q-36 0 -111 22t-109 22q-20 0 -35 -6t-21.5 -13.5t-13 -13.5t-12.5 -6q-10 0 -15 16t-2 34q4 53 56 105q64 61 144.5 121t135.5 86l-2 3q-28 1 -89.5 10t-91.5 9q-38 0 -66 -14t-31 -14q-11 0 -15.5 17.5
t-2.5 31.5q6 45 40.5 84.5t97.5 39.5q37 0 107.5 -19.5t115.5 -19.5q26 0 43 8t25 16t12 8q10 0 16.5 -16.5t4.5 -34.5q-7 -47 -44 -84q-62 -67 -143.5 -128t-137.5 -88v-3q7 0 63 -11t96 -11q46 0 78.5 12t35.5 12zM456 757q13 0 24 -4t10 -12q-1 -5 -14 -12.5t-43.5 -30
t-63.5 -55.5q-19 -19 -37.5 -42t-26.5 -31t-15 -8t-14 8.5t-21 32t-28 41.5q-15 22 -31.5 38.5t-27.5 25.5t-20 15t-13.5 10t-3.5 8q3 16 39 16q79 0 136 -63h1q73 63 149 63z" />
    <glyph glyph-name="florin" unicode="&#x192;" horiz-adv-x="455" 
d="M65 -260q-50 0 -89.5 27t-36.5 52q1 13 15 13q5 0 24 -6.5t35 -6.5q48 0 66 34t26 105l59 474h-50q-4 0 -4 4l7 60l5 4h51l10 85q24 184 187 184q52 0 93.5 -27.5t37.5 -52.5q0 -10 -11 -10q-4 0 -27 6t-42 6q-44 0 -61.5 -31.5t-24.5 -83.5l-9 -76h118l3 -5l-7 -58
l-4 -5h-118l-60 -495q-13 -95 -58 -146t-135 -51z" />
    <glyph glyph-name="AEacute" unicode="&#x1fc;" horiz-adv-x="990" 
d="M956 166q8 2 12 -4t1 -15q-20 -53 -99.5 -108.5t-183.5 -55.5q-209 0 -230 183h-219q-43 -76 -90 -162q-1 -2 -4 -4l-3 -1q-27 -7 -70 -7q-26 0 -70 7q-4 4 -3 7q79 136 154.5 250t118.5 169.5t74.5 98.5t38.5 64q6 22 2.5 29.5t-11.5 13t-8 9.5q-1 22 44.5 49.5
t99.5 27.5q32 0 143 -11t207 -11q41 0 73 13l32 12q13 0 27.5 -22t10.5 -56q-20 -112 -138 -114q-32 0 -65.5 4t-77 12t-63.5 11l-19 -152q75 -2 130 1t82.5 7t29.5 4q12 0 9 -23q-5 -40 -39.5 -71t-97.5 -31q-55 0 -127 7q-2 -11 -4 -35q-10 -148 137 -148q33 0 68.5 9.5
t73.5 24t54 18.5zM295 268h162q27 209 33 273h-4q-84 -100 -191 -273zM731 895q2 5 8 3q30 -10 67 -71q4 -4 2 -9q-13 -27 -84 -56t-146 -30q-63 0 -61 21q1 6 13 9.5t33 9.5t46 17.5t58 38.5t64 67z" />
    <glyph glyph-name="aeacute" unicode="&#x1fd;" horiz-adv-x="831" 
d="M783 145q8 0 6 -12q-2 -15 -18.5 -39t-44.5 -49.5t-74 -43.5t-97 -18q-77 0 -132 31.5t-74 90.5h-4q-89 -122 -208 -122q-63 0 -101.5 40t-30.5 104q10 81 79 124.5t176 43.5q12 0 27 -1t28.5 -3t17.5 -2q5 12 1 32t-11 39.5t-30.5 33.5t-58.5 14q-33 0 -67 -8.5
t-57.5 -18t-28.5 -10.5q-7 -1 -9.5 3.5t0.5 9.5q6 36 74.5 84.5t162.5 48.5q53 0 92 -22t57 -53h4q73 73 183 74q89 1 135.5 -46.5t36.5 -109.5q-12 -79 -80.5 -118.5t-153.5 -39.5q-51 0 -105 15q-1 -57 34.5 -92.5t95.5 -35.5q46 0 85 14t61.5 28t28.5 14zM209 87
q30 2 53.5 19.5t36 43t18.5 43t8 31.5q-30 5 -48 5q-58 0 -91.5 -22t-35.5 -59q-3 -29 12.5 -45.5t46.5 -15.5zM604 434q-45 0 -78.5 -42.5t-42.5 -104.5q30 -6 55 -6q54 0 91 23t41 62q3 28 -14 48t-52 20zM337 595q1 6 20.5 14.5t46 19.5t61.5 46t62 88q3 5 8 5
q17 -3 50 -28.5t45 -43.5q2 -6 1 -9q-15 -30 -87.5 -71t-145.5 -42q-63 0 -61 21z" />
    <glyph glyph-name="Oslashacute" unicode="&#x1fe;" horiz-adv-x="771" 
d="M438 717q119 0 195 -58l65 69q2 2 7 0l48 -44v-7l-67 -71q72 -101 51 -254q-20 -161 -121.5 -265t-265.5 -104q-113 0 -192 62l-71 -75q-2 -2 -6 0l-49 45v6l74 78q-71 101 -53 245q20 163 125.5 268t259.5 105zM228 354q-8 -70 6 -120l297 317q-40 57 -105 57
q-74 0 -129 -73t-69 -181zM365 94q75 0 128.5 67.5t67.5 184.5q8 68 -5 124l-296 -319q37 -57 105 -57zM519 895q2 5 8 3q30 -10 67 -71q4 -4 2 -9q-13 -27 -84 -56t-146 -30q-63 0 -61 21q1 6 13 9.5t33 9.5t46 17.5t58 38.5t64 67z" />
    <glyph glyph-name="oslashacute" unicode="&#x1ff;" horiz-adv-x="583" 
d="M169 595q1 6 20.5 14.5t46 19.5t61.5 46t62 88q3 5 8 5q17 -3 50 -28.5t45 -43.5q2 -6 1 -9q-15 -30 -87.5 -71t-145.5 -42q-63 0 -61 21zM324 516q82 0 139 -40l47 49q2 2 7 0l39 -38v-6l-45 -48q57 -71 43 -181q-14 -118 -95.5 -193.5t-200.5 -75.5q-82 0 -140 38
l-45 -47q-2 -3 -6 0l-40 38v6l44 47q-57 71 -42 186q13 115 97 190t198 75zM182 253q-5 -38 3 -70l196 208q-23 37 -68 37q-50 0 -86 -48.5t-45 -126.5zM271 72q53 0 87 48.5t43 127.5q4 34 -4 67l-195 -206q26 -37 69 -37z" />
    <glyph glyph-name="Scommaaccent" unicode="&#x218;" horiz-adv-x="581" 
d="M318 -225q-3 -45 -40.5 -80.5t-77 -51t-63.5 -14.5q-16 2 -11 13q2 5 15.5 12.5t33.5 23.5t35 40q-41 -6 -66.5 9t-21.5 49q4 33 34 53t72 20q43 0 67.5 -21t22.5 -53zM586 582q0 -47 -27 -76.5t-70 -29.5q-16 0 -31.5 6.5t-15.5 14.5l8 23q7 23 7 42q0 32 -16 50.5
t-37 18.5q-33 -1 -48.5 -26.5t-16.5 -55.5q-1 -38 19.5 -79.5t50.5 -79.5t60 -78t50.5 -89t18.5 -98q-2 -45 -19 -87t-50.5 -79t-90.5 -59.5t-130 -22.5q-124 0 -190.5 68t-54.5 152q7 59 45 96.5t87 37.5q33 0 55.5 -12.5t20.5 -25.5q0 -3 -11.5 -18.5t-22 -43t-10.5 -59.5
q0 -38 21.5 -68.5t65.5 -30.5q47 0 73 33.5t26 73.5q1 40 -18.5 85t-48.5 86t-58 82.5t-49.5 89.5t-20.5 92q0 87 66.5 146.5t176.5 59.5q72 0 128.5 -37t56.5 -102z" />
    <glyph glyph-name="scommaaccent" unicode="&#x219;" horiz-adv-x="470" 
d="M280 -127q-3 -45 -40.5 -80.5t-77 -51t-63.5 -14.5q-15 2 -10 13q2 5 15.5 12.5t33 23.5t34.5 40q-41 -6 -66 9t-21 49q4 33 34 53t72 20t66.5 -21t22.5 -53zM448 166q-1 -70 -68 -126.5t-186 -56.5q-50 0 -93.5 14t-75 49.5t-29.5 86.5q2 36 28 62t69 26q25 0 41 -9.5
t16 -18.5q0 -3 -8 -24t-9 -37q-2 -25 15 -45t50 -21q35 -2 60.5 18.5t24.5 53.5q0 19 -16.5 41.5t-39 45.5t-45.5 48t-39 58t-16 68q0 47 38.5 82.5t96.5 35.5q29 0 55.5 -9t40.5 -18.5t16 -15.5q5 -11 -9 -15q-30 1 -49 -12.5t-18 -38.5t17 -49t38 -44t43.5 -41t36.5 -49
t15 -59z" />
    <glyph glyph-name="circumflex" unicode="&#x2c6;" horiz-adv-x="389" 
d="M277 685q24 -33 49.5 -54.5t36.5 -29t10 -13.5q-1 -16 -39 -16q-76 0 -134 63h-1q-73 -63 -151 -63q-13 0 -23.5 4.5t-9.5 11.5q1 6 14 13.5t43.5 29.5t63.5 55q19 19 37.5 42t26.5 31t15 8t13.5 -8.5t21 -32t27.5 -41.5z" />
    <glyph glyph-name="caron" unicode="&#x2c7;" horiz-adv-x="390" 
d="M340 757q13 0 24 -4t10 -12q-1 -5 -14 -12.5t-43.5 -30t-63.5 -55.5q-19 -19 -37.5 -42t-26.5 -31t-15 -8t-14 8.5t-21 32t-28 41.5q-15 22 -31.5 38.5t-27.5 25.5t-20 15t-13.5 10t-3.5 8q3 16 39 16q79 0 136 -63h1q73 63 149 63z" />
    <glyph glyph-name="breve" unicode="&#x2d8;" horiz-adv-x="416" 
d="M390 734q13 0 9 -14q-7 -42 -68 -91.5t-139 -49.5q-76 0 -128.5 45.5t-48.5 97.5q2 12 12 12q4 0 24 -13.5t60 -27t94 -13.5q55 0 97 13.5t63 27t25 13.5z" />
    <glyph glyph-name="dotaccent" unicode="&#x2d9;" horiz-adv-x="228" 
d="M212 664q-4 -34 -36.5 -58t-72.5 -24q-41 0 -66.5 24t-21.5 58t35.5 58.5t72.5 24.5t67 -24.5t22 -58.5z" />
    <glyph glyph-name="ring" unicode="&#x2da;" horiz-adv-x="243" 
d="M15 655q6 43 41 73t79 30t71 -30t21 -73q-4 -43 -39 -72.5t-79 -29.5q-43 0 -70.5 29.5t-23.5 72.5zM116 610q18 0 32 13t16 32q3 19 -8 32.5t-29 13.5q-19 0 -32.5 -13t-16.5 -33q-2 -19 8.5 -32t29.5 -13z" />
    <glyph glyph-name="ogonek" unicode="&#x2db;" horiz-adv-x="241" 
d="M117 -116q-3 -26 8.5 -41t31.5 -15q18 0 37.5 11.5t22.5 11.5q11 0 8 -19q-5 -34 -35.5 -68t-82.5 -34q-49 0 -73 34t-19 81q5 40 28 76.5t50.5 58t50 34.5t31.5 13q14 0 10 -13q-1 -4 -17 -23.5t-31.5 -48t-19.5 -58.5z" />
    <glyph glyph-name="tilde" unicode="&#x2dc;" horiz-adv-x="449" 
d="M423 713q13 0 10 -24q-5 -41 -43 -79.5t-97 -38.5q-34 0 -93 24t-86 24q-31 0 -59 -14.5t-30 -14.5q-15 0 -9 27q6 41 43 72t91 31q33 0 87 -19t80 -19q36 0 70.5 15.5t35.5 15.5z" />
    <glyph glyph-name="hungarumlaut" unicode="&#x2dd;" horiz-adv-x="434" 
d="M15 590q1 7 16.5 17.5t36 24.5t46.5 48.5t43 82.5q2 4 7 4q18 -3 48.5 -22t38.5 -31q3 -4 2 -8q-26 -40 -87 -85.5t-123 -45.5q-30 0 -28 15zM181 590q1 7 16.5 17.5t36 24.5t46.5 48.5t43 82.5q2 4 7 4q18 -3 48.5 -22t38.5 -31q3 -4 2 -8q-26 -40 -87 -85.5t-123 -45.5
q-30 0 -28 15z" />
    <glyph glyph-name="tonos" unicode="&#x384;" horiz-adv-x="186" 
d="M170 706q-15 -63 -47 -115t-59 -75.5t-42 -23.5q-7 0 -7 8q0 1 13 41t14 85q2 19 -4 81q0 5 5 7q22 9 64 9q40 0 58 -6q6 -1 5 -11z" />
    <glyph glyph-name="dieresistonos" unicode="&#x385;" horiz-adv-x="415" 
d="M399 639q-5 -33 -28 -56t-53 -23t-47.5 23t-12.5 56q4 33 26.5 56t52.5 23t48 -23t14 -56zM157 639q-5 -33 -28 -56t-53 -23t-47.5 23t-13.5 56q5 33 27.5 56t52.5 23t48 -23t14 -56zM286 769q-22 -93 -63.5 -158.5t-64.5 -65.5q-9 0 -9 8q0 5 6.5 22t14.5 47t9 65
q0 14 -2 46t-2 36q-2 5 4 8q19 8 57 8q28 0 44 -6q6 -1 6 -10z" />
    <glyph glyph-name="Alphatonos" unicode="&#x386;" horiz-adv-x="879" 
d="M763 576q71 -165 62 -570q0 -6 -6 -6q-43 -8 -86 -8t-93 8q-5 0 -5 5q9 151 9 179h-217q-111 -201 -256 -201q-69 0 -109.5 42.5t-40.5 102.5q0 38 20 76t41 38q12 0 18 -13q1 -31 21 -55t62 -24q49 0 101 51.5t91 125t66 147.5t34 126q2 18 -18.5 23t-20.5 10
q-2 25 43 54.5t99 29.5q124 0 185 -141zM479 288h166q2 236 -81 289l-3 -1q-34 -170 -82 -288zM396 706q-15 -63 -47 -115t-59 -75.5t-42 -23.5q-7 0 -7 8q0 1 13 41t14 85q2 19 -4 81q0 5 5 7q22 9 64 9q40 0 58 -6q6 -1 5 -11z" />
    <glyph glyph-name="Epsilontonos" unicode="&#x388;" horiz-adv-x="955" 
d="M255 349q-51 0 -87.5 40.5t-36.5 103.5q0 103 102 164t267 55q35 -1 140 -8.5t146 -7.5q51 0 84 8.5t46.5 17t16.5 8.5q14 0 25 -22.5t10 -48.5q0 -60 -41 -93t-113 -33q-25 0 -52.5 3.5t-47 7.5t-53.5 11.5t-52 11.5l-21 -158q86 -3 130.5 -0.5t78.5 7t35 4.5
q13 0 10 -23q-5 -40 -40 -71.5t-97 -31.5q-53 0 -130 11q-4 -29 -5 -46q-4 -73 34 -109.5t109 -36.5q33 0 68 9.5t72 24.5t53 19q8 2 12.5 -4t0.5 -15q-12 -32 -46.5 -67.5t-98.5 -66t-135 -30.5q-121 0 -187.5 64.5t-50.5 197.5q8 57 44 352q-66 1 -105 -30.5t-39 -84.5
q0 -28 8 -48.5t16 -31.5t8 -15q0 -13 -23.5 -25.5t-54.5 -12.5zM166 706q-15 -63 -47 -115t-59 -75.5t-42 -23.5q-7 0 -7 8q0 1 13 41t14 85q2 19 -4 81q0 5 5 7q22 9 64 9q40 0 58 -6q6 -1 5 -11z" />
    <glyph glyph-name="Etatonos" unicode="&#x389;" horiz-adv-x="1073" 
d="M632 564q0 -14 -15 -136h250l33 268q1 4 5 5q34 8 78 8q52 0 81 -8q4 0 3 -5l-84 -691q0 -2 -1.5 -3.5t-3.5 -1.5l-1 -1q-31 -7 -80 -7q-39 0 -79 7q-4 4 -3 5q32 256 38 307h-249l-38 -306q-1 -4 -5 -5q-37 -8 -79 -8q-51 0 -80 8q-5 0 -4 5q65 501 67 528
q9 110 -49 110q-44 0 -79 -44.5t-37 -100.5q-1 -34 5.5 -62.5t6.5 -30.5q0 -13 -23 -25.5t-54 -12.5q-45 0 -74 33t-25 91q5 72 53 129t115.5 85t139.5 28q92 0 142 -40t46 -129zM166 706q-15 -63 -47 -115t-59 -75.5t-42 -23.5q-7 0 -7 8q0 1 13 41t14 85q2 19 -4 81
q0 5 5 7q22 9 64 9q40 0 58 -6q6 -1 5 -11z" />
    <glyph glyph-name="Iotatonos" unicode="&#x38a;" horiz-adv-x="641" 
d="M636 561q0 -44 -66 -556q-1 -4 -5 -5q-37 -8 -79 -8q-51 0 -80 8q-5 0 -4 5q65 501 67 528q9 110 -49 110q-44 0 -79 -44.5t-37 -100.5q-1 -34 5.5 -62.5t6.5 -30.5q0 -13 -23 -25.5t-54 -12.5q-45 0 -74 33t-25 91q5 72 53 129t115.5 85t139.5 28q188 0 188 -172z
M166 706q-15 -63 -47 -115t-59 -75.5t-42 -23.5q-7 0 -7 8q0 1 13 41t14 85q2 19 -4 81q0 5 5 7q22 9 64 9q40 0 58 -6q6 -1 5 -11z" />
    <glyph glyph-name="Omicrontonos" unicode="&#x38c;" horiz-adv-x="780" 
d="M499 718q106 1 164.5 -43.5t58.5 -106.5q0 -34 -15 -63l1 -4q57 -28 57 -126q0 -99 -43 -187.5t-128 -146.5t-193 -58q-148 0 -228.5 97t-68.5 245q8 107 57 195t137.5 142.5t200.5 55.5zM417 94q92 0 148 91t46 212l-1 1q-41 -24 -85 -26q-54 -2 -57 22q-2 9 12.5 20
t33.5 22.5t35.5 37.5t17.5 60q2 33 -24 53.5t-69 17.5q-85 -7 -136.5 -89.5t-58.5 -185.5q-8 -107 29.5 -171.5t108.5 -64.5zM186 706q-15 -63 -47 -115t-59 -75.5t-42 -23.5q-7 0 -7 8q0 1 13 41t14 85q2 19 -4 81q0 5 5 7q22 9 64 9q40 0 58 -6q6 -1 5 -11z" />
    <glyph glyph-name="Upsilontonos" unicode="&#x38e;" horiz-adv-x="950" 
d="M377 637q-30 0 -54 -34t-24 -92q0 -33 6 -67.5t6 -38.5q0 -13 -23 -25.5t-54 -12.5q-42 0 -71 29.5t-29 83.5q0 74 48 133.5t117.5 89.5t141.5 30q45 0 80.5 -13t60 -39t41.5 -54t29.5 -71t19 -75t14.5 -80h5q94 135 165 293q1 2 3 3.5t4 2.5l2 1l3 1q4 0 9.5 1t13 2.5
t18 2t21.5 0.5t22 -0.5t18.5 -2t13.5 -2.5t10 -1l3 -1q6 -6 5 -7q-165 -258 -289 -417l-32 -272q0 -2 -1.5 -3.5t-3.5 -1.5l-1 -1q-31 -7 -81 -7q-40 0 -78 7q-4 3 -3 5q13 104 29 243q-9 84 -30.5 170t-58 153t-76.5 67zM166 706q-15 -63 -47 -115t-59 -75.5t-42 -23.5
q-7 0 -7 8q0 1 13 41t14 85q2 19 -4 81q0 5 5 7q22 9 64 9q40 0 58 -6q6 -1 5 -11z" />
    <glyph glyph-name="Omegatonos" unicode="&#x38f;" horiz-adv-x="1047" 
d="M404 706q-15 -63 -47 -115t-59 -75.5t-42 -23.5q-7 0 -7 8q0 1 13 41t14 85q2 19 -4 81q0 5 5 7q22 9 64 9q40 0 58 -6q6 -1 5 -11zM726 716q150 0 235.5 -85t67.5 -221q-13 -97 -75.5 -166.5t-122.5 -93.5v-3q35 -5 65 -5q43 0 74 11l31 11q11 0 21.5 -21.5t7.5 -45.5
q-6 -49 -36.5 -82t-84.5 -33q-44 0 -95 18t-63 17q-17 -2 -34 -15.5t-26 -12.5q-10 2 -13 16t2 34q5 24 29 59t50.5 68t52.5 90.5t36 122.5q14 109 -26 167.5t-112 58.5q-69 0 -125 -61t-65 -164q-6 -65 6.5 -118.5t31 -81.5t33 -59.5t11.5 -58.5q-4 -31 -19.5 -54.5
t-32.5 -22.5q-18 2 -147 26t-198 22q-49 0 -83 -6.5t-46.5 -14.5t-20.5 -15t-12 -7q-13 0 -23.5 23t-8.5 49q4 60 45 92.5t113 33.5q45 1 157 -24.5t153 -25.5l1 3q-53 22 -98 96t-36 171q13 138 126 223t254 85z" />
    <glyph glyph-name="iotadieresistonos" unicode="&#x390;" horiz-adv-x="287" 
d="M128 -15q-48 0 -73.5 29t-18.5 81l49 401q2 4 6 5q35 7 71 7q45 0 74 -7q4 -4 3 -5l-40 -333q-4 -31 1.5 -50t13.5 -25t25 -13q8 -4 7 -12q-3 -20 -37 -49t-81 -29zM376 639q-5 -33 -28 -56t-53 -23t-47.5 23t-12.5 56q4 33 26.5 56t52.5 23t48 -23t14 -56zM134 639
q-5 -33 -28 -56t-53 -23t-47.5 23t-13.5 56q5 33 27.5 56t52.5 23t48 -23t14 -56zM263 769q-22 -93 -63.5 -158.5t-64.5 -65.5q-9 0 -9 8q0 5 6.5 22t14.5 47t9 65q0 14 -2 46t-2 36q-2 5 4 8q19 8 57 8q27 0 44 -6q6 -1 6 -10z" />
    <glyph glyph-name="Alpha" unicode="&#x391;" horiz-adv-x="879" 
d="M763 576q71 -165 62 -570q0 -6 -6 -6q-43 -8 -86 -8t-93 8q-5 0 -5 5q9 151 9 179h-217q-111 -201 -256 -201q-69 0 -109.5 42.5t-40.5 102.5q0 38 20 76t41 38q12 0 18 -13q1 -31 21 -55t62 -24q49 0 101 51.5t91 125t66 147.5t34 126q2 18 -18.5 23t-20.5 10
q-2 25 43 54.5t99 29.5q124 0 185 -141zM479 288h166q2 236 -81 289l-3 -1q-34 -170 -82 -288z" />
    <glyph glyph-name="Beta" unicode="&#x392;" horiz-adv-x="874" 
d="M490 727q44 0 88.5 -4.5t95.5 -17.5t89 -33.5t62 -55t21 -79.5q-3 -58 -41 -97t-68 -50l-1 -5q61 -16 89.5 -65.5t21.5 -108.5q-13 -102 -99.5 -167.5t-223.5 -59.5q-86 3 -146.5 41.5t-87.5 94.5t-27 124q0 117 69.5 206t157.5 94q12 1 16 -6.5t-2 -15.5
q-31 -39 -53.5 -115.5t-22.5 -149.5q0 -72 28.5 -118t87.5 -46q54 0 89.5 35.5t42.5 89.5q5 40 -6.5 70.5t-25.5 41.5l-13 11q-43 -16 -65.5 -10.5t-29.5 16t-5 25.5q3 21 25.5 35t66.5 5l3 2q2 2 5 4.5t7.5 7t8.5 10t8.5 13t8 15.5t6 19t3.5 22q5 59 -48 91t-140 32
q-103 1 -190 -48.5t-100 -114.5q-3 -20 -3 -30.5t2.5 -22.5t2.5 -15q0 -13 -25.5 -26.5t-57.5 -13.5q-46 0 -76.5 33t-26.5 82q7 75 79.5 134.5t178.5 89.5t221 31z" />
    <glyph glyph-name="Gamma" unicode="&#x393;" horiz-adv-x="746" 
d="M749 727q14 0 25 -22.5t10 -48.5q0 -59 -42.5 -92.5t-115.5 -33.5q-21 0 -42.5 3t-32.5 5t-36 9t-32 9l-68 -554q0 -3 -6 -6q-29 -7 -79 -7q-39 0 -79 7q-4 4 -4 5q47 369 73 592q-46 2 -76.5 -34.5t-26.5 -89.5q1 -21 -13 -21q-40 0 -72 31t-32 69q0 48 24.5 82t66 51
t87 23.5t95.5 4.5q37 -1 116 -8.5t119 -7.5q39 0 68 5.5t40.5 11.5t20 11.5t12.5 5.5z" />
    <glyph glyph-name="uni0394" unicode="&#x394;" horiz-adv-x="717" 
d="M581 583q42 -85 81.5 -252t34.5 -240q-8 -108 -136 -108q-80 0 -225.5 28.5t-178.5 27.5q-23 -1 -39.5 -9t-23 -17t-13.5 -16.5t-15 -7.5q-14 0 -27.5 22t-15.5 44q-4 49 19 82.5t50 41.5q79 111 132 231.5t63 183.5q2 20 -9 31t-11 13q0 23 44 50.5t97 27.5
q110 0 173 -133zM208 170q46 0 154.5 -25t153.5 -26q-13 166 -47.5 279.5t-78.5 161.5q-3 0 -3 -1q-65 -226 -179 -389z" />
    <glyph glyph-name="Epsilon" unicode="&#x395;" horiz-adv-x="834" 
d="M134 349q-51 0 -87.5 40.5t-36.5 103.5q0 103 102 164t267 55q35 -1 140 -8.5t146 -7.5q51 0 84 8.5t46.5 17t16.5 8.5q14 0 25 -22.5t10 -48.5q0 -60 -41 -93t-113 -33q-25 0 -52.5 3.5t-47 7.5t-53.5 11.5t-52 11.5l-21 -158q86 -3 130.5 -0.5t78.5 7t35 4.5
q13 0 10 -23q-5 -40 -40 -71.5t-97 -31.5q-53 0 -130 11q-4 -29 -5 -46q-4 -73 34 -109.5t109 -36.5q33 0 68 9.5t72 24.5t53 19q8 2 12.5 -4t0.5 -15q-12 -32 -46.5 -67.5t-98.5 -66t-135 -30.5q-121 0 -187.5 64.5t-50.5 197.5q8 57 44 352q-66 1 -105 -30.5t-39 -84.5
q0 -28 8 -48.5t16 -31.5t8 -15q0 -13 -23.5 -25.5t-54.5 -12.5z" />
    <glyph glyph-name="Zeta" unicode="&#x396;" horiz-adv-x="633" 
d="M587 187q13 0 20.5 -22.5t4.5 -48.5q-5 -53 -42.5 -93t-110.5 -40q-53 0 -160.5 35t-144.5 34q-27 -1 -46.5 -11.5t-27 -22.5t-16.5 -22t-17 -10q-14 0 -19 21.5t-2 45.5q6 46 50.5 104.5t98 107.5t131 120t122.5 119l-1 3q-188 34 -254 34q-41 0 -71 -7.5t-43.5 -15.5
t-15.5 -8q-10 0 -17.5 17t-7.5 40q-1 57 40 103t115 46q60 0 185 -30t154 -30q30 -2 54 6.5t35.5 20t21.5 21t16 9.5q15 0 22 -20.5t3 -51.5q-5 -45 -54 -103t-108 -107.5t-130.5 -114t-107.5 -112.5l1 -2q146 -48 211 -48q32 0 56.5 8t37.5 16.5t17 8.5z" />
    <glyph glyph-name="Eta" unicode="&#x397;" horiz-adv-x="948" 
d="M507 564q0 -14 -15 -136h250l33 268q1 4 5 5q34 8 78 8q52 0 81 -8q4 0 3 -5l-84 -691q0 -2 -1.5 -3.5t-2.5 -1.5l-2 -1q-31 -7 -80 -7q-39 0 -79 7q-3 4 -3 5q32 256 38 307h-249l-38 -306q-1 -4 -5 -5q-37 -8 -79 -8q-51 0 -80 8q-5 0 -4 5q65 501 67 528
q9 110 -49 110q-44 0 -79 -44.5t-37 -100.5q-1 -34 5.5 -62.5t6.5 -30.5q0 -13 -23 -25.5t-54 -12.5q-45 0 -74 33t-25 91q5 72 53 129t115.5 85t139.5 28q92 0 142 -40t46 -129z" />
    <glyph glyph-name="Theta" unicode="&#x398;" horiz-adv-x="709" 
d="M428 718q106 1 164.5 -43.5t58.5 -106.5q0 -37 -16 -62l2 -5q57 -28 57 -126q0 -99 -43 -187.5t-128 -146.5t-193 -58q-148 0 -228.5 97t-68.5 245q8 107 57 195t137.5 142.5t200.5 55.5zM403 605q-74 -6 -123.5 -71.5t-66.5 -155.5q40 2 85 13t90 30t74 50.5t29 68.5
q0 29 -26 48t-62 17zM346 94q84 0 135.5 76t61.5 196q-3 18 -4 23q-76 -58 -172 -75t-161 -2q-6 -97 32.5 -157.5t107.5 -60.5z" />
    <glyph glyph-name="Iota" unicode="&#x399;" horiz-adv-x="512" 
d="M507 561q0 -44 -66 -556q-1 -4 -5 -5q-37 -8 -79 -8q-51 0 -80 8q-5 0 -4 5q65 501 67 528q9 110 -49 110q-44 0 -79 -44.5t-37 -100.5q-1 -34 5.5 -62.5t6.5 -30.5q0 -13 -23 -25.5t-54 -12.5q-45 0 -74 33t-25 91q5 72 53 129t115.5 85t139.5 28q188 0 188 -172z" />
    <glyph glyph-name="Kappa" unicode="&#x39a;" horiz-adv-x="908" 
d="M844 708q45 0 73 -10q6 -2 4 -4q-47 -69 -128 -159.5t-134 -139.5q0 -1 -1 -3q45 -126 98 -193.5t124 -89.5q10 -3 8 -14q-3 -37 -45 -74.5t-96 -37.5q-50 0 -93 36t-69 87t-44.5 106t-25 94.5t-5.5 51.5q2 13 12 22q157 163 239 311q3 5 9 7q44 10 74 10zM507 561
q0 -44 -66 -556q-1 -4 -5 -5q-37 -8 -79 -8q-51 0 -80 8q-5 0 -4 5q65 501 67 528q9 110 -49 110q-44 0 -79 -44.5t-37 -100.5q-1 -34 5.5 -62.5t6.5 -30.5q0 -13 -23 -25.5t-54 -12.5q-45 0 -74 33t-25 91q5 72 53 129t115.5 85t139.5 28q188 0 188 -172z" />
    <glyph glyph-name="Lambda" unicode="&#x39b;" horiz-adv-x="853" 
d="M729 576q72 -168 63 -570q0 -6 -6 -6q-43 -8 -86 -8q-44 0 -94 8q-5 0 -4 5q7 130 8 242t-19.5 200t-62.5 118h-1q-22 -118 -52.5 -216t-74 -183.5t-104 -134t-132.5 -48.5q-69 0 -109.5 42.5t-40.5 102.5q0 38 20.5 76t41.5 38q7 0 10 -7.5t5 -19.5q16 -65 85 -65
q49 0 97 51t82 125t57 147t30 127q2 18 -18.5 23t-20.5 10q-3 25 42 54.5t100 29.5q57 0 105.5 -34.5t78.5 -106.5z" />
    <glyph glyph-name="Mu" unicode="&#x39c;" horiz-adv-x="1118" 
d="M1047 694q35 -290 7 -689q-1 -6 -8 -6q-18 -9 -78 -9q-68 0 -86 9q-5 0 -4 5q19 276 2 490h-4q-110 -261 -216 -488q0 -4 -6 -7q-23 -7 -68 -7q-44 0 -65 7q-4 1 -4 5q8 383 -34 535h-4q-11 -72 -27 -141t-43.5 -147t-61 -135t-83 -95t-105.5 -38q-73 0 -111.5 41
t-37.5 103q2 38 23.5 75.5t42.5 36.5q11 -1 15 -29q9 -59 70 -59q42 0 84 49.5t72 120t50 141t25 118.5q1 14 -3.5 23.5t-11.5 13t-13 8.5t-7 10q1 22 44 51.5t98 29.5q72 0 110.5 -42.5t57.5 -125.5q19 -86 22 -251h7q88 187 171 397q1 2 4 4l3 1l5 1q5 1 13.5 2t18.5 2
t22 2t23 1q13 0 27 -1t24 -2t17.5 -2t12.5 -2l5 -1l2 -1q3 -3 3 -4z" />
    <glyph glyph-name="Nu" unicode="&#x39d;" horiz-adv-x="982" 
d="M974 699q3 0 3 -5l-84 -689q0 -2 -1.5 -3.5t-3.5 -1.5l-1 -1q-27 -7 -59 -7q-28 -1 -56 7q-2 0 -3 2l-16 31q-16 31 -38 73.5t-54 98.5t-63 107t-66.5 99t-63.5 75h-2q-11 -88 -22.5 -190.5t-21.5 -186.5t-12 -103q0 -2 -1.5 -3.5t-2.5 -1.5l-2 -1q-27 -7 -60 -7
q-34 0 -59 7q-4 4 -4 5l74 608q-19 28 -62 28q-52 0 -85 -45.5t-33 -104.5q0 -36 13.5 -63.5t13.5 -29.5q-1 -14 -24 -26.5t-54 -12.5q-49 0 -83 37.5t-30 100.5q7 106 105.5 174t217.5 66q44 -1 85.5 -14.5t74.5 -33t67 -51.5t58.5 -61t52.5 -71t45.5 -71t42.5 -71t38 -63
l2 1l49 393q0 5 5 5q32 8 60 8q32 0 60 -8z" />
    <glyph glyph-name="Xi" unicode="&#x39e;" horiz-adv-x="728" 
d="M295 409h288q4 0 4 -5l-12 -101l-5 -5h-288l-3 5l12 101zM260 177q38 0 141.5 -18t140.5 -18q46 0 75 9.5t42 19t19 9.5q12 0 20 -22t5 -48q-7 -51 -46.5 -88.5t-111.5 -37.5q-52 0 -166.5 23.5t-137.5 23.5q-31 0 -53 -11t-34.5 -22t-19.5 -11q-11 0 -19.5 22t-5.5 43
q6 49 44.5 87.5t106.5 38.5zM726 722q13 0 24 -22t11 -49q-1 -60 -42 -93t-113 -33q-69 0 -186 32t-173 32q-63 0 -98.5 -32t-35.5 -83q0 -28 8.5 -48.5t16.5 -31.5t8 -15q0 -13 -23.5 -25.5t-54.5 -12.5q-51 0 -87.5 40.5t-36.5 103.5q0 103 102 164t267 55
q35 -1 132.5 -8.5t138.5 -7.5q51 0 82.5 8.5t43.5 17t16 8.5z" />
    <glyph glyph-name="Omicron" unicode="&#x39f;" horiz-adv-x="709" 
d="M428 718q106 1 164.5 -43.5t58.5 -106.5q0 -34 -15 -63l1 -4q57 -28 57 -126q0 -99 -43 -187.5t-128 -146.5t-193 -58q-148 0 -228.5 97t-68.5 245q8 107 57 195t137.5 142.5t200.5 55.5zM346 94q92 0 148 91t46 212l-1 1q-41 -24 -85 -26q-54 -2 -57 22q-2 9 12.5 20
t33.5 22.5t35.5 37.5t17.5 60q2 33 -24 53.5t-69 17.5q-85 -7 -136.5 -89.5t-58.5 -185.5q-8 -107 29.5 -171.5t108.5 -64.5z" />
    <glyph glyph-name="Pi" unicode="&#x3a0;" horiz-adv-x="913" 
d="M170 459q1 -21 -13 -21q-41 0 -78.5 33t-37.5 82q0 81 69.5 129.5t214.5 48.5q46 0 207.5 -14.5t206.5 -14.5q47 0 76.5 8.5t42 17.5t17.5 9q11 0 22.5 -20t11.5 -42q-2 -19 -11 -96t-27 -220.5t-45 -352.5q0 -3 -3 -5l-3 -2q-31 -7 -82 -7q-42 0 -79 7q0 1 -2 2.5
t-2 3.5q4 35 30 246.5t37 304.5q-31 2 -68.5 7.5t-88.5 13.5t-84 13l-71 -584q0 -3 -3 -5l-3 -2q-31 -7 -82 -7q-40 0 -80 7q0 1 -2 2.5t-2 3.5q13 114 77 608q-39 1 -73 -10q-78 -30 -72 -144z" />
    <glyph glyph-name="Rho" unicode="&#x3a1;" horiz-adv-x="823" 
d="M482 726q77 0 140.5 -11.5t115.5 -36.5t81 -70t29 -107q0 -112 -85.5 -193t-189.5 -79q-25 0 -41.5 8t-14.5 17q1 10 21 18q51 18 95.5 74.5t44.5 132.5q0 74 -51 112t-125 34l-75 -620q-1 -6 -6 -6q-34 -8 -80 -8q-43 0 -78 8q-5 0 -3 5l74 603l-2 1
q-62 -15 -100.5 -64.5t-39.5 -103.5q-1 -13 2 -27t3 -16q0 -13 -25.5 -26.5t-57.5 -13.5q-47 0 -77 32.5t-26 82.5q6 75 76.5 134t175 89.5t219.5 30.5z" />
    <glyph glyph-name="Sigma" unicode="&#x3a3;" horiz-adv-x="794" 
d="M379 708q35 -1 133 -8t139 -7q51 0 82 8.5t43 17t16 8.5q13 0 24 -22t11 -49q-1 -60 -42 -93t-113 -33q-33 0 -63.5 4.5t-75.5 14.5l-63 14q35 -55 75 -125t39 -80q-1 -5 -33.5 -31t-80 -69.5t-76.5 -83.5l1 -2q26 0 115 -15t115 -14q45 2 71 10.5t36.5 16.5t16.5 8
q12 0 20 -23t6 -49q-3 -50 -41 -86t-112 -36q-72 0 -181.5 24.5t-131.5 21.5q-26 -3 -49.5 -23.5t-31.5 -20.5q-14 0 -21.5 21.5t-5.5 44.5q15 112 257 312q-20 48 -65 119t-78 110q-65 -1 -100.5 -32t-35.5 -82q0 -28 8.5 -48.5t16.5 -31.5t8 -15q0 -14 -23.5 -26.5
t-54.5 -12.5q-51 0 -87.5 41t-36.5 104q0 103 102 164t267 54z" />
    <glyph glyph-name="Tau" unicode="&#x3a4;" horiz-adv-x="713" 
d="M165 745q51 0 184.5 -28.5t204.5 -28.5q43 0 82 11t61.5 22t24.5 11q13 0 24 -22.5t11 -48.5q-1 -60 -41.5 -93.5t-112.5 -33.5q-38 0 -103 13l-67 -542q0 -2 -1.5 -3.5t-3.5 -1.5l-1 -1q-31 -7 -80 -7q-39 0 -78 7q-4 4 -4 5q18 135 72 572q-98 13 -132 13
q-47 0 -83 -11t-54.5 -21.5t-22.5 -10.5q-13 0 -24 22.5t-11 48.5q1 60 42 94t113 34z" />
    <glyph glyph-name="Upsilon" unicode="&#x3a5;" horiz-adv-x="826" 
d="M253 637q-30 0 -54 -34t-24 -92q0 -33 6 -67.5t6 -38.5q0 -13 -23 -25.5t-54 -12.5q-42 0 -71 29.5t-29 83.5q0 74 48 133.5t117.5 89.5t141.5 30q45 0 80.5 -13t60 -39t41.5 -54t29.5 -71t19 -75t14.5 -80h5q94 135 165 293q1 2 3 3.5t4 2.5l2 1l3 1q4 0 9.5 1t13 2.5
t18 2t21.5 0.5t22 -0.5t18.5 -2t13.5 -2.5t10 -1l3 -1q6 -6 5 -7q-165 -258 -289 -417l-32 -272q0 -2 -1.5 -3.5t-3.5 -1.5l-1 -1q-31 -7 -81 -7q-39 0 -78 7q-4 3 -3 5q13 104 29 243q-9 84 -30.5 170t-58 153t-76.5 67z" />
    <glyph glyph-name="Phi" unicode="&#x3a6;" horiz-adv-x="937" 
d="M727 657q86 7 144 -75t45 -230q-15 -170 -94.5 -269t-175.5 -91q-95 11 -123 107l-2 -1l-21 -219q0 -2 -1.5 -3.5t-2.5 -1.5l-2 -1q-29 -7 -78 -7q-36 0 -76 7q-4 3 -3 5q7 61 32 216h-3q-54 -98 -148 -103q-86 -6 -144 76t-45 230q14 170 93.5 269t175.5 90
q96 -11 124 -108l1 1l21 198q1 3 6 5q32 8 75 8q50 0 79 -8q4 0 3 -5l-32 -193h3q22 42 61 71t88 32zM272 92q48 -1 82 79t37 164q12 202 -58 207q-48 3 -87 -65.5t-46 -178.5q-7 -90 10 -147.5t62 -58.5zM745 350q7 90 -10 147.5t-62 58.5q-32 1 -60 -39.5t-43 -96
t-17 -108.5q-3 -26 -1.5 -60.5t4.5 -66t17.5 -54.5t38.5 -24q47 -4 86 64.5t47 178.5z" />
    <glyph glyph-name="Chi" unicode="&#x3a7;" horiz-adv-x="846" 
d="M823 114q10 -3 8 -15q-4 -36 -41 -76t-94 -40q-41 0 -73 18t-59 62t-39 71t-37 90q-7 17 -10 25h-3q-89 -117 -154 -244q0 -2 -7 -5q-35 -8 -76 -8q-42 0 -71 8q-3 1 -3 7q126 199 262 355q-35 108 -81 185.5t-88 77.5q-34 0 -57.5 -33.5t-24.5 -80.5q-1 -34 5.5 -68.5
t6.5 -37.5q0 -13 -23 -25.5t-54 -12.5q-45 0 -74 33t-25 91q5 72 53 129t115.5 85t139.5 28q27 0 49.5 -4t42 -15t34 -20t29.5 -29.5t23.5 -32t21 -39t18 -39.5t18 -44.5t17.5 -43.5h3q89 124 143 230q0 2 7 4q30 8 72 8q51 0 75 -8q3 -1 3 -6q-155 -214 -248 -323
q6 -12 19.5 -44.5t23.5 -55t27.5 -53t34.5 -50.5t41 -35.5t50 -18.5z" />
    <glyph glyph-name="Psi" unicode="&#x3a8;" horiz-adv-x="1086" 
d="M319 733q92 0 138.5 -40.5t38.5 -131.5q-1 -21 -6.5 -63t-7.5 -65q-4 -38 7.5 -65.5t33 -41t38.5 -19t36 -8.5l48 395q1 6 7 6l4 1q3 1 9 2l15 2.5t23 2.5t30 1q62 0 80 -9q5 0 4 -6l-48 -394q16 0 36 6t45 20.5t45 46.5t28 77q17 87 33 245q0 4 6 6q45 9 73 9
q11 0 22.5 -1t20 -2t15 -2.5t10.5 -2.5l4 -1q4 -4 4 -6q-20 -177 -48 -270q-15 -64 -49.5 -110.5t-79.5 -70.5t-88.5 -34.5t-89.5 -10.5l-23 -193q-1 -6 -6 -6l-4 -1q-4 -1 -10.5 -2t-16 -2t-23.5 -2t-29 -1q-63 0 -79 8q-5 0 -4 6l23 193q-55 2 -97.5 11.5t-83 33.5
t-60.5 72t-15 117q1 17 7.5 67.5t7.5 59.5q4 40 -10 61.5t-42 21.5q-44 0 -79 -44.5t-37 -100.5q-1 -34 5.5 -62.5t6.5 -30.5q0 -13 -23 -25.5t-54 -12.5q-45 0 -74 33t-25 91q5 72 53 129t115.5 85t139.5 28z" />
    <glyph glyph-name="uni03A9" unicode="&#x3a9;" horiz-adv-x="1047" 
d="M726 716q150 0 235.5 -85t67.5 -221q-13 -97 -75.5 -166.5t-122.5 -93.5v-3q35 -5 65 -5q43 0 74 11l31 11q11 0 21.5 -21.5t7.5 -45.5q-6 -49 -36.5 -82t-84.5 -33q-44 0 -95 18t-63 17q-17 -2 -34 -15.5t-26 -12.5q-10 2 -13 16t2 34q5 24 29 59t50.5 68t52.5 90.5
t36 122.5q14 109 -26 167.5t-112 58.5q-69 0 -125 -61t-65 -164q-6 -65 6.5 -118.5t31 -81.5t33 -59.5t11.5 -58.5q-4 -31 -19.5 -54.5t-32.5 -22.5q-18 2 -147 26t-198 22q-49 0 -83 -6.5t-46.5 -14.5t-20.5 -15t-12 -7q-13 0 -23.5 23t-8.5 49q4 60 45 92.5t113 33.5
q45 1 157 -24.5t153 -25.5l1 3q-53 22 -98 96t-36 171q13 138 126 223t254 85z" />
    <glyph glyph-name="Iotadieresis" unicode="&#x3aa;" horiz-adv-x="545" 
d="M507 561q0 -44 -66 -556q-1 -4 -5 -5q-37 -8 -79 -8q-51 0 -80 8q-5 0 -4 5q65 501 67 528q9 110 -49 110q-44 0 -79 -44.5t-37 -100.5q-1 -34 5.5 -62.5t6.5 -30.5q0 -13 -23 -25.5t-54 -12.5q-45 0 -74 33t-25 91q5 72 53 129t115.5 85t139.5 28q188 0 188 -172z
M319 816q-4 -29 -28 -49.5t-54 -20.5q-29 0 -48 20.5t-16 49.5q4 30 27.5 50.5t53.5 20.5q31 0 50 -20.5t15 -50.5zM501 816q-4 -29 -28 -49.5t-53 -20.5q-30 0 -49 20.5t-15 49.5q4 30 28 50.5t54 20.5t48.5 -20.5t14.5 -50.5z" />
    <glyph glyph-name="Upsilondieresis" unicode="&#x3ab;" horiz-adv-x="847" 
d="M253 637q-30 0 -54 -34t-24 -92q0 -33 6 -67.5t6 -38.5q0 -13 -23 -25.5t-54 -12.5q-42 0 -71 29.5t-29 83.5q0 74 48 133.5t117.5 89.5t141.5 30q45 0 80.5 -13t60 -39t41.5 -54t29.5 -71t19 -75t14.5 -80h5q94 135 165 293q1 2 3 3.5t4 2.5l2 1l3 1q4 0 9.5 1t13 2.5
t18 2t21.5 0.5t22 -0.5t18.5 -2t13.5 -2.5t10 -1l3 -1q6 -6 5 -7q-165 -258 -289 -417l-32 -272q0 -2 -1.5 -3.5t-3.5 -1.5l-1 -1q-31 -7 -81 -7q-39 0 -78 7q-4 3 -3 5q13 104 29 243q-9 84 -30.5 170t-58 153t-76.5 67zM589 796q-4 -29 -28 -49.5t-54 -20.5
q-29 0 -48 20.5t-16 49.5q4 30 27.5 50.5t53.5 20.5q31 0 50 -20.5t15 -50.5zM771 796q-4 -29 -28 -49.5t-53 -20.5q-30 0 -49 20.5t-15 49.5q4 30 28 50.5t54 20.5t48.5 -20.5t14.5 -50.5z" />
    <glyph glyph-name="alphatonos" unicode="&#x3ac;" horiz-adv-x="606" 
d="M205 595q1 6 20.5 14.5t46 19.5t61.5 46t62 88q3 5 8 5q17 -3 50 -28.5t45 -43.5q2 -6 1 -9q-15 -30 -87.5 -71t-145.5 -42q-63 0 -61 21zM501 242q-4 -55 14 -89.5t60 -60.5q9 -4 9 -14q-3 -31 -34 -63t-77 -32q-40 0 -62 32t-26 80h-3q-72 -109 -181 -112
q-96 -1 -143.5 76t-34.5 191q13 107 80.5 185t163.5 82q66 1 104 -39t50 -85h4l18 105q0 4 6 6q38 6 72 6q41 0 69 -6q5 -2 5 -6q-28 -133 -94 -256zM258 105q31 0 60.5 32.5t43.5 63.5t19 52q1 66 -18.5 111t-65.5 45q-41 0 -73.5 -41.5t-41.5 -109.5q-9 -71 13 -112
t63 -41z" />
    <glyph glyph-name="epsilontonos" unicode="&#x3ad;" horiz-adv-x="527" 
d="M181 595q1 6 20.5 14.5t46 19.5t61.5 46t62 88q3 5 8 5q17 -3 50 -28.5t45 -43.5q2 -6 1 -9q-15 -30 -87.5 -71t-145.5 -42q-63 0 -61 21zM489 146q4 0 6 -1.5t3 -4.5t1 -7q-6 -41 -78 -94.5t-180 -55.5q-100 -2 -162.5 40.5t-53.5 117.5q6 49 39.5 79.5t77.5 40.5v3
q-35 9 -58 38t-18 70q8 66 82 104.5t164 37.5q91 -1 145.5 -36.5t55.5 -86.5q1 -33 -25 -61t-66 -28q-21 0 -39.5 7t-17.5 15q0 3 3 13.5l5 17.5q3 31 -13.5 51.5t-54.5 21.5q-33 0 -58 -22t-29 -54q-3 -21 1 -38t9 -24l5 -6q37 10 60.5 7.5t34.5 -12.5t9 -24
q-3 -28 -39.5 -37.5t-70.5 7.5q-33 -27 -36 -58q-4 -38 26 -58.5t84 -18.5q44 2 86.5 15.5t69 27t32.5 13.5z" />
    <glyph glyph-name="etatonos" unicode="&#x3ae;" horiz-adv-x="558" 
d="M544 362l-75 -607q0 -4 -4 -5l-1 -1q-31 -7 -74 -7q-32 0 -71 7q-4 4 -4 5l70 572q6 43 -7 63t-37 19q-37 -1 -74.5 -51.5t-46.5 -123.5l-28 -228q0 -3 -6 -6q-29 -7 -73 -7q-34 0 -74 7l-2 1q-2 2 -2 4q23 155 44 337q5 43 -4.5 59.5t-33.5 26.5q-7 4 -6 12
q1 19 35.5 48.5t81.5 29.5q42 0 64 -24.5t23 -65.5q-2 -22 -2 -34h3q33 59 84 91t101 33q63 1 95.5 -39t23.5 -116zM177 595q1 6 20.5 14.5t46 19.5t61.5 46t62 88q3 5 8 5q17 -3 50 -28.5t45 -43.5q2 -6 1 -9q-15 -30 -87.5 -71t-145.5 -42q-63 0 -61 21z" />
    <glyph glyph-name="iotatonos" unicode="&#x3af;" horiz-adv-x="287" 
d="M15 595q1 6 20.5 14.5t46 19.5t61.5 46t62 88q3 5 8 5q17 -3 50 -28.5t45 -43.5q2 -6 1 -9q-15 -30 -87.5 -71t-145.5 -42q-63 0 -61 21zM128 -15q-48 0 -73.5 29t-18.5 81l49 401q2 4 6 5q35 7 71 7q45 0 74 -7q4 -4 3 -5l-40 -333q-4 -31 1.5 -50t13.5 -25t25 -13
q8 -4 7 -12q-3 -20 -37 -49t-81 -29z" />
    <glyph glyph-name="upsilondieresistonos" unicode="&#x3b0;" horiz-adv-x="553" 
d="M443 515q52 0 76.5 -59.5t14.5 -131.5q-17 -143 -94 -242t-191 -99q-103 0 -151 68t-35 172l15 116q3 31 -3 49t-14 24t-25 12q-8 3 -7 13q2 20 36.5 49.5t81.5 29.5q48 0 73.5 -29.5t19.5 -81.5q-23 -187 -23 -188q-4 -30 -0.5 -58.5t20.5 -51t46 -22.5q44 0 80 55.5
t42 133.5q4 53 -2.5 92.5t-17 56.5t-18.5 29t-7 17q1 16 28.5 31t54.5 15zM505 639q-5 -33 -28 -56t-53 -23t-47.5 23t-12.5 56q4 33 26.5 56t52.5 23t48 -23t14 -56zM263 639q-5 -33 -28 -56t-53 -23t-47.5 23t-13.5 56q5 33 27.5 56t52.5 23t48 -23t14 -56zM392 769
q-22 -93 -63.5 -158.5t-64.5 -65.5q-9 0 -9 8q0 5 6.5 22t14.5 47t9 65q0 14 -2 46t-2 36q-2 5 4 8q19 8 57 8q28 0 44 -6q6 -1 6 -10z" />
    <glyph glyph-name="alpha" unicode="&#x3b1;" horiz-adv-x="606" 
d="M501 242q-4 -55 14 -89.5t60 -60.5q9 -4 9 -14q-3 -31 -34 -63t-77 -32q-40 0 -62 32t-26 80h-3q-72 -109 -181 -112q-96 -1 -143.5 76t-34.5 191q13 107 80.5 185t163.5 82q66 1 104 -39t50 -85h4l18 105q0 4 6 6q38 6 72 6q41 0 69 -6q5 -2 5 -6q-28 -133 -94 -256z
M258 105q31 0 60.5 32.5t43.5 63.5t19 52q1 66 -18.5 111t-65.5 45q-41 0 -73.5 -41.5t-41.5 -109.5q-9 -71 13 -112t63 -41z" />
    <glyph glyph-name="beta" unicode="&#x3b2;" horiz-adv-x="612" 
d="M583 211q-8 -107 -70 -167.5t-148 -60.5q-65 0 -96 38.5t-27 70.5q2 16 13 16q1 0 20 -9.5t43 -8.5q46 1 75.5 43.5t33.5 96.5q3 48 -10.5 89.5t-28.5 58.5l-15 17q-43 -16 -63.5 -5t-17.5 36q3 21 24 33t57 3q1 2 8.5 14.5t13.5 24t13 30.5t9 37q7 46 -8.5 78t-53.5 33
q-45 1 -71 -42t-35 -111l-94 -771q-1 -5 -6 -5l-3 -1q-4 -1 -10.5 -2t-15 -2t-20.5 -2t-24 -1q-54 0 -70 8q-4 0 -4 5l93 766q14 109 83.5 178t188.5 68q96 -1 151 -49t47 -118q-7 -56 -42.5 -98t-74.5 -56v-3q53 -22 97.5 -83.5t37.5 -148.5z" />
    <glyph glyph-name="gamma" unicode="&#x3b3;" horiz-adv-x="565" 
d="M464 516q49 0 69.5 -33.5t14.5 -86.5t-36 -115.5t-58.5 -103t-74 -99.5t-57.5 -75l-31 -247q-1 -6 -6 -6q-34 -8 -76 -8q-35 0 -70 8q-5 0 -4 5l30 252q-22 173 -49 264t-66 121q-20 7 -32 12q-9 3 -9 13q4 34 36.5 67t85.5 33q21 0 38.5 -6.5t31.5 -21.5t25 -31
t20.5 -43.5t16 -49t14 -58t12 -60.5t12 -65.5t11.5 -65.5h4q29 31 59 92.5t38 120.5q4 39 -5 69.5t-19.5 46.5t-9.5 21q2 17 28.5 33.5t56.5 16.5z" />
    <glyph glyph-name="delta" unicode="&#x3b4;" horiz-adv-x="552" 
d="M324 753q34 1 66.5 -6t55.5 -18t40 -24t25.5 -24t8.5 -17q-2 -15 -18 -13q-4 1 -30 7t-48 9t-42 2q-91 -4 -98 -59q-3 -23 24 -49t66 -54.5t77.5 -63.5t62 -90.5t15.5 -121.5q-14 -111 -97 -179.5t-197 -68.5q-101 0 -163 62.5t-50 167.5q11 88 77.5 150t153.5 66v2
q-137 82 -126 169q8 66 62 107t135 46zM253 69q49 -1 81.5 42t39.5 101q9 68 -17 116.5t-72 49.5q-44 2 -77 -43.5t-42 -118.5q-8 -65 16.5 -105t70.5 -42z" />
    <glyph glyph-name="epsilon" unicode="&#x3b5;" horiz-adv-x="527" 
d="M489 146q4 0 6 -1.5t3 -4.5t1 -7q-6 -41 -78 -94.5t-180 -55.5q-100 -2 -162.5 40.5t-53.5 117.5q6 49 39.5 79.5t77.5 40.5v3q-35 9 -58 38t-18 70q8 66 82 104.5t164 37.5q91 -1 145.5 -36.5t55.5 -86.5q1 -33 -25 -61t-66 -28q-21 0 -39.5 7t-17.5 15q0 3 3 13.5
l5 17.5q3 31 -13.5 51.5t-54.5 21.5q-33 0 -58 -22t-29 -54q-3 -21 1 -38t9 -24l5 -6q37 10 60.5 7.5t34.5 -12.5t9 -24q-3 -28 -39.5 -37.5t-70.5 7.5q-33 -27 -36 -58q-4 -38 26 -58.5t84 -18.5q44 2 86.5 15.5t69 27t32.5 13.5z" />
    <glyph glyph-name="zeta" unicode="&#x3b6;" horiz-adv-x="510" 
d="M460 118q22 -22 11.5 -66t-35.5 -87.5t-59.5 -76t-60.5 -32.5q-11 0 -14.5 5.5t0.5 13.5q55 101 32 119q-16 6 -27.5 5.5t-45.5 -4t-57 -3.5q-97 0 -144.5 40.5t-37.5 126.5q8 67 62 146.5t113 135t118 107t66 60.5l-1 3q-13 1 -70 7.5t-80 6.5q-42 0 -71 -6t-42 -12
t-17 -6q-11 0 -15.5 17.5t-2.5 31.5q6 44 39.5 81t93.5 37q41 0 122.5 -19.5t122.5 -15.5q25 1 48.5 14t26.5 13q15 0 15 -25q0 -68 -65 -133q-18 -20 -63.5 -67t-77 -82t-68 -80.5t-58.5 -87.5t-26 -78q-5 -41 16.5 -58.5t65.5 -17.5q16 0 63.5 5t77 2t45.5 -20z" />
    <glyph glyph-name="eta" unicode="&#x3b7;" horiz-adv-x="566" 
d="M544 362l-75 -607q0 -4 -4 -5l-1 -1q-31 -7 -74 -7q-32 0 -71 7q-4 4 -4 5l70 572q6 43 -7 63t-37 19q-37 -1 -74.5 -51.5t-46.5 -123.5l-28 -228q0 -3 -6 -6q-29 -7 -73 -7q-34 0 -74 7l-2 1q-2 2 -2 4q23 155 44 337q5 43 -4.5 59.5t-33.5 26.5q-7 4 -6 12
q1 19 35.5 48.5t81.5 29.5q42 0 64 -24.5t23 -65.5q-2 -22 -2 -34h3q33 59 84 91t101 33q63 1 95.5 -39t23.5 -116z" />
    <glyph glyph-name="theta" unicode="&#x3b8;" horiz-adv-x="569" 
d="M340 768q117 0 177.5 -98.5t35.5 -302.5q-23 -192 -106.5 -288t-205.5 -96q-116 0 -175.5 100.5t-37.5 279.5q23 189 107.5 297t204.5 108zM256 69q46 0 83.5 68.5t56.5 197.5q-45 11 -116.5 3.5t-101.5 -3.5q-12 -125 8.5 -195.5t69.5 -70.5zM327 681q-45 0 -82 -68
t-56 -187q26 -4 97.5 3.5t119.5 -3.5q24 255 -79 255z" />
    <glyph glyph-name="iota" unicode="&#x3b9;" horiz-adv-x="270" 
d="M124 -15q-48 0 -73.5 29t-18.5 81l49 401q2 4 6 5q35 7 71 7q45 0 74 -7q4 -4 3 -5l-40 -333q-4 -31 1.5 -50t13.5 -25t25 -13q8 -4 7 -12q-3 -20 -37 -49t-81 -29z" />
    </font>
</defs>
</svg>
