<svg width="21" height="42" viewBox="0 0 21 42" fill="none" xmlns="http://www.w3.org/2000/svg">
<path d="M16.6209 19.4136C16.6414 19.5604 16.6738 19.6995 16.8672 19.8909L17.6872 20.7376L17.8028 20.8535C17.8462 20.8965 17.8272 20.8757 17.8432 20.8904L17.8895 20.9279C17.92 20.9537 17.9499 20.983 17.9593 21.0114C17.9638 21.025 17.9678 21.0362 17.9778 21.0458C17.9553 21.0701 17.9843 21.0878 18.1054 21.1384C18.1333 21.148 18.0949 21.2138 18.068 21.2133C17.9085 21.2057 17.8581 21.191 17.8467 21.2219L17.8447 21.2351L17.8138 21.2852C17.7943 21.3196 17.7789 21.3555 17.7654 21.3935C17.7395 21.4694 17.7245 21.5524 17.7201 21.6415C17.4624 21.8444 17.2834 22.3009 16.9345 22.264C16.8597 22.2564 16.5756 22.4619 16.4744 22.5924C16.113 23.0585 15.8254 23.5616 15.2771 23.8825C15.1624 24.3289 14.7846 24.4569 14.4621 24.7003C13.9127 25.1148 13.3834 25.5729 13.0688 26.1964C13.015 26.3017 12.849 26.4904 12.7598 26.5345C12.5006 26.664 12.2902 26.8725 12.0684 27.0942L10.2734 28.8823C10.1822 28.9734 10.0356 29.1247 10.0331 29.1743C10.0097 29.5913 9.63088 29.7755 9.30089 30.018C9.17627 30.1101 9.0043 30.2639 8.94648 30.3732C8.75008 30.7422 8.46246 30.9411 8.14743 31.179C7.9625 31.3186 7.77557 31.5484 7.62254 31.7468C7.33542 32.1183 7.24171 32.5955 6.66996 32.801C6.60018 32.8268 6.41923 33.0556 6.34845 33.1821C6.0708 33.6811 5.42528 34.0496 5.23337 34.5759C5.2224 34.6068 5.11174 34.6847 5.04744 34.7252C4.36005 35.1625 3.91242 35.8184 3.4638 36.4202C3.14727 36.8433 2.86613 37.2547 2.43146 37.5528C2.0601 37.8069 2.06758 38.1075 1.87667 38.3039C1.65285 38.5357 1.3104 38.6156 1.05918 38.9481C0.985402 39.0458 0.935555 39.1506 0.882717 39.2508C0.79698 39.4198 0.711242 39.5894 0.626004 39.7574C0.217258 40.595 0.00839875 41.3293 0.159934 41.8785C0.209781 42.0581 0.400197 42.0404 0.675851 41.8132C2.19569 40.557 3.60586 39.1379 5.01753 37.7213C5.22141 37.5174 5.34552 37.322 5.36397 37.1322C5.37543 37.0118 5.41531 36.8721 5.60323 36.8549C5.83552 36.8352 6.06282 36.6307 6.28115 36.4024L7.27859 35.329L10.9194 31.4335C12.6865 29.5615 14.5807 27.8124 16.3169 25.9033C16.7485 25.4286 17.1234 24.9989 17.2894 24.4584C17.6847 24.4478 18.0087 24.1755 18.3746 23.7843L19.3366 22.764L21 21.0463L19.2748 19.3154L17.5954 17.5977C17.4429 17.4439 17.2505 17.2566 17.1064 17.1903C16.939 17.1139 16.8054 17.1533 16.6464 17.1417C16.4599 16.4489 16.3368 16.1912 15.9026 15.9002C15.3942 15.5606 14.9715 15.2347 14.6854 14.6846C14.6385 14.5945 14.5204 14.473 14.4257 14.3931C13.4098 13.5428 12.6132 12.4734 11.6268 11.5715C10.5216 10.5619 9.48034 9.44643 8.40514 8.38665C8.15939 8.14473 7.88723 7.92913 7.62354 7.71556C7.20632 7.37849 7.20432 7.38355 7.25268 6.97867L7.23174 6.92098C6.83745 6.49787 6.83097 6.49534 6.50248 6.53735L6.50995 6.64414C6.50297 6.6244 6.49101 6.60112 6.49151 6.58695C6.49201 6.56772 6.50347 6.55608 6.50995 6.54089L6.58223 6.0935L6.58622 6.10261C6.10171 5.68153 5.60922 5.27007 5.41282 4.70931C5.38341 4.62631 5.26976 4.48156 5.18153 4.40818C4.76232 4.06453 4.38697 3.58374 3.90644 3.40154C3.7574 3.34486 3.53358 3.08675 3.34417 2.92125L3.31575 2.91062C3.00521 2.73855 2.97629 2.37365 2.76345 2.25421C2.28591 1.98597 1.99979 1.60994 1.70669 1.18633C1.64538 1.09776 1.50132 0.964153 1.42854 0.936824C1.0821 0.810298 0.855799 0.580528 0.657906 0.217146C0.57516 0.0653157 0.372781 -0.0465327 0.313961 0.0192605C0.116068 0.240933 -0.135659 0.421612 0.0871572 0.984903C0.203301 1.27895 0.233707 1.5406 0.3339 1.82908C0.512851 2.34733 0.743144 2.87368 1.23813 3.44608C1.43602 3.67534 1.65684 3.94256 1.76052 4.16323C2.08802 4.86316 2.7141 5.53881 3.14029 6.2261C3.27936 6.45131 3.44087 6.61782 3.67365 6.75143C3.93336 6.90022 4.58037 7.49996 4.81465 7.77477C4.87098 7.83955 4.93877 7.89978 5.00158 7.96355L5.0948 7.87953L5.08383 7.87498L4.99959 7.95798C5.00158 8.0921 5.03647 8.33047 5.23287 8.37146C5.63314 8.45345 6.02295 8.97474 6.41076 9.1043C6.48653 9.1296 6.7547 9.44946 6.77913 9.55524C6.89876 10.074 7.32246 10.4531 7.78305 10.7339C8.19429 10.985 8.52378 11.1996 8.71319 11.6621C8.7441 11.7391 8.87819 11.8545 8.96841 11.9471C9.70565 12.6976 10.4239 13.4709 11.2235 14.1481C11.3461 14.2519 11.4653 14.4047 11.559 14.5378C12.0191 15.1978 12.6387 15.6948 13.2224 16.2166C13.4033 16.3785 13.665 16.4352 13.8155 16.5971C13.9865 16.7804 14.0593 17.0294 14.2058 17.2475C14.2941 17.3786 14.4361 17.5213 14.5657 17.6341C15.2506 18.2319 15.8922 18.9267 16.6234 19.4192L16.6209 19.4136ZM4.38447 37.2066C4.39743 37.1839 4.48118 37.155 4.53202 37.1292C4.52454 37.1581 4.52654 37.1904 4.5071 37.2147L4.11331 37.694L4.12627 37.7568L4.12078 37.691C4.20652 37.5295 4.28827 37.3691 4.38447 37.2066ZM1.64139 2.08314C1.69871 2.08314 1.77398 2.1125 1.84327 2.13224C1.84825 2.18183 1.87418 2.25269 1.85224 2.27496C1.8328 2.29419 1.75953 2.25775 1.70968 2.24611C1.68526 2.18791 1.62992 2.08264 1.64139 2.08314ZM3.97772 37.0938L4.03555 37.1019C3.99617 37.1307 3.95728 37.1596 3.90395 37.1985C3.93685 37.151 3.95728 37.1226 3.97772 37.0938ZM18.3058 23.4174L18.3451 23.3475L18.38 23.3597L18.3058 23.4174ZM3.02066 39.2629L3.01717 39.3206L2.95685 39.3328L3.02066 39.2629Z" fill="#F6DF2D"/>
</svg>
