<svg width="21" height="42" viewBox="0 0 21 42" fill="none" xmlns="http://www.w3.org/2000/svg">
<path d="M4.37906 19.4136C4.35863 19.5604 4.32623 19.6995 4.13282 19.8909L3.31283 20.7376L3.19719 20.8535C3.15383 20.8965 3.17277 20.8757 3.15681 20.8904L3.11046 20.9279C3.08005 20.9537 3.05014 20.983 3.04067 21.0114C3.03618 21.025 3.0322 21.0362 3.02223 21.0458C3.04466 21.0701 3.01575 21.0878 2.89462 21.1384C2.8667 21.148 2.90508 21.2138 2.932 21.2133C3.09151 21.2057 3.14186 21.191 3.15332 21.2219L3.15532 21.2351L3.18622 21.2852C3.20566 21.3196 3.22112 21.3555 3.23458 21.3935C3.2605 21.4694 3.27545 21.5524 3.27994 21.6415C3.53765 21.8444 3.7166 22.3009 4.06553 22.264C4.1403 22.2564 4.42443 22.4619 4.52562 22.5924C4.88701 23.0585 5.17463 23.5616 5.72294 23.8825C5.83759 24.3289 6.21543 24.4569 6.53794 24.7003C7.08726 25.1148 7.61663 25.5729 7.93117 26.1964C7.985 26.3017 8.15099 26.4904 8.24022 26.5345C8.49942 26.664 8.70978 26.8725 8.9316 27.0942L10.7266 28.8823C10.8178 28.9734 10.9644 29.1247 10.9669 29.1743C10.9903 29.5913 11.3691 29.7755 11.6991 30.018C11.8237 30.1101 11.9957 30.2639 12.0535 30.3732C12.2499 30.7422 12.5375 30.9411 12.8526 31.179C13.0375 31.3186 13.2244 31.5484 13.3775 31.7468C13.6646 32.1183 13.7583 32.5955 14.33 32.801C14.3998 32.8268 14.5808 33.0556 14.6516 33.1821C14.9292 33.6811 15.5747 34.0496 15.7666 34.5759C15.7776 34.6068 15.8883 34.6847 15.9526 34.7252C16.64 35.1625 17.0876 35.8184 17.5362 36.4202C17.8527 36.8433 18.1339 37.2547 18.5685 37.5528C18.9399 37.8069 18.9324 38.1075 19.1233 38.3039C19.3471 38.5357 19.6896 38.6156 19.9408 38.9481C20.0146 39.0458 20.0644 39.1506 20.1173 39.2508C20.203 39.4198 20.2888 39.5894 20.374 39.7574C20.7827 40.595 20.9916 41.3293 20.8401 41.8785C20.7902 42.0581 20.5998 42.0404 20.3241 41.8132C18.8043 40.557 17.3941 39.1379 15.9825 37.7213C15.7786 37.5174 15.6545 37.322 15.636 37.1322C15.6246 37.0118 15.5847 36.8721 15.3968 36.8549C15.1645 36.8352 14.9372 36.6307 14.7188 36.4024L13.7214 35.329L10.0806 31.4335C8.3135 29.5615 6.41931 27.8124 4.68313 25.9033C4.25146 25.4286 3.87661 24.9989 3.71062 24.4584C3.31533 24.4478 2.99132 24.1755 2.62544 23.7843L1.66339 22.764L0 21.0463L1.72521 19.3154L3.40456 17.5977C3.55709 17.4439 3.74949 17.2566 3.89355 17.1903C4.06104 17.1139 4.19463 17.1533 4.35364 17.1417C4.54007 16.4489 4.66319 16.1912 5.09736 15.9002C5.6058 15.5606 6.02851 15.2347 6.31463 14.6846C6.36148 14.5945 6.47962 14.473 6.57433 14.3931C7.59021 13.5428 8.38677 12.4734 9.37324 11.5715C10.4784 10.5619 11.5197 9.44643 12.5949 8.38665C12.8406 8.14473 13.1128 7.92913 13.3765 7.71556C13.7937 7.37849 13.7957 7.38355 13.7473 6.97867L13.7683 6.92098C14.1626 6.49787 14.169 6.49534 14.4975 6.53735L14.49 6.64414C14.497 6.6244 14.509 6.60112 14.5085 6.58695C14.508 6.56772 14.4965 6.55608 14.49 6.54089L14.4178 6.0935L14.4138 6.10261C14.8983 5.68153 15.3908 5.27007 15.5872 4.70931C15.6166 4.62631 15.7302 4.48156 15.8185 4.40818C16.2377 4.06453 16.613 3.58374 17.0936 3.40154C17.2426 3.34486 17.4664 3.08675 17.6558 2.92125L17.6842 2.91062C17.9948 2.73855 18.0237 2.37365 18.2366 2.25421C18.7141 1.98597 19.0002 1.60994 19.2933 1.18633C19.3546 1.09776 19.4987 0.964153 19.5715 0.936824C19.9179 0.810298 20.1442 0.580528 20.3421 0.217146C20.4248 0.0653157 20.6272 -0.0465327 20.686 0.0192605C20.8839 0.240933 21.1357 0.421612 20.9128 0.984903C20.7967 1.27895 20.7663 1.5406 20.6661 1.82908C20.4871 2.34733 20.2569 2.87368 19.7619 3.44608C19.564 3.67534 19.3432 3.94256 19.2395 4.16323C18.912 4.86316 18.2859 5.53881 17.8597 6.2261C17.7206 6.45131 17.5591 6.61782 17.3263 6.75143C17.0666 6.90022 16.4196 7.49996 16.1853 7.77477C16.129 7.83955 16.0612 7.89978 15.9984 7.96355L15.9052 7.87953L15.9162 7.87498L16.0004 7.95798C15.9984 8.0921 15.9635 8.33047 15.7671 8.37146C15.3669 8.45345 14.9771 8.97474 14.5892 9.1043C14.5135 9.1296 14.2453 9.44946 14.2209 9.55524C14.1012 10.074 13.6775 10.4531 13.217 10.7339C12.8057 10.985 12.4762 11.1996 12.2868 11.6621C12.2559 11.7391 12.1218 11.8545 12.0316 11.9471C11.2944 12.6976 10.5761 13.4709 9.77651 14.1481C9.65388 14.2519 9.53475 14.4047 9.44104 14.5378C8.98095 15.1978 8.36135 15.6948 7.77764 16.2166C7.59669 16.3785 7.335 16.4352 7.18446 16.5971C7.01348 16.7804 6.94071 17.0294 6.79416 17.2475C6.70593 17.3786 6.56386 17.5213 6.43426 17.6341C5.74936 18.2319 5.10783 18.9267 4.37657 19.4192L4.37906 19.4136ZM16.6155 37.2066C16.6026 37.1839 16.5188 37.155 16.468 37.1292C16.4755 37.1581 16.4735 37.1904 16.4929 37.2147L16.8867 37.694L16.8737 37.7568L16.8792 37.691C16.7935 37.5295 16.7117 37.3691 16.6155 37.2066ZM19.3586 2.08314C19.3013 2.08314 19.226 2.1125 19.1567 2.13224C19.1517 2.18183 19.1258 2.25269 19.1478 2.27496C19.1672 2.29419 19.2405 2.25775 19.2903 2.24611C19.3147 2.18791 19.3701 2.08264 19.3586 2.08314ZM17.0223 37.0938L16.9645 37.1019C17.0038 37.1307 17.0427 37.1596 17.0961 37.1985C17.0632 37.151 17.0427 37.1226 17.0223 37.0938ZM2.69423 23.4174L2.65485 23.3475L2.61996 23.3597L2.69423 23.4174ZM17.9793 39.2629L17.9828 39.3206L18.0431 39.3328L17.9793 39.2629Z" fill="#F6DF2D"/>
</svg>
