<svg width="14" height="14" viewBox="0 0 14 14" fill="none" xmlns="http://www.w3.org/2000/svg">
<path fill-rule="evenodd" clip-rule="evenodd" d="M2.23611 1.75C2.10719 1.75 1.98354 1.80122 1.89238 1.89238C1.80122 1.98354 1.75 2.10719 1.75 2.23611V11.7639C1.75 11.8928 1.80121 12.0165 1.89238 12.1076C1.98354 12.1988 2.10719 12.25 2.23611 12.25H4.95833C5.44158 12.25 5.83333 12.6418 5.83333 13.125C5.83333 13.6082 5.44158 14 4.95833 14H2.23611C1.64306 14 1.07429 13.7644 0.654942 13.3451C0.23559 12.9257 0 12.3569 0 11.7639V2.23611C0 1.64306 0.235589 1.07429 0.654942 0.654942C1.07429 0.235589 1.64306 0 2.23611 0H4.95833C5.44158 0 5.83333 0.391751 5.83333 0.875C5.83333 1.35825 5.44158 1.75 4.95833 1.75H2.23611Z" fill="#FCC93D"/>
<path fill-rule="evenodd" clip-rule="evenodd" d="M9.10394 2.97851C9.44565 2.6368 9.99967 2.6368 10.3414 2.97851L13.7442 6.38129C14.0859 6.723 14.0859 7.27702 13.7442 7.61873L10.3414 11.0215C9.99967 11.3632 9.44565 11.3632 9.10394 11.0215C8.76223 10.6798 8.76223 10.1258 9.10394 9.78407L11.888 7.00001L9.10394 4.21595C8.76223 3.87424 8.76223 3.32022 9.10394 2.97851Z" fill="#FCC93D"/>
<path fill-rule="evenodd" clip-rule="evenodd" d="M4.08301 7C4.08301 6.51675 4.47476 6.125 4.95801 6.125H13.1247C13.6079 6.125 13.9997 6.51675 13.9997 7C13.9997 7.48325 13.6079 7.875 13.1247 7.875H4.95801C4.47476 7.875 4.08301 7.48325 4.08301 7Z" fill="#FCC93D"/>
</svg>
