<svg width="16" height="16" viewBox="0 0 16 16" fill="none" xmlns="http://www.w3.org/2000/svg">
<path d="M0.585787 0.585786C1.36684 -0.195262 2.63317 -0.195262 3.41421 0.585786L14.7279 11.8995C15.509 12.6805 15.509 13.9469 14.7279 14.7279C13.9469 15.509 12.6805 15.509 11.8995 14.7279L0.585787 3.41421C-0.195261 2.63317 -0.195261 1.36683 0.585787 0.585786Z" fill="#CE1723"/>
<path d="M14.7279 0.585786C15.509 1.36683 15.509 2.63316 14.7279 3.41421L3.41421 14.7279C2.63316 15.509 1.36683 15.509 0.585786 14.7279C-0.195262 13.9469 -0.195262 12.6805 0.585786 11.8995L11.8995 0.585787C12.6805 -0.195262 13.9469 -0.195262 14.7279 0.585786Z" fill="#CE1723"/>
</svg>
