<svg width="220" height="85" viewBox="0 0 220 85" fill="none" xmlns="http://www.w3.org/2000/svg">
<mask id="mask0" mask-type="alpha" maskUnits="userSpaceOnUse" x="0" y="0" width="220" height="85">
<path d="M14 14.1177L0 2.09011e-05L179 4.66592e-05L220 0.117689L206 13.2353L220 27.353L206 41.4706L220 55.5883L206 69.7059L220 83.8236L-3.70261e-06 84.7059L14 70.5883L-2.46841e-06 56.4706L14 42.353L-1.2342e-06 28.2353L14 14.1177Z" fill="#C4C4C4"/>
</mask>
<g mask="url(#mask0)">
<rect x="-182" y="-287" width="1460" height="649" fill="#ED1C24"/>
<path d="M34.0059 43.0258L106.004 115.024H34.0059H-37.9919L34.0059 43.0258Z" fill="#CE1723"/>
<path d="M-37.9917 -28.9723L34.006 43.0255H-37.9917H-109.989L-37.9917 -28.9723Z" fill="#CE1723"/>
<path d="M106.004 -28.9723L178.002 43.0255H106.004H34.0062L106.004 -28.9723Z" fill="#CE1723"/>
<path d="M34.0063 -100.97L106.004 -28.9724H34.0063H-37.9914L34.0063 -100.97Z" fill="#CE1723"/>
<path d="M178.001 -100.97L249.999 -28.9724H178.001H106.003L178.001 -100.97Z" fill="#CE1723"/>
<path d="M178.001 43.0263L249.999 115.024H178.001H106.003L178.001 43.0263Z" fill="#CE1723"/>
<path d="M-37.9917 -28.9994L34.006 42.9983H-37.9917H-109.989L-37.9917 -28.9994Z" fill="#CE1723"/>
<path d="M106.004 -28.9994L178.002 42.9983H106.004H34.0062L106.004 -28.9994Z" fill="#CE1723"/>
<path d="M250.012 -28.9999L322.01 42.9978H250.012H178.015L250.012 -28.9999Z" fill="#CE1723"/>
<path d="M178.002 -100.97L250 -28.9719H178.002H106.004L178.002 -100.97Z" fill="#CE1723"/>
<path d="M178.002 43.0268L250 115.025H178.002H106.004L178.002 43.0268Z" fill="#CE1723"/>
<path d="M250 -28.9994L321.998 42.9983H250H178.002L250 -28.9994Z" fill="#CE1723"/>
</g>
</svg>
