<svg width="17" height="17" viewBox="0 0 17 17" fill="none" xmlns="http://www.w3.org/2000/svg">
<path fill-rule="evenodd" clip-rule="evenodd" d="M1.20711 7.5C1.20711 8.02344 1.26073 8.53435 1.36278 9.02754C1.69798 10.6475 1.60909 12.4767 0.43934 13.6464C-0.146447 14.2322 -0.146447 15.182 0.43934 15.7678C1.02513 16.3536 1.97487 16.3536 2.56066 15.7678C3.73041 14.598 5.5596 14.5091 7.17956 14.8443C7.67276 14.9464 8.18367 15 8.70711 15C12.8492 15 16.2071 11.6421 16.2071 7.5C16.2071 3.35786 12.8492 0 8.70711 0C4.56497 0 1.20711 3.35786 1.20711 7.5ZM13.2071 7.5C13.2071 9.98528 11.1924 12 8.70711 12C6.22183 12 4.20711 9.98528 4.20711 7.5C4.20711 5.01472 6.22183 3 8.70711 3C11.1924 3 13.2071 5.01472 13.2071 7.5Z" fill="#A7A7A7"/>
</svg>
