<svg width="260" height="161" viewBox="0 0 260 161" fill="none" xmlns="http://www.w3.org/2000/svg">
<path d="M4.53803 98.1831L12.2527 93.2546V131.242H23.5978V79H17.0933L0 89.9943L4.53803 98.1831Z" fill="#E52E2A"/>
<path d="M53.1032 132C65.2047 132 72.7681 121.461 72.7681 105.841C72.7681 89.4635 65.2047 79.6824 53.1032 79.6824C41.0775 79.6824 33.4384 89.4635 33.4384 105.841C33.4384 121.461 41.0775 132 53.1032 132ZM53.1032 89.5393C58.322 89.5393 61.3473 96.515 61.3473 105.841C61.3473 115.167 58.322 122.143 53.1032 122.143C47.8845 122.143 44.8592 115.167 44.8592 105.841C44.8592 96.515 47.8845 89.5393 53.1032 89.5393Z" fill="#E52E2A"/>
<path d="M98.454 132C110.555 132 118.119 121.461 118.119 105.841C118.119 89.4635 110.555 79.6824 98.454 79.6824C86.4282 79.6824 78.7892 89.4635 78.7892 105.841C78.7892 121.461 86.4282 132 98.454 132ZM98.454 89.5393C103.673 89.5393 106.698 96.515 106.698 105.841C106.698 115.167 103.673 122.143 98.454 122.143C93.2353 122.143 90.2099 115.167 90.2099 105.841C90.2099 96.515 93.2353 89.5393 98.454 89.5393Z" fill="#E52E2A"/>
<path d="M149.134 132C161.235 132 168.798 121.461 168.798 105.841C168.798 89.4635 161.235 79.6824 149.134 79.6824C137.108 79.6824 129.469 89.4635 129.469 105.841C129.469 121.461 137.108 132 149.134 132ZM149.134 89.5393C154.352 89.5393 157.378 96.515 157.378 105.841C157.378 115.167 154.352 122.143 149.134 122.143C143.915 122.143 140.89 115.167 140.89 105.841C140.89 96.515 143.915 89.5393 149.134 89.5393Z" fill="#E52E2A"/>
<path d="M194.484 132C206.586 132 214.149 121.461 214.149 105.841C214.149 89.4635 206.586 79.6824 194.484 79.6824C182.459 79.6824 174.82 89.4635 174.82 105.841C174.82 121.461 182.459 132 194.484 132ZM194.484 89.5393C199.703 89.5393 202.729 96.515 202.729 105.841C202.729 115.167 199.703 122.143 194.484 122.143C189.266 122.143 186.24 115.167 186.24 105.841C186.24 96.515 189.266 89.5393 194.484 89.5393Z" fill="#E52E2A"/>
<path d="M239.835 132C251.937 132 259.5 121.461 259.5 105.841C259.5 89.4635 251.937 79.6824 239.835 79.6824C227.809 79.6824 220.17 89.4635 220.17 105.841C220.17 121.461 227.809 132 239.835 132ZM239.835 89.5393C245.054 89.5393 248.079 96.515 248.079 105.841C248.079 115.167 245.054 122.143 239.835 122.143C234.616 122.143 231.591 115.167 231.591 105.841C231.591 96.515 234.616 89.5393 239.835 89.5393Z" fill="#E52E2A"/>
<path d="M152.124 51.5715L130.938 63.8013V48.0203L130.26 48.3555C129.797 48.5266 129.312 48.6193 128.848 48.6193C128.392 48.6193 127.921 48.5337 127.458 48.3626L127.344 48.3483L126.98 48.1772L126.766 48.0702V63.8013L105.58 51.5715V37.4022L101.401 35.2986V52.7767C101.401 53.5254 101.8 54.21 102.449 54.5808L127.807 69.228C128.128 69.4134 128.492 69.5061 128.855 69.5061C129.219 69.5061 129.576 69.4134 129.904 69.228L155.262 54.5808C155.91 54.21 156.31 53.5183 156.31 52.7767V35.2986L152.138 37.3879V51.5715H152.124Z" fill="#E52E2A"/>
<path d="M130.36 9.72673L129.497 9.44862C129.076 9.31313 128.62 9.31313 128.192 9.44862L127.336 9.72673C127.893 11.0103 128.399 12.2939 128.841 13.5133C129.29 12.2939 129.804 11.0103 130.36 9.72673Z" fill="#E52E2A"/>
<path d="M159.212 20.6657C159.212 20.6514 159.219 20.6372 159.219 20.6229C159.219 20.5801 159.198 20.5373 159.191 20.4946C159.176 20.3519 159.148 20.2164 159.105 20.081C159.084 20.0168 159.062 19.9526 159.034 19.8956C158.984 19.7743 158.92 19.6674 158.856 19.5675C158.813 19.5105 158.784 19.4534 158.734 19.4035C158.649 19.3037 158.556 19.211 158.449 19.1254C158.406 19.0826 158.356 19.0398 158.307 19.0042C158.292 18.997 158.285 18.9828 158.271 18.9757C158.121 18.8758 157.957 18.7974 157.786 18.7403C157.779 18.7403 157.779 18.7332 157.772 18.7332L152.523 17.0075C152.281 17.2785 152.038 17.5281 151.81 17.7634C149.414 20.1594 145.364 22.1632 141.606 23.6465L146.077 25.4578V35.7549L139.88 38.8783V28.1248L132.785 24.3738C134.617 23.8818 145.913 20.7085 150.327 16.2873C151.618 15.0037 153.315 13.007 153.208 10.5468C153.101 8.09371 151.382 6.65324 150.006 5.49802C149.614 5.16999 149.193 4.82057 148.787 4.42123C148.387 4.0219 148.038 3.60117 147.71 3.20183C146.59 1.85407 145.043 0 142.454 0C140.087 0 138.176 1.64727 136.935 2.88093C132.506 7.3093 129.333 18.6262 128.841 20.4375C128.349 18.6262 125.176 7.3093 120.747 2.88093C119.521 1.64727 117.603 0 115.242 0C112.654 0 111.106 1.85407 109.972 3.20896C109.644 3.60117 109.295 4.0219 108.896 4.42123C108.496 4.82057 108.076 5.16999 107.683 5.49802C106.3 6.65324 104.589 8.08658 104.482 10.5468C104.375 13.007 106.072 15.0037 107.362 16.2873C111.777 20.7085 123.086 23.8818 124.912 24.3738L117.817 28.1248V38.8783L111.62 35.7549V25.4649L116.091 23.6465C112.333 22.1561 108.275 20.1594 105.879 17.7634C105.651 17.5352 105.409 17.2785 105.166 17.0075L99.9177 18.7332C99.9106 18.7332 99.9034 18.7403 99.9034 18.7403C99.7394 18.7974 99.5754 18.8758 99.4185 18.9757C99.4043 18.9828 99.3971 18.997 99.3829 19.0042C99.333 19.0398 99.2902 19.0826 99.2403 19.1254C99.1404 19.211 99.0406 19.2965 98.9621 19.4035C98.9194 19.4534 98.8837 19.5105 98.8409 19.5747C98.7696 19.6816 98.7126 19.7886 98.6626 19.9027C98.6341 19.9669 98.6127 20.0239 98.5913 20.0952C98.5485 20.2307 98.5272 20.3662 98.5129 20.5088C98.4986 20.5373 98.4844 20.5801 98.4772 20.6229C98.4772 20.6372 98.4844 20.6514 98.4844 20.6657C98.4844 20.68 98.4772 20.7014 98.4772 20.7156V30.1999C98.4772 30.9914 98.9194 31.7117 99.6253 32.0611L127.907 46.3017C127.935 46.316 127.971 46.3089 128 46.3231C128.271 46.4443 128.556 46.5228 128.848 46.5228C129.141 46.5228 129.426 46.4443 129.697 46.3231C129.733 46.3089 129.761 46.316 129.79 46.3017L158.071 32.0611C158.77 31.7045 159.219 30.9843 159.219 30.1999V20.7156C159.219 20.7014 159.212 20.6871 159.212 20.6657ZM139.153 5.09868C143.232 1.02687 144.116 4.15739 146.597 6.63898C149.072 9.12058 152.209 10.0048 148.131 14.0766C144.059 18.1556 131.836 21.3931 131.836 21.3931C131.836 21.3931 135.081 9.17763 139.153 5.09868ZM111.106 6.63898C113.588 4.16452 114.472 1.02687 118.544 5.09868C122.623 9.17763 125.86 21.3931 125.86 21.3931C125.86 21.3931 113.638 18.1485 109.566 14.0766C105.494 10.0048 108.632 9.12058 111.106 6.63898Z" fill="#E52E2A"/>
<path d="M101.044 160.973L101.61 160.946L102.015 160.839L102.393 160.812L102.716 160.652L103.04 160.571L103.391 160.41L104.038 159.982L104.766 159.178L104.982 158.829L105.548 157.436L105.656 157.034L105.71 156.712L105.818 156.364L105.845 155.908V155.533L105.899 155.212L105.926 154.247L105.899 153.684V153.309L105.872 152.934L105.791 152.505L105.764 152.103L105.683 151.755L105.629 151.379L105.495 151.004L105.387 150.629L105.225 150.227L104.577 149.343L104.308 149.048L104.011 148.807L103.66 148.619L103.31 148.485L102.015 148.324L101.476 148.351L101.098 148.458L100.747 148.539L100.424 148.7L100.073 148.834L99.7493 149.021L99.5065 149.075L99.3986 148.753L99.6683 148.056L99.9111 147.681L100.316 147.252L100.639 146.984L101.125 146.743L101.449 146.556L102.824 146.047L103.175 145.832L103.526 145.698L104.47 145.082L104.766 144.841L105.009 144.599L105.225 144.144L105.036 143.474L104.793 142.938L104.631 142.536L104.416 142.241L104.119 142L103.741 142.08L103.445 142.295L103.175 142.509L102.501 142.965L101.853 143.313L101.529 143.42L101.152 143.608L100.828 143.742L100.478 143.822L100.127 143.956L99.8032 144.171L99.4526 144.305L98.8052 144.68L98.5085 144.948L98.1848 145.135L97.7802 145.457L97.2947 146.073L96.998 146.583L96.5934 147.601L96.4046 148.351L96.2428 149.102V149.45L96.1618 150.281L96.0809 150.683V151.031L96.0539 151.406V152.13L96 152.532V154.81L96.0539 155.238L96.0809 155.64L96.1618 156.391L96.2158 156.793L96.5125 157.865L96.8092 158.561L97.2408 159.205L97.4565 159.553L97.7263 159.821L97.996 160.035L98.3467 160.25L98.6164 160.41L99.3716 160.732L100.451 160.946L101.044 160.973ZM100.424 157.999L99.8302 157.516L99.5605 156.712L99.4795 156.337L99.3447 155.185L99.3177 153.336L99.3447 152.961L99.3716 152.666L99.5335 152.157L99.8841 151.755L100.181 151.621L100.828 151.353L101.422 151.272L101.934 151.379L102.393 152.049L102.474 152.371L102.635 153.496V155.051L102.608 155.399L102.581 155.774L102.42 156.551L102.312 156.927L102.204 157.275L101.772 157.784L101.449 157.918L100.936 157.999H100.424Z" fill="#E52E2A"/>
<path d="M110.434 160.92H111.108L111.539 160.786L111.944 160.625L112.699 160.169L112.915 159.901L113.239 159.74L113.428 160.062L113.778 160.464L114.21 160.705L114.641 160.678L115.1 160.705L115.478 160.625L115.882 160.652L116.314 160.491L116.449 160.062L116.341 159.633L116.314 158.829L116.341 158.347L116.368 156.257L116.287 155.855L116.314 155.426L116.341 154.97L116.287 154.595L116.314 154.166L116.341 153.764V153.389L116.314 152.907L116.368 152.451V151.862L116.152 150.361L115.855 149.53L115.666 149.182L115.424 148.86L115.127 148.539L114.399 148.083L114.021 147.922L113.509 147.788L113.131 147.708H111.566L110.541 147.842L110.056 147.976L109.651 148.137L109.328 148.217L108.869 148.512L108.195 148.887L107.952 149.396L108.06 149.906L108.303 150.307L108.545 150.575L108.761 151.004L109.22 151.219L109.732 151.165L110.137 151.004L110.541 150.817L111.027 150.656L111.701 150.629L112.322 150.709L112.726 150.897L112.915 151.299L112.996 151.915L112.753 152.291L112.052 152.451L111.351 152.425L110.865 152.585H110.461L110.083 152.746L109.624 152.88L109.301 153.094L108.896 153.282L108.599 153.523L108.303 153.898L108.006 154.193L107.763 154.568L107.52 154.863L107.413 155.238L107.251 155.667L107.143 156.15L107.116 157.838L107.305 158.776L107.467 159.151L107.871 159.928L108.195 160.169L108.545 160.518L108.977 160.678L109.409 160.812L109.84 160.893L110.434 160.92ZM111.566 157.999L110.946 157.972L110.649 157.784L110.407 156.846L110.514 156.203L110.649 155.828L110.811 155.533L111.135 155.212L111.539 154.97H112.106L112.753 155.104L112.996 155.506L113.023 155.882L112.996 156.364L112.699 157.489L112.43 157.757L112.133 157.891L111.566 157.999Z" fill="#E52E2A"/>
<path d="M119.042 160.812L119.42 160.732L119.77 160.625L120.094 160.384L120.445 160.25L120.715 159.982L121.011 159.767L121.281 159.499L121.767 158.91L122.09 158.347L122.549 157.275L122.657 156.98L122.711 156.551L122.791 156.203L122.926 155.506L123.007 155.131L123.142 153.068V152.505L123.169 152.183V151.433L123.196 151.058L123.358 150.709L123.736 150.495H124.086L124.437 150.468L124.788 150.709L124.976 151.111V151.433L124.949 151.862L124.922 152.425L124.976 152.987L124.949 153.362L124.976 153.764L124.949 154.14V154.836L124.976 155.265L124.949 157.329L124.976 157.65L124.949 158.963L124.976 159.392L124.949 159.74L124.976 160.142L125.138 160.544L125.543 160.678L127.161 160.705L127.539 160.652L128.078 160.518L128.294 160.169V159.74L128.24 159.392V157.141L128.294 156.739L128.267 155.48L128.294 155.104V152.987L128.24 152.478L128.294 151.299L128.267 150.951L128.294 149.102L128.267 148.485L128.051 148.11L127.728 147.976L126.595 147.922H126.244L125.866 147.896L125.516 147.949L124.922 147.976L124.356 147.922L124.005 147.949L123.628 147.922L122.684 147.976L121.227 147.922L120.634 147.976L120.256 148.164L120.094 148.485V148.834L120.067 149.584L120.013 149.906L119.986 150.281L120.013 150.656L119.959 151.406L119.932 152.505L119.905 152.88V153.255L119.824 154.059L119.797 154.434L119.717 154.783L119.663 155.212L119.501 155.989L119.366 156.31L119.042 156.98L118.853 157.275L118.287 157.811L117.963 157.945L117.721 158.293V158.856L118.017 159.526L118.179 160.035L118.314 160.384L118.638 160.705L119.042 160.812Z" fill="#E52E2A"/>
<path d="M130.817 160.812L131.194 160.732L131.545 160.625L131.869 160.384L132.219 160.25L132.489 159.982L132.786 159.767L133.055 159.499L133.541 158.91L133.865 158.347L134.323 157.275L134.431 156.98L134.485 156.551L134.566 156.203L134.701 155.506L134.782 155.131L134.917 153.068V152.505L134.944 152.183V151.433L134.97 151.058L135.132 150.709L135.51 150.495H135.861L136.211 150.468L136.562 150.709L136.751 151.111V151.433L136.724 151.862L136.697 152.425L136.751 152.987L136.724 153.362L136.751 153.764L136.724 154.14V154.836L136.751 155.265L136.724 157.329L136.751 157.65L136.724 158.963L136.751 159.392L136.724 159.74L136.751 160.142L136.913 160.544L137.317 160.678L138.936 160.705L139.313 160.652L139.853 160.518L140.068 160.169V159.74L140.014 159.392V157.141L140.068 156.739L140.041 155.48L140.068 155.104V152.987L140.014 152.478L140.068 151.299L140.041 150.951L140.068 149.102L140.041 148.485L139.826 148.11L139.502 147.976L138.369 147.922H138.018L137.641 147.896L137.29 147.949L136.697 147.976L136.13 147.922L135.78 147.949L135.402 147.922L134.458 147.976L133.001 147.922L132.408 147.976L132.03 148.164L131.869 148.485V148.834L131.842 149.584L131.788 149.906L131.761 150.281L131.788 150.656L131.734 151.406L131.707 152.505L131.68 152.88V153.255L131.599 154.059L131.572 154.434L131.491 154.783L131.437 155.212L131.275 155.989L131.14 156.31L130.817 156.98L130.628 157.275L130.061 157.811L129.738 157.945L129.495 158.293V158.856L129.792 159.526L129.953 160.035L130.088 160.384L130.412 160.705L130.817 160.812Z" fill="#E52E2A"/>
<path d="M146.954 161L147.575 160.946L148.06 160.812L148.842 160.705L149.948 160.089L150.542 159.419L150.758 159.017L151.216 158.347L151.54 157.489L151.675 156.685L151.783 156.283V155.828L151.836 155.372L151.863 154.917L151.917 154.354L151.863 153.657V153.255L151.81 152.827V152.344L151.513 151.058L151.351 150.709L151.243 150.334L151.027 149.932L150.892 149.477L150.326 148.86L149.625 148.378L149.22 148.137L148.869 147.976L148.438 147.896L147.629 147.735L146.307 147.708L145.471 147.815L145.039 147.976L144.689 148.19L144.257 148.324L143.933 148.539L143.61 148.86L143.313 149.262L143.043 149.504L142.639 150.227L142.288 151.111L142.153 151.942L142.099 152.425L141.991 152.853L142.018 153.228L141.937 154.327L142.018 154.97L141.991 155.399L142.072 155.828L142.126 156.257L142.207 156.766L142.315 157.195L142.423 157.57L142.504 157.999L142.72 158.347L142.854 158.803L143.367 159.472L143.664 159.794L143.987 160.089L144.311 160.276L144.689 160.41L145.093 160.625L145.471 160.759L146.091 160.866L146.954 161ZM146.927 158.025L146.334 157.945L145.983 157.731L145.741 157.382L145.579 156.98L145.498 156.551L145.471 156.176L145.336 155.694L145.255 155.372L145.309 154.89L145.255 154.3L145.363 153.255V152.827L145.552 151.915L145.579 151.54L146.064 150.951L146.334 150.736L146.9 150.602L147.467 150.709L147.844 150.87L148.249 151.674L148.357 152.076L148.519 152.478V152.853L148.573 153.309L148.546 154.381V155.426L148.492 155.801V156.31L148.384 156.685L148.249 157.087L147.791 157.838L147.494 157.972L146.927 158.025Z" fill="#E52E2A"/>
<path d="M155.825 160.732L156.985 160.652L158.873 160.678L160.222 160.571L160.599 160.41L160.95 160.33L161.301 160.169L161.624 159.955L162.38 159.124L162.568 158.803L162.73 158.427L162.838 158.079L162.946 157.302L163 156.712L162.946 156.096L162.757 155.346L162.622 155.024L162.38 154.676L162.11 154.408L161.813 154.193L161.678 153.845L161.786 153.496L162.056 153.175L162.434 152.478L162.541 152.103L162.595 151.728L162.649 151.111L162.622 150.522L162.568 150.2L162.461 149.852L162.056 149.236L161.813 148.914L161.543 148.7L161.22 148.539L160.518 148.217L159.952 148.137L159.386 148.003L159.035 147.976L158.442 147.949L157.713 147.976L157.12 147.922L156.796 147.949L156.419 147.922L156.014 147.976L155.097 147.922H154.557L154.153 147.949L153.748 148.137L153.613 148.539V149.262L153.559 149.638L153.613 150.415L153.559 150.736L153.613 153.014L153.586 153.336V153.952L153.559 154.327L153.586 154.676V156.016L153.613 156.525L153.559 159.044L153.613 160.169L153.775 160.464L154.342 160.652L154.935 160.705H155.501L155.825 160.732ZM158.091 152.987L157.471 152.961L157.093 152.773L156.904 152.398L156.85 152.049L156.904 151.728L156.877 150.977L157.093 150.656L157.471 150.575L158.63 150.629L158.981 150.843L159.224 151.165L159.332 151.755L159.251 152.291L159.008 152.666L158.684 152.907L158.091 152.987ZM158.469 158.079L157.39 158.025L157.066 157.865L156.877 157.516L156.85 157.141L156.904 156.337L156.877 155.962L157.039 155.56L157.39 155.346L157.794 155.426L158.819 155.453L159.143 155.64L159.44 155.855L159.574 156.23L159.655 156.739L159.601 157.302L159.44 157.623L159.17 157.865L158.846 157.999L158.469 158.079Z" fill="#E52E2A"/>
</svg>
