<svg width="124" height="73" viewBox="0 0 124 73" fill="none" xmlns="http://www.w3.org/2000/svg">
<path d="M84.5014 12.5375C82.8775 13.5633 81.376 16.3832 80.7813 17.6032C80.6633 17.8396 80.5958 17.9789 80.5958 17.9789C80.5958 17.9789 80.5662 18.0422 80.5283 18.1393C80.5199 18.1604 80.5114 18.1773 80.5114 18.1773C80.5114 18.1773 80.5114 18.1858 80.5072 18.1942C80.4524 18.3504 80.3891 18.553 80.406 18.6881C80.4608 19.1778 80.891 19.7139 82.4811 18.7176C84.0079 17.751 84.7544 16.417 87.5381 14.3907C88.3099 13.8208 88.5124 13.348 88.525 12.9766C88.5672 11.7819 86.1505 11.4949 84.5014 12.5375Z" fill="white"/>
<path d="M78.1621 22.4873C75.7791 20.9085 69.3134 17.4006 61.1311 19.1778C56.9261 20.0896 50.4604 22.8884 45.4455 28.3677C45.4498 28.3762 45.4076 28.4099 45.4076 28.4099C45.4076 28.4099 44.1338 29.7186 44.0031 30.4953C43.9145 30.8795 44.2519 31.3649 44.7918 30.871C45.1629 30.47 45.7703 29.8959 46.6054 29.2289C47.8243 28.1482 48.5835 27.7345 50.0049 26.8902C62.7549 19.3466 69.0013 24.1548 73.8517 24.8724C74.3747 24.9315 75.5809 25.0117 76.454 24.6867C77.3102 24.3659 78.3815 23.7622 78.4869 23.4118C78.5502 23.2008 78.5923 22.8082 78.1621 22.4873Z" fill="white"/>
<path d="M70.8403 14.8719C71.1355 15.2181 71.861 15.6444 73.1937 14.1458C74.3958 12.8034 75.1423 11.5624 77.1289 8.91133C77.5844 8.23591 77.597 7.76733 77.3524 7.47184C76.8041 6.53891 73.8095 6.90195 72.5316 8.32456C70.8951 10.1524 70.6927 14.3991 70.7095 14.4287C70.718 14.6102 70.7601 14.7791 70.8403 14.8719Z" fill="white"/>
<path d="M47.3477 20.2669C47.6008 20.5117 48.0437 20.6933 48.3853 20.6679C48.845 20.6342 49.5789 20.2965 49.3511 18.7261C49.0728 16.8222 48.689 14.9268 47.4911 13.1243C46.2216 11.212 43.2482 13.3945 43.206 15.045C43.2018 15.2857 43.206 15.5178 43.3114 15.7331C43.8639 16.8476 46.3566 19.3129 47.3477 20.2669Z" fill="white"/>
<path d="M59.153 15.3828C59.2205 15.6698 59.4651 15.8851 59.7604 15.902C60.2327 15.9273 60.916 15.8049 61.245 14.9733C61.3083 14.758 61.3167 14.7791 61.4137 14.2472C61.6372 12.9935 62.2994 10.372 62.3795 8.07977C62.4639 5.77912 58.5372 6.83868 58.2167 8.53568C58.1872 8.70032 58.1703 8.90294 58.1703 9.12668C58.0775 10.7435 58.862 14.1755 59.153 15.3828Z" fill="white"/>
<path d="M41.6201 26.1008C40.6796 25.2819 39.3173 23.8339 37.297 22.4831C36.095 21.6853 34.8718 22.4409 34.3446 23.4118C33.9229 24.0703 33.8554 24.902 34.4374 25.5056C35.3653 26.3372 38.4526 27.287 39.9373 27.705C40.435 27.8443 41.0086 27.9118 41.3038 27.8696C41.7677 27.8105 42.5438 27.1857 42.0461 26.5272C42.0166 26.4934 41.8648 26.3161 41.6201 26.1008Z" fill="white"/>
<path d="M25.1669 36.2238C25.1332 36.1351 25.0952 36.0507 25.0573 35.9663C25.0446 35.9325 25.0362 35.8945 25.0235 35.8607C24.3318 34.0751 22.999 33.6487 21.3541 33.8471C19.6713 34.0497 18.0686 34.9151 16.5291 36.6628C16.1622 37.0849 15.7994 37.5577 15.4536 38.077C15.3988 38.1403 15.3439 38.2078 15.2891 38.2754C14.9264 38.7482 14.5974 39.2505 14.3022 39.774C13.3447 41.129 12.3494 42.4165 11.4257 44.0038L11.6028 43.2608L13.4797 35.9916C13.5008 35.8945 13.6484 35.3499 13.6822 35.1811C13.6062 35.1769 13.5219 35.1811 13.4333 35.1853V35.1811C12.5687 35.1431 10.7804 35.3035 10.1267 37.41L6.07767 53.8143C6.03549 53.9705 5.96801 54.1773 5.90053 54.3588C5.90053 54.3588 5.90053 54.3588 5.90475 54.3588L5.90053 54.3673C5.85835 54.5277 6.07767 54.7177 6.07767 54.7177C6.07767 54.7177 6.2759 54.7219 6.38556 54.7134C8.51128 54.5488 9.18189 53.2148 9.42652 52.493L9.7808 50.9648C10.6918 48.5375 11.5522 47.2078 12.3114 45.9034C12.2397 46.4015 12.1807 46.8912 12.1596 47.3598C12.1258 48.0648 12.1301 48.6726 12.1764 49.1876C12.206 50.0108 12.3536 50.7664 12.6362 51.4208C12.7205 51.674 12.8175 51.9147 12.9399 52.1384C13.7496 53.6539 15.1077 53.8269 16.3899 53.6708C17.7944 53.5019 19.6038 52.8518 21.409 50.7369C22.6954 49.2214 24.2812 46.5451 25.1754 42.1337C25.555 40.3185 25.846 37.9588 25.1669 36.2238ZM21.9067 42.4883C21.6325 43.5732 20.7341 46.8743 19.3296 49.0821C18.2077 50.8255 17.1871 51.2814 16.5038 51.3068C15.9344 51.3237 15.559 51.0788 15.3313 50.6187C15.268 50.395 15.2216 50.1332 15.2005 49.8462C15.1499 49.1581 15.1584 47.8452 15.8669 45.0718C16.2465 43.5859 17.263 39.9301 18.853 37.8026C19.6544 36.7388 20.4052 36.1984 21.274 36.1689C21.8139 36.152 22.2145 36.3335 22.4676 36.8274C22.4971 36.9287 22.5224 37.0385 22.5477 37.1567C22.8219 38.7102 22.1597 41.5005 21.9067 42.4883Z" fill="white"/>
<path d="M36.9681 38.4695C36.8584 38.1782 36.7108 37.9503 36.5632 37.7561C36.1119 37.1735 35.5678 36.9245 34.7749 37.0216C33.7247 37.1482 32.6238 37.7265 31.5905 38.6299C31.0211 39.1196 30.5023 39.6937 30.03 40.2889C30.4686 39.3264 31.1392 38.1402 32.0671 37.2453C33.0119 36.3208 34.041 35.8565 34.9731 35.4512L37.2759 34.4465C38.9546 33.408 39.486 31.196 39.1149 30.3771C39.1149 30.3349 39.1149 30.4024 39.1149 30.3644C39.0347 30.3855 38.963 30.4151 38.9082 30.4362L34.1844 32.3443C32.375 33.0788 30.0342 34.552 28.132 38.2711C27.124 40.234 26.3521 42.5431 25.8081 44.886C25.3441 46.8616 24.9898 49.3185 25.8587 50.7706C25.9557 50.931 26.0653 51.0577 26.1708 51.1801C26.9173 52.0539 27.7735 52.3156 28.7942 52.189C31.523 51.8555 33.4336 49.7279 34.4037 48.3982C35.7745 46.4817 36.6517 44.0924 37.0145 42.0619C37.2253 40.8883 37.3392 39.4109 36.9681 38.4695ZM33.4674 43.0075C33.227 44.4892 32.6281 46.2664 31.9279 47.4653C31.2193 48.7106 30.1734 49.7153 29.372 49.8166C29.0852 49.8546 28.7942 49.8081 28.6255 49.5971C28.5664 49.5253 28.5453 49.4282 28.5158 49.3311C28.3387 48.7908 28.4104 47.7988 28.5833 46.8701C28.8406 45.4897 29.5407 43.3874 30.9579 41.6313C31.7128 40.7111 32.3581 40.2636 32.9149 40.1918C33.13 40.1623 33.3282 40.1707 33.4336 40.2889C33.5096 40.3818 33.5306 40.4873 33.5602 40.6477C33.6909 41.3696 33.5644 42.4038 33.4674 43.0075Z" fill="white"/>
<path d="M108.757 36.4855C113.009 35.8143 115.029 33.2308 115.387 30.4447C115.565 29.0685 115.223 28.3424 114.818 27.8527C114.173 27.0718 113.245 26.9663 112.511 27.0549C111.393 27.19 110.259 27.6079 108.968 29.0432C107.517 30.6515 106.214 33.2181 105.763 36.667C105.602 37.8701 105.413 39.871 106.408 41.0741C107.155 41.9775 108.39 42.5052 109.702 42.2772C109.829 42.2561 109.959 42.2435 110.082 42.2181C110.752 42.0408 112.882 41.3021 113.561 39.0816C113.637 38.8368 113.772 38.2585 113.675 38.0812C113.595 38.1023 113.35 38.1234 113.35 38.1234C113.021 38.3978 112.591 38.6722 112.022 38.9297C110.335 39.6937 109.331 39.6389 108.905 39.107C108.331 38.3893 108.66 37.0976 108.707 36.8612C108.724 36.743 108.736 36.6206 108.757 36.4855ZM110.018 31.6267C110.811 29.6637 111.608 29.3049 112.106 29.2796C112.271 29.2711 112.427 29.2838 112.507 29.3767C112.844 29.7693 112.688 30.5418 112.646 30.8795C112.448 32.4161 111.722 33.3617 110.828 33.9695C110.242 34.3621 109.656 34.5605 109.128 34.6618C109.339 33.6825 109.656 32.53 110.018 31.6267Z" fill="white"/>
<path d="M46.7109 48.1829L49.2584 35.3583C49.2627 35.3499 49.2627 35.3372 49.2627 35.3246C49.2669 35.3077 49.2711 35.2908 49.2711 35.2824C49.3175 35.0839 49.347 35.0164 49.4229 34.932L49.0602 34.9784C49.056 34.9784 49.0518 34.9784 49.0475 34.9826L48.6848 35.0248C48.6722 35.0248 48.6595 35.0248 48.6427 35.0248L47.6515 35.1473C46.3651 35.4259 45.9729 36.2828 45.8632 36.6416L45.8379 36.7725L45.8337 36.7767H45.8379L45.6228 37.8152C45.2685 39.5586 43.9905 42.5389 43.0078 44.2148C42.6578 44.8016 41.5612 46.9967 40.9285 47.0727C40.8695 47.0811 40.8231 47.0727 40.7809 47.0642C40.7471 46.8447 40.7893 46.5408 40.861 46.2284L42.8475 36.5868C42.8855 36.401 42.9909 35.8733 43.0078 35.7551C42.8982 35.772 42.7674 35.7889 42.6198 35.7974C42.5481 35.8016 42.4806 35.8142 42.4131 35.8227C42.3709 35.8269 42.3288 35.8311 42.2866 35.8354C40.279 35.9958 39.5282 37.0764 39.3047 37.8321L37.335 47.7017C37.2169 48.3096 37.1157 49.2298 37.3392 49.8884C37.5543 50.5384 38.0309 51.0535 39.039 50.931C40.1609 50.796 41.0803 50.0572 42.0209 48.9005C42.9235 47.7945 43.7164 46.22 44.252 45.0633L43.8261 47.136C43.7586 47.6088 43.8092 48.4235 44.2858 49.0272C44.6358 49.4747 45.1378 49.8926 46.2934 49.7364C46.2934 49.7364 46.2934 49.7364 46.2976 49.7364C46.4705 49.7068 46.6013 49.6688 46.6224 49.6393C46.4579 49.462 46.7152 48.1787 46.7109 48.1829Z" fill="white"/>
<path d="M68.4825 43.6238C68.4783 43.6154 68.4783 43.6112 68.4783 43.6027C68.1409 43.8813 67.7023 44.1557 67.1244 44.4174C65.4121 45.1857 64.3998 45.1309 63.9781 44.5947C63.4129 43.8729 63.7672 42.5727 63.822 42.3321C63.8347 42.2097 63.8515 42.083 63.8768 41.9522C68.1704 41.2767 70.2624 38.6679 70.6715 35.8607C70.874 34.4761 70.545 33.7458 70.1443 33.2477C69.5074 32.4625 68.5711 32.3569 67.8288 32.4456C66.6985 32.5807 65.547 33.0028 64.2227 34.4465C62.7296 36.0675 61.3673 38.6553 60.8485 42.1252C60.6672 43.341 60.4647 45.3335 61.4179 46.5661C61.4559 46.6126 61.6246 46.8405 61.6836 46.9038C62.5567 47.879 63.7419 47.9254 64.7204 47.7777C64.8511 47.7566 64.9776 47.7439 65.1042 47.7186C65.7832 47.5371 67.9427 46.7941 68.6723 44.561C68.7525 44.3204 68.9338 43.7674 68.8664 43.5689L68.4825 43.6238ZM65.2307 37.0596C66.0658 35.084 66.8756 34.7209 67.3817 34.6914C67.5504 34.6829 67.7023 34.6956 67.7866 34.7927C68.1198 35.1895 67.8963 36.0169 67.8457 36.3546C67.6137 37.8996 66.922 38.8114 66.011 39.4193C65.4121 39.8119 64.8174 40.0145 64.2859 40.1159C64.5095 39.1238 64.8511 37.9672 65.2307 37.0596Z" fill="white"/>
<path d="M80.0391 44.1051L82.2871 31.7322C82.2871 31.7195 82.2914 31.7111 82.2914 31.6984C82.2956 31.6816 82.2956 31.6647 82.2998 31.6562C82.439 31.0568 82.4854 31.0188 82.5571 30.9301L82.1817 30.9724C82.1817 30.9724 82.1817 30.9724 82.1817 30.9681L81.6924 31.0272L81.2116 31.0821C81.2074 31.0821 81.2032 31.0863 81.199 31.0863L80.7983 31.137C79.5203 31.4114 79.145 32.2683 79.0395 32.6229L79.0142 32.7538L78.8202 33.788C78.4912 35.523 77.2597 38.4864 76.3065 40.1454C75.9648 40.7322 74.9062 42.9104 74.282 42.9906C74.2229 42.9991 74.1765 42.9949 74.1344 42.9864C74.0964 42.7669 74.1344 42.4672 74.2018 42.1548L76.045 32.568C76.0829 32.3823 76.1757 31.8631 76.1926 31.7491C76.0956 31.7618 75.9859 31.7744 75.8594 31.7871V31.7829C75.7497 31.7998 75.6232 31.8124 75.4714 31.8251C73.4764 31.9855 72.7805 33.1168 72.5358 33.8134L70.7138 43.6323C70.6379 44.0502 70.5535 44.6201 70.5999 45.1478C70.6337 46.0554 71.0006 46.9334 72.3587 46.8617C73.4722 46.8026 74.4676 45.9794 75.3912 44.8312C76.2685 43.7294 77.0403 42.1633 77.5549 41.0108L77.1627 43.0751C77.0994 43.5436 77.1627 44.3542 77.6435 44.9578C77.9978 45.4011 78.5039 45.8148 79.6469 45.6628C79.6469 45.6628 79.6469 45.6628 79.6511 45.6628C79.8198 45.6332 79.9505 45.5952 79.9716 45.5699C79.8029 45.38 80.0433 44.1009 80.0391 44.1051Z" fill="white"/>
<path d="M61.0594 33.9442C61.0679 33.8893 61.0763 33.8344 61.0805 33.7838L61.1185 33.5811L60.7853 33.6234V33.6149L56.5507 34.1257C54.3196 34.5689 53.4001 35.9705 53.0205 37.3255L52.8096 38.0643C52.4343 39.6093 51.7004 42.2097 51.2828 43.3452C50.7641 44.7847 50.2453 45.6543 49.8826 46.0638C49.8784 46.0638 49.8784 46.0638 49.8741 46.068C49.8193 46.144 49.7223 46.2411 49.5789 46.3635C49.4903 46.4437 49.406 46.5028 49.3301 46.5492C48.7058 46.9672 48.1533 46.9334 47.8243 46.849C47.74 47.1867 47.6472 47.6975 47.7105 48.1745C47.7105 48.1745 47.7526 48.4067 47.7737 48.4826C47.8918 48.8963 48.2166 49.2087 48.2841 49.2847C48.6426 49.69 49.7054 49.9601 50.8231 49.3438C51.2533 49.0779 51.3714 48.9259 51.5654 48.7275C52.468 47.7861 53.0374 46.5746 53.4339 45.6037C53.843 44.6201 54.7835 41.969 55.7241 38.2922L55.9223 37.4944C55.9307 37.4733 55.9392 37.4479 55.9518 37.4268C56.0868 36.9836 56.5212 36.0211 57.7401 35.8902C57.7233 35.9578 57.7106 36.0211 57.6937 36.0886L57.7654 35.7594L55.6439 45.9836C55.6439 45.9836 55.5427 46.4353 55.5258 46.6463C55.4879 47.0558 55.5975 47.3977 55.8886 47.7692C56.1627 48.1196 56.5803 48.4784 57.5292 48.4024C57.7696 48.3813 58.4403 48.2969 58.4782 48.242C58.3854 48.1407 58.4276 47.6764 58.4824 47.2964L61.0594 33.9442Z" fill="white"/>
<path d="M94.0249 29.5455C94.0207 29.5413 93.8393 29.5624 93.6959 29.5793L92.7216 29.6975C91.4353 29.9761 91.0683 30.8457 90.9755 31.1919L90.2163 35.3879L86.8928 35.789L87.7532 31.0694C87.7954 30.8373 87.8713 30.3391 87.8713 30.3391C87.8713 30.3391 87.5803 30.3603 87.5676 30.3603C87.555 30.3603 87.5465 30.3645 87.5381 30.3645C87.5212 30.3645 87.4833 30.3645 87.4327 30.3729C87.42 30.3729 87.4116 30.3729 87.4031 30.3729C84.5014 30.6051 84.3622 32.9015 84.3622 32.9015C84.3622 32.9015 84.358 32.8973 84.3495 32.8931L82.1648 44.8523C82.0678 45.2618 81.9286 45.4179 81.9286 45.4179L83.6705 45.2027L83.6663 45.1984L83.7127 45.1942C84.8472 44.9072 85.404 44.2782 85.5642 43.3284L86.3445 38.9212L89.6765 38.516L88.7359 43.7167C88.6938 43.9531 88.5799 44.409 88.5799 44.409C88.5799 44.409 88.5461 44.523 88.4365 44.6159C88.5377 44.6074 89.1197 44.5315 89.2463 44.523C91.2708 44.3753 91.7811 43.4719 91.9836 42.8176L92.0806 42.2688V42.2561H92.0848L94.3497 29.5075C94.337 29.5118 94.1599 29.5286 94.0249 29.5455Z" fill="white"/>
<path d="M74.3493 29.4695C74.9145 30.4953 75.7918 30.6431 76.1587 30.6642C76.2937 30.6726 76.4751 30.6684 76.6859 30.6389C76.6944 30.6389 76.8968 30.6051 77.0107 30.5924C77.2216 30.5671 77.4915 30.5038 77.8247 30.4151C78.3098 30.2843 78.7948 30.0985 79.2883 29.8579C79.7817 29.6173 80.233 29.3302 80.6506 28.9925C81.0681 28.6548 81.4351 28.2664 81.7514 27.8148C82.0677 27.3673 82.2744 26.8649 82.3503 26.2951C82.3587 26.2317 82.3629 26.1093 82.3629 25.9151C82.3629 25.7252 82.2955 25.6196 82.1689 25.5901C82.0466 25.5605 81.7387 25.6028 81.3802 25.9025C80.8235 26.2824 80.3385 26.6117 79.9125 26.8818C79.4823 27.152 79.0099 27.4222 78.4785 27.705C77.947 27.9878 77.4114 28.2116 76.8546 28.3804C76.7323 28.4184 76.5763 28.4564 76.378 28.4986C76.184 28.5451 75.9942 28.5535 75.8171 28.5366C75.64 28.5197 75.4755 28.4564 75.3321 28.3551C75.1887 28.2538 75.1001 28.0849 75.0663 27.8443C75.041 27.667 75.0621 27.4348 75.1338 27.1562C75.1296 27.1182 75.117 27.0718 75.0917 27.0127C75.0706 26.9578 75.0242 26.9452 74.944 26.9789C74.8639 27.0085 74.6868 27.2195 74.4253 27.6206C74.1595 28.0174 74.0878 28.486 74.1891 29.0136C74.2144 29.1614 74.2692 29.3134 74.3493 29.4695Z" fill="white"/>
<path d="M101.33 28.5113C98.2974 28.6717 95.4463 31.7997 94.4172 37.03C93.8815 39.7402 94.2949 41.4372 95.1089 42.4503C95.7584 43.2524 96.6104 43.6787 97.7449 43.6196C100.896 43.4465 103.768 40.2087 104.746 35.122C105.269 32.4118 104.856 30.7148 104.033 29.6933C103.371 28.8785 102.498 28.448 101.33 28.5113ZM101.456 34.9362C100.562 40.4916 99.1747 41.4456 98.3101 41.492C98.057 41.5047 97.8335 41.4667 97.7027 41.3105C97.108 40.5929 97.4497 38.8368 97.6479 37.6464C98.5589 32.0404 99.8538 30.6642 100.912 30.6093C101.153 30.5966 101.372 30.6304 101.494 30.7824C102.119 31.5296 101.693 33.4756 101.456 34.9362Z" fill="white"/>
<path fill-rule="evenodd" clip-rule="evenodd" d="M116.754 24.3321C116.029 24.3321 115.442 24.9146 115.442 25.6323C115.442 26.3499 116.029 26.9325 116.754 26.9325C117.48 26.9325 118.066 26.3499 118.066 25.6323C118.066 24.9146 117.48 24.3321 116.754 24.3321ZM116.754 26.7003C116.159 26.7003 115.679 26.2191 115.679 25.6323C115.679 25.0413 116.159 24.5643 116.754 24.5643C117.349 24.5643 117.83 25.0413 117.83 25.6323C117.83 26.2233 117.349 26.7003 116.754 26.7003Z" fill="white"/>
<path fill-rule="evenodd" clip-rule="evenodd" d="M116.273 26.3077V24.961H116.843C116.982 24.961 117.087 25.0032 117.155 25.0877C117.205 25.151 117.226 25.2354 117.226 25.3452C117.226 25.4212 117.214 25.4929 117.18 25.552C117.142 25.6238 117.087 25.666 117.016 25.6787V25.6913C117.079 25.6956 117.125 25.7209 117.146 25.7589C117.163 25.7884 117.167 25.8391 117.167 25.9066V25.9615V26.0164C117.167 26.0924 117.172 26.1515 117.18 26.1937C117.188 26.2359 117.205 26.2739 117.226 26.3161H116.944C116.931 26.295 116.923 26.2739 116.914 26.2486C116.91 26.2274 116.91 26.1979 116.91 26.1683L116.902 25.9742C116.902 25.9193 116.889 25.8813 116.864 25.856C116.838 25.8306 116.796 25.8222 116.737 25.8222H116.556V26.3203H116.273V26.3077ZM116.556 25.2228V25.5647H116.767C116.817 25.5647 116.851 25.5562 116.872 25.5394C116.91 25.514 116.927 25.4634 116.927 25.3958C116.927 25.3283 116.914 25.2819 116.885 25.2607C116.859 25.2354 116.817 25.2228 116.758 25.2228H116.556Z" fill="white"/>
<path d="M21.2192 64.4859C21.0969 64.3762 20.692 64.1862 20.633 63.9161C20.5106 63.3757 20.9662 63.2449 21.4217 63.1942C22.59 63.0718 23.7583 62.9536 24.9223 62.8016C25.3947 62.7425 25.8502 62.8058 25.8629 63.3208C25.8671 63.553 25.4285 63.9583 25.1417 64.0047C23.9354 64.2116 22.7081 64.3171 21.2192 64.4859Z" fill="white"/>
<path d="M102.14 53.7467C102.684 53.7129 103.203 53.6285 103.236 54.2786C103.27 54.8949 102.777 54.9371 102.317 54.9878C101.174 55.106 100.031 55.2199 98.8921 55.3592C98.4197 55.4183 97.96 55.3424 97.981 54.8147C97.9895 54.5698 98.4408 54.1941 98.736 54.1435C99.8959 53.9493 101.068 53.8649 102.14 53.7467Z" fill="white"/>
<path d="M33.1426 60.5178C32.9738 60.4503 32.8009 60.4123 32.6153 60.4038C32.434 60.3954 32.2358 60.3996 32.0207 60.425C31.7802 60.4545 31.5441 60.5474 31.3121 60.712C31.0801 60.8766 30.8734 61.0793 30.6836 61.3199C30.4938 61.5647 30.3462 61.8391 30.2324 62.1515C30.1185 62.4597 30.0594 62.772 30.051 63.0844C30.0426 63.4812 30.1353 63.7767 30.3251 63.9583C30.5192 64.144 30.7764 64.2158 31.097 64.1778C31.3669 64.1482 31.6158 64.0807 31.8435 63.9794C32.0713 63.878 32.2779 63.7725 32.4593 63.6543L32.7461 64.6041C32.4593 64.8236 32.1261 65.0178 31.7465 65.1825C31.3669 65.3471 30.9915 65.4526 30.6204 65.4948C30.1944 65.5455 29.8359 65.5328 29.5407 65.4568C29.2454 65.3809 29.0092 65.2627 28.8279 65.0938C28.6465 64.9292 28.5115 64.7308 28.4314 64.4986C28.347 64.2664 28.3091 64.0174 28.3133 63.7514C28.326 63.0971 28.4483 62.4977 28.6718 61.9573C28.8953 61.417 29.1864 60.9484 29.5449 60.5516C29.9034 60.1548 30.3083 59.8382 30.7596 59.5933C31.2109 59.3485 31.6706 59.2007 32.143 59.1459C32.5605 59.0952 32.8895 59.0952 33.1299 59.1374C33.3703 59.1796 33.5896 59.2303 33.7836 59.2936L33.1426 60.5178Z" fill="white"/>
<path d="M42.7294 53.6201L38.2671 56.8916L39.1865 58.4451L40.9369 57.2631L39.5999 62.4259L37.491 62.6707L36.9216 64.9249L43.6488 64.1482L44.2182 61.8898L42.1642 62.1304L44.3912 53.4259L42.7294 53.6201Z" fill="white"/>
<path d="M53.708 55.7814C53.7207 55.2073 53.6405 54.7049 53.4676 54.2913C53.2905 53.8733 53.0416 53.5314 52.7253 53.2739C52.409 53.0164 52.0336 52.8433 51.6034 52.7547C51.19 52.6702 50.743 52.6576 50.2622 52.7125C49.6379 52.7842 49.0475 52.9446 48.5118 53.181C47.9719 53.4216 47.4954 53.734 47.0862 54.1097C46.6729 54.4897 46.3397 54.9413 46.1035 55.4521C45.8631 55.9671 45.7324 56.5328 45.7197 57.1365C45.7071 57.6641 45.7872 58.1158 45.9601 58.4831C46.133 58.8546 46.365 59.1501 46.6434 59.3611C46.9217 59.5722 47.2381 59.7157 47.5924 59.7875C47.9298 59.855 48.2672 59.8719 48.6004 59.8339C49.1023 59.7748 49.5451 59.6735 49.9163 59.53C49.9163 59.5342 49.9121 59.5342 49.9079 59.5384C49.6126 59.8973 49.2626 60.235 48.8619 60.5431C48.4612 60.8555 48.0015 61.1383 47.5038 61.3916C47.0019 61.6407 46.462 61.8475 45.9011 62.0037L45.6522 62.0713L45.745 64.1144L46.1035 64.0511C46.6139 63.9624 47.1622 63.802 47.7273 63.5783C48.2967 63.3503 48.8661 63.0591 49.4144 62.7087C49.9627 62.3583 50.4983 61.9404 51.0087 61.4676C51.519 60.9948 51.9745 60.4629 52.3626 59.8846C52.7548 59.3063 53.0754 58.6646 53.3158 57.985C53.5604 57.3053 53.6954 56.5581 53.708 55.7814ZM51.1816 56.1951C51.1816 56.2711 51.1647 56.3893 51.1352 56.5581C51.1141 56.6848 51.093 56.7903 51.0719 56.8747C50.9032 57.0309 50.6755 57.1702 50.3971 57.2884C50.0766 57.4277 49.7265 57.5164 49.3596 57.5586C49.2077 57.5755 49.0685 57.5713 48.9378 57.5502C48.8239 57.5291 48.7185 57.4911 48.6257 57.4235C48.5371 57.3602 48.4696 57.2758 48.419 57.1618C48.3642 57.0436 48.3389 56.8705 48.3431 56.651C48.3515 56.3851 48.4022 56.1487 48.4992 55.946C48.5962 55.7434 48.7227 55.5703 48.8788 55.431C49.0432 55.2833 49.2162 55.1735 49.4186 55.0933C49.6253 55.0089 49.8404 54.954 50.0639 54.9287C50.1525 54.9202 50.2326 54.916 50.3043 54.916C50.7388 54.9202 50.8737 55.0975 50.9243 55.1609C51.1015 55.4015 51.19 55.7476 51.1816 56.1951Z" fill="white"/>
<path d="M58.5204 51.7837L54.0623 55.0595L54.9818 56.613L56.7279 55.431L55.3909 60.5938L53.282 60.8386L52.7126 63.0928L59.4441 62.3119L60.0135 60.0577L57.9552 60.2941L60.1864 51.5938L58.5204 51.7837Z" fill="white"/>
<path d="M69.6255 50.6651L63.1556 51.4165L62.5609 53.675L65.4078 53.3415L63.0206 55.925L62.62 57.4531L64.2016 57.2674C65.0325 57.1703 65.3446 57.28 65.4585 57.356C65.5217 57.3982 65.7115 57.5206 65.6989 58.0188C65.6947 58.2003 65.6483 58.3902 65.5639 58.5844C65.4838 58.7744 65.353 58.9517 65.1801 59.1121C64.9987 59.281 64.771 59.4287 64.4968 59.5511C64.2269 59.6735 63.8937 59.7622 63.5141 59.8044C63.1345 59.8466 62.8055 59.8508 62.523 59.8171C62.2488 59.7833 62.021 59.7242 61.8397 59.6398L61.574 59.5173L60.3044 61.7547L60.6376 61.894C60.9371 62.0206 61.3336 62.0924 61.8397 62.1135C61.9493 62.1177 62.0632 62.1219 62.1729 62.1219C62.544 62.1262 62.9152 62.1051 63.2779 62.0628C64.0708 61.97 64.7836 61.7927 65.3994 61.5309C66.0194 61.265 66.5508 60.9357 66.9768 60.5431C67.407 60.1463 67.7402 59.682 67.9638 59.1712C68.1873 58.6646 68.3054 58.1159 68.318 57.5375C68.3265 57.0774 68.259 56.6848 68.1114 56.3724C67.9638 56.0558 67.7697 55.8025 67.5336 55.6126C67.3058 55.4268 67.0485 55.2917 66.7659 55.2158C66.6732 55.1904 66.5804 55.1693 66.4918 55.1524L69.2206 52.227L69.6255 50.6651Z" fill="white"/>
<path d="M76.1376 59.5849C75.8508 59.8044 75.505 59.9986 75.1085 60.159C74.7121 60.3236 74.3282 60.4249 73.9529 60.4671C73.5269 60.5178 73.1684 60.5136 72.8774 60.4587C72.5863 60.4038 72.3502 60.311 72.1688 60.1801C71.9874 60.0492 71.8567 59.893 71.7765 59.7115C71.6964 59.53 71.6585 59.3358 71.6627 59.1332C71.6711 58.7659 71.7639 58.4535 71.941 58.196C72.1182 57.9385 72.3375 57.719 72.599 57.5333C72.8605 57.3518 73.1389 57.1956 73.4383 57.0689C73.7378 56.9423 74.0161 56.8199 74.2734 56.7017C74.5307 56.5835 74.75 56.4653 74.9229 56.3429C75.1001 56.2204 75.1887 56.0727 75.1929 55.8996C75.1971 55.7181 75.1423 55.5957 75.0284 55.5366C74.9145 55.4732 74.7289 55.4606 74.4717 55.4901C74.071 55.5366 73.7462 55.6083 73.4847 55.7054C73.2274 55.8025 73.0039 55.9038 72.8141 56.0094L72.637 54.9414C72.7804 54.8527 72.9491 54.7767 73.1389 54.7007C73.3287 54.629 73.5311 54.5614 73.7462 54.4981C73.9613 54.4348 74.1764 54.3799 74.3915 54.3335C74.6108 54.287 74.8091 54.2575 74.9989 54.2322C75.3531 54.1899 75.6526 54.1899 75.893 54.2322C76.1334 54.2744 76.3316 54.3461 76.4793 54.4517C76.6269 54.5572 76.7323 54.6881 76.7956 54.8443C76.8589 55.0005 76.8884 55.1735 76.8842 55.3593C76.8757 55.7434 76.7829 56.0642 76.6058 56.3217C76.4287 56.5793 76.2093 56.803 75.9478 56.9887C75.6863 57.1745 75.408 57.3307 75.1085 57.4615C74.8091 57.5882 74.5307 57.7148 74.2734 57.833C74.0161 57.9554 73.7968 58.0821 73.6197 58.2214C73.4425 58.3607 73.354 58.5253 73.3497 58.7111C73.3455 58.9179 73.4257 59.0614 73.5901 59.1543C73.7589 59.2429 73.9697 59.2767 74.227 59.2472C74.5265 59.2134 74.8175 59.1416 75.1001 59.0361C75.3827 58.9306 75.6104 58.8166 75.7918 58.6899L76.1376 59.5849Z" fill="white"/>
<path d="M77.0739 58.0483C77.0866 57.432 77.2005 56.8579 77.4113 56.326C77.6222 55.7941 77.8964 55.3297 78.238 54.9329C78.5796 54.5361 78.9719 54.211 79.4147 53.962C79.8576 53.7129 80.3173 53.561 80.7982 53.5019C81.2241 53.4512 81.5826 53.4681 81.8694 53.5525C82.1605 53.6369 82.3924 53.7636 82.5696 53.9367C82.7467 54.1097 82.8733 54.3166 82.945 54.5614C83.0209 54.802 83.0546 55.0553 83.0462 55.3213C83.0335 55.9292 82.9239 56.499 82.7172 57.0267C82.5105 57.5544 82.2406 58.0145 81.9032 58.4113C81.57 58.8081 81.182 59.1332 80.7433 59.3822C80.3047 59.6313 79.845 59.7833 79.3684 59.8382C78.9508 59.8888 78.5965 59.8677 78.3097 59.7791C78.0187 59.6904 77.7825 59.5638 77.5969 59.3865C77.4113 59.2134 77.2764 59.0108 77.192 58.7744C77.1077 58.5422 77.0655 58.2973 77.0739 58.0483ZM78.7652 57.6599C78.7484 58.3691 79.0309 58.6899 79.6045 58.6224C79.8196 58.5971 80.0263 58.4915 80.233 58.3016C80.4396 58.1116 80.6252 57.8752 80.7939 57.5882C80.9584 57.3011 81.0934 56.9845 81.1946 56.6341C81.2958 56.2837 81.3507 55.9418 81.3591 55.6041C81.3675 55.2875 81.3085 55.0553 81.1946 54.8991C81.0807 54.7429 80.8572 54.6838 80.5282 54.7218C80.3173 54.7472 80.1065 54.8485 79.8998 55.03C79.6931 55.2115 79.5075 55.4395 79.343 55.7139C79.1786 55.9883 79.0436 56.2964 78.9382 56.6383C78.8285 56.9803 78.7737 57.3222 78.7652 57.6599Z" fill="white"/>
<path d="M86.8633 52.9615C87.1037 52.9319 87.2935 52.9319 87.4327 52.953C87.5719 52.9784 87.6984 53.0121 87.8038 53.0628L87.8713 53.0544C87.8292 52.5056 87.5887 52.1256 87.1459 51.9061C86.703 51.6866 86.1336 51.6233 85.4335 51.712L85.7245 50.5933C87.0362 50.4118 88.0021 50.5806 88.6179 51.1041C89.2336 51.6275 89.5289 52.4549 89.5036 53.5778C89.4825 54.439 89.3644 55.1946 89.1493 55.8574C88.93 56.5201 88.6432 57.0816 88.2889 57.5417C87.9346 58.0018 87.5339 58.3649 87.0826 58.6266C86.6355 58.8883 86.1716 59.0487 85.695 59.1036C84.8894 59.1965 84.299 59.0529 83.9194 58.673C83.544 58.2931 83.3626 57.7443 83.3795 57.0351C83.3921 56.5412 83.4807 56.0642 83.6579 55.6041C83.8308 55.1439 84.0712 54.726 84.3833 54.3503C84.6912 53.9746 85.0581 53.6622 85.4757 53.4174C85.8932 53.1726 86.3572 53.0206 86.8633 52.9615ZM87.8038 54.3292C87.6815 54.249 87.5508 54.1941 87.4158 54.1646C87.2809 54.135 87.1037 54.1308 86.8928 54.1561C86.6609 54.1815 86.4415 54.2659 86.2264 54.4052C86.0113 54.5445 85.8173 54.7302 85.6486 54.9666C85.4799 55.203 85.3449 55.4817 85.2395 55.8025C85.1341 56.1233 85.0792 56.4821 85.0708 56.8747C85.0623 57.1744 85.1256 57.4277 85.2606 57.6346C85.3913 57.8414 85.6064 57.9301 85.8975 57.8963C86.2264 57.8583 86.5048 57.719 86.741 57.4741C86.9772 57.2293 87.1712 56.938 87.323 56.5877C87.4749 56.2415 87.593 55.8658 87.6731 55.4648C87.749 55.0595 87.7954 54.6796 87.8038 54.3292Z" fill="white"/>
<path d="M95.1215 55.5112C95.0414 55.8152 94.9866 56.1233 94.9486 56.4315C94.9106 56.7397 94.8896 57.0309 94.8811 57.3053C94.8811 57.4151 94.8811 57.5164 94.8811 57.6135C94.8811 57.7106 94.8853 57.8035 94.8938 57.8879L93.6833 58.0272L93.5188 57.0394L93.464 57.0436C93.3628 57.1956 93.232 57.3475 93.0759 57.5037C92.9157 57.6599 92.7428 57.8035 92.5572 57.9385C92.3674 58.0736 92.1691 58.1876 91.9583 58.2763C91.7474 58.3649 91.5323 58.424 91.313 58.4493C90.7267 58.5169 90.3007 58.3987 90.0266 58.0947C89.7566 57.7908 89.6259 57.3602 89.6385 56.7945C89.6512 56.2247 89.744 55.6674 89.9211 55.1271C90.0983 54.5868 90.3598 54.0929 90.7183 53.6581C91.0725 53.219 91.5154 52.8518 92.0468 52.552C92.5783 52.2523 93.2067 52.0624 93.9364 51.9779C94.2485 51.9399 94.5859 51.9273 94.9528 51.9357C95.3198 51.9442 95.674 51.9695 96.0199 52.0159L95.1215 55.5112ZM91.9667 57.1871C92.127 57.1702 92.2788 57.1238 92.418 57.0478C92.5614 56.9718 92.6921 56.879 92.8145 56.7734C92.9368 56.6637 93.0422 56.5497 93.1392 56.4315C93.2362 56.3091 93.3206 56.1993 93.3923 56.0938L94.1177 53.2697C94.0207 53.2444 93.9111 53.2275 93.7803 53.219C93.6538 53.2148 93.5272 53.219 93.4007 53.2317C93.0802 53.2697 92.7976 53.3879 92.5445 53.5821C92.2915 53.7805 92.0764 54.0253 91.8992 54.3166C91.7221 54.6079 91.5829 54.9287 91.4859 55.2833C91.3889 55.6337 91.3383 55.984 91.3298 56.3302C91.3256 56.5835 91.3678 56.7945 91.4564 56.9676C91.5534 57.1407 91.7179 57.2125 91.9667 57.1871Z" fill="white"/>
</svg>
